<svg version="1.1" xmlns="http://www.w3.org/2000/svg" xmlns:xlink="http://www.w3.org/1999/xlink" width="1804" height="1021"><defs><radialGradient id="fJKITUqReLkF" cx="231.91143484112214px" cy="94.89949838388792px" r="40px" fx="231.91143484112214px" fy="94.89949838388792px" gradientUnits="userSpaceOnUse"><stop offset="0" stop-color="rgb(255,204,0)" stop-opacity="1"/><stop offset="0.2" stop-color="rgb(251,216,79)" stop-opacity="1"/><stop offset="0.4" stop-color="rgb(247,228,158)" stop-opacity="1"/><stop offset="0.6" stop-color="rgb(243,240,236)" stop-opacity="1"/><stop offset="0.8" stop-color="rgb(255,255,255)" stop-opacity="1"/><stop offset="1" stop-color="rgb(255,255,255)" stop-opacity="1"/></radialGradient><radialGradient id="gticbTWIZgGl" cx="-73.5091979684143px" cy="-21.890897683812966px" r="40px" fx="-73.5091979684143px" fy="-21.890897683812966px" gradientUnits="userSpaceOnUse"><stop offset="0" stop-color="rgb(102,102,102)" stop-opacity="1"/><stop offset="0.2" stop-color="rgb(148,148,148)" stop-opacity="1"/><stop offset="0.4" stop-color="rgb(194,194,194)" stop-opacity="1"/><stop offset="0.6" stop-color="rgb(241,241,241)" stop-opacity="1"/><stop offset="0.8" stop-color="rgb(255,255,255)" stop-opacity="1"/><stop offset="1" stop-color="rgb(255,255,255)" stop-opacity="1"/></radialGradient><radialGradient id="naWRJGFmPCKP" cx="539.016595824185px" cy="-51.198099969900504px" r="40px" fx="539.016595824185px" fy="-51.198099969900504px" gradientUnits="userSpaceOnUse"><stop offset="0" stop-color="rgb(0,102,0)" stop-opacity="1"/><stop offset="0.2" stop-color="rgb(78,149,78)" stop-opacity="1"/><stop offset="0.4" stop-color="rgb(156,196,156)" stop-opacity="1"/><stop offset="0.6" stop-color="rgb(235,243,235)" stop-opacity="1"/><stop offset="0.8" stop-color="rgb(255,255,255)" stop-opacity="1"/><stop offset="1" stop-color="rgb(255,255,255)" stop-opacity="1"/></radialGradient><radialGradient id="atGIhmFgrpxm" cx="28.985128860876053px" cy="199.81858916976535px" r="40px" fx="28.985128860876053px" fy="199.81858916976535px" gradientUnits="userSpaceOnUse"><stop offset="0" stop-color="rgb(255,0,0)" stop-opacity="1"/><stop offset="0.2" stop-color="rgb(251,80,80)" stop-opacity="1"/><stop offset="0.4" stop-color="rgb(247,160,160)" stop-opacity="1"/><stop offset="0.6" stop-color="rgb(243,240,240)" stop-opacity="1"/><stop offset="0.8" stop-color="rgb(255,255,255)" stop-opacity="1"/><stop offset="1" stop-color="rgb(255,255,255)" stop-opacity="1"/></radialGradient><radialGradient id="lpqTTmlsLVaz" cx="137.41166469806825px" cy="-27.98264407153346px" r="1px" fx="137.41166469806825px" fy="-27.98264407153346px" gradientUnits="userSpaceOnUse"><stop offset="0" stop-color="rgb(255,119,0)" stop-opacity="1"/><stop offset="0" stop-color="rgb(255,255,255)" stop-opacity="1"/></radialGradient><radialGradient id="ZbVkHcMVuPUi" cx="314.2152492712592px" cy="-24.759619340093145px" r="1px" fx="314.2152492712592px" fy="-24.759619340093145px" gradientUnits="userSpaceOnUse"><stop offset="0" stop-color="rgb(153,204,255)" stop-opacity="1"/><stop offset="0" stop-color="rgb(255,255,255)" stop-opacity="1"/></radialGradient><radialGradient id="hgIPXpFmfbbX" cx="232.50916305581654px" cy="-91.752515342456px" r="1px" fx="232.50916305581654px" fy="-91.752515342456px" gradientUnits="userSpaceOnUse"><stop offset="0" stop-color="rgb(0,204,255)" stop-opacity="1"/><stop offset="0" stop-color="rgb(255,255,255)" stop-opacity="1"/></radialGradient><radialGradient id="QLnHPrnFsteS" cx="38.99076540084171px" cy="88.98520982737953px" r="1px" fx="38.99076540084171px" fy="88.98520982737953px" gradientUnits="userSpaceOnUse"><stop offset="0" stop-color="rgb(51,102,102)" stop-opacity="1"/><stop offset="0" stop-color="rgb(255,255,255)" stop-opacity="1"/></radialGradient><radialGradient id="WIPAQyyGbgEw" cx="93.75445548146328px" cy="19.001700637218683px" r="1px" fx="93.75445548146328px" fy="19.001700637218683px" gradientUnits="userSpaceOnUse"><stop offset="0" stop-color="rgb(102,102,102)" stop-opacity="1"/><stop offset="0" stop-color="rgb(255,255,255)" stop-opacity="1"/></radialGradient><radialGradient id="CVleLWTORwWG" cx="400.7177215690559px" cy="5.72170225244011px" r="1px" fx="400.7177215690559px" fy="5.72170225244011px" gradientUnits="userSpaceOnUse"><stop offset="0" stop-color="rgb(153,51,0)" stop-opacity="1"/><stop offset="0" stop-color="rgb(255,255,255)" stop-opacity="1"/></radialGradient><radialGradient id="NFUHcBEKcTOp" cx="-83.89759357768645px" cy="156.86753323035086px" r="1px" fx="-83.89759357768645px" fy="156.86753323035086px" gradientUnits="userSpaceOnUse"><stop offset="0" stop-color="rgb(204,0,51)" stop-opacity="1"/><stop offset="0" stop-color="rgb(255,255,255)" stop-opacity="1"/></radialGradient><radialGradient id="bbSpIoxDSdUP" cx="142.682494472509px" cy="126.07944972494911px" r="1px" fx="142.682494472509px" fy="126.07944972494911px" gradientUnits="userSpaceOnUse"><stop offset="0" stop-color="rgb(204,0,51)" stop-opacity="1"/><stop offset="0" stop-color="rgb(255,255,255)" stop-opacity="1"/></radialGradient><radialGradient id="RpzWyVRXsmZn" cx="-51.75425806795415px" cy="265.26685588043324px" r="1px" fx="-51.75425806795415px" fy="265.26685588043324px" gradientUnits="userSpaceOnUse"><stop offset="0" stop-color="rgb(255,0,0)" stop-opacity="1"/><stop offset="0" stop-color="rgb(255,255,255)" stop-opacity="1"/></radialGradient><radialGradient id="veRwqeyLMNFK" cx="373.7730903657999px" cy="147.0951994107139px" r="1px" fx="373.7730903657999px" fy="147.0951994107139px" gradientUnits="userSpaceOnUse"><stop offset="0" stop-color="rgb(255,227,77)" stop-opacity="1"/><stop offset="0" stop-color="rgb(255,255,255)" stop-opacity="1"/></radialGradient><radialGradient id="BnaxXoQgGUVI" cx="132.87094682054257px" cy="255.56947460137746px" r="90px" fx="132.87094682054257px" fy="255.56947460137746px" gradientUnits="userSpaceOnUse"><stop offset="0" stop-color="rgb(204,0,51)" stop-opacity="1"/><stop offset="0.6222222222222222" stop-color="rgb(255,255,255)" stop-opacity="1"/></radialGradient></defs><g transform="translate(574.0053692581182,386.0564015024176) scale(1.5633635831696082,1.5633635831696082)"><path fill="none" stroke="rgb(216,216,216)" paint-order="fill stroke markers" d=" M 213.030959531676 101.49704732947323 L 144.33453606208553 125.50216419221039" stroke-opacity="1" stroke-linejoin="round" stroke-miterlimit="10" stroke-width="0.5" stroke-dasharray="6,8"/><path fill="rgb(216,216,216)" stroke="none" paint-order="stroke fill markers" d=" M 150.1685521605575 118.85560446835551 L 143.39051229661322 125.83204163948966 L 153.0384859518871 127.06861122796458 Z" fill-opacity="1"/><path fill="none" stroke="rgb(216,216,216)" paint-order="fill stroke markers" d=" M 242.65465722414172 111.76909152744025 L 319.27300367389995 232.07939376804921" stroke-opacity="1" stroke-linejoin="round" stroke-miterlimit="10" stroke-width="3.73" stroke-dasharray="6,8"/><path fill="rgb(216,216,216)" stroke="none" paint-order="stroke fill markers" d=" M 313.5762160171272 232.55381390285328 L 323.28022562276624 238.37175201059426 L 322.11217034557563 227.11778146143843 Z" fill-opacity="1"/><path fill="none" stroke="rgb(216,216,216)" paint-order="fill stroke markers" d=" M 251.762764370728 97.33357231600229 Q 318.7812962239244 105.55106027363031 372.3767588437179 146.04032582566205" stroke-opacity="1" stroke-linejoin="round" stroke-miterlimit="10" stroke-width="0.5" stroke-dasharray="6,8"/><path fill="rgb(216,216,216)" stroke="none" paint-order="stroke fill markers" d=" M 363.5716271009225 145.09578731088385 L 373.1746625706219 146.64311073140595 L 368.6507000252199 138.03228830333322 Z" fill-opacity="1"/><path fill="none" stroke="rgb(216,216,216)" paint-order="fill stroke markers" d=" M -71.71495052598148 -1.9715433741139847 L -68.87100057983191 29.60138535169851" stroke-opacity="1" stroke-linejoin="round" stroke-miterlimit="10" stroke-width="5" stroke-dasharray="6,8"/><path fill="rgb(216,216,216)" stroke="none" paint-order="stroke fill markers" d=" M -75.71609546681854 27.031267337900182 L -67.97387685861551 39.561062506548005 L -62.59537188861907 25.849410518796887 Z" fill-opacity="1"/><path fill="none" stroke="rgb(216,216,216)" paint-order="fill stroke markers" d=" M 539.246273213924 -31.199418805967646 L 539.657992822586 4.65021006662495" stroke-opacity="1" stroke-linejoin="round" stroke-miterlimit="10" stroke-width="0.86" stroke-dasharray="6,8"/><path fill="rgb(216,216,216)" stroke="none" paint-order="stroke fill markers" d=" M 535.2281222604117 -2.2793748273193835 L 539.6777450781036 6.370096646723169 L 543.9275485667225 -2.3792844918558593 Z" fill-opacity="1"/><path fill="none" stroke="rgb(216,216,216)" paint-order="fill stroke markers" d=" M 13.448498294254826 212.41275887786168 L -50.394802893374795 264.1648660309748" stroke-opacity="1" stroke-linejoin="round" stroke-miterlimit="10" stroke-width="0.5" stroke-dasharray="6,8"/><path fill="rgb(216,216,216)" stroke="none" paint-order="stroke fill markers" d=" M -47.15243203673656 255.93689354511758 L -51.17163442170585 264.7945745163796 L -41.67396821371467 262.6953278415978 Z" fill-opacity="1"/><path fill="none" stroke="rgb(216,216,216)" paint-order="fill stroke markers" d=" M 48.93345862733953 201.25530052853824 Q 78.51569814422903 203.38586183514482 97.34346178658848 221.46140653585712" stroke-opacity="1" stroke-linejoin="round" stroke-miterlimit="10" stroke-width="2" stroke-dasharray="6,8"/><path fill="rgb(216,216,216)" stroke="none" paint-order="stroke fill markers" d=" M 90.88286442023208 221.53655044336776 L 100.2289428045746 224.23160495742223 L 96.77733938521267 215.13770954151553 Z" fill-opacity="1"/><path fill="none" stroke="rgb(216,216,216)" paint-order="fill stroke markers" d=" M 137.8688719122497 -27.388117736287967 L 219.10963284404153 78.25276099701411" stroke-opacity="1" stroke-linejoin="round" stroke-miterlimit="10" stroke-width="0.5" stroke-dasharray="6,8"/><path fill="rgb(216,216,216)" stroke="none" paint-order="stroke fill markers" d=" M 210.96738603402144 74.80075913074612 L 219.71924246295015 79.04546277734143 L 217.86389152286918 69.4971554462413 Z" fill-opacity="1"/><path fill="none" stroke="rgb(216,216,216)" paint-order="fill stroke markers" d=" M 313.79021880980224 -24.14167993624055 L 244.09564140288768 77.1852354734468" stroke-opacity="1" stroke-linejoin="round" stroke-miterlimit="10" stroke-width="0.75" stroke-dasharray="6,8"/><path fill="rgb(216,216,216)" stroke="none" paint-order="stroke fill markers" d=" M 244.5918852905292 68.78784052001164 L 243.2455804799738 78.421114281152 L 251.75998237521932 73.71819387291211 Z" fill-opacity="1"/><path fill="none" stroke="rgb(216,216,216)" paint-order="fill stroke markers" d=" M -74.30018450394222 -93.1240767193851 L -73.84230304048276 -51.889048310325975" stroke-opacity="1" stroke-linejoin="round" stroke-miterlimit="10" stroke-width="5" stroke-dasharray="6,8"/><path fill="rgb(216,216,216)" stroke="none" paint-order="stroke fill markers" d=" M -80.46405990516719 -54.989559016920246 L -73.73126801645994 -41.88966476815497 L -67.29102775067207 -55.135834828379934 Z" fill-opacity="1"/><path fill="none" stroke="rgb(216,216,216)" paint-order="fill stroke markers" d=" M 232.50676129302056 -91.00251918810888 L 231.97868419941003 73.89960606216853" stroke-opacity="1" stroke-linejoin="round" stroke-miterlimit="10" stroke-width="0.5" stroke-dasharray="6,8"/><path fill="rgb(216,216,216)" stroke="none" paint-order="stroke fill markers" d=" M 227.6533646022356 66.18571531998796 L 231.97548184901535 74.89960093463135 L 236.3533199926622 66.2135757684215 Z" fill-opacity="1"/><path fill="none" stroke="rgb(216,216,216)" paint-order="fill stroke markers" d=" M 541.5526761373105 -114.5253786886425 L 539.8857243826706 -72.90070385857766" stroke-opacity="1" stroke-linejoin="round" stroke-miterlimit="10" stroke-width="0.86" stroke-dasharray="6,8"/><path fill="rgb(216,216,216)" stroke="none" paint-order="stroke fill markers" d=" M 535.8185139969654 -80.04917919800577 L 539.816898364227 -71.18208145118702 L 544.511545941325 -79.70104759308754 Z" fill-opacity="1"/><path fill="none" stroke="rgb(165,165,165)" paint-order="fill stroke markers" d=" M 39.740413214282455 89.0081914679539 L 210.92129606478085 94.25601244780543" stroke-opacity="1" stroke-linejoin="round" stroke-miterlimit="10" stroke-width="0.5" stroke-dasharray="6,8"/><path fill="rgb(165,165,165)" stroke="none" paint-order="stroke fill markers" d=" M 203.09161833145774 98.36802492253159 L 211.9208264827019 94.28665463523794 L 203.35820536212046 89.67211028661879 Z" fill-opacity="1"/><path fill="none" stroke="rgb(50,50,50)" paint-order="fill stroke markers" d=" M 94.41179522109385 19.362816223565233 L 213.50592213146598 84.78826196618485" stroke-opacity="1" stroke-linejoin="round" stroke-miterlimit="10" stroke-width="0.5" stroke-dasharray="6,8"/><path fill="rgb(50,50,50)" stroke="none" paint-order="stroke fill markers" d=" M 204.66276373711548 84.89337910288441 L 214.3823751176401 85.2697494146469 L 208.8517045387353 77.2682381231697 Z" fill-opacity="1"/><path fill="none" stroke="rgb(0,0,0)" paint-order="fill stroke markers" d=" M 400.0545718521777 6.072034170775069 L 250.47962691371404 85.09020467050897" stroke-opacity="1" stroke-linejoin="round" stroke-miterlimit="10" stroke-width="0.5" stroke-dasharray="6,8"/><path fill="rgb(0,0,0)" stroke="none" paint-order="stroke fill markers" d=" M 255.25603888065496 77.64719528437598 L 249.59542729120966 85.55731389495558 L 259.3198891333405 85.33973200016405 Z" fill-opacity="1"/><path fill="none" stroke="rgb(196,196,196)" paint-order="fill stroke markers" d=" M -83.19662064614852 157.13424833913012 L 9.357886777814286 192.35056612394598" stroke-opacity="1" stroke-linejoin="round" stroke-miterlimit="10" stroke-width="0.5" stroke-dasharray="6,8"/><path fill="rgb(196,196,196)" stroke="none" paint-order="stroke fill markers" d=" M 0.6142837164385764 193.67793401006548 L 10.292517353198178 192.706186268985 L 3.708178978278033 185.5466480042256 Z" fill-opacity="1"/><path fill="none" stroke="rgb(216,216,216)" paint-order="fill stroke markers" d=" M 539.215756426792 7.046778414506605 L 48.62981347519025 192.39657014498997" stroke-opacity="1" stroke-linejoin="round" stroke-miterlimit="10" stroke-width="0.5" stroke-dasharray="6,8"/><path fill="rgb(216,216,216)" stroke="none" paint-order="stroke fill markers" d=" M 54.29544627387817 185.60590707055962 L 47.69435230308005 192.7499996223602 L 57.3702827269994 193.74441926791835 Z" fill-opacity="1"/><path fill="none" stroke="rgb(191,191,191)" paint-order="fill stroke markers" d=" M 539.2027640739495 7.007560788583163 L 252.10179827481534 89.12461964789819" stroke-opacity="1" stroke-linejoin="round" stroke-miterlimit="10" stroke-width="0.5" stroke-dasharray="6,3"/><path fill="rgb(191,191,191)" stroke="none" paint-order="stroke fill markers" d=" M 258.3087066528097 82.82487454296073 L 251.14035239702042 89.39961387342149 L 260.7011564148626 91.18945367977645 Z" fill-opacity="1"/><path fill="none" stroke="rgb(216,216,216)" paint-order="fill stroke markers" d=" M 142.05324696969146 126.48755213880854 L 46.60405893976717 188.39172158170146" stroke-opacity="1" stroke-linejoin="round" stroke-miterlimit="10" stroke-width="0.5" stroke-dasharray="6,8"/><path fill="rgb(216,216,216)" stroke="none" paint-order="stroke fill markers" d=" M 50.69733930164259 180.55223461640296 L 45.76506226934379 188.93585813351402 L 55.43132730241192 187.85150564908642 Z" fill-opacity="1"/><path fill="none" stroke="rgb(50,50,50)" paint-order="fill stroke markers" d=" M -67.43717952704267 40.14900350731678 L 208.30305985654664 90.58155551862562" stroke-opacity="1" stroke-linejoin="round" stroke-miterlimit="10" stroke-width="2" stroke-dasharray="6,8"/><path fill="rgb(50,50,50)" stroke="none" paint-order="stroke fill markers" d=" M 202.89712594440516 94.01497634013273 L 212.23778902064257 91.30121266283601 L 204.46238023306273 85.45694040822411 Z" fill-opacity="1"/><path fill="none" stroke="rgb(216,216,216)" paint-order="fill stroke markers" d=" M -67.66969334470681 40.48653827887048 L 16.537417124178603 179.29897726992462" stroke-opacity="1" stroke-linejoin="round" stroke-miterlimit="10" stroke-width="2" stroke-dasharray="6,8"/><path fill="rgb(216,216,216)" stroke="none" paint-order="stroke fill markers" d=" M 10.380560585562558 177.53670102514891 L 18.61203574696151 182.71891258656476 L 17.818919899254816 173.02440552059608 Z" fill-opacity="1"/><path fill="none" stroke="rgb(216,216,216)" paint-order="fill stroke markers" d=" M 373.0243574245492 147.0516220922323 Q 304.9691876990589 143.09071474856304 249.44119923545844 106.46268826726609" stroke-opacity="1" stroke-linejoin="round" stroke-miterlimit="10" stroke-width="0.5"/><path fill="rgb(216,216,216)" stroke="none" paint-order="stroke fill markers" d=" M 258.28905817331776 106.8391906337215 L 248.60644855001385 105.91206017758142 L 253.67430995908413 114.2144261499086 Z" fill-opacity="1"/><path fill="none" stroke="rgb(216,216,216)" paint-order="fill stroke markers" d=" M 88.71220757903119 245.69181047466196 Q 60.346401678553676 239.3467945575152 42.03730886430547 216.26974709734228" stroke-opacity="1" stroke-linejoin="round" stroke-miterlimit="10" stroke-width="0.5" stroke-dasharray="6,8"/><path fill="rgb(216,216,216)" stroke="none" paint-order="stroke fill markers" d=" M 50.33779633564479 219.36064071969875 L 41.41577648318979 215.4863586246005 L 43.6695627185842 224.94854376362346 Z" fill-opacity="1"/><path fill="url(#fJKITUqReLkF)" stroke="none" paint-order="stroke fill markers" d=" M 251.91143484112214 94.89949838388792 L 251.8497815157847 96.46868029844481 L 251.6652016530249 98.02818768469254 L 251.35883324907567 99.56840566100603 L 250.93256516702522 101.07983827138686 L 250.38902549134787 102.55316703118972 L 249.73156532488952 103.97930837867885 L 248.964238128204 105.34946967820689 L 248.0917747286211 106.65520342973738 L 247.11955415312275 107.88845935049159 L 246.0535704648531 109.04163400761887 L 244.90039580772583 110.10761769588854 L 243.6671398869716 111.07983827138686 L 242.36140613544111 111.95230167096976 L 240.99124483591308 112.71962886765527 L 239.56510348842394 113.37708903411365 L 238.0917747286211 113.92062870979099 L 236.58034211824025 114.34689679184144 L 235.04012414192675 114.65326519579068 L 233.48061675567905 114.83784505855047 L 231.91143484112214 114.89949838388792 L 230.34225292656524 114.83784505855047 L 228.78274554031753 114.65326519579068 L 227.24252756400404 114.34689679184144 L 225.7310949536232 113.92062870979099 L 224.25776619382034 113.37708903411365 L 222.8316248463312 112.71962886765527 L 221.46146354680317 111.95230167096976 L 220.1557297952727 111.07983827138686 L 218.92247387451846 110.10761769588854 L 217.7692992173912 109.04163400761887 L 216.70331552912154 107.88845935049159 L 215.7310949536232 106.65520342973738 L 214.8586315540403 105.3494696782069 L 214.09130435735477 103.97930837867885 L 213.43384419089642 102.55316703118972 L 212.89030451521907 101.07983827138686 L 212.46403643316862 99.56840566100603 L 212.1576680292194 98.02818768469254 L 211.97308816645958 96.46868029844482 L 211.91143484112214 94.89949838388792 L 211.97308816645958 93.33031646933102 L 212.1576680292194 91.77080908308331 L 212.46403643316862 90.23059110676981 L 212.89030451521907 88.71915849638897 L 213.43384419089642 87.24582973658612 L 214.09130435735477 85.81968838909698 L 214.8586315540403 84.44952708956895 L 215.7310949536232 83.14379333803845 L 216.7033155291215 81.91053741728425 L 217.7692992173912 80.75736276015697 L 218.92247387451846 79.6913790718873 L 220.1557297952727 78.71915849638897 L 221.46146354680317 77.84669509680607 L 222.8316248463312 77.07936790012056 L 224.25776619382037 76.42190773366218 L 225.73109495362323 75.87836805798483 L 227.24252756400406 75.45209997593437 L 228.78274554031756 75.14573157198515 L 230.3422529265653 74.96115170922535 L 231.9114348411222 74.89949838388792 L 233.4806167556791 74.96115170922536 L 235.04012414192684 75.14573157198518 L 236.58034211824034 75.4520999759344 L 238.0917747286212 75.87836805798487 L 239.56510348842403 76.42190773366222 L 240.9912448359132 77.07936790012062 L 242.36140613544123 77.84669509680614 L 243.6671398869717 78.71915849638904 L 244.90039580772594 79.6913790718874 L 246.0535704648532 80.75736276015708 L 247.11955415312286 81.91053741728436 L 248.0917747286212 83.14379333803859 L 248.96423812820407 84.44952708956909 L 249.73156532488957 85.81968838909715 L 250.38902549134795 87.2458297365863 L 250.93256516702527 88.71915849638917 L 251.35883324907573 90.23059110677002 L 251.66520165302495 91.77080908308352 L 251.8497815157847 93.33031646933125 Z"/><text fill="rgb(0,0,0)" stroke="none" font-family="Helvetica Neue, Helvetica, sans-serif" font-size="16px" font-style="normal" font-weight="normal" text-decoration="normal" x="231.91143484112214" y="102.89949838388792" text-anchor="middle" dominant-baseline="text-after-edge" fill-opacity="1">Powerline</text><path fill="url(#gticbTWIZgGl)" stroke="none" paint-order="stroke fill markers" d=" M -53.5091979684143 -21.890897683812966 L -53.570851293751744 -20.321715769256066 L -53.75543115651154 -18.76220838300835 L -54.06179956046077 -17.221990406694857 L -54.488067642511226 -15.710557796314017 L -55.03160731818856 -14.23722903651117 L -55.68906748464694 -12.811087689022031 L -56.456394681332455 -11.44092638949399 L -57.32885808091535 -10.135192637963502 L -58.30107865641368 -8.901936717209292 L -59.36706234468335 -7.748762060082015 L -60.52023700181063 -6.682778371812347 L -61.75349292256483 -5.710557796314017 L -63.05922667409532 -4.8380943967311225 L -64.42938797362336 -4.0707672000456085 L -65.8555293211125 -3.4133070335872304 L -67.32885808091535 -2.869767357909897 L -68.84029069129619 -2.443499275859434 L -70.38050866760967 -2.137130871910209 L -71.94001605385739 -1.9525510091504081 L -73.5091979684143 -1.890897683812966 L -75.07837988297119 -1.9525510091504081 L -76.63788726921891 -2.137130871910209 L -78.17810524553241 -2.443499275859434 L -79.68953785591324 -2.8697673579098932 L -81.1628666157161 -3.4133070335872304 L -82.58900796320523 -4.0707672000456085 L -83.95916926273327 -4.838094396731119 L -85.26490301426375 -5.710557796314017 L -86.49815893501797 -6.682778371812347 L -87.65133359214525 -7.748762060082015 L -88.71731728041492 -8.90193671720929 L -89.68953785591324 -10.1351926379635 L -90.56200125549614 -11.440926389493988 L -91.32932845218166 -12.81108768902203 L -91.98678861864003 -14.237229036511168 L -92.53032829431737 -15.710557796314017 L -92.95659637636783 -17.221990406694857 L -93.26296478031705 -18.762208383008346 L -93.44754464307685 -20.321715769256066 L -93.5091979684143 -21.890897683812963 L -93.44754464307685 -23.460079598369862 L -93.26296478031705 -25.019586984617582 L -92.95659637636783 -26.55980496093107 L -92.53032829431737 -28.07123757131191 L -91.98678861864003 -29.54456633111476 L -91.32932845218166 -30.9707076786039 L -90.56200125549614 -32.34086897813194 L -89.68953785591324 -33.646602729662426 L -88.71731728041492 -34.87985865041664 L -87.65133359214525 -36.03303330754392 L -86.49815893501798 -37.09901699581358 L -85.26490301426377 -38.07123757131191 L -83.95916926273327 -38.94370097089481 L -82.58900796320522 -39.71102816758033 L -81.16286661571607 -40.36848833403871 L -79.68953785591322 -40.912028009716046 L -78.17810524553236 -41.33829609176651 L -76.63788726921887 -41.64466449571573 L -75.07837988297113 -41.829244358475535 L -73.50919796841423 -41.890897683812966 L -71.94001605385732 -41.82924435847552 L -70.3805086676096 -41.64466449571571 L -68.8402906912961 -41.33829609176648 L -67.32885808091525 -40.91202800971601 L -65.8555293211124 -40.36848833403866 L -64.42938797362325 -39.71102816758027 L -63.059226674095214 -38.94370097089474 L -61.753492922564725 -38.07123757131183 L -60.520237001810514 -37.099016995813486 L -59.367062344683234 -36.0330333075438 L -58.30107865641357 -34.879858650416516 L -57.328858080915246 -33.64660272966229 L -56.456394681332355 -32.34086897813179 L -55.689067484646856 -30.97070767860373 L -55.031607318188485 -29.544566331114577 L -54.48806764251116 -28.071237571311716 L -54.06179956046071 -26.55980496093086 L -53.755431156511506 -25.019586984617362 L -53.57085129375172 -23.46007959836963 Z"/><text fill="rgb(0,0,0)" stroke="none" font-family="Helvetica Neue, Helvetica, sans-serif" font-size="16px" font-style="normal" font-weight="normal" text-decoration="normal" x="-73.5091979684143" y="-13.890897683812966" text-anchor="middle" dominant-baseline="text-after-edge" fill-opacity="1">Hard Coal Supply Line</text><path fill="url(#naWRJGFmPCKP)" stroke="none" paint-order="stroke fill markers" d=" M 559.016595824185 -51.198099969900504 L 558.9549424988475 -49.628918055343604 L 558.7703626360877 -48.06941066909589 L 558.4639942321385 -46.529192692782395 L 558.037726150088 -45.01776008240156 L 557.4941864744106 -43.54443132259871 L 556.8367263079523 -42.11828997510957 L 556.0693991112668 -40.748128675581526 L 555.1969357116839 -39.442394924051044 L 554.2247151361855 -38.209139003296826 L 553.1587314479159 -37.05596434616955 L 552.0055567907887 -35.989980657899885 L 550.7723008700344 -35.01776008240155 L 549.4665671185039 -34.14529668281866 L 548.0964058189759 -33.377969486133146 L 546.6702644714867 -32.72050931967477 L 545.1969357116839 -32.17696964399744 L 543.6855031013031 -31.750701561946972 L 542.1452851249895 -31.444333157997747 L 540.5857777387419 -31.259753295237946 L 539.016595824185 -31.198099969900504 L 537.447413909628 -31.259753295237946 L 535.8879065233804 -31.444333157997747 L 534.3476885470668 -31.750701561946972 L 532.836255936686 -32.17696964399743 L 531.3629271768832 -32.72050931967477 L 529.936785829394 -33.377969486133146 L 528.566624529866 -34.14529668281865 L 527.2608907783355 -35.01776008240155 L 526.0276348575812 -35.989980657899885 L 524.874460200454 -37.05596434616955 L 523.8084765121844 -38.209139003296826 L 522.836255936686 -39.44239492405104 L 521.9637925371031 -40.748128675581526 L 521.1964653404176 -42.11828997510957 L 520.5390051739593 -43.544431322598705 L 519.9954654982819 -45.01776008240155 L 519.5691974162314 -46.529192692782395 L 519.2628290122822 -48.06941066909589 L 519.0782491495224 -49.628918055343604 L 519.016595824185 -51.198099969900504 L 519.0782491495224 -52.767281884457404 L 519.2628290122822 -54.32678927070512 L 519.5691974162314 -55.867007247018606 L 519.9954654982819 -57.37843985739945 L 520.5390051739593 -58.851768617202296 L 521.1964653404176 -60.27790996469144 L 521.9637925371031 -61.64807126421948 L 522.836255936686 -62.953805015749964 L 523.8084765121844 -64.18706093650417 L 524.874460200454 -65.34023559363145 L 526.0276348575812 -66.40621928190112 L 527.2608907783355 -67.37843985739946 L 528.566624529866 -68.25090325698235 L 529.936785829394 -69.01823045366787 L 531.3629271768832 -69.67569062012625 L 532.836255936686 -70.21923029580358 L 534.3476885470669 -70.64549837785404 L 535.8879065233804 -70.95186678180326 L 537.4474139096282 -71.13644664456307 L 539.0165958241851 -71.19809996990051 L 540.585777738742 -71.13644664456305 L 542.1452851249896 -70.95186678180325 L 543.6855031013032 -70.64549837785401 L 545.196935711684 -70.21923029580354 L 546.6702644714868 -69.6756906201262 L 548.096405818976 -69.0182304536678 L 549.466567118504 -68.25090325698228 L 550.7723008700345 -67.37843985739937 L 552.0055567907888 -66.40621928190103 L 553.158731447916 -65.34023559363135 L 554.2247151361856 -64.18706093650405 L 555.196935711684 -62.95380501574983 L 556.0693991112669 -61.648071264219325 L 556.8367263079524 -60.27790996469127 L 557.4941864744108 -58.85176861720211 L 558.0377261500881 -57.37843985739926 L 558.4639942321385 -55.8670072470184 L 558.7703626360877 -54.3267892707049 L 558.9549424988476 -52.76728188445717 Z"/><text fill="rgb(0,0,0)" stroke="none" font-family="Helvetica Neue, Helvetica, sans-serif" font-size="16px" font-style="normal" font-weight="normal" text-decoration="normal" x="539.016595824185" y="-43.198099969900504" text-anchor="middle" dominant-baseline="text-after-edge" fill-opacity="1">Biogas Line</text><path fill="url(#atGIhmFgrpxm)" stroke="none" paint-order="stroke fill markers" d=" M 48.98512886087605 199.81858916976535 L 48.923475535538614 201.38777108432225 L 48.73889567277881 202.94727847056996 L 48.43252726882959 204.48749644688345 L 48.00625918677912 205.9989290572643 L 47.46271951110179 207.47225781706715 L 46.80525934464341 208.89839916455628 L 46.0379321479579 210.26856046408432 L 45.165468748375005 211.5742942156148 L 44.19324817287667 212.80755013636903 L 43.127264484607004 213.9607247934963 L 41.97408982747973 215.02670848176598 L 40.74083390672551 215.9989290572643 L 39.43510015519503 216.8713924568472 L 38.06493885566699 217.6387196535327 L 36.63879750817785 218.2961798199911 L 35.165468748375005 218.83971949566842 L 33.65403613799416 219.26598757771887 L 32.11381816168067 219.5723559816681 L 30.554310775432953 219.75693584442791 L 28.985128860876053 219.81858916976535 L 27.415946946319156 219.75693584442791 L 25.856439560071436 219.5723559816681 L 24.316221583757944 219.26598757771887 L 22.804788973377107 218.83971949566842 L 21.33146021357426 218.2961798199911 L 19.905318866085118 217.6387196535327 L 18.535157566557075 216.8713924568472 L 17.229423815026593 215.9989290572643 L 15.996167894272382 215.02670848176598 L 14.842993237145103 213.9607247934963 L 13.777009548875434 212.80755013636903 L 12.804788973377107 211.5742942156148 L 11.932325573794209 210.26856046408432 L 11.164998377108695 208.89839916455628 L 10.507538210650317 207.47225781706715 L 9.963998534972983 205.9989290572643 L 9.53773045292252 204.48749644688345 L 9.231362048973299 202.94727847056996 L 9.046782186213495 201.38777108432225 L 8.985128860876053 199.81858916976535 L 9.046782186213495 198.24940725520844 L 9.231362048973295 196.68989986896074 L 9.53773045292252 195.14968189264724 L 9.96399853497298 193.6382492822664 L 10.507538210650317 192.16492052246355 L 11.164998377108695 190.7387791749744 L 11.932325573794206 189.36861787544638 L 12.804788973377104 188.0628841239159 L 13.777009548875432 186.8296282031617 L 14.842993237145098 185.6764535460344 L 15.996167894272372 184.61046985776474 L 17.229423815026585 183.6382492822664 L 18.535157566557082 182.7657858826835 L 19.905318866085132 181.99845868599797 L 21.331460213574278 181.3409985195396 L 22.804788973377136 180.79745884386227 L 24.316221583757986 180.37119076181182 L 25.856439560071486 180.0648223578626 L 27.415946946319213 179.88024249510278 L 28.98512886087612 179.81858916976535 L 30.554310775433027 179.88024249510278 L 32.113818161680754 180.0648223578626 L 33.654036137994254 180.37119076181185 L 35.1654687483751 180.7974588438623 L 36.63879750817795 181.34099851953965 L 38.064938855667094 181.99845868599806 L 39.435100155195144 182.76578588268356 L 40.740833906725626 183.6382492822665 L 41.97408982747984 184.61046985776483 L 43.12726448460711 185.6764535460345 L 44.19324817287678 186.8296282031618 L 45.165468748375105 188.06288412391604 L 46.03793214795799 189.36861787544652 L 46.805259344643495 190.73877917497458 L 47.46271951110187 192.16492052246375 L 48.00625918677919 193.6382492822666 L 48.43252726882963 195.14968189264744 L 48.738895672778845 196.68989986896096 L 48.92347553553863 198.2494072552087 Z"/><text fill="rgb(0,0,0)" stroke="none" font-family="Helvetica Neue, Helvetica, sans-serif" font-size="16px" font-style="normal" font-weight="normal" text-decoration="normal" x="28.985128860876053" y="207.81858916976535" text-anchor="middle" dominant-baseline="text-after-edge" fill-opacity="1">Heatline</text><path fill="url(#lpqTTmlsLVaz)" stroke="rgb(255,119,0)" paint-order="fill stroke markers" d=" M 137.91166469806825 -27.98264407153346 L 137.9101233649348 -27.94341452366954 L 137.9055088683658 -27.904426839013347 L 137.8978496582671 -27.865921389605507 L 137.8871929562158 -27.828135574345986 L 137.8736044643239 -27.791302355350915 L 137.85716796016243 -27.755648821663687 L 137.8379847802453 -27.721394789175488 L 137.81617319525571 -27.688751445387226 L 137.79186768086828 -27.657920047368368 L 137.76521808866153 -27.629090680940187 L 137.73638872223333 -27.602441088733446 L 137.70555732421448 -27.578135574345986 L 137.67291398042622 -27.556323989356414 L 137.63865994793804 -27.537140809439276 L 137.60300641425079 -27.520704305277818 L 137.56617319525571 -27.507115813385884 L 137.5283873799962 -27.496459111334623 L 137.48988193058835 -27.488799901235893 L 137.45089424593218 -27.484185404666896 L 137.41166469806825 -27.48264407153346 L 137.37243515020432 -27.484185404666896 L 137.33344746554815 -27.488799901235893 L 137.2949420161403 -27.496459111334623 L 137.2571562008808 -27.507115813385884 L 137.22032298188572 -27.520704305277818 L 137.18466944819846 -27.537140809439276 L 137.15041541571028 -27.556323989356414 L 137.11777207192202 -27.578135574345986 L 137.08694067390317 -27.602441088733446 L 137.05811130747497 -27.629090680940187 L 137.03146171526822 -27.657920047368368 L 137.0071562008808 -27.688751445387226 L 136.9853446158912 -27.721394789175488 L 136.96616143597407 -27.755648821663687 L 136.9497249318126 -27.791302355350915 L 136.9361364399207 -27.828135574345986 L 136.9254797378694 -27.865921389605507 L 136.9178205277707 -27.904426839013347 L 136.9132060312017 -27.94341452366954 L 136.91166469806825 -27.98264407153346 L 136.9132060312017 -28.021873619397383 L 136.9178205277707 -28.060861304053574 L 136.9254797378694 -28.099366753461414 L 136.9361364399207 -28.137152568720936 L 136.9497249318126 -28.173985787716006 L 136.96616143597407 -28.209639321403234 L 136.9853446158912 -28.243893353891433 L 137.0071562008808 -28.276536697679695 L 137.03146171526822 -28.307368095698553 L 137.05811130747497 -28.336197462126734 L 137.08694067390317 -28.362847054333475 L 137.11777207192202 -28.387152568720936 L 137.15041541571028 -28.408964153710507 L 137.1846694481985 -28.428147333627646 L 137.22032298188572 -28.444583837789104 L 137.2571562008808 -28.458172329681037 L 137.2949420161403 -28.468829031732298 L 137.33344746554815 -28.476488241831028 L 137.37243515020432 -28.481102738400025 L 137.41166469806825 -28.48264407153346 L 137.45089424593218 -28.481102738400025 L 137.48988193058838 -28.476488241831028 L 137.52838737999622 -28.468829031732298 L 137.56617319525571 -28.458172329681037 L 137.60300641425079 -28.444583837789104 L 137.63865994793804 -28.428147333627642 L 137.67291398042622 -28.408964153710507 L 137.70555732421448 -28.387152568720932 L 137.73638872223336 -28.362847054333475 L 137.76521808866153 -28.33619746212673 L 137.79186768086828 -28.30736809569855 L 137.81617319525571 -28.276536697679692 L 137.8379847802453 -28.24389335389143 L 137.85716796016243 -28.20963932140323 L 137.8736044643239 -28.173985787716 L 137.88719295621584 -28.13715256872093 L 137.8978496582671 -28.099366753461407 L 137.9055088683658 -28.06086130405357 L 137.9101233649348 -28.021873619397375 Z" stroke-opacity="1" stroke-miterlimit="10" stroke-width="0.5"/><text fill="rgb(0,0,0)" stroke="none" font-family="Helvetica Neue, Helvetica, sans-serif" font-size="16px" font-style="normal" font-weight="normal" text-decoration="normal" x="137.41166469806825" y="-19.98264407153346" text-anchor="middle" dominant-baseline="text-after-edge" fill-opacity="1">Solar Panel</text><path fill="url(#ZbVkHcMVuPUi)" stroke="rgb(153,204,255)" paint-order="fill stroke markers" d=" M 314.7152492712592 -24.759619340093145 L 314.71370793812576 -24.720389792229224 L 314.7090934415568 -24.68140210757303 L 314.70143423145805 -24.642896658165192 L 314.6907775294068 -24.60511084290567 L 314.67718903751484 -24.5682776239106 L 314.6607525333534 -24.532624090223372 L 314.64156935343624 -24.498370057735173 L 314.6197577684467 -24.46572671394691 L 314.59545225405924 -24.434895315928053 L 314.5688026618525 -24.406065949499872 L 314.5399732954243 -24.37941635729313 L 314.50914189740547 -24.35511084290567 L 314.4764985536172 -24.3332992579161 L 314.442244521129 -24.31411607799896 L 314.40659098744175 -24.297679573837502 L 314.3697577684467 -24.28409108194557 L 314.3319719531872 -24.273434379894308 L 314.2934665037793 -24.265775169795578 L 314.2544788191231 -24.26116067322658 L 314.2152492712592 -24.259619340093145 L 314.1760197233953 -24.26116067322658 L 314.1370320387391 -24.265775169795578 L 314.09852658933124 -24.273434379894308 L 314.06074077407175 -24.28409108194557 L 314.0239075550767 -24.297679573837502 L 313.9882540213894 -24.31411607799896 L 313.9539999889012 -24.3332992579161 L 313.92135664511295 -24.35511084290567 L 313.8905252470941 -24.37941635729313 L 313.86169588066593 -24.406065949499872 L 313.8350462884592 -24.434895315928053 L 313.81074077407175 -24.46572671394691 L 313.7889291890822 -24.498370057735173 L 313.76974600916503 -24.532624090223372 L 313.7533095050036 -24.5682776239106 L 313.73972101311165 -24.60511084290567 L 313.72906431106037 -24.642896658165192 L 313.72140510096165 -24.68140210757303 L 313.71679060439266 -24.720389792229224 L 313.7152492712592 -24.759619340093145 L 313.71679060439266 -24.798848887957067 L 313.72140510096165 -24.83783657261326 L 313.72906431106037 -24.8763420220211 L 313.73972101311165 -24.91412783728062 L 313.7533095050036 -24.95096105627569 L 313.76974600916503 -24.98661458996292 L 313.7889291890822 -25.02086862245112 L 313.81074077407175 -25.05351196623938 L 313.8350462884592 -25.08434336425824 L 313.86169588066593 -25.11317273068642 L 313.8905252470941 -25.13982232289316 L 313.92135664511295 -25.16412783728062 L 313.9539999889012 -25.18593942227019 L 313.9882540213894 -25.20512260218733 L 314.0239075550767 -25.22155910634879 L 314.06074077407175 -25.235147598240722 L 314.09852658933124 -25.245804300291983 L 314.1370320387391 -25.253463510390713 L 314.1760197233953 -25.25807800695971 L 314.2152492712592 -25.259619340093145 L 314.2544788191231 -25.25807800695971 L 314.2934665037793 -25.253463510390713 L 314.3319719531872 -25.245804300291983 L 314.3697577684467 -25.235147598240722 L 314.40659098744175 -25.22155910634879 L 314.442244521129 -25.205122602187327 L 314.4764985536172 -25.18593942227019 L 314.50914189740547 -25.164127837280617 L 314.5399732954243 -25.13982232289316 L 314.5688026618525 -25.113172730686415 L 314.59545225405924 -25.084343364258235 L 314.6197577684467 -25.053511966239377 L 314.64156935343624 -25.020868622451115 L 314.6607525333534 -24.986614589962915 L 314.67718903751484 -24.950961056275684 L 314.6907775294068 -24.914127837280613 L 314.70143423145805 -24.876342022021092 L 314.7090934415568 -24.837836572613256 L 314.71370793812576 -24.79884888795706 Z" stroke-opacity="1" stroke-miterlimit="10" stroke-width="0.5"/><text fill="rgb(0,0,0)" stroke="none" font-family="Helvetica Neue, Helvetica, sans-serif" font-size="16px" font-style="normal" font-weight="normal" text-decoration="normal" x="314.2152492712592" y="-16.759619340093145" text-anchor="middle" dominant-baseline="text-after-edge" fill-opacity="1">Onshore Wind Turbine</text><path fill="rgb(102,102,102)" stroke="none" paint-order="stroke fill markers" d=" M -73.80573625514336 -93.62404589649366 L -73.80727758827679 -93.58481634862973 L -73.8118920848458 -93.54582866397354 L -73.81955129494452 -93.5073232145657 L -73.83020799699578 -93.46953739930618 L -73.84379648888772 -93.4327041803111 L -73.86023299304918 -93.39705064662388 L -73.87941617296632 -93.36279661413568 L -73.90122775795588 -93.33015327034742 L -73.92553327234334 -93.29932187232856 L -73.95218286455008 -93.27049250590038 L -73.98101223097827 -93.24384291369364 L -74.01184362899713 -93.21953739930618 L -74.04448697278538 -93.19772581431661 L -74.07874100527359 -93.17854263439948 L -74.11439453896081 -93.16210613023802 L -74.15122775795588 -93.14851763834608 L -74.1890135732154 -93.13786093629481 L -74.22751902262324 -93.13020172619609 L -74.26650670727943 -93.12558722962709 L -74.30573625514336 -93.12404589649366 L -74.34496580300728 -93.12558722962709 L -74.38395348766348 -93.13020172619609 L -74.42245893707131 -93.13786093629481 L -74.46024475233084 -93.14851763834608 L -74.49707797132591 -93.16210613023802 L -74.53273150501313 -93.17854263439948 L -74.56698553750134 -93.19772581431661 L -74.59962888128959 -93.21953739930618 L -74.63046027930845 -93.24384291369364 L -74.65928964573664 -93.27049250590038 L -74.68593923794337 -93.29932187232856 L -74.71024475233084 -93.33015327034742 L -74.7320563373204 -93.36279661413568 L -74.75123951723754 -93.39705064662388 L -74.767676021399 -93.4327041803111 L -74.78126451329094 -93.46953739930618 L -74.7919212153422 -93.5073232145657 L -74.79958042544092 -93.54582866397354 L -74.80419492200993 -93.58481634862973 L -74.80573625514336 -93.62404589649366 L -74.80419492200993 -93.66327544435758 L -74.79958042544092 -93.70226312901377 L -74.7919212153422 -93.74076857842161 L -74.78126451329094 -93.77855439368113 L -74.767676021399 -93.8153876126762 L -74.75123951723754 -93.85104114636343 L -74.7320563373204 -93.88529517885164 L -74.71024475233084 -93.91793852263989 L -74.68593923794337 -93.94876992065875 L -74.65928964573664 -93.97759928708693 L -74.63046027930845 -94.00424887929367 L -74.59962888128959 -94.02855439368113 L -74.56698553750134 -94.0503659786707 L -74.53273150501313 -94.06954915858783 L -74.49707797132591 -94.0859856627493 L -74.46024475233084 -94.09957415464123 L -74.42245893707131 -94.1102308566925 L -74.38395348766348 -94.11789006679122 L -74.34496580300728 -94.12250456336022 L -74.30573625514336 -94.12404589649366 L -74.26650670727943 -94.12250456336022 L -74.22751902262324 -94.11789006679122 L -74.1890135732154 -94.1102308566925 L -74.15122775795588 -94.09957415464123 L -74.11439453896081 -94.0859856627493 L -74.07874100527359 -94.06954915858783 L -74.04448697278538 -94.0503659786707 L -74.01184362899711 -94.02855439368113 L -73.98101223097827 -94.00424887929367 L -73.95218286455008 -93.97759928708693 L -73.92553327234334 -93.94876992065875 L -73.90122775795588 -93.91793852263989 L -73.87941617296632 -93.88529517885162 L -73.86023299304917 -93.85104114636343 L -73.84379648888772 -93.81538761267619 L -73.83020799699578 -93.77855439368112 L -73.81955129494452 -93.74076857842161 L -73.8118920848458 -93.70226312901376 L -73.80727758827679 -93.66327544435757 Z" fill-opacity="1"/><text fill="rgb(0,0,0)" stroke="none" font-family="Helvetica Neue, Helvetica, sans-serif" font-size="16px" font-style="normal" font-weight="normal" text-decoration="normal" x="-74.30573625514336" y="-85.62404589649366" text-anchor="middle" dominant-baseline="text-after-edge" fill-opacity="1">Hard Coal Supply</text><path fill="url(#hgIPXpFmfbbX)" stroke="rgb(0,204,255)" paint-order="fill stroke markers" d=" M 233.00916305581654 -91.752515342456 L 233.0076217226831 -91.71328579459207 L 233.0030072261141 -91.67429810993588 L 232.99534801601538 -91.63579266052804 L 232.9846913139641 -91.59800684526851 L 232.9711028220722 -91.56117362627344 L 232.95466631791072 -91.52552009258622 L 232.9354831379936 -91.49126606009801 L 232.913671553004 -91.45862271630976 L 232.88936603861657 -91.4277913182909 L 232.86271644640982 -91.39896195186272 L 232.83388707998162 -91.37231235965598 L 232.80305568196277 -91.34800684526851 L 232.7704123381745 -91.32619526027895 L 232.73615830568633 -91.30701208036182 L 232.70050477199908 -91.29057557620035 L 232.663671553004 -91.27698708430842 L 232.62588573774448 -91.26633038225715 L 232.58738028833665 -91.25867117215843 L 232.54839260368047 -91.25405667558942 L 232.50916305581654 -91.252515342456 L 232.46993350795262 -91.25405667558942 L 232.43094582329644 -91.25867117215843 L 232.3924403738886 -91.26633038225715 L 232.35465455862908 -91.27698708430842 L 232.317821339634 -91.29057557620035 L 232.28216780594676 -91.30701208036182 L 232.24791377345858 -91.32619526027895 L 232.2152704296703 -91.34800684526851 L 232.18443903165146 -91.37231235965598 L 232.15560966522327 -91.39896195186272 L 232.12896007301651 -91.4277913182909 L 232.10465455862908 -91.45862271630976 L 232.0828429736395 -91.49126606009801 L 232.06365979372237 -91.52552009258622 L 232.0472232895609 -91.56117362627344 L 232.03363479766898 -91.59800684526851 L 232.0229780956177 -91.63579266052804 L 232.01531888551898 -91.67429810993588 L 232.01070438895 -91.71328579459207 L 232.00916305581654 -91.752515342456 L 232.01070438895 -91.79174489031992 L 232.01531888551898 -91.83073257497611 L 232.0229780956177 -91.86923802438395 L 232.03363479766898 -91.90702383964347 L 232.0472232895609 -91.94385705863854 L 232.06365979372237 -91.97951059232577 L 232.0828429736395 -92.01376462481397 L 232.10465455862908 -92.04640796860222 L 232.12896007301651 -92.07723936662109 L 232.15560966522327 -92.10606873304927 L 232.18443903165146 -92.13271832525601 L 232.2152704296703 -92.15702383964347 L 232.24791377345858 -92.17883542463304 L 232.28216780594678 -92.19801860455017 L 232.317821339634 -92.21445510871163 L 232.35465455862908 -92.22804360060357 L 232.3924403738886 -92.23870030265483 L 232.43094582329644 -92.24635951275356 L 232.46993350795262 -92.25097400932256 L 232.50916305581654 -92.252515342456 L 232.54839260368047 -92.25097400932256 L 232.58738028833667 -92.24635951275356 L 232.6258857377445 -92.23870030265483 L 232.663671553004 -92.22804360060357 L 232.70050477199908 -92.21445510871163 L 232.73615830568633 -92.19801860455017 L 232.7704123381745 -92.17883542463304 L 232.80305568196277 -92.15702383964347 L 232.83388707998165 -92.13271832525601 L 232.86271644640982 -92.10606873304927 L 232.88936603861657 -92.07723936662109 L 232.913671553004 -92.04640796860222 L 232.9354831379936 -92.01376462481396 L 232.95466631791072 -91.97951059232577 L 232.9711028220722 -91.94385705863853 L 232.98469131396413 -91.90702383964346 L 232.99534801601538 -91.86923802438395 L 233.0030072261141 -91.8307325749761 L 233.0076217226831 -91.7917448903199 Z" stroke-opacity="1" stroke-miterlimit="10" stroke-width="0.5"/><text fill="rgb(0,0,0)" stroke="none" font-family="Helvetica Neue, Helvetica, sans-serif" font-size="16px" font-style="normal" font-weight="normal" text-decoration="normal" x="232.50916305581654" y="-83.752515342456" text-anchor="middle" dominant-baseline="text-after-edge" fill-opacity="1">Offshore Wind Turbine</text><path fill="rgb(0,102,0)" stroke="none" paint-order="stroke fill markers" d=" M 542.0726837008116 -115.02497822567467 L 542.0711423676781 -114.98574867781075 L 542.0665278711092 -114.94676099315456 L 542.0588686610104 -114.90825554374672 L 542.0482119589592 -114.8704697284872 L 542.0346234670673 -114.83363650949212 L 542.0181869629058 -114.7979829758049 L 541.9990037829887 -114.76372894331669 L 541.9771921979991 -114.73108559952844 L 541.9528866836116 -114.70025420150958 L 541.9262370914048 -114.6714248350814 L 541.8974077249767 -114.64477524287466 L 541.8665763269578 -114.6204697284872 L 541.8339329831696 -114.59865814349763 L 541.7996789506814 -114.5794749635805 L 541.7640254169942 -114.56303845941903 L 541.7271921979991 -114.5494499675271 L 541.6894063827395 -114.53879326547583 L 541.6509009333317 -114.53113405537711 L 541.6119132486755 -114.5265195588081 L 541.5726837008116 -114.52497822567467 L 541.5334541529477 -114.5265195588081 L 541.4944664682914 -114.53113405537711 L 541.4559610188836 -114.53879326547583 L 541.4181752036241 -114.5494499675271 L 541.381341984629 -114.56303845941903 L 541.3456884509418 -114.5794749635805 L 541.3114344184536 -114.59865814349763 L 541.2787910746654 -114.6204697284872 L 541.2479596766465 -114.64477524287466 L 541.2191303102184 -114.6714248350814 L 541.1924807180116 -114.70025420150958 L 541.1681752036241 -114.73108559952844 L 541.1463636186345 -114.76372894331669 L 541.1271804387173 -114.7979829758049 L 541.1107439345559 -114.83363650949212 L 541.097155442664 -114.8704697284872 L 541.0864987406128 -114.90825554374672 L 541.078839530514 -114.94676099315456 L 541.074225033945 -114.98574867781075 L 541.0726837008116 -115.02497822567467 L 541.074225033945 -115.0642077735386 L 541.078839530514 -115.10319545819479 L 541.0864987406128 -115.14170090760263 L 541.097155442664 -115.17948672286215 L 541.1107439345559 -115.21631994185722 L 541.1271804387173 -115.25197347554445 L 541.1463636186345 -115.28622750803265 L 541.1681752036241 -115.3188708518209 L 541.1924807180116 -115.34970224983977 L 541.2191303102184 -115.37853161626795 L 541.2479596766465 -115.40518120847469 L 541.2787910746654 -115.42948672286215 L 541.3114344184536 -115.45129830785172 L 541.3456884509418 -115.47048148776885 L 541.381341984629 -115.48691799193031 L 541.4181752036241 -115.50050648382225 L 541.4559610188836 -115.51116318587351 L 541.4944664682914 -115.51882239597224 L 541.5334541529477 -115.52343689254124 L 541.5726837008116 -115.52497822567467 L 541.6119132486755 -115.52343689254124 L 541.6509009333317 -115.51882239597224 L 541.6894063827395 -115.51116318587351 L 541.7271921979991 -115.50050648382225 L 541.7640254169942 -115.48691799193031 L 541.7996789506814 -115.47048148776885 L 541.8339329831696 -115.45129830785172 L 541.8665763269578 -115.42948672286215 L 541.8974077249767 -115.40518120847469 L 541.9262370914048 -115.37853161626795 L 541.9528866836116 -115.34970224983977 L 541.9771921979991 -115.3188708518209 L 541.9990037829887 -115.28622750803264 L 542.0181869629058 -115.25197347554445 L 542.0346234670673 -115.21631994185721 L 542.0482119589592 -115.17948672286214 L 542.0588686610104 -115.14170090760263 L 542.0665278711092 -115.10319545819478 L 542.0711423676781 -115.06420777353858 Z" fill-opacity="1"/><text fill="rgb(0,0,0)" stroke="none" font-family="Helvetica Neue, Helvetica, sans-serif" font-size="16px" font-style="normal" font-weight="normal" text-decoration="normal" x="541.5726837008116" y="-107.02497822567467" text-anchor="middle" dominant-baseline="text-after-edge" fill-opacity="1">Biogas Supply</text><path fill="url(#QLnHPrnFsteS)" stroke="rgb(51,102,102)" paint-order="fill stroke markers" d=" M 39.49076540084171 88.98520982737953 L 39.48922406770827 89.02443937524346 L 39.48460957113928 89.06342705989965 L 39.47695036104055 89.10193250930749 L 39.46629365898929 89.13971832456701 L 39.452705167097356 89.17655154356208 L 39.436268662935895 89.21220507724931 L 39.41708548301876 89.24645910973751 L 39.39527389802918 89.27910245352577 L 39.370968383641724 89.30993385154463 L 39.344318791434986 89.33876321797281 L 39.3154894250068 89.36541281017955 L 39.28465802698795 89.38971832456701 L 39.25201468319968 89.41152990955658 L 39.21776065071148 89.43071308947371 L 39.18210711702425 89.44714959363517 L 39.14527389802918 89.46073808552711 L 39.10748808276966 89.47139478757838 L 39.06898263336183 89.4790539976771 L 39.029994948705635 89.4836684942461 L 38.99076540084171 89.48520982737953 L 38.951535852977784 89.4836684942461 L 38.91254816832159 89.4790539976771 L 38.874042718913756 89.47139478757838 L 38.83625690365424 89.46073808552711 L 38.79942368465917 89.44714959363517 L 38.763770150971936 89.43071308947371 L 38.72951611848374 89.41152990955658 L 38.69687277469547 89.38971832456701 L 38.66604137667662 89.36541281017955 L 38.63721201024843 89.33876321797281 L 38.610562418041695 89.30993385154463 L 38.58625690365424 89.27910245352577 L 38.56444531866467 89.24645910973751 L 38.545262138747525 89.21220507724931 L 38.52882563458606 89.17655154356208 L 38.51523714269413 89.13971832456701 L 38.50458044064287 89.10193250930749 L 38.49692123054414 89.06342705989965 L 38.49230673397515 89.02443937524346 L 38.49076540084171 88.98520982737953 L 38.49230673397515 88.94598027951561 L 38.49692123054414 88.90699259485942 L 38.50458044064287 88.86848714545158 L 38.51523714269413 88.83070133019206 L 38.52882563458606 88.79386811119699 L 38.545262138747525 88.75821457750976 L 38.56444531866466 88.72396054502155 L 38.58625690365424 88.6913172012333 L 38.610562418041695 88.66048580321444 L 38.63721201024843 88.63165643678626 L 38.66604137667662 88.60500684457952 L 38.69687277469547 88.58070133019206 L 38.72951611848374 88.55888974520249 L 38.763770150971936 88.53970656528536 L 38.79942368465917 88.5232700611239 L 38.83625690365424 88.50968156923196 L 38.874042718913756 88.4990248671807 L 38.91254816832159 88.49136565708197 L 38.95153585297779 88.48675116051297 L 38.99076540084171 88.48520982737953 L 39.029994948705635 88.48675116051297 L 39.06898263336183 88.49136565708197 L 39.10748808276966 88.4990248671807 L 39.14527389802919 88.50968156923196 L 39.18210711702426 88.5232700611239 L 39.21776065071148 88.53970656528536 L 39.25201468319969 88.55888974520249 L 39.28465802698795 88.58070133019206 L 39.3154894250068 88.60500684457952 L 39.344318791434986 88.63165643678626 L 39.37096838364173 88.66048580321444 L 39.39527389802919 88.6913172012333 L 39.41708548301876 88.72396054502157 L 39.436268662935895 88.75821457750976 L 39.452705167097356 88.793868111197 L 39.46629365898929 88.83070133019207 L 39.47695036104055 88.86848714545158 L 39.48460957113928 88.90699259485943 L 39.48922406770827 88.94598027951562 Z" stroke-opacity="1" stroke-miterlimit="10" stroke-width="0.5"/><text fill="rgb(0,0,0)" stroke="none" font-family="Helvetica Neue, Helvetica, sans-serif" font-size="16px" font-style="normal" font-weight="normal" text-decoration="normal" x="38.99076540084171" y="96.98520982737953" text-anchor="middle" dominant-baseline="text-after-edge" fill-opacity="1">Combined Cycle PP</text><path fill="url(#WIPAQyyGbgEw)" stroke="rgb(102,102,102)" paint-order="fill stroke markers" d=" M 94.25445548146328 19.001700637218683 L 94.25291414832985 19.040930185082605 L 94.24829965176085 19.079917869738797 L 94.24064044166212 19.118423319146636 L 94.22998373961086 19.156209134406158 L 94.21639524771892 19.19304235340123 L 94.19995874355746 19.228695887088456 L 94.18077556364032 19.262949919576656 L 94.15896397865076 19.295593263364918 L 94.1346584642633 19.326424661383776 L 94.10800887205656 19.355254027811956 L 94.07917950562837 19.381903620018697 L 94.04834810760951 19.406209134406158 L 94.01570476382126 19.42802071939573 L 93.98145073133306 19.447203899312868 L 93.94579719764583 19.463640403474326 L 93.90896397865076 19.47722889536626 L 93.87117816339124 19.48788559741752 L 93.8326727139834 19.49554480751625 L 93.79368502932721 19.500159304085248 L 93.75445548146328 19.501700637218683 L 93.71522593359936 19.500159304085248 L 93.67623824894316 19.49554480751625 L 93.63773279953533 19.48788559741752 L 93.5999469842758 19.47722889536626 L 93.56311376528073 19.463640403474326 L 93.52746023159351 19.447203899312868 L 93.4932061991053 19.42802071939573 L 93.46056285531705 19.406209134406158 L 93.42973145729819 19.381903620018697 L 93.40090209087 19.355254027811956 L 93.37425249866327 19.326424661383776 L 93.3499469842758 19.295593263364918 L 93.32813539928624 19.262949919576656 L 93.3089522193691 19.228695887088456 L 93.29251571520764 19.19304235340123 L 93.2789272233157 19.156209134406158 L 93.26827052126444 19.118423319146636 L 93.26061131116572 19.079917869738797 L 93.25599681459671 19.040930185082605 L 93.25445548146328 19.001700637218683 L 93.25599681459671 18.96247108935476 L 93.26061131116572 18.92348340469857 L 93.26827052126444 18.88497795529073 L 93.2789272233157 18.847192140031208 L 93.29251571520764 18.810358921036137 L 93.3089522193691 18.77470538734891 L 93.32813539928624 18.74045135486071 L 93.3499469842758 18.707808011072448 L 93.37425249866327 18.67697661305359 L 93.40090209087 18.64814724662541 L 93.42973145729819 18.62149765441867 L 93.46056285531705 18.597192140031208 L 93.4932061991053 18.575380555041637 L 93.52746023159351 18.556197375124498 L 93.56311376528073 18.53976087096304 L 93.5999469842758 18.526172379071106 L 93.63773279953533 18.515515677019845 L 93.67623824894316 18.507856466921115 L 93.71522593359936 18.503241970352118 L 93.75445548146328 18.501700637218683 L 93.79368502932721 18.503241970352118 L 93.8326727139834 18.507856466921115 L 93.87117816339124 18.515515677019845 L 93.90896397865076 18.526172379071106 L 93.94579719764583 18.53976087096304 L 93.98145073133306 18.5561973751245 L 94.01570476382126 18.575380555041637 L 94.04834810760953 18.59719214003121 L 94.07917950562837 18.62149765441867 L 94.10800887205656 18.648147246625413 L 94.1346584642633 18.676976613053593 L 94.15896397865076 18.70780801107245 L 94.18077556364032 18.740451354860713 L 94.19995874355747 18.774705387348913 L 94.21639524771892 18.810358921036144 L 94.22998373961086 18.847192140031215 L 94.24064044166212 18.884977955290736 L 94.24829965176085 18.923483404698572 L 94.25291414832985 18.962471089354768 Z" stroke-opacity="1" stroke-miterlimit="10" stroke-width="0.5"/><text fill="rgb(0,0,0)" stroke="none" font-family="Helvetica Neue, Helvetica, sans-serif" font-size="16px" font-style="normal" font-weight="normal" text-decoration="normal" x="93.75445548146328" y="27.001700637218683" text-anchor="middle" dominant-baseline="text-after-edge" fill-opacity="1">Hard Coal PP</text><path fill="url(#CVleLWTORwWG)" stroke="rgb(153,51,0)" paint-order="fill stroke markers" d=" M 401.2177215690559 5.72170225244011 L 401.2161802359225 5.760931800304033 L 401.2115657393535 5.799919484960226 L 401.20390652925477 5.838424934368063 L 401.1932498272035 5.8762107496275835 L 401.17966133531155 5.913043968622655 L 401.1632248311501 5.948697502309884 L 401.14404165123295 5.982951534798085 L 401.1222300662434 6.015594878586347 L 401.09792455185595 6.046426276605202 L 401.0712749596492 6.075255643033384 L 401.04244559322103 6.1019052352401255 L 401.0116141952022 6.1262107496275835 L 400.9789708514139 6.148022334617156 L 400.9447168189257 6.167205514534294 L 400.90906328523846 6.183642018695753 L 400.8722300662434 6.197230510587687 L 400.8344442509839 6.207887212638949 L 400.795938801576 6.215546422737679 L 400.7569511169198 6.220160919306674 L 400.7177215690559 6.22170225244011 L 400.678492021192 6.220160919306674 L 400.6395043365358 6.215546422737679 L 400.60099888712796 6.207887212638949 L 400.56321307186846 6.197230510587687 L 400.5263798528734 6.183642018695753 L 400.49072631918614 6.167205514534294 L 400.45647228669793 6.148022334617156 L 400.42382894290967 6.1262107496275835 L 400.3929975448908 6.1019052352401255 L 400.36416817846265 6.075255643033384 L 400.3375185862559 6.046426276605202 L 400.31321307186846 6.015594878586347 L 400.2914014868789 5.982951534798085 L 400.27221830696175 5.948697502309884 L 400.2557818028003 5.913043968622655 L 400.24219331090836 5.876210749627584 L 400.2315366088571 5.838424934368063 L 400.22387739875836 5.799919484960226 L 400.21926290218937 5.760931800304033 L 400.2177215690559 5.72170225244011 L 400.21926290218937 5.682472704576188 L 400.22387739875836 5.643485019919995 L 400.2315366088571 5.604979570512158 L 400.24219331090836 5.567193755252637 L 400.2557818028003 5.530360536257565 L 400.27221830696175 5.494707002570337 L 400.2914014868789 5.460452970082136 L 400.31321307186846 5.4278096262938735 L 400.3375185862559 5.396978228275018 L 400.36416817846265 5.368148861846836 L 400.3929975448908 5.341499269640095 L 400.42382894290967 5.317193755252637 L 400.45647228669793 5.295382170263064 L 400.49072631918614 5.276198990345926 L 400.5263798528734 5.259762486184466 L 400.56321307186846 5.246173994292533 L 400.60099888712796 5.235517292241272 L 400.6395043365358 5.227858082142541 L 400.678492021192 5.223243585573546 L 400.7177215690559 5.22170225244011 L 400.7569511169198 5.223243585573546 L 400.795938801576 5.227858082142542 L 400.8344442509839 5.235517292241273 L 400.8722300662434 5.246173994292534 L 400.90906328523846 5.259762486184468 L 400.9447168189257 5.276198990345928 L 400.9789708514139 5.295382170263066 L 401.0116141952022 5.317193755252639 L 401.04244559322103 5.341499269640098 L 401.0712749596492 5.368148861846839 L 401.09792455185595 5.396978228275022 L 401.1222300662434 5.427809626293877 L 401.14404165123295 5.46045297008214 L 401.1632248311501 5.494707002570341 L 401.17966133531155 5.53036053625757 L 401.1932498272035 5.567193755252641 L 401.20390652925477 5.604979570512163 L 401.2115657393535 5.64348501992 L 401.2161802359225 5.682472704576194 Z" stroke-opacity="1" stroke-miterlimit="10" stroke-width="0.5"/><text fill="rgb(0,0,0)" stroke="none" font-family="Helvetica Neue, Helvetica, sans-serif" font-size="16px" font-style="normal" font-weight="normal" text-decoration="normal" x="400.7177215690559" y="13.72170225244011" text-anchor="middle" dominant-baseline="text-after-edge" fill-opacity="1">Lignite Power Plant</text><path fill="url(#NFUHcBEKcTOp)" stroke="rgb(204,0,51)" paint-order="fill stroke markers" d=" M -83.39759357768645 156.86753323035086 L -83.39913491081988 156.90676277821478 L -83.40374940738889 156.94575046287096 L -83.41140861748761 156.9842559122788 L -83.42206531953887 157.02204172753832 L -83.43565381143081 157.0588749465334 L -83.45209031559227 157.09452848022062 L -83.47127349550941 157.12878251270882 L -83.49308508049897 157.1614258564971 L -83.51739059488644 157.19225725451594 L -83.54404018709317 157.22108662094413 L -83.57286955352136 157.2477362131509 L -83.60370095154022 157.27204172753832 L -83.63634429532847 157.29385331252792 L -83.67059832781668 157.31303649244504 L -83.7062518615039 157.3294729966065 L -83.74308508049897 157.34306148849842 L -83.7808708957585 157.3537181905497 L -83.81937634516633 157.36137740064842 L -83.85836402982252 157.3659918972174 L -83.89759357768645 157.36753323035086 L -83.93682312555038 157.3659918972174 L -83.97581081020657 157.36137740064842 L -84.0143162596144 157.3537181905497 L -84.05210207487393 157.34306148849845 L -84.088935293869 157.3294729966065 L -84.12458882755622 157.31303649244504 L -84.15884286004443 157.29385331252792 L -84.19148620383268 157.27204172753832 L -84.22231760185154 157.2477362131509 L -84.25114696827973 157.22108662094413 L -84.27779656048646 157.19225725451594 L -84.30210207487393 157.1614258564971 L -84.32391365986349 157.12878251270882 L -84.34309683978063 157.09452848022065 L -84.35953334394209 157.0588749465334 L -84.37312183583403 157.02204172753832 L -84.38377853788529 156.9842559122788 L -84.39143774798401 156.94575046287096 L -84.39605224455302 156.90676277821478 L -84.39759357768645 156.86753323035086 L -84.39605224455302 156.82830368248693 L -84.39143774798401 156.78931599783076 L -84.38377853788529 156.75081054842292 L -84.37312183583403 156.7130247331634 L -84.35953334394209 156.67619151416832 L -84.34309683978063 156.6405379804811 L -84.32391365986349 156.6062839479929 L -84.30210207487393 156.57364060420463 L -84.27779656048646 156.54280920618578 L -84.25114696827973 156.51397983975758 L -84.22231760185154 156.48733024755083 L -84.19148620383268 156.4630247331634 L -84.15884286004443 156.4412131481738 L -84.12458882755622 156.42202996825668 L -84.088935293869 156.4055934640952 L -84.05210207487393 156.39200497220327 L -84.0143162596144 156.38134827015202 L -83.97581081020657 156.3736890600533 L -83.93682312555038 156.3690745634843 L -83.89759357768645 156.36753323035086 L -83.85836402982252 156.3690745634843 L -83.81937634516633 156.3736890600533 L -83.7808708957585 156.38134827015202 L -83.74308508049897 156.3920049722033 L -83.7062518615039 156.4055934640952 L -83.67059832781668 156.42202996825668 L -83.63634429532847 156.4412131481738 L -83.6037009515402 156.4630247331634 L -83.57286955352136 156.48733024755086 L -83.54404018709317 156.51397983975758 L -83.51739059488644 156.54280920618578 L -83.49308508049897 156.57364060420463 L -83.47127349550941 156.6062839479929 L -83.45209031559226 156.6405379804811 L -83.43565381143081 156.67619151416832 L -83.42206531953887 156.7130247331634 L -83.41140861748761 156.75081054842292 L -83.40374940738889 156.78931599783076 L -83.39913491081988 156.82830368248693 Z" stroke-opacity="1" stroke-miterlimit="10" stroke-width="0.5"/><text fill="rgb(0,0,0)" stroke="none" font-family="Helvetica Neue, Helvetica, sans-serif" font-size="16px" font-style="normal" font-weight="normal" text-decoration="normal" x="-83.89759357768645" y="164.86753323035086" text-anchor="middle" dominant-baseline="text-after-edge" fill-opacity="1">Heat Plant</text><path fill="rgb(0,102,0)" stroke="none" paint-order="stroke fill markers" d=" M 540.1834870128471 6.870063675821491 L 540.1819456797136 6.909293223685414 L 540.1773311831447 6.948280908341607 L 540.1696719730459 6.986786357749444 L 540.1590152709947 7.0245721730089645 L 540.1454267791028 7.061405392004036 L 540.1289902749413 7.097058925691265 L 540.1098070950242 7.131312958179466 L 540.0879955100346 7.163956301967728 L 540.0636899956471 7.194787699986583 L 540.0370404034403 7.223617066414765 L 540.0082110370122 7.2502666586215065 L 539.9773796389933 7.2745721730089645 L 539.9447362952051 7.296383757998537 L 539.9104822627169 7.315566937915675 L 539.8748287290297 7.332003442077134 L 539.8379955100346 7.345591933969068 L 539.800209694775 7.35624863602033 L 539.7617042453672 7.36390784611906 L 539.722716560711 7.368522342688055 L 539.6834870128471 7.370063675821491 L 539.6442574649832 7.368522342688055 L 539.6052697803269 7.36390784611906 L 539.5667643309191 7.35624863602033 L 539.5289785156596 7.345591933969068 L 539.4921452966645 7.332003442077134 L 539.4564917629773 7.315566937915675 L 539.4222377304891 7.296383757998537 L 539.3895943867009 7.2745721730089645 L 539.358762988682 7.2502666586215065 L 539.3299336222539 7.223617066414765 L 539.303284030047 7.194787699986583 L 539.2789785156596 7.163956301967728 L 539.25716693067 7.131312958179466 L 539.2379837507528 7.097058925691265 L 539.2215472465914 7.061405392004036 L 539.2079587546995 7.024572173008965 L 539.1973020526483 6.986786357749444 L 539.1896428425495 6.948280908341607 L 539.1850283459805 6.909293223685414 L 539.1834870128471 6.870063675821491 L 539.1850283459805 6.830834127957569 L 539.1896428425495 6.791846443301376 L 539.1973020526483 6.753340993893539 L 539.2079587546995 6.715555178634018 L 539.2215472465914 6.678721959638946 L 539.2379837507528 6.643068425951718 L 539.25716693067 6.608814393463517 L 539.2789785156596 6.576171049675255 L 539.303284030047 6.545339651656399 L 539.3299336222539 6.516510285228217 L 539.358762988682 6.489860693021476 L 539.3895943867009 6.465555178634018 L 539.4222377304891 6.443743593644445 L 539.4564917629773 6.424560413727307 L 539.4921452966645 6.408123909565847 L 539.5289785156596 6.394535417673914 L 539.5667643309191 6.383878715622653 L 539.6052697803269 6.376219505523922 L 539.6442574649832 6.371605008954927 L 539.6834870128471 6.370063675821491 L 539.722716560711 6.371605008954927 L 539.7617042453672 6.376219505523923 L 539.800209694775 6.383878715622654 L 539.8379955100346 6.394535417673915 L 539.8748287290297 6.408123909565849 L 539.9104822627169 6.424560413727309 L 539.9447362952051 6.443743593644447 L 539.9773796389933 6.46555517863402 L 540.0082110370122 6.489860693021479 L 540.0370404034403 6.51651028522822 L 540.0636899956471 6.545339651656403 L 540.0879955100346 6.576171049675258 L 540.1098070950242 6.608814393463521 L 540.1289902749413 6.643068425951722 L 540.1454267791028 6.678721959638951 L 540.1590152709947 6.715555178634022 L 540.1696719730459 6.753340993893544 L 540.1773311831447 6.791846443301381 L 540.1819456797136 6.830834127957575 Z" fill-opacity="1"/><text fill="rgb(0,0,0)" stroke="none" font-family="Helvetica Neue, Helvetica, sans-serif" font-size="16px" font-style="normal" font-weight="normal" text-decoration="normal" x="539.6834870128471" y="14.870063675821491" text-anchor="middle" dominant-baseline="text-after-edge" fill-opacity="1">Biogas CHP</text><path fill="url(#bbSpIoxDSdUP)" stroke="rgb(204,0,51)" paint-order="fill stroke markers" d=" M 143.182494472509 126.07944972494911 L 143.18095313937556 126.11867927281304 L 143.17633864280657 126.15766695746923 L 143.16867943270785 126.19617240687707 L 143.15802273065657 126.2339582221366 L 143.14443423876466 126.27079144113166 L 143.12799773460318 126.30644497481889 L 143.10881455468606 126.3406990073071 L 143.08700296969647 126.37334235109535 L 143.06269745530903 126.40417374911421 L 143.03604786310228 126.43300311554239 L 143.00721849667408 126.45965270774913 L 142.97638709865524 126.4839582221366 L 142.94374375486697 126.50576980712616 L 142.9094897223788 126.52495298704329 L 142.87383618869154 126.54138949120475 L 142.83700296969647 126.55497798309669 L 142.79921715443695 126.56563468514796 L 142.7607117050291 126.57329389524668 L 142.72172402037293 126.57790839181568 L 142.682494472509 126.57944972494911 L 142.64326492464508 126.57790839181568 L 142.6042772399889 126.57329389524668 L 142.56577179058107 126.56563468514796 L 142.52798597532154 126.55497798309669 L 142.49115275632647 126.54138949120475 L 142.45549922263922 126.52495298704329 L 142.42124519015104 126.50576980712616 L 142.38860184636277 126.4839582221366 L 142.35777044834393 126.45965270774913 L 142.32894108191573 126.43300311554239 L 142.30229148970898 126.40417374911421 L 142.27798597532154 126.37334235109535 L 142.25617439033195 126.3406990073071 L 142.23699121041483 126.30644497481889 L 142.22055470625335 126.27079144113166 L 142.20696621436144 126.2339582221366 L 142.19630951231017 126.19617240687707 L 142.18865030221144 126.15766695746923 L 142.18403580564245 126.11867927281304 L 142.182494472509 126.07944972494911 L 142.18403580564245 126.04022017708519 L 142.18865030221144 126.001232492429 L 142.19630951231017 125.96272704302116 L 142.20696621436144 125.92494122776164 L 142.22055470625335 125.88810800876657 L 142.23699121041483 125.85245447507934 L 142.25617439033195 125.81820044259113 L 142.27798597532154 125.78555709880288 L 142.30229148970898 125.75472570078402 L 142.32894108191573 125.72589633435584 L 142.35777044834393 125.6992467421491 L 142.38860184636277 125.67494122776164 L 142.42124519015104 125.65312964277207 L 142.45549922263925 125.63394646285494 L 142.49115275632647 125.61750995869347 L 142.52798597532154 125.60392146680154 L 142.56577179058107 125.59326476475027 L 142.6042772399889 125.58560555465155 L 142.64326492464508 125.58099105808255 L 142.682494472509 125.57944972494911 L 142.72172402037293 125.58099105808255 L 142.76071170502914 125.58560555465155 L 142.79921715443697 125.59326476475027 L 142.83700296969647 125.60392146680154 L 142.87383618869154 125.61750995869347 L 142.9094897223788 125.63394646285494 L 142.94374375486697 125.65312964277207 L 142.97638709865524 125.67494122776164 L 143.0072184966741 125.6992467421491 L 143.03604786310228 125.72589633435584 L 143.06269745530903 125.75472570078402 L 143.08700296969647 125.78555709880288 L 143.10881455468606 125.81820044259115 L 143.12799773460318 125.85245447507934 L 143.14443423876466 125.88810800876658 L 143.1580227306566 125.92494122776165 L 143.16867943270785 125.96272704302116 L 143.17633864280657 126.00123249242901 L 143.18095313937556 126.0402201770852 Z" stroke-opacity="1" stroke-miterlimit="10" stroke-width="0.5"/><text fill="rgb(0,0,0)" stroke="none" font-family="Helvetica Neue, Helvetica, sans-serif" font-size="16px" font-style="normal" font-weight="normal" text-decoration="normal" x="142.682494472509" y="134.07944972494911" text-anchor="middle" dominant-baseline="text-after-edge" fill-opacity="1">Power To Heat</text><path fill="rgb(102,102,102)" stroke="none" paint-order="stroke fill markers" d=" M -67.42902067255469 40.05904636429048 L -67.43056200568812 40.098275912154406 L -67.43517650225712 40.1372635968106 L -67.44283571235584 40.175769046218434 L -67.45349241440711 40.21355486147795 L -67.46708090629905 40.25038808047302 L -67.48351741046051 40.286041614160254 L -67.50270059037764 40.320295646648454 L -67.5245121753672 40.35293899043672 L -67.54881768975467 40.383770388455574 L -67.57546728196141 40.41259975488376 L -67.60429664838959 40.439249347090495 L -67.63512804640845 40.46355486147795 L -67.6677713901967 40.48536644646752 L -67.70202542268491 40.504549626384666 L -67.73767895637214 40.52098613054613 L -67.7745121753672 40.53457462243806 L -67.81229799062673 40.54523132448932 L -67.85080344003457 40.55289053458805 L -67.88979112469076 40.55750503115704 L -67.92902067255469 40.55904636429048 L -67.96825022041861 40.55750503115704 L -68.0072379050748 40.55289053458805 L -68.04574335448264 40.54523132448932 L -68.08352916974216 40.53457462243806 L -68.12036238873723 40.52098613054613 L -68.15601592242446 40.504549626384666 L -68.19026995491267 40.48536644646753 L -68.22291329870092 40.46355486147795 L -68.25374469671978 40.439249347090495 L -68.28257406314796 40.41259975488376 L -68.3092236553547 40.383770388455574 L -68.33352916974216 40.35293899043672 L -68.35534075473173 40.320295646648454 L -68.37452393464886 40.286041614160254 L -68.39096043881032 40.25038808047302 L -68.40454893070226 40.21355486147795 L -68.41520563275353 40.175769046218434 L -68.42286484285225 40.1372635968106 L -68.42747933942125 40.098275912154406 L -68.42902067255469 40.05904636429048 L -68.42747933942125 40.019816816426555 L -68.42286484285225 39.98082913177036 L -68.41520563275353 39.94232368236253 L -68.40454893070226 39.90453786710301 L -68.39096043881032 39.86770464810794 L -68.37452393464886 39.83205111442071 L -68.35534075473173 39.79779708193251 L -68.33352916974216 39.76515373814424 L -68.3092236553547 39.73432234012539 L -68.28257406314796 39.705492973697204 L -68.25374469671978 39.678843381490466 L -68.22291329870092 39.65453786710301 L -68.19026995491267 39.63272628211343 L -68.15601592242446 39.613543102196296 L -68.12036238873723 39.597106598034834 L -68.08352916974216 39.583518106142904 L -68.04574335448264 39.57286140409164 L -68.0072379050748 39.56520219399291 L -67.96825022041861 39.56058769742392 L -67.92902067255469 39.55904636429048 L -67.88979112469076 39.56058769742392 L -67.85080344003457 39.56520219399291 L -67.81229799062673 39.57286140409164 L -67.7745121753672 39.583518106142904 L -67.73767895637214 39.59710659803484 L -67.70202542268491 39.613543102196296 L -67.6677713901967 39.63272628211344 L -67.63512804640844 39.65453786710301 L -67.60429664838959 39.678843381490466 L -67.57546728196141 39.70549297369721 L -67.54881768975467 39.734322340125395 L -67.5245121753672 39.76515373814425 L -67.50270059037764 39.79779708193251 L -67.4835174104605 39.832051114420715 L -67.46708090629905 39.86770464810794 L -67.45349241440711 39.90453786710301 L -67.44283571235584 39.942323682362534 L -67.43517650225712 39.98082913177037 L -67.43056200568812 40.01981681642656 Z" fill-opacity="1"/><text fill="rgb(0,0,0)" stroke="none" font-family="Helvetica Neue, Helvetica, sans-serif" font-size="16px" font-style="normal" font-weight="normal" text-decoration="normal" x="-67.92902067255469" y="48.05904636429048" text-anchor="middle" dominant-baseline="text-after-edge" fill-opacity="1">Hard Coal CHP</text><path fill="rgb(255,227,77)" stroke="none" paint-order="stroke fill markers" d=" M 324.0488061823417 238.7934918391831 L 324.04726484920826 238.83272138704703 L 324.04265035263927 238.8717090717032 L 324.03499114254055 238.91021452111104 L 324.02433444048927 238.94800033637057 L 324.01074594859733 238.98483355536564 L 323.9943094444359 239.0204870890529 L 323.97512626451874 239.05474112154107 L 323.95331467952917 239.08738446532934 L 323.92900916514174 239.11821586334818 L 323.902359572935 239.14704522977638 L 323.8735302065068 239.17369482198313 L 323.84269880848797 239.19800033637057 L 323.8100554646997 239.21981192136016 L 323.7758014322115 239.23899510127728 L 323.74014789852424 239.25543160543876 L 323.70331467952917 239.26902009733067 L 323.6655288642697 239.27967679938195 L 323.6270234148618 239.28733600948067 L 323.5880357302056 239.29195050604966 L 323.5488061823417 239.2934918391831 L 323.5095766344778 239.29195050604966 L 323.4705889498216 239.28733600948067 L 323.43208350041374 239.27967679938195 L 323.39429768515424 239.26902009733067 L 323.3574644661592 239.25543160543876 L 323.3218109324719 239.23899510127728 L 323.2875568999837 239.21981192136016 L 323.25491355619545 239.19800033637057 L 323.2240821581766 239.17369482198313 L 323.19525279174843 239.14704522977638 L 323.1686031995417 239.11821586334818 L 323.14429768515424 239.08738446532934 L 323.1224861001647 239.05474112154107 L 323.10330292024753 239.0204870890529 L 323.0868664160861 238.98483355536564 L 323.07327792419414 238.94800033637057 L 323.06262122214287 238.91021452111104 L 323.05496201204414 238.8717090717032 L 323.05034751547515 238.83272138704703 L 323.0488061823417 238.7934918391831 L 323.05034751547515 238.75426229131918 L 323.05496201204414 238.715274606663 L 323.06262122214287 238.67676915725517 L 323.07327792419414 238.63898334199564 L 323.0868664160861 238.60215012300057 L 323.10330292024753 238.56649658931335 L 323.1224861001647 238.53224255682514 L 323.14429768515424 238.49959921303687 L 323.1686031995417 238.46876781501803 L 323.19525279174843 238.43993844858983 L 323.2240821581766 238.41328885638308 L 323.25491355619545 238.38898334199564 L 323.2875568999837 238.36717175700605 L 323.3218109324719 238.34798857708893 L 323.3574644661592 238.33155207292745 L 323.39429768515424 238.3179635810355 L 323.43208350041374 238.30730687898426 L 323.4705889498216 238.29964766888554 L 323.5095766344778 238.29503317231655 L 323.5488061823417 238.2934918391831 L 323.5880357302056 238.29503317231655 L 323.6270234148618 238.29964766888554 L 323.6655288642697 238.30730687898426 L 323.70331467952917 238.31796358103554 L 323.74014789852424 238.33155207292745 L 323.7758014322115 238.34798857708893 L 323.8100554646997 238.36717175700605 L 323.84269880848797 238.38898334199564 L 323.8735302065068 238.4132888563831 L 323.902359572935 238.43993844858983 L 323.92900916514174 238.46876781501803 L 323.95331467952917 238.49959921303687 L 323.97512626451874 238.53224255682514 L 323.9943094444359 238.56649658931335 L 324.01074594859733 238.60215012300057 L 324.02433444048927 238.63898334199564 L 324.03499114254055 238.67676915725517 L 324.04265035263927 238.715274606663 L 324.04726484920826 238.75426229131918 Z" fill-opacity="1"/><text fill="rgb(0,0,0)" stroke="none" font-family="Helvetica Neue, Helvetica, sans-serif" font-size="16px" font-style="normal" font-weight="normal" text-decoration="normal" x="323.5488061823417" y="246.7934918391831" text-anchor="middle" dominant-baseline="text-after-edge" fill-opacity="1">El Demand</text><path fill="url(#RpzWyVRXsmZn)" stroke="rgb(255,0,0)" paint-order="fill stroke markers" d=" M -51.25425806795415 265.26685588043324 L -51.255799401087586 265.30608542829714 L -51.260413897656576 265.34507311295334 L -51.268073107755306 265.3835785623612 L -51.27872980980657 265.4213643776207 L -51.2923183016985 265.4581975966158 L -51.30875480585996 265.493851130303 L -51.3279379857771 265.52810516279123 L -51.349749570766676 265.5607485065795 L -51.37405508515413 265.59157990459835 L -51.40070467736087 265.6204092710265 L -51.429534043789054 265.64705886323327 L -51.46036544180791 265.6713643776207 L -51.493008785596174 265.69317596261027 L -51.527262818084374 265.7123591425274 L -51.562916351771605 265.72879564668887 L -51.599749570766676 265.7423841385808 L -51.637535386026194 265.7530408406321 L -51.67604083543403 265.7607000507308 L -51.71502852009022 265.7653145472998 L -51.75425806795415 265.76685588043324 L -51.79348761581807 265.7653145472998 L -51.832475300474265 265.7607000507308 L -51.8709807498821 265.7530408406321 L -51.90876656514162 265.7423841385808 L -51.94559978413669 265.72879564668887 L -51.98125331782392 265.7123591425274 L -52.01550735031212 265.69317596261027 L -52.048150694100386 265.6713643776207 L -52.07898209211924 265.64705886323327 L -52.107811458547424 265.6204092710265 L -52.13446105075416 265.59157990459835 L -52.15876656514162 265.5607485065795 L -52.1805781501312 265.52810516279123 L -52.19976133004833 265.493851130303 L -52.216197834209794 265.4581975966158 L -52.229786326101724 265.4213643776207 L -52.24044302815299 265.3835785623612 L -52.24810223825172 265.34507311295334 L -52.25271673482071 265.30608542829714 L -52.25425806795415 265.26685588043324 L -52.25271673482071 265.22762633256934 L -52.24810223825172 265.18863864791314 L -52.24044302815299 265.1501331985053 L -52.229786326101724 265.1123473832458 L -52.216197834209794 265.0755141642507 L -52.19976133004833 265.03986063056345 L -52.1805781501312 265.00560659807525 L -52.15876656514162 264.972963254287 L -52.13446105075416 264.94213185626813 L -52.107811458547424 264.91330248983996 L -52.07898209211924 264.8866528976332 L -52.048150694100386 264.8623473832458 L -52.01550735031212 264.8405357982562 L -51.98125331782392 264.82135261833906 L -51.94559978413669 264.8049161141776 L -51.90876656514162 264.7913276222857 L -51.8709807498821 264.7806709202344 L -51.832475300474265 264.7730117101357 L -51.793487615818066 264.7683972135667 L -51.75425806795415 264.76685588043324 L -51.71502852009022 264.7683972135667 L -51.67604083543403 264.7730117101357 L -51.637535386026194 264.7806709202344 L -51.59974957076667 264.7913276222857 L -51.5629163517716 264.8049161141776 L -51.527262818084374 264.82135261833906 L -51.49300878559617 264.8405357982562 L -51.46036544180791 264.8623473832458 L -51.429534043789054 264.8866528976332 L -51.40070467736087 264.91330248983996 L -51.374055085154126 264.94213185626813 L -51.34974957076667 264.972963254287 L -51.3279379857771 265.00560659807525 L -51.30875480585996 265.03986063056345 L -51.2923183016985 265.0755141642507 L -51.27872980980657 265.1123473832458 L -51.268073107755306 265.1501331985053 L -51.260413897656576 265.18863864791314 L -51.255799401087586 265.22762633256934 Z" stroke-opacity="1" stroke-miterlimit="10" stroke-width="0.5"/><text fill="rgb(0,0,0)" stroke="none" font-family="Helvetica Neue, Helvetica, sans-serif" font-size="16px" font-style="normal" font-weight="normal" text-decoration="normal" x="-51.75425806795415" y="273.26685588043324" text-anchor="middle" dominant-baseline="text-after-edge" fill-opacity="1">Heat Demand</text><path fill="url(#veRwqeyLMNFK)" stroke="rgb(255,227,77)" paint-order="fill stroke markers" d=" M 374.2730903657999 147.0951994107139 L 374.2715490326664 147.13442895857781 L 374.26693453609744 147.173416643234 L 374.2592753259987 147.21192209264183 L 374.24861862394744 147.24970790790135 L 374.2350301320555 147.28654112689642 L 374.21859362789405 147.32219466058365 L 374.1994104479769 147.35644869307185 L 374.17759886298734 147.38909203686012 L 374.1532933485999 147.41992343487897 L 374.12664375639315 147.44875280130717 L 374.097814389965 147.47540239351392 L 374.06698299194613 147.49970790790135 L 374.03433964815787 147.52151949289095 L 374.00008561566966 147.54070267280807 L 373.9644320819824 147.55713917696954 L 373.92759886298734 147.57072766886145 L 373.88981304772784 147.58138437091273 L 373.85130759832 147.58904358101145 L 373.81231991366377 147.59365807758044 L 373.7730903657999 147.5951994107139 L 373.733860817936 147.59365807758044 L 373.69487313327977 147.58904358101145 L 373.6563676838719 147.58138437091273 L 373.6185818686124 147.57072766886148 L 373.58174864961734 147.55713917696954 L 373.5460951159301 147.54070267280807 L 373.5118410834419 147.52151949289095 L 373.4791977396536 147.49970790790135 L 373.44836634163477 147.47540239351392 L 373.4195369752066 147.44875280130717 L 373.39288738299985 147.41992343487897 L 373.3685818686124 147.38909203686012 L 373.34677028362285 147.35644869307185 L 373.3275871037057 147.32219466058368 L 373.31115059954425 147.28654112689642 L 373.2975621076523 147.24970790790135 L 373.28690540560103 147.21192209264183 L 373.2792461955023 147.173416643234 L 373.2746316989333 147.13442895857781 L 373.2730903657999 147.0951994107139 L 373.2746316989333 147.05596986284996 L 373.2792461955023 147.01698217819379 L 373.28690540560103 146.97847672878595 L 373.2975621076523 146.94069091352642 L 373.31115059954425 146.90385769453135 L 373.3275871037057 146.86820416084413 L 373.34677028362285 146.83395012835592 L 373.3685818686124 146.80130678456766 L 373.39288738299985 146.7704753865488 L 373.4195369752066 146.7416460201206 L 373.44836634163477 146.71499642791386 L 373.4791977396536 146.69069091352642 L 373.5118410834419 146.66887932853683 L 373.5460951159301 146.6496961486197 L 373.58174864961734 146.63325964445824 L 373.6185818686124 146.6196711525663 L 373.6563676838719 146.60901445051505 L 373.69487313327977 146.60135524041632 L 373.733860817936 146.59674074384733 L 373.7730903657999 146.5951994107139 L 373.81231991366377 146.59674074384733 L 373.85130759832 146.60135524041632 L 373.88981304772784 146.60901445051505 L 373.92759886298734 146.61967115256633 L 373.9644320819824 146.63325964445824 L 374.00008561566966 146.6496961486197 L 374.03433964815787 146.66887932853683 L 374.06698299194613 146.69069091352642 L 374.097814389965 146.7149964279139 L 374.12664375639315 146.7416460201206 L 374.1532933485999 146.7704753865488 L 374.17759886298734 146.80130678456766 L 374.1994104479769 146.83395012835592 L 374.21859362789405 146.86820416084413 L 374.2350301320555 146.90385769453135 L 374.24861862394744 146.94069091352642 L 374.2592753259987 146.97847672878595 L 374.26693453609744 147.01698217819379 L 374.2715490326664 147.05596986284996 Z" stroke-opacity="1" stroke-miterlimit="10" stroke-width="0.5"/><text fill="rgb(0,0,0)" stroke="none" font-family="Helvetica Neue, Helvetica, sans-serif" font-size="16px" font-style="normal" font-weight="normal" text-decoration="normal" x="373.7730903657999" y="155.0951994107139" text-anchor="middle" dominant-baseline="text-after-edge" fill-opacity="1">Battery</text><path fill="url(#BnaxXoQgGUVI)" stroke="rgb(204,0,51)" paint-order="fill stroke markers" d=" M 177.87094682054257 255.56947460137746 L 177.73222683853334 259.1001339091305 L 177.31692214732377 262.60902552818783 L 176.627593238438 266.0745159748932 L 175.66849005382448 269.4752393482501 L 174.44552578355047 272.7902290578065 L 172.96624040901912 275.9990470896571 L 171.23975421647674 279.0819100135952 L 169.2767115674152 282.01981095453874 L 167.08921527254395 284.79463677623573 L 164.6907519739372 287.38927975477213 L 162.09610899540084 289.78774305337885 L 159.32128317370388 291.9752393482501 L 156.38338223276028 293.9382819973116 L 153.30051930882217 295.66476818985404 L 150.0917012769716 297.1440535643854 L 146.7767115674152 298.36701783465935 L 143.37598819405832 299.32612101927293 L 139.91049774735296 300.01544992815866 L 136.40160612829558 300.4307546193682 L 132.87094682054257 300.56947460137746 L 129.34028751278956 300.4307546193682 L 125.83139589373218 300.01544992815866 L 122.36590544702683 299.32612101927293 L 118.96518207366994 298.36701783465935 L 115.65019236411354 297.1440535643854 L 112.44137433226297 295.66476818985404 L 109.35851140832487 293.9382819973116 L 106.42061046738128 291.9752393482501 L 103.64578464568432 289.78774305337885 L 101.05114166714793 287.38927975477213 L 98.65267836854119 284.79463677623573 L 96.46518207366995 282.01981095453874 L 94.50213942460843 279.0819100135952 L 92.77565323206602 275.9990470896571 L 91.29636785753468 272.7902290578065 L 90.07340358726066 269.4752393482501 L 89.11430040264713 266.0745159748932 L 88.42497149376138 262.6090255281879 L 88.0096668025518 259.1001339091305 L 87.87094682054257 255.56947460137746 L 88.0096668025518 252.03881529362445 L 88.42497149376138 248.52992367456707 L 89.11430040264712 245.06443322786174 L 90.07340358726066 241.66370985450484 L 91.29636785753466 238.34872014494843 L 92.77565323206602 235.13990211309786 L 94.50213942460842 232.05703918915978 L 96.46518207366994 229.1191382482162 L 98.65267836854117 226.3443124265192 L 101.05114166714793 223.74966944798282 L 103.64578464568429 221.35120614937608 L 106.42061046738127 219.16370985450484 L 109.35851140832489 217.20066720544332 L 112.441374332263 215.47418101290089 L 115.65019236411358 213.99489563836954 L 118.96518207367001 212.77193136809552 L 122.36590544702692 211.812828183482 L 125.83139589373229 211.12349927459624 L 129.34028751278967 210.7081945833867 L 132.8709468205427 210.56947460137746 L 136.40160612829575 210.70819458338673 L 139.91049774735316 211.1234992745963 L 143.37598819405852 211.81282818348205 L 146.77671156741542 212.77193136809564 L 150.09170127697183 213.99489563836966 L 153.3005193088224 215.47418101290103 L 156.3833822327605 217.20066720544347 L 159.3212831737041 219.16370985450502 L 162.0961089954011 221.35120614937628 L 164.69075197393747 223.74966944798308 L 167.0892152725442 226.34431242651948 L 169.27671156741542 229.11913824821647 L 171.23975421647694 232.05703918916012 L 172.96624040901932 235.13990211309823 L 174.44552578355064 238.34872014494883 L 175.66849005382463 241.66370985450527 L 176.62759323843812 245.0644332278622 L 177.31692214732385 248.52992367456758 L 177.73222683853336 252.03881529362496 Z" stroke-opacity="1" stroke-miterlimit="10" stroke-width="0.5"/><text fill="rgb(0,0,0)" stroke="none" font-family="Helvetica Neue, Helvetica, sans-serif" font-size="16px" font-style="normal" font-weight="normal" text-decoration="normal" x="132.87094682054257" y="263.56947460137746" text-anchor="middle" dominant-baseline="text-after-edge" fill-opacity="1">Heat Storage</text><g transform="scale(0.6396464717264114,0.6396464717264114) translate(-574.0053692581182,-386.0564015024176)"/></g></svg>