<svg version="1.1" xmlns="http://www.w3.org/2000/svg" xmlns:xlink="http://www.w3.org/1999/xlink" width="1241" height="595.5"><defs><radialGradient id="plxVPTyUsyXZ" cx="1016.9405431163146px" cy="967.7553098150354px" r="40px" fx="1016.9405431163146px" fy="967.7553098150354px" gradientUnits="userSpaceOnUse"><stop offset="0" stop-color="rgb(255,204,0)" stop-opacity="1"/><stop offset="0.2" stop-color="rgb(251,216,79)" stop-opacity="1"/><stop offset="0.4" stop-color="rgb(247,228,158)" stop-opacity="1"/><stop offset="0.6" stop-color="rgb(243,240,236)" stop-opacity="1"/><stop offset="0.8" stop-color="rgb(255,255,255)" stop-opacity="1"/><stop offset="1" stop-color="rgb(255,255,255)" stop-opacity="1"/></radialGradient><radialGradient id="OTTzspnuBCIm" cx="200.03076971341204px" cy="649.8273485220262px" r="40px" fx="200.03076971341204px" fy="649.8273485220262px" gradientUnits="userSpaceOnUse"><stop offset="0" stop-color="rgb(102,102,102)" stop-opacity="1"/><stop offset="0.2" stop-color="rgb(148,148,148)" stop-opacity="1"/><stop offset="0.4" stop-color="rgb(194,194,194)" stop-opacity="1"/><stop offset="0.6" stop-color="rgb(241,241,241)" stop-opacity="1"/><stop offset="0.8" stop-color="rgb(255,255,255)" stop-opacity="1"/><stop offset="1" stop-color="rgb(255,255,255)" stop-opacity="1"/></radialGradient><radialGradient id="QwLbHTVGREXg" cx="1580.6986460329042px" cy="685.6516590829443px" r="40px" fx="1580.6986460329042px" fy="685.6516590829443px" gradientUnits="userSpaceOnUse"><stop offset="0" stop-color="rgb(0,102,0)" stop-opacity="1"/><stop offset="0.2" stop-color="rgb(78,149,78)" stop-opacity="1"/><stop offset="0.4" stop-color="rgb(156,196,156)" stop-opacity="1"/><stop offset="0.6" stop-color="rgb(235,243,235)" stop-opacity="1"/><stop offset="0.8" stop-color="rgb(255,255,255)" stop-opacity="1"/><stop offset="1" stop-color="rgb(255,255,255)" stop-opacity="1"/></radialGradient><radialGradient id="RglZtIIqHVlh" cx="765.5481206445575px" cy="1206.80314792422px" r="40px" fx="765.5481206445575px" fy="1206.80314792422px" gradientUnits="userSpaceOnUse"><stop offset="0" stop-color="rgb(255,0,0)" stop-opacity="1"/><stop offset="0.2" stop-color="rgb(251,80,80)" stop-opacity="1"/><stop offset="0.4" stop-color="rgb(247,160,160)" stop-opacity="1"/><stop offset="0.6" stop-color="rgb(243,240,240)" stop-opacity="1"/><stop offset="0.8" stop-color="rgb(255,255,255)" stop-opacity="1"/><stop offset="1" stop-color="rgb(255,255,255)" stop-opacity="1"/></radialGradient><radialGradient id="NAnBbUrdSDrP" cx="850.0041120951261px" cy="823.5670009710183px" r="217px" fx="850.0041120951261px" fy="823.5670009710183px" gradientUnits="userSpaceOnUse"><stop offset="0" stop-color="rgb(255,119,0)" stop-opacity="1"/><stop offset="0.006144393241167435" stop-color="rgb(255,255,255)" stop-opacity="1"/></radialGradient><radialGradient id="SCnWekeEOSeg" cx="1026.3601705211631px" cy="369.677012187428px" r="749px" fx="1026.3601705211631px" fy="369.677012187428px" gradientUnits="userSpaceOnUse"><stop offset="0" stop-color="rgb(153,204,255)" stop-opacity="1"/><stop offset="0.05874499332443258" stop-color="rgb(255,255,255)" stop-opacity="1"/></radialGradient><radialGradient id="tKlUEuReHAoG" cx="1164.048969900752px" cy="816.6543410810266px" r="115px" fx="1164.048969900752px" fy="816.6543410810266px" gradientUnits="userSpaceOnUse"><stop offset="0" stop-color="rgb(0,204,255)" stop-opacity="1"/><stop offset="0.028985507246376812" stop-color="rgb(255,255,255)" stop-opacity="1"/></radialGradient><radialGradient id="iHoVgmdabVfJ" cx="201.34561105585703px" cy="517.850914780855px" r="1px" fx="201.34561105585703px" fy="517.850914780855px" gradientUnits="userSpaceOnUse"><stop offset="0" stop-color="rgb(102,102,102)" stop-opacity="1"/><stop offset="0" stop-color="rgb(255,255,255)" stop-opacity="1"/></radialGradient><radialGradient id="ntJsxdbMCBhK" cx="1579.5571460253198px" cy="605.7969491240269px" r="65px" fx="1579.5571460253198px" fy="605.7969491240269px" gradientUnits="userSpaceOnUse"><stop offset="0" stop-color="rgb(0,102,0)" stop-opacity="1"/><stop offset="0.010256410256410258" stop-color="rgb(255,255,255)" stop-opacity="1"/></radialGradient><radialGradient id="aLrHdVOpVVJd" cx="544.9242710531739px" cy="775.4855742520713px" r="35px" fx="544.9242710531739px" fy="775.4855742520713px" gradientUnits="userSpaceOnUse"><stop offset="0" stop-color="rgb(51,102,102)" stop-opacity="1"/><stop offset="0" stop-color="rgb(255,255,255)" stop-opacity="1"/></radialGradient><radialGradient id="bCveUUtWalSQ" cx="199.16665626984815px" cy="775.6663712497816px" r="29px" fx="199.16665626984815px" fy="775.6663712497816px" gradientUnits="userSpaceOnUse"><stop offset="0" stop-color="rgb(102,102,102)" stop-opacity="1"/><stop offset="0" stop-color="rgb(255,255,255)" stop-opacity="1"/></radialGradient><radialGradient id="sAoFCDMNHMbl" cx="1420.5400352170996px" cy="770.789518221262px" r="29px" fx="1420.5400352170996px" fy="770.789518221262px" gradientUnits="userSpaceOnUse"><stop offset="0" stop-color="rgb(153,51,0)" stop-opacity="1"/><stop offset="0" stop-color="rgb(255,255,255)" stop-opacity="1"/></radialGradient><radialGradient id="PQTdXIvKLFQN" cx="90.72236863133452px" cy="853.1275793381617px" r="27px" fx="90.72236863133452px" fy="853.1275793381617px" gradientUnits="userSpaceOnUse"><stop offset="0" stop-color="rgb(204,0,51)" stop-opacity="1"/><stop offset="0" stop-color="rgb(255,255,255)" stop-opacity="1"/></radialGradient><radialGradient id="UUOlTMuTcgkH" cx="841.282048963034px" cy="1135.4179457057687px" r="37px" fx="841.282048963034px" fy="1135.4179457057687px" gradientUnits="userSpaceOnUse"><stop offset="0" stop-color="rgb(204,0,51)" stop-opacity="1"/><stop offset="0.12612612612612614" stop-color="rgb(255,255,255)" stop-opacity="1"/></radialGradient><radialGradient id="QgdRMEIOzuGK" cx="374.63216476572785px" cy="776.1258247389867px" r="18px" fx="374.63216476572785px" fy="776.1258247389867px" gradientUnits="userSpaceOnUse"><stop offset="0" stop-color="rgb(102,102,102)" stop-opacity="1"/><stop offset="0" stop-color="rgb(255,255,255)" stop-opacity="1"/></radialGradient><radialGradient id="SgkwyzacAFon" cx="1581.2237175511032px" cy="768.7463181288358px" r="32px" fx="1581.2237175511032px" fy="768.7463181288358px" gradientUnits="userSpaceOnUse"><stop offset="0" stop-color="rgb(0,102,0)" stop-opacity="1"/><stop offset="0.020833333333333336" stop-color="rgb(255,255,255)" stop-opacity="1"/></radialGradient><radialGradient id="pToNTzSTAcbB" cx="1013.1489174378105px" cy="1144.131536698653px" r="90px" fx="1013.1489174378105px" fy="1144.131536698653px" gradientUnits="userSpaceOnUse"><stop offset="0" stop-color="rgb(255,227,77)" stop-opacity="1"/><stop offset="0.4888888888888889" stop-color="rgb(255,255,255)" stop-opacity="1"/></radialGradient><radialGradient id="mkkycRonEMbb" cx="763.4647095448988px" cy="1309.218867197032px" r="24px" fx="763.4647095448988px" fy="1309.218867197032px" gradientUnits="userSpaceOnUse"><stop offset="0" stop-color="rgb(255,0,0)" stop-opacity="1"/><stop offset="0.22222222222222218" stop-color="rgb(255,255,255)" stop-opacity="1"/></radialGradient><radialGradient id="NlSzimcWMonO" cx="1261.0011204609764px" cy="1125.5171644015059px" r="222px" fx="1261.0011204609764px" fy="1125.5171644015059px" gradientUnits="userSpaceOnUse"><stop offset="0" stop-color="rgb(255,227,77)" stop-opacity="1"/><stop offset="0.06906906906906907" stop-color="rgb(255,255,255)" stop-opacity="1"/></radialGradient><radialGradient id="gtuzdamzUbAu" cx="286.30199957047313px" cy="1194.5873532574012px" r="654px" fx="286.30199957047313px" fy="1194.5873532574012px" gradientUnits="userSpaceOnUse"><stop offset="0" stop-color="rgb(204,0,51)" stop-opacity="1"/><stop offset="0.03261977573904179" stop-color="rgb(255,255,255)" stop-opacity="1"/></radialGradient></defs><g transform="translate(172.9941982472225,-156.75338123464886) scale(0.5610867275903425,0.5610867275903425)"><path fill="none" stroke="rgb(216,216,216)" paint-order="fill stroke markers" d=" M 1002.436795109506 981.5988568227568 L 856.3210973950315 1121.0634647935228" stroke-opacity="1" stroke-linejoin="round" stroke-miterlimit="10" stroke-width="0.77" stroke-dasharray="6,8"/><path fill="rgb(216,216,216)" stroke="none" paint-order="stroke fill markers" d=" M 858.4970278810746 1112.9731355962708 L 855.2070938074762 1122.1267596759114 L 864.5039535153477 1119.2665324870059 Z" fill-opacity="1"/><path fill="none" stroke="rgb(216,216,216)" paint-order="fill stroke markers" d=" M 1016.5096203328497 987.8006784959724 L 1014.4330888249441 1084.3953382604493" stroke-opacity="1" stroke-linejoin="round" stroke-miterlimit="10" stroke-width="7" stroke-dasharray="6,8"/><path fill="rgb(216,216,216)" stroke="none" paint-order="stroke fill markers" d=" M 1005.6009630726735 1080.3714476729044 L 1014.132195110804 1098.392104421702 L 1023.4299812869638 1080.754724741919 Z" fill-opacity="1"/><path fill="none" stroke="rgb(216,216,216)" paint-order="fill stroke markers" d=" M 1035.5943213262778 975.1064361568624 Q 1111.322330180921 1004.9495142957533 1173.194630898668 1054.7882248453084" stroke-opacity="1" stroke-linejoin="round" stroke-miterlimit="10" stroke-width="0.5" stroke-dasharray="6,8"/><path fill="rgb(216,216,216)" stroke="none" paint-order="stroke fill markers" d=" M 1164.440520060452 1053.4824898781328 L 1173.9734024247196 1055.4155325132126 L 1169.8001071142228 1046.6294010407507 Z" fill-opacity="1"/><path fill="none" stroke="rgb(216,216,216)" paint-order="fill stroke markers" d=" M 216.27616309123255 661.5785056565328 L 365.9220411342281 769.8253290184906" stroke-opacity="1" stroke-linejoin="round" stroke-miterlimit="10" stroke-width="0.5" stroke-dasharray="6,8"/><path fill="rgb(216,216,216)" stroke="none" paint-order="stroke fill markers" d=" M 357.1336589624415 768.8369774602771 L 366.73228519297226 770.4114216436531 L 362.2326648013546 761.7878541492029 Z" fill-opacity="1"/><path fill="none" stroke="rgb(216,216,216)" paint-order="fill stroke markers" d=" M 1580.8253385771184 705.7012588046156 L 1581.1115583162002 750.9966724899498" stroke-opacity="1" stroke-linejoin="round" stroke-miterlimit="10" stroke-width="0.5" stroke-dasharray="6,8"/><path fill="rgb(216,216,216)" stroke="none" paint-order="stroke fill markers" d=" M 1576.7129901675858 743.324313123888 L 1581.1178771463356 751.9966525259433 L 1585.4128164807298 743.2693393017103 Z" fill-opacity="1"/><path fill="none" stroke="rgb(216,216,216)" paint-order="fill stroke markers" d=" M 765.1403341026429 1226.8490006158925 L 763.7565667457204 1294.8718354700745" stroke-opacity="1" stroke-linejoin="round" stroke-miterlimit="10" stroke-width="0.8" stroke-dasharray="6,8"/><path fill="rgb(216,216,216)" stroke="none" paint-order="stroke fill markers" d=" M 759.5518697501503 1287.6848317010868 L 763.7240251762909 1296.4715045128014 L 768.2500701699782 1287.8617764848602 Z" fill-opacity="1"/><path fill="none" stroke="rgb(216,216,216)" paint-order="fill stroke markers" d=" M 745.9114252120352 1210.8531716883922 Q 679.2154781540871 1224.609059051766 614.0965316816212 1219.6334551104537" stroke-opacity="1" stroke-linejoin="round" stroke-miterlimit="10" stroke-width="0.5" stroke-dasharray="6,8"/><path fill="rgb(216,216,216)" stroke="none" paint-order="stroke fill markers" d=" M 622.0556464216876 1215.7626900151963 L 613.099438047823 1219.5572692493038 L 621.5088264594276 1224.445488407931 Z" fill-opacity="1"/><path fill="none" stroke="rgb(216,216,216)" paint-order="fill stroke markers" d=" M 932.6831211250262 894.9794926362282 L 1001.0101711247412 953.9957404827455" stroke-opacity="1" stroke-linejoin="round" stroke-miterlimit="10" stroke-width="0.5" stroke-dasharray="6,8"/><path fill="rgb(216,216,216)" stroke="none" paint-order="stroke fill markers" d=" M 992.3394827194882 952.2545734663423 L 1001.7669583927494 954.6494017336856 L 998.0263356026674 945.6705242346706 Z" fill-opacity="1"/><path fill="none" stroke="rgb(216,216,216)" paint-order="fill stroke markers" d=" M 1020.450782278958 744.8804791631516 L 1017.4783328790629 933.6095445992567" stroke-opacity="1" stroke-linejoin="round" stroke-miterlimit="10" stroke-width="7.05" stroke-dasharray="6,8"/><path fill="rgb(216,216,216)" stroke="none" paint-order="stroke fill markers" d=" M 1008.5661702563441 929.6209641897551 L 1017.2562879111347 947.7077961231946 L 1026.511682865012 929.9036028392984 Z" fill-opacity="1"/><path fill="none" stroke="rgb(216,216,216)" paint-order="fill stroke markers" d=" M 1123.4150952745892 858.3910243807965 L 1031.6524472513495 952.6441226769728" stroke-opacity="1" stroke-linejoin="round" stroke-miterlimit="10" stroke-width="0.52" stroke-dasharray="6,8"/><path fill="rgb(216,216,216)" stroke="none" paint-order="stroke fill markers" d=" M 1033.879072269073 944.1211982357703 L 1030.9269669146763 953.3892926449 L 1040.1127056546181 950.1901202829397 Z" fill-opacity="1"/><path fill="none" stroke="rgb(168,168,168)" paint-order="fill stroke markers" d=" M 201.333158301438 519.1008527508789 L 200.2404740978286 628.7783931068243" stroke-opacity="1" stroke-linejoin="round" stroke-miterlimit="10" stroke-width="0.5" stroke-dasharray="6,8"/><path fill="rgb(168,168,168)" stroke="none" paint-order="stroke fill markers" d=" M 195.96739892936685 621.0354396260991 L 200.2305118942934 629.7783434828434 L 204.66696720073293 621.1221107968556 Z" fill-opacity="1"/><path fill="none" stroke="rgb(216,216,216)" paint-order="fill stroke markers" d=" M 1580.0323966152941 639.0435525125947 L 1580.3977731030106 664.6038094189037" stroke-opacity="1" stroke-linejoin="round" stroke-miterlimit="10" stroke-width="0.5" stroke-dasharray="6,8"/><path fill="rgb(216,216,216)" stroke="none" paint-order="stroke fill markers" d=" M 1575.938159440362 656.966771643698 L 1580.412066353837 665.6037072651764 L 1584.6372707029345 656.8424203615093 Z" fill-opacity="1"/><path fill="none" stroke="rgb(165,165,165)" paint-order="fill stroke markers" d=" M 561.8258718451302 782.3702231660933 L 997.4458200110719 959.814385999136" stroke-opacity="1" stroke-linejoin="round" stroke-miterlimit="10" stroke-width="0.5" stroke-dasharray="6,8"/><path fill="rgb(165,165,165)" stroke="none" paint-order="stroke fill markers" d=" M 988.6737351412605 960.9382307556862 L 998.3719351229599 960.1916270355208 L 991.9557321578079 952.8810292822604 Z" fill-opacity="1"/><path fill="none" stroke="rgb(50,50,50)" paint-order="fill stroke markers" d=" M 214.01259638912495 779.1535709823534 L 996.4482782303623 962.9418308399117" stroke-opacity="1" stroke-linejoin="round" stroke-miterlimit="10" stroke-width="0.5" stroke-dasharray="6,8"/><path fill="rgb(50,50,50)" stroke="none" paint-order="stroke fill markers" d=" M 987.9575859185511 965.4158243860135 L 997.4217825004787 963.1704996748344 L 989.9470047823789 956.9463372359997 Z" fill-opacity="1"/><path fill="none" stroke="rgb(0,0,0)" paint-order="fill stroke markers" d=" M 1406.8349939890832 777.4778920847937 L 1035.8579934671175 958.5231609738983" stroke-opacity="1" stroke-linejoin="round" stroke-miterlimit="10" stroke-width="0.5" stroke-dasharray="6,8"/><path fill="rgb(0,0,0)" stroke="none" paint-order="stroke fill markers" d=" M 1040.8700846900265 951.2367735580908 L 1034.9593022390509 958.9617428665889 L 1044.685747156435 959.0553872422706 Z" fill-opacity="1"/><path fill="none" stroke="rgb(196,196,196)" paint-order="fill stroke markers" d=" M 103.34396540198009 859.7425468331107 L 746.9035864675686 1197.0315643615058" stroke-opacity="1" stroke-linejoin="round" stroke-miterlimit="10" stroke-width="0.5" stroke-dasharray="6,8"/><path fill="rgb(196,196,196)" stroke="none" paint-order="stroke fill markers" d=" M 738.0641897140952 1197.3100693608885 L 747.7893125567368 1197.4957726067655 L 742.1028014478535 1189.6042523851258 Z" fill-opacity="1"/><path fill="none" stroke="rgb(216,216,216)" paint-order="fill stroke markers" d=" M 827.2740075379322 1148.6216298671168 L 781.2444039453079 1192.008162606803" stroke-opacity="1" stroke-linejoin="round" stroke-miterlimit="10" stroke-width="0.76" stroke-dasharray="6,8"/><path fill="rgb(216,216,216)" stroke="none" paint-order="stroke fill markers" d=" M 783.4855318066257 1183.9179063741967 L 780.1383144405726 1193.0507392262964 L 789.4529111418842 1190.248813407879 Z" fill-opacity="1"/><path fill="none" stroke="rgb(216,216,216)" paint-order="fill stroke markers" d=" M 383.97521610693923 778.9132772740962 L 996.7691348360581 961.737271264876" stroke-opacity="1" stroke-linejoin="round" stroke-miterlimit="10" stroke-width="0.5" stroke-dasharray="6,8"/><path fill="rgb(216,216,216)" stroke="none" paint-order="stroke fill markers" d=" M 988.1468872611808 963.704336784253 L 997.7273965120798 962.0231638325795 L 990.6341526002017 955.3674602028644 Z" fill-opacity="1"/><path fill="none" stroke="rgb(216,216,216)" paint-order="fill stroke markers" d=" M 381.18513421062625 783.3453185892665 L 751.4004276378794 1191.2164458166928" stroke-opacity="1" stroke-linejoin="round" stroke-miterlimit="10" stroke-width="0.5" stroke-dasharray="6,8"/><path fill="rgb(216,216,216)" stroke="none" paint-order="stroke fill markers" d=" M 743.0042570763989 1188.438529348811 L 752.0725270681254 1191.9569067244138 L 749.4462669735717 1182.591264305671 Z" fill-opacity="1"/><path fill="none" stroke="rgb(216,216,216)" paint-order="fill stroke markers" d=" M 1566.4671274015159 776.6713132176108 L 784.0929697579194 1196.8436764842968" stroke-opacity="1" stroke-linejoin="round" stroke-miterlimit="10" stroke-width="0.5" stroke-dasharray="6,8"/><path fill="rgb(216,216,216)" stroke="none" paint-order="stroke fill markers" d=" M 788.8184632215402 1189.3682359270267 L 783.2119793012275 1197.3168105194475 L 792.9347293273516 1197.0328529002452 Z" fill-opacity="1"/><path fill="none" stroke="rgb(216,216,216)" paint-order="fill stroke markers" d=" M 1565.427314013986 774.3173265916325 L 1036.7921427853485 960.7541320155208" stroke-opacity="1" stroke-linejoin="round" stroke-miterlimit="10" stroke-width="0.5" stroke-dasharray="6,3"/><path fill="rgb(216,216,216)" stroke="none" paint-order="stroke fill markers" d=" M 1042.6069738553565 954.0907815349241 L 1035.8490739174608 961.0867295356877 L 1045.5005722808091 962.2954806855461 Z" fill-opacity="1"/><path fill="none" stroke="rgb(216,216,216)" paint-order="fill stroke markers" d=" M 1161.3479116981887 1074.947405817148 Q 1089.607775079615 1038.5423423510445 1032.0189324601145 982.4435593634595" stroke-opacity="1" stroke-linejoin="round" stroke-miterlimit="10" stroke-width="0.5"/><path fill="rgb(216,216,216)" stroke="none" paint-order="stroke fill markers" d=" M 1040.6105359939152 984.5698180327097 L 1031.302619427155 981.7457802875249 L 1034.6281391710634 990.886536188044 Z" fill-opacity="1"/><path fill="none" stroke="rgb(216,216,216)" paint-order="fill stroke markers" d=" M 613.9471802163969 1186.298921590312 Q 680.2347313218852 1184.6220471231418 745.175434752904 1201.506340436683" stroke-opacity="1" stroke-linejoin="round" stroke-miterlimit="10" stroke-width="0.5" stroke-dasharray="6,8"/><path fill="rgb(216,216,216)" stroke="none" paint-order="stroke fill markers" d=" M 736.6550817020008 1203.8996996038732 L 746.1432583107023 1201.7579702460673 L 738.7369688592366 1195.4524665737895 Z" fill-opacity="1"/><path fill="url(#plxVPTyUsyXZ)" stroke="rgb(0,0,0)" paint-order="fill stroke markers" d=" M 1036.9405431163145 967.7553098150354 L 1036.8788897909772 969.3244917295923 L 1036.6943099282173 970.88399911584 L 1036.3879415242682 972.4242170921535 L 1035.9616734422177 973.9356497025343 L 1035.4181337665404 975.4089784623371 L 1034.760673600082 976.8351198098263 L 1033.9933464033966 978.2052811093544 L 1033.1208830038136 979.5110148608849 L 1032.1486624283152 980.7442707816391 L 1031.0826787400456 981.8974454387663 L 1029.9295040829184 982.963429127036 L 1028.696248162164 983.9356497025343 L 1027.3905144106336 984.8081131021172 L 1026.0203531111056 985.5754402988027 L 1024.5942117636164 986.2329004652611 L 1023.1208830038136 986.7764401409385 L 1021.6094503934328 987.2027082229889 L 1020.0692324171192 987.5090766269382 L 1018.5097250308716 987.6936564896979 L 1016.9405431163146 987.7553098150354 L 1015.3713612017577 987.6936564896979 L 1013.8118538155101 987.5090766269382 L 1012.2716358391965 987.2027082229889 L 1010.7602032288157 986.7764401409385 L 1009.2868744690129 986.2329004652611 L 1007.8607331215237 985.5754402988027 L 1006.4905718219957 984.8081131021172 L 1005.1848380704652 983.9356497025343 L 1003.9515821497109 982.963429127036 L 1002.7984074925837 981.8974454387663 L 1001.7324238043141 980.7442707816391 L 1000.7602032288157 979.5110148608849 L 999.8877398292328 978.2052811093544 L 999.1204126325473 976.8351198098263 L 998.462952466089 975.4089784623371 L 997.9194127904116 973.9356497025343 L 997.4931447083611 972.4242170921535 L 997.1867763044119 970.88399911584 L 997.0021964416521 969.3244917295923 L 996.9405431163146 967.7553098150354 L 997.0021964416521 966.1861279004785 L 997.1867763044119 964.6266205142308 L 997.4931447083611 963.0864025379173 L 997.9194127904116 961.5749699275365 L 998.462952466089 960.1016411677336 L 999.1204126325473 958.6754998202445 L 999.8877398292328 957.3053385207164 L 1000.7602032288157 955.9996047691859 L 1001.7324238043141 954.7663488484317 L 1002.7984074925837 953.6131741913044 L 1003.9515821497109 952.5471905030348 L 1005.1848380704652 951.5749699275365 L 1006.4905718219957 950.7025065279536 L 1007.8607331215237 949.935179331268 L 1009.2868744690129 949.2777191648097 L 1010.7602032288157 948.7341794891323 L 1012.2716358391966 948.3079114070819 L 1013.8118538155101 948.0015430031326 L 1015.3713612017578 947.8169631403729 L 1016.9405431163148 947.7553098150354 L 1018.5097250308717 947.8169631403729 L 1020.0692324171193 948.0015430031326 L 1021.6094503934329 948.3079114070819 L 1023.1208830038137 948.7341794891323 L 1024.5942117636166 949.2777191648097 L 1026.0203531111056 949.935179331268 L 1027.3905144106338 950.7025065279536 L 1028.6962481621642 951.5749699275365 L 1029.9295040829184 952.5471905030348 L 1031.0826787400456 953.6131741913046 L 1032.1486624283154 954.7663488484318 L 1033.1208830038138 955.999604769186 L 1033.9933464033966 957.3053385207165 L 1034.760673600082 958.6754998202446 L 1035.4181337665404 960.1016411677338 L 1035.9616734422177 961.5749699275366 L 1036.3879415242682 963.0864025379175 L 1036.6943099282175 964.626620514231 L 1036.8788897909772 966.1861279004787 Z" stroke-opacity="1" stroke-miterlimit="10" stroke-width="0.1"/><text fill="rgb(0,0,0)" stroke="none" font-family="Helvetica Neue, Helvetica, sans-serif" font-size="16px" font-style="normal" font-weight="normal" text-decoration="normal" x="1016.9405431163146" y="975.7553098150354" text-anchor="middle" dominant-baseline="text-after-edge" fill-opacity="1">Powerline</text><path fill="url(#OTTzspnuBCIm)" stroke="rgb(0,0,0)" paint-order="fill stroke markers" d=" M 220.03076971341204 649.8273485220262 L 219.9691163880746 651.3965304365831 L 219.7845365253148 652.9560378228308 L 219.47816812136557 654.4962557991444 L 219.05190003931511 656.0076884095251 L 218.5083603636378 657.481017169328 L 217.85090019717939 658.9071585168172 L 217.08357300049389 660.2773198163452 L 216.211109600911 661.5830535678757 L 215.23888902541267 662.8163094886299 L 214.172905337143 663.9694841457572 L 213.01973068001573 665.0354678340268 L 211.7864747592615 666.0076884095251 L 210.480741007731 666.880151809108 L 209.11057970820298 667.6474790057936 L 207.68443836071384 668.3049391722519 L 206.211109600911 668.8484788479293 L 204.69967699053015 669.2747469299798 L 203.15945901421665 669.581115333929 L 201.59995162796895 669.7656951966887 L 200.03076971341204 669.8273485220262 L 198.46158779885513 669.7656951966887 L 196.90208041260743 669.581115333929 L 195.36186243629393 669.2747469299798 L 193.8504298259131 668.8484788479293 L 192.37710106611024 668.3049391722519 L 190.9509597186211 667.6474790057936 L 189.58079841909307 666.880151809108 L 188.2750646675626 666.0076884095251 L 187.04180874680839 665.0354678340268 L 185.8886340896811 663.9694841457572 L 184.8226504014114 662.8163094886299 L 183.8504298259131 661.5830535678757 L 182.9779664263302 660.2773198163452 L 182.2106392296447 658.9071585168172 L 181.5531790631863 657.481017169328 L 181.00963938750897 656.0076884095251 L 180.5833713054585 654.4962557991444 L 180.2770029015093 652.9560378228308 L 180.09242303874947 651.3965304365831 L 180.03076971341204 649.8273485220262 L 180.09242303874947 648.2581666074693 L 180.2770029015093 646.6986592212216 L 180.5833713054585 645.1584412449081 L 181.00963938750897 643.6470086345273 L 181.5531790631863 642.1736798747245 L 182.2106392296447 640.7475385272353 L 182.9779664263302 639.3773772277073 L 183.8504298259131 638.0716434761767 L 184.8226504014114 636.8383875554225 L 185.8886340896811 635.6852128982953 L 187.04180874680836 634.6192292100257 L 188.2750646675626 633.6470086345273 L 189.58079841909307 632.7745452349444 L 190.9509597186211 632.0072180382589 L 192.37710106611027 631.3497578718005 L 193.85042982591312 630.8062181961232 L 195.36186243629396 630.3799501140727 L 196.90208041260746 630.0735817101234 L 198.4615877988552 629.8890018473637 L 200.0307697134121 629.8273485220262 L 201.599951627969 629.8890018473637 L 203.15945901421674 630.0735817101234 L 204.69967699053024 630.3799501140727 L 206.2111096009111 630.8062181961232 L 207.68443836071395 631.3497578718005 L 209.1105797082031 632.0072180382589 L 210.48074100773113 632.7745452349444 L 211.7864747592616 633.6470086345273 L 213.0197306800158 634.6192292100257 L 214.1729053371431 635.6852128982954 L 215.23888902541276 636.8383875554226 L 216.2111096009111 638.0716434761769 L 217.08357300049397 639.3773772277074 L 217.8509001971795 640.7475385272354 L 218.50836036363785 642.1736798747246 L 219.05190003931517 643.6470086345274 L 219.47816812136563 645.1584412449083 L 219.78453652531482 646.6986592212219 L 219.9691163880746 648.2581666074695 Z" stroke-opacity="1" stroke-miterlimit="10" stroke-width="0.1"/><text fill="rgb(0,0,0)" stroke="none" font-family="Helvetica Neue, Helvetica, sans-serif" font-size="16px" font-style="normal" font-weight="normal" text-decoration="normal" x="200.03076971341204" y="657.8273485220262" text-anchor="middle" dominant-baseline="text-after-edge" fill-opacity="1">Hard Coal Supply Line</text><path fill="url(#QwLbHTVGREXg)" stroke="rgb(0,0,0)" paint-order="fill stroke markers" d=" M 1600.6986460329042 685.6516590829443 L 1600.6369927075668 687.2208409975012 L 1600.452412844807 688.7803483837489 L 1600.1460444408578 690.3205663600625 L 1599.7197763588072 691.8319989704432 L 1599.17623668313 693.3053277302461 L 1598.5187765166716 694.7314690777353 L 1597.751449319986 696.1016303772633 L 1596.8789859204032 697.4073641287938 L 1595.906765344905 698.640620049548 L 1594.840781656635 699.7937947066753 L 1593.6876069995078 700.8597783949449 L 1592.4543510787537 701.8319989704432 L 1591.1486173272233 702.7044623700261 L 1589.7784560276953 703.4717895667117 L 1588.352314680206 704.12924973317 L 1586.8789859204032 704.6727894088474 L 1585.3675533100222 705.0990574908978 L 1583.8273353337088 705.4054258948471 L 1582.267827947461 705.5900057576068 L 1580.6986460329042 705.6516590829443 L 1579.1294641183474 705.5900057576068 L 1577.5699567320996 705.4054258948471 L 1576.0297387557862 705.0990574908978 L 1574.5183061454052 704.6727894088474 L 1573.0449773856024 704.12924973317 L 1571.6188360381134 703.4717895667117 L 1570.2486747385851 702.7044623700261 L 1568.9429409870547 701.8319989704432 L 1567.7096850663006 700.8597783949449 L 1566.5565104091734 699.7937947066753 L 1565.4905267209035 698.640620049548 L 1564.5183061454052 697.4073641287938 L 1563.6458427458224 696.1016303772633 L 1562.8785155491369 694.7314690777353 L 1562.2210553826785 693.3053277302461 L 1561.6775157070012 691.8319989704432 L 1561.2512476249506 690.3205663600625 L 1560.9448792210014 688.7803483837489 L 1560.7602993582416 687.2208409975012 L 1560.6986460329042 685.6516590829443 L 1560.7602993582416 684.0824771683874 L 1560.9448792210014 682.5229697821397 L 1561.2512476249506 680.9827518058262 L 1561.677515707001 679.4713191954454 L 1562.2210553826785 677.9979904356426 L 1562.8785155491369 676.5718490881534 L 1563.6458427458224 675.2016877886253 L 1564.5183061454052 673.8959540370948 L 1565.4905267209035 672.6626981163406 L 1566.5565104091731 671.5095234592134 L 1567.7096850663006 670.4435397709437 L 1568.9429409870547 669.4713191954454 L 1570.2486747385851 668.5988557958625 L 1571.6188360381134 667.831528599177 L 1573.0449773856024 667.1740684327186 L 1574.5183061454052 666.6305287570412 L 1576.0297387557862 666.2042606749908 L 1577.5699567320996 665.8978922710415 L 1579.1294641183474 665.7133124082818 L 1580.6986460329042 665.6516590829443 L 1582.2678279474612 665.7133124082818 L 1583.827335333709 665.8978922710415 L 1585.3675533100225 666.2042606749908 L 1586.8789859204032 666.6305287570412 L 1588.352314680206 667.1740684327186 L 1589.7784560276953 667.831528599177 L 1591.1486173272233 668.5988557958625 L 1592.4543510787537 669.4713191954454 L 1593.687606999508 670.4435397709437 L 1594.8407816566353 671.5095234592135 L 1595.906765344905 672.6626981163407 L 1596.8789859204032 673.895954037095 L 1597.7514493199862 675.2016877886255 L 1598.5187765166716 676.5718490881535 L 1599.1762366831301 677.9979904356427 L 1599.7197763588074 679.4713191954455 L 1600.1460444408578 680.9827518058264 L 1600.452412844807 682.52296978214 L 1600.6369927075668 684.0824771683876 Z" stroke-opacity="1" stroke-miterlimit="10" stroke-width="0.1"/><text fill="rgb(0,0,0)" stroke="none" font-family="Helvetica Neue, Helvetica, sans-serif" font-size="16px" font-style="normal" font-weight="normal" text-decoration="normal" x="1580.6986460329042" y="693.6516590829443" text-anchor="middle" dominant-baseline="text-after-edge" fill-opacity="1">Biogas Line</text><path fill="url(#RglZtIIqHVlh)" stroke="rgb(0,0,0)" paint-order="fill stroke markers" d=" M 785.5481206445575 1206.80314792422 L 785.48646731922 1208.3723298387767 L 785.3018874564602 1209.9318372250245 L 784.995519052511 1211.472055201338 L 784.5692509704605 1212.983487811719 L 784.0257112947832 1214.4568165715218 L 783.3682511283248 1215.882957919011 L 782.6009239316393 1217.253119218539 L 781.7284605320564 1218.5588529700694 L 780.756239956558 1219.7921088908236 L 779.6902562682884 1220.9452835479508 L 778.5370816111612 1222.0112672362206 L 777.3038256904069 1222.983487811719 L 775.9980919388764 1223.8559512113018 L 774.6279306393484 1224.6232784079873 L 773.2017892918592 1225.2807385744456 L 771.7284605320564 1225.824278250123 L 770.2170279216756 1226.2505463321736 L 768.676809945362 1226.5569147361227 L 767.1173025591144 1226.7414945988826 L 765.5481206445575 1226.80314792422 L 763.9789387300006 1226.7414945988826 L 762.4194313437529 1226.5569147361227 L 760.8792133674393 1226.2505463321736 L 759.3677807570585 1225.824278250123 L 757.8944519972557 1225.2807385744456 L 756.4683106497665 1224.6232784079873 L 755.0981493502385 1223.8559512113018 L 753.792415598708 1222.983487811719 L 752.5591596779537 1222.0112672362206 L 751.4059850208265 1220.945283547951 L 750.3400013325569 1219.7921088908236 L 749.3677807570585 1218.5588529700694 L 748.4953173574756 1217.253119218539 L 747.7279901607901 1215.882957919011 L 747.0705299943318 1214.4568165715218 L 746.5269903186544 1212.983487811719 L 746.1007222366039 1211.472055201338 L 745.7943538326547 1209.9318372250245 L 745.609773969895 1208.3723298387767 L 745.5481206445575 1206.80314792422 L 745.609773969895 1205.2339660096632 L 745.7943538326547 1203.6744586234154 L 746.1007222366039 1202.134240647102 L 746.5269903186544 1200.622808036721 L 747.0705299943318 1199.149479276918 L 747.7279901607901 1197.7233379294291 L 748.4953173574756 1196.3531766299009 L 749.3677807570585 1195.0474428783705 L 750.3400013325569 1193.8141869576164 L 751.4059850208265 1192.6610123004891 L 752.5591596779537 1191.5950286122193 L 753.792415598708 1190.622808036721 L 755.0981493502385 1189.7503446371381 L 756.4683106497665 1188.9830174404526 L 757.8944519972557 1188.3255572739943 L 759.3677807570585 1187.7820175983168 L 760.8792133674394 1187.3557495162663 L 762.4194313437529 1187.0493811123172 L 763.9789387300007 1186.8648012495573 L 765.5481206445576 1186.80314792422 L 767.1173025591145 1186.8648012495573 L 768.6768099453622 1187.0493811123172 L 770.2170279216757 1187.3557495162665 L 771.7284605320565 1187.782017598317 L 773.2017892918593 1188.3255572739943 L 774.6279306393485 1188.9830174404526 L 775.9980919388765 1189.7503446371381 L 777.303825690407 1190.6228080367212 L 778.5370816111613 1191.5950286122195 L 779.6902562682885 1192.6610123004891 L 780.7562399565581 1193.8141869576164 L 781.7284605320565 1195.0474428783707 L 782.6009239316394 1196.353176629901 L 783.3682511283249 1197.7233379294291 L 784.0257112947833 1199.1494792769183 L 784.5692509704606 1200.6228080367212 L 784.995519052511 1202.1342406471022 L 785.3018874564602 1203.6744586234156 L 785.4864673192201 1205.2339660096634 Z" stroke-opacity="1" stroke-miterlimit="10" stroke-width="0.1"/><text fill="rgb(0,0,0)" stroke="none" font-family="Helvetica Neue, Helvetica, sans-serif" font-size="16px" font-style="normal" font-weight="normal" text-decoration="normal" x="765.5481206445575" y="1214.80314792422" text-anchor="middle" dominant-baseline="text-after-edge" fill-opacity="1">Heatline</text><path fill="url(#NAnBbUrdSDrP)" stroke="rgb(255,119,0)" paint-order="fill stroke markers" d=" M 958.5041120951261 823.5670009710183 L 958.1696428051705 832.0798128574894 L 957.1682970496985 840.5401404278833 L 955.506248458274 848.895822949384 L 953.1937441131502 857.0953448607 L 950.2450413726007 865.0881533826305 L 946.678319969564 872.8249701927591 L 942.515569927545 880.2580952426987 L 937.7824559848078 887.3417008447516 L 932.5081593627294 894.0321142148432 L 926.7251978538665 900.2880867297587 L 920.469225338951 906.0710482386216 L 913.7788119688594 911.3453448607 L 906.6952063668065 916.0784588034372 L 899.2620813168669 920.2412088454562 L 891.5252645067383 923.8079302484929 L 883.5324559848078 926.7566329890424 L 875.3329340734919 929.0691373341662 L 866.9772515519911 930.7311859255907 L 858.5169239815972 931.7325316810627 L 850.0041120951261 932.0670009710183 L 841.4913002086549 931.7325316810627 L 833.030972638261 930.7311859255907 L 824.6752901167604 929.0691373341662 L 816.4757682054443 926.7566329890425 L 808.4829596835139 923.8079302484929 L 800.7461428733852 920.2412088454562 L 793.3130178234456 916.0784588034373 L 786.2294122213927 911.3453448607 L 779.5389988513011 906.0710482386216 L 773.2830263363857 900.2880867297587 L 767.5000648275227 894.0321142148432 L 762.2257682054443 887.3417008447516 L 757.4926542627071 880.2580952426987 L 753.3299042206881 872.8249701927591 L 749.7631828176515 865.0881533826305 L 746.814480077102 857.0953448607 L 744.5019757319782 848.8958229493841 L 742.8399271405536 840.5401404278833 L 741.8385813850816 832.0798128574895 L 741.5041120951261 823.5670009710183 L 741.8385813850816 815.0541890845471 L 742.8399271405536 806.5938615141532 L 744.5019757319782 798.2381789926526 L 746.8144800771018 790.0386570813365 L 749.7631828176515 782.0458485594061 L 753.3299042206881 774.3090317492774 L 757.492654262707 766.8759066993379 L 762.2257682054443 759.792301097285 L 767.5000648275227 753.1018877271933 L 773.2830263363857 746.8459152122779 L 779.5389988513011 741.0629537034149 L 786.2294122213927 735.7886570813365 L 793.3130178234456 731.0555431385992 L 800.7461428733853 726.8927930965804 L 808.482959683514 723.3260716935436 L 816.4757682054444 720.3773689529941 L 824.6752901167605 718.0648646078703 L 833.0309726382612 716.4028160164457 L 841.4913002086552 715.4014702609738 L 850.0041120951264 715.0670009710183 L 858.5169239815976 715.401470260974 L 866.9772515519916 716.4028160164459 L 875.3329340734923 718.0648646078705 L 883.5324559848084 720.3773689529943 L 891.5252645067388 723.3260716935439 L 899.2620813168675 726.8927930965807 L 906.6952063668072 731.0555431385997 L 913.77881196886 735.788657081337 L 920.4692253389516 741.0629537034155 L 926.725197853867 746.8459152122784 L 932.50815936273 753.101887727194 L 937.7824559848084 759.7923010972856 L 942.5155699275456 766.8759066993387 L 946.6783199695644 774.3090317492783 L 950.2450413726011 782.045848559407 L 953.1937441131506 790.0386570813375 L 955.5062484582743 798.2381789926537 L 957.1682970496987 806.5938615141545 L 958.1696428051705 815.0541890845484 Z" stroke-opacity="1" stroke-miterlimit="10" stroke-width="1.5"/><text fill="rgb(0,0,0)" stroke="none" font-family="Helvetica Neue, Helvetica, sans-serif" font-size="16px" font-style="normal" font-weight="normal" text-decoration="normal" x="850.0041120951261" y="831.5670009710183" text-anchor="middle" dominant-baseline="text-after-edge" fill-opacity="1">Solar Panel</text><path fill="url(#SCnWekeEOSeg)" stroke="rgb(153,204,255)" paint-order="fill stroke markers" d=" M 1400.8601705211631 369.677012187428 L 1399.7057120042195 399.0599435375059 L 1396.2494540740422 428.26171934499445 L 1390.512705710093 457.10230095146454 L 1382.5308358736982 485.4038765808458 L 1372.35305544664 512.991957608154 L 1360.042113829707 539.6964543398883 L 1345.6739120717707 565.3527246735508 L 1329.337034914581 589.8025891709592 L 1311.1322046383748 612.8953062870818 L 1291.1716600755253 634.4885017417901 L 1269.578464620817 654.4490463046395 L 1246.4857475046942 672.6538765808458 L 1222.035883007286 688.9907537380354 L 1196.3796126736233 703.3589554959717 L 1169.6751159418893 715.6698971129049 L 1142.087034914581 725.847677539963 L 1113.7854592851997 733.8295473763578 L 1084.9448776787297 739.566295740307 L 1055.7431018712412 743.0225536704844 L 1026.3601705211631 744.177012187428 L 996.9772391710852 743.0225536704844 L 967.7754633635967 739.566295740307 L 938.9348817571266 733.8295473763578 L 910.6333061277453 725.847677539963 L 883.045225100437 715.6698971129049 L 856.3407283687029 703.3589554959717 L 830.6844580350403 688.9907537380356 L 806.234593537632 672.6538765808458 L 783.1418764215093 654.4490463046395 L 761.5486809668012 634.4885017417901 L 741.5881364039515 612.8953062870818 L 723.3833061277453 589.8025891709592 L 707.0464289705556 565.3527246735508 L 692.6782272126194 539.6964543398883 L 680.3672855956863 512.9919576081542 L 670.1895051686281 485.4038765808458 L 662.2076353322333 457.1023009514646 L 656.470886968284 428.2617193449945 L 653.0146290381067 399.05994353750594 L 651.8601705211631 369.67701218742803 L 653.0146290381067 340.29408083735007 L 656.470886968284 311.09230502986156 L 662.2076353322332 282.25172342339147 L 670.1895051686281 253.9501477940102 L 680.3672855956862 226.3620667667019 L 692.6782272126193 199.65757003496773 L 707.0464289705556 174.0012997013052 L 723.3833061277453 149.55143520389683 L 741.5881364039515 126.45871808777423 L 761.548680966801 104.86552263306595 L 783.1418764215092 84.90497807021654 L 806.2345935376319 66.7001477940102 L 830.6844580350404 50.363270636820346 L 856.3407283687031 35.99506887888407 L 883.0452251004374 23.684127261950948 L 910.6333061277459 13.506346834892781 L 938.9348817571273 5.524476998497903 L 967.7754633635976 -0.2122713654512154 L 996.9772391710862 -3.6685292956285025 L 1026.3601705211645 -4.822987812572023 L 1055.7431018712425 -3.668529295628332 L 1084.9448776787312 -0.21227136545087433 L 1113.7854592852013 5.524476998498471 L 1142.0870349145828 13.506346834893577 L 1169.6751159418911 23.684127261951858 L 1196.3796126736254 35.99506887888526 L 1222.035883007288 50.36327063682171 L 1246.4857475046965 66.70014779401168 L 1269.578464620819 84.90497807021819 L 1291.1716600755271 104.865522633068 L 1311.1322046383766 126.45871808777653 L 1329.337034914583 149.55143520389942 L 1345.6739120717725 174.00129970130803 L 1360.0421138297086 199.6575700349709 L 1372.3530554466415 226.3620667667053 L 1382.5308358736993 253.95014779401387 L 1390.512705710094 282.25172342339533 L 1396.249454074043 311.0923050298657 L 1399.70571200422 340.29408083735444 Z" stroke-opacity="1" stroke-miterlimit="10" stroke-width="1.5"/><text fill="rgb(0,0,0)" stroke="none" font-family="Helvetica Neue, Helvetica, sans-serif" font-size="16px" font-style="normal" font-weight="normal" text-decoration="normal" x="1026.3601705211631" y="377.677012187428" text-anchor="middle" dominant-baseline="text-after-edge" fill-opacity="1">Onshore Wind Turbine</text><path fill="url(#tKlUEuReHAoG)" stroke="rgb(0,204,255)" paint-order="fill stroke markers" d=" M 1221.548969900752 816.6543410810266 L 1221.3717165904068 821.1657390853777 L 1220.8410494849722 825.6493228208399 L 1219.9602403236183 830.0774495027412 L 1218.7347195877232 834.4228182575861 L 1217.1720430201508 838.6586384420192 L 1215.281845041583 842.7587948160506 L 1213.0757793511123 846.6980085521936 L 1210.5674470773113 850.4519930878438 L 1207.7723129227536 853.9976038600122 L 1204.7076098189784 857.3129809992531 L 1201.3922326797374 860.3776841030284 L 1197.846621907569 863.1728182575861 L 1194.092637371919 865.681150531387 L 1190.1534236357759 867.8872162218578 L 1186.0532672617446 869.7774142004256 L 1181.8174470773113 871.3400907679979 L 1177.4720783224664 872.565611503893 L 1173.0439516405652 873.446420665247 L 1168.560367905103 873.9770877706815 L 1164.048969900752 874.1543410810266 L 1159.5375718964008 873.9770877706815 L 1155.0539881609386 873.446420665247 L 1150.6258614790374 872.565611503893 L 1146.2804927241925 871.3400907679979 L 1142.0446725397592 869.7774142004256 L 1137.944516165728 867.8872162218578 L 1134.0053024295848 865.681150531387 L 1130.2513178939348 863.1728182575861 L 1126.7057071217664 860.3776841030284 L 1123.3903299825254 857.3129809992531 L 1120.3256268787502 853.9976038600122 L 1117.5304927241925 850.4519930878438 L 1115.0221604503915 846.6980085521936 L 1112.8160947599208 842.7587948160506 L 1110.925896781353 838.6586384420193 L 1109.3632202137806 834.4228182575861 L 1108.1376994778855 830.0774495027412 L 1107.2568903165316 825.6493228208399 L 1106.726223211097 821.1657390853777 L 1106.548969900752 816.6543410810266 L 1106.726223211097 812.1429430766755 L 1107.2568903165316 807.6593593412133 L 1108.1376994778855 803.231232659312 L 1109.3632202137806 798.8858639044671 L 1110.925896781353 794.650043720034 L 1112.8160947599208 790.5498873460026 L 1115.0221604503915 786.6106736098595 L 1117.5304927241923 782.8566890742094 L 1120.3256268787502 779.311078302041 L 1123.3903299825254 775.9957011628001 L 1126.7057071217664 772.9309980590249 L 1130.2513178939346 770.1358639044671 L 1134.0053024295848 767.6275316306662 L 1137.944516165728 765.4214659401954 L 1142.0446725397594 763.5312679616276 L 1146.2804927241925 761.9685913940552 L 1150.6258614790374 760.7430706581601 L 1155.0539881609388 759.8622614968061 L 1159.537571896401 759.3315943913717 L 1164.0489699007521 759.1543410810266 L 1168.5603679051032 759.3315943913717 L 1173.0439516405654 759.8622614968062 L 1177.4720783224668 760.7430706581603 L 1181.8174470773117 761.9685913940554 L 1186.0532672617448 763.5312679616277 L 1190.153423635776 765.4214659401956 L 1194.0926373719192 767.6275316306665 L 1197.8466219075694 770.1358639044673 L 1201.3922326797378 772.9309980590251 L 1204.7076098189787 775.9957011628004 L 1207.772312922754 779.3110783020413 L 1210.5674470773117 782.8566890742097 L 1213.0757793511125 786.61067360986 L 1215.2818450415832 790.5498873460032 L 1217.172043020151 794.6500437200344 L 1218.7347195877235 798.8858639044677 L 1219.9602403236186 803.2312326593126 L 1220.8410494849725 807.659359341214 L 1221.3717165904068 812.1429430766761 Z" stroke-opacity="1" stroke-miterlimit="10" stroke-width="1.5"/><text fill="rgb(0,0,0)" stroke="none" font-family="Helvetica Neue, Helvetica, sans-serif" font-size="16px" font-style="normal" font-weight="normal" text-decoration="normal" x="1164.048969900752" y="824.6543410810266" text-anchor="middle" dominant-baseline="text-after-edge" fill-opacity="1">Offshore Wind Turbine</text><path fill="url(#iHoVgmdabVfJ)" stroke="rgb(102,102,102)" paint-order="fill stroke markers" d=" M 201.84561105585703 517.850914780855 L 201.8440697227236 517.8901443287189 L 201.8394552261546 517.9291320133751 L 201.83179601605588 517.9676374627829 L 201.8211393140046 518.0054232780425 L 201.8075508221127 518.0422564970376 L 201.7911143179512 518.0779100307248 L 201.7719311380341 518.112164063213 L 201.7501195530445 518.1448074070012 L 201.72581403865706 518.1756388050201 L 201.6991644464503 518.2044681714482 L 201.6703350800221 518.231117763655 L 201.63950368200327 518.2554232780425 L 201.606860338215 518.277234863032 L 201.57260630572682 518.2964180429492 L 201.53695277203957 518.3128545471106 L 201.5001195530445 518.3264430390026 L 201.46233373778497 518.3370997410537 L 201.42382828837714 518.3447589511526 L 201.38484060372096 518.3493734477215 L 201.34561105585703 518.350914780855 L 201.3063815079931 518.3493734477215 L 201.26739382333693 518.3447589511526 L 201.2288883739291 518.3370997410537 L 201.19110255866957 518.3264430390026 L 201.1542693396745 518.3128545471106 L 201.11861580598728 518.2964180429492 L 201.08436177349907 518.277234863032 L 201.0517184297108 518.2554232780425 L 201.02088703169196 518.231117763655 L 200.99205766526376 518.2044681714482 L 200.965408073057 518.1756388050201 L 200.94110255866957 518.1448074070012 L 200.91929097367998 518.112164063213 L 200.90010779376286 518.0779100307248 L 200.88367128960138 518.0422564970376 L 200.87008279770947 518.0054232780425 L 200.8594260956582 517.9676374627829 L 200.85176688555947 517.9291320133751 L 200.84715238899048 517.8901443287189 L 200.84561105585703 517.850914780855 L 200.84715238899048 517.8116852329911 L 200.85176688555947 517.7726975483348 L 200.8594260956582 517.734192098927 L 200.87008279770947 517.6964062836674 L 200.88367128960138 517.6595730646724 L 200.90010779376286 517.6239195309852 L 200.91929097367998 517.589665498497 L 200.94110255866957 517.5570221547088 L 200.965408073057 517.5261907566899 L 200.99205766526376 517.4973613902617 L 201.02088703169196 517.4707117980549 L 201.0517184297108 517.4464062836674 L 201.08436177349907 517.4245946986779 L 201.11861580598728 517.4054115187607 L 201.1542693396745 517.3889750145993 L 201.19110255866957 517.3753865227073 L 201.2288883739291 517.3647298206562 L 201.26739382333693 517.3570706105573 L 201.3063815079931 517.3524561139884 L 201.34561105585703 517.350914780855 L 201.38484060372096 517.3524561139884 L 201.42382828837717 517.3570706105573 L 201.462333737785 517.3647298206562 L 201.5001195530445 517.3753865227073 L 201.53695277203957 517.3889750145993 L 201.57260630572682 517.4054115187607 L 201.606860338215 517.4245946986779 L 201.63950368200327 517.4464062836674 L 201.67033508002214 517.4707117980549 L 201.6991644464503 517.4973613902617 L 201.72581403865706 517.5261907566899 L 201.7501195530445 517.5570221547088 L 201.7719311380341 517.589665498497 L 201.7911143179512 517.6239195309852 L 201.8075508221127 517.6595730646724 L 201.82113931400463 517.6964062836674 L 201.83179601605588 517.734192098927 L 201.8394552261546 517.7726975483348 L 201.8440697227236 517.8116852329911 Z" stroke-opacity="1" stroke-miterlimit="10" stroke-width="1.5"/><text fill="rgb(0,0,0)" stroke="none" font-family="Helvetica Neue, Helvetica, sans-serif" font-size="16px" font-style="normal" font-weight="normal" text-decoration="normal" x="201.34561105585703" y="525.850914780855" text-anchor="middle" dominant-baseline="text-after-edge" fill-opacity="1">Hard Coal Supply</text><path fill="url(#ntJsxdbMCBhK)" stroke="rgb(0,102,0)" paint-order="fill stroke markers" d=" M 1612.0571460253198 605.7969491240269 L 1611.9569593716465 608.3468697351819 L 1611.6570170946618 610.8810692378345 L 1611.1591684382443 613.3839234493438 L 1610.4664828049122 615.8400014412127 L 1609.5832308319366 618.2341606758923 L 1608.5148580614416 620.5516403655622 L 1607.2679513668277 622.7781524772953 L 1605.8501983425056 624.8999698235323 L 1604.2703399073207 626.9040106947579 L 1602.5381164138826 628.7779195125897 L 1600.6642075960508 630.5101430060279 L 1598.660166724825 632.0900014412127 L 1596.538349378588 633.507754465535 L 1594.311837266855 634.7546611601489 L 1591.9943575771852 635.8230339306438 L 1589.6001983425056 636.7062859036195 L 1587.1441203506367 637.3989715369514 L 1584.6412661391273 637.8968201933689 L 1582.1070666364747 638.1967624703536 L 1579.5571460253198 638.2969491240269 L 1577.0072254141649 638.1967624703536 L 1574.4730259115122 637.8968201933689 L 1571.9701717000028 637.3989715369514 L 1569.514093708134 636.7062859036195 L 1567.1199344734544 635.8230339306438 L 1564.8024547837845 634.7546611601489 L 1562.5759426720515 633.507754465535 L 1560.4541253258144 632.0900014412127 L 1558.4500844545887 630.5101430060279 L 1556.576175636757 628.7779195125897 L 1554.8439521433188 626.9040106947579 L 1553.264093708134 624.8999698235323 L 1551.8463406838118 622.7781524772953 L 1550.599433989198 620.5516403655622 L 1549.531061218703 618.2341606758923 L 1548.6478092457273 615.8400014412127 L 1547.9551236123953 613.3839234493438 L 1547.4572749559777 610.8810692378345 L 1547.157332678993 608.3468697351819 L 1547.0571460253198 605.7969491240269 L 1547.157332678993 603.247028512872 L 1547.4572749559777 600.7128290102195 L 1547.9551236123953 598.20997479871 L 1548.6478092457273 595.7538968068411 L 1549.531061218703 593.3597375721615 L 1550.599433989198 591.0422578824916 L 1551.8463406838118 588.8157457707586 L 1553.264093708134 586.6939284245216 L 1554.8439521433188 584.689887553296 L 1556.576175636757 582.8159787354641 L 1558.4500844545887 581.083755242026 L 1560.4541253258144 579.5038968068411 L 1562.5759426720515 578.0861437825189 L 1564.8024547837845 576.839237087905 L 1567.1199344734544 575.7708643174101 L 1569.514093708134 574.8876123444344 L 1571.970171700003 574.1949267111024 L 1574.4730259115124 573.6970780546849 L 1577.0072254141649 573.3971357777002 L 1579.5571460253198 573.2969491240269 L 1582.1070666364749 573.3971357777003 L 1584.6412661391273 573.697078054685 L 1587.1441203506367 574.1949267111024 L 1589.6001983425058 574.8876123444345 L 1591.9943575771854 575.7708643174102 L 1594.3118372668553 576.8392370879051 L 1596.5383493785882 578.086143782519 L 1598.6601667248253 579.5038968068412 L 1600.6642075960508 581.0837552420261 L 1602.5381164138828 582.8159787354643 L 1604.270339907321 584.6898875532961 L 1605.8501983425058 586.6939284245218 L 1607.267951366828 588.8157457707589 L 1608.5148580614418 591.042257882492 L 1609.5832308319366 593.3597375721617 L 1610.4664828049124 595.7538968068415 L 1611.1591684382443 598.2099747987104 L 1611.6570170946618 600.7128290102198 L 1611.9569593716465 603.2470285128724 Z" stroke-opacity="1" stroke-miterlimit="10" stroke-width="1.5"/><text fill="rgb(0,0,0)" stroke="none" font-family="Helvetica Neue, Helvetica, sans-serif" font-size="16px" font-style="normal" font-weight="normal" text-decoration="normal" x="1579.5571460253198" y="613.7969491240269" text-anchor="middle" dominant-baseline="text-after-edge" fill-opacity="1">Biogas Supply</text><path fill="url(#aLrHdVOpVVJd)" stroke="rgb(51,102,102)" paint-order="fill stroke markers" d=" M 562.4242710531739 775.4855742520713 L 562.3703243935037 776.8586084273086 L 562.2088170135888 778.2231773902753 L 561.9407446601333 779.5708681195496 L 561.5677600883391 780.8933716536328 L 561.0921628721214 782.1825343184604 L 560.5168852264703 783.4304079975134 L 559.8454739293705 784.6292991346004 L 559.0820684547355 785.7718161671895 L 558.2313754511745 786.8509150978495 L 557.2986397239385 787.8599429228359 L 556.2896118989521 788.7926786500718 L 555.2105129682922 789.6433716536328 L 554.067995935703 790.4067771282679 L 552.869104798616 791.0781884253677 L 551.621231119563 791.6534660710188 L 550.3320684547355 792.1290632872365 L 549.0095649206522 792.5020478590307 L 547.6618741913779 792.7701202124862 L 546.2973052284112 792.931627592401 L 544.9242710531739 792.9855742520713 L 543.5512368779366 792.931627592401 L 542.1866679149699 792.7701202124862 L 540.8389771856956 792.5020478590307 L 539.5164736516124 792.1290632872365 L 538.2273109867848 791.6534660710188 L 536.9794373077318 791.0781884253677 L 535.7805461706448 790.4067771282679 L 534.6380291380557 789.6433716536328 L 533.5589302073957 788.7926786500718 L 532.5499023824093 787.8599429228359 L 531.6171666551734 786.8509150978495 L 530.7664736516124 785.7718161671895 L 530.0030681769773 784.6292991346004 L 529.3316568798775 783.4304079975134 L 528.7563792342264 782.1825343184604 L 528.2807820180087 780.8933716536328 L 527.9077974462145 779.5708681195496 L 527.639725092759 778.2231773902753 L 527.4782177128442 776.8586084273086 L 527.4242710531739 775.4855742520713 L 527.4782177128442 774.112540076834 L 527.639725092759 772.7479711138673 L 527.9077974462145 771.400280384593 L 528.2807820180087 770.0777768505097 L 528.7563792342264 768.7886141856821 L 529.3316568798775 767.5407405066292 L 530.0030681769773 766.3418493695422 L 530.7664736516124 765.199332336953 L 531.6171666551734 764.1202334062931 L 532.5499023824093 763.1112055813066 L 533.5589302073957 762.1784698540707 L 534.6380291380557 761.3277768505097 L 535.7805461706448 760.5643713758747 L 536.9794373077318 759.8929600787749 L 538.2273109867849 759.3176824331238 L 539.5164736516124 758.8420852169061 L 540.8389771856956 758.4691006451119 L 542.1866679149699 758.2010282916564 L 543.5512368779367 758.0395209117415 L 544.924271053174 757.9855742520713 L 546.2973052284112 758.0395209117415 L 547.661874191378 758.2010282916564 L 549.0095649206523 758.4691006451119 L 550.3320684547356 758.8420852169061 L 551.621231119563 759.3176824331238 L 552.869104798616 759.8929600787749 L 554.0679959357032 760.5643713758748 L 555.2105129682923 761.3277768505097 L 556.2896118989522 762.1784698540708 L 557.2986397239385 763.1112055813068 L 558.2313754511746 764.1202334062932 L 559.0820684547356 765.1993323369531 L 559.8454739293707 766.3418493695423 L 560.5168852264704 767.5407405066294 L 561.0921628721215 768.7886141856824 L 561.5677600883391 770.0777768505098 L 561.9407446601333 771.4002803845931 L 562.2088170135888 772.7479711138674 L 562.3703243935037 774.1125400768342 Z" stroke-opacity="1" stroke-miterlimit="10" stroke-width="1.5"/><text fill="rgb(0,0,0)" stroke="none" font-family="Helvetica Neue, Helvetica, sans-serif" font-size="16px" font-style="normal" font-weight="normal" text-decoration="normal" x="544.9242710531739" y="783.4855742520713" text-anchor="middle" dominant-baseline="text-after-edge" fill-opacity="1">Combined Cycle PP</text><path fill="url(#bCveUUtWalSQ)" stroke="rgb(102,102,102)" paint-order="fill stroke markers" d=" M 213.66665626984815 775.6663712497816 L 213.6219576089785 776.8040281378353 L 213.48813720847764 777.934670992865 L 213.26602011561445 779.0513290256922 L 212.95697575612786 780.1471176682184 L 212.5629094912618 781.2152810190754 L 212.08625087057948 782.249233496005 L 211.52993865298248 783.2426004381629 L 210.8974026882849 784.1892574080225 L 210.1925427710486 785.0833679505693 L 209.41970459705308 785.9194195769866 L 208.5836529706358 786.6922577509821 L 207.689542428089 787.3971176682184 L 206.7428854582294 788.0296536329159 L 205.7495185160716 788.5859658505129 L 204.71556603914195 789.0626244711952 L 203.6474026882849 789.4566907360613 L 202.55161404575878 789.7657350955479 L 201.4349560129315 789.9878521884111 L 200.3043131579019 790.1216725889119 L 199.16665626984815 790.1663712497816 L 198.0289993817944 790.1216725889119 L 196.89835652676481 789.9878521884111 L 195.7816984939375 789.7657350955479 L 194.68590985141142 789.4566907360613 L 193.61774650055435 789.0626244711952 L 192.58379402362473 788.5859658505129 L 191.59042708146688 788.0296536329159 L 190.6437701116073 787.3971176682184 L 189.7496595690605 786.6922577509821 L 188.9136079426432 785.9194195769866 L 188.1407697686477 785.0833679505693 L 187.43590985141142 784.1892574080225 L 186.8033738867138 783.2426004381629 L 186.24706166911682 782.249233496005 L 185.7704030484345 781.2152810190754 L 185.37633678356843 780.1471176682184 L 185.06729242408184 779.0513290256922 L 184.84517533121866 777.934670992865 L 184.7113549307178 776.8040281378353 L 184.66665626984815 775.6663712497816 L 184.7113549307178 774.5287143617279 L 184.84517533121866 773.3980715066982 L 185.06729242408184 772.281413473871 L 185.37633678356843 771.1856248313449 L 185.7704030484345 770.1174614804878 L 186.24706166911682 769.0835090035582 L 186.8033738867138 768.0901420614003 L 187.4359098514114 767.1434850915407 L 188.1407697686477 766.249374548994 L 188.9136079426432 765.4133229225766 L 189.74965956906047 764.6404847485811 L 190.6437701116073 763.9356248313449 L 191.59042708146688 763.3030888666473 L 192.58379402362473 762.7467766490503 L 193.61774650055435 762.270118028368 L 194.68590985141142 761.8760517635019 L 195.78169849393754 761.5670074040153 L 196.89835652676484 761.3448903111521 L 198.02899938179445 761.2110699106513 L 199.1666562698482 761.1663712497816 L 200.30431315790196 761.2110699106513 L 201.43495601293156 761.3448903111521 L 202.55161404575884 761.5670074040153 L 203.64740268828496 761.8760517635019 L 204.71556603914203 762.270118028368 L 205.74951851607165 762.7467766490503 L 206.7428854582295 763.3030888666473 L 207.68954242808908 763.935624831345 L 208.58365297063588 764.6404847485812 L 209.41970459705317 765.4133229225768 L 210.19254277104866 766.2493745489941 L 210.89740268828496 767.1434850915408 L 211.52993865298257 768.0901420614005 L 212.08625087057953 769.0835090035583 L 212.56290949126185 770.1174614804879 L 212.95697575612792 771.185624831345 L 213.26602011561448 772.2814134738711 L 213.48813720847767 773.3980715066984 L 213.6219576089785 774.528714361728 Z" stroke-opacity="1" stroke-miterlimit="10" stroke-width="1.5"/><text fill="rgb(0,0,0)" stroke="none" font-family="Helvetica Neue, Helvetica, sans-serif" font-size="16px" font-style="normal" font-weight="normal" text-decoration="normal" x="199.16665626984815" y="783.6663712497816" text-anchor="middle" dominant-baseline="text-after-edge" fill-opacity="1">Hard Coal PP</text><path fill="url(#sAoFCDMNHMbl)" stroke="rgb(153,51,0)" paint-order="fill stroke markers" d=" M 1435.0400352170996 770.789518221262 L 1434.9953365562299 771.9271751093157 L 1434.861516155729 773.0578179643454 L 1434.6393990628658 774.1744759971726 L 1434.3303547033793 775.2702646396988 L 1433.9362884385132 776.3384279905558 L 1433.459629817831 777.3723804674854 L 1432.903317600234 778.3657474096433 L 1432.2707816355362 779.3124043795029 L 1431.5659217183 780.2065149220497 L 1430.7930835443044 781.042566548467 L 1429.9570319178872 781.8154047224625 L 1429.0629213753405 782.5202646396988 L 1428.1162644054807 783.1528006043964 L 1427.122897463323 783.7091128219934 L 1426.0889449863935 784.1857714426757 L 1425.0207816355362 784.5798377075417 L 1423.9249929930102 784.8888820670284 L 1422.808334960183 785.1109991598915 L 1421.6776921051533 785.2448195603923 L 1420.5400352170996 785.289518221262 L 1419.4023783290459 785.2448195603923 L 1418.2717354740162 785.1109991598915 L 1417.155077441189 784.8888820670284 L 1416.059288798663 784.5798377075417 L 1414.9911254478056 784.1857714426757 L 1413.9571729708762 783.7091128219934 L 1412.9638060287184 783.1528006043964 L 1412.0171490588586 782.5202646396988 L 1411.123038516312 781.8154047224625 L 1410.2869868898947 781.042566548467 L 1409.5141487158992 780.2065149220497 L 1408.809288798663 779.3124043795029 L 1408.176752833965 778.3657474096433 L 1407.6204406163681 777.3723804674854 L 1407.143781995686 776.3384279905558 L 1406.7497157308198 775.2702646396988 L 1406.4406713713333 774.1744759971726 L 1406.21855427847 773.0578179643454 L 1406.0847338779693 771.9271751093157 L 1406.0400352170996 770.789518221262 L 1406.0847338779693 769.6518613332083 L 1406.21855427847 768.5212184781786 L 1406.4406713713333 767.4045604453514 L 1406.7497157308198 766.3087718028253 L 1407.143781995686 765.2406084519682 L 1407.6204406163681 764.2066559750386 L 1408.176752833965 763.2132890328808 L 1408.809288798663 762.2666320630211 L 1409.5141487158992 761.3725215204744 L 1410.2869868898947 760.5364698940571 L 1411.123038516312 759.7636317200615 L 1412.0171490588586 759.0587718028253 L 1412.9638060287184 758.4262358381277 L 1413.9571729708762 757.8699236205307 L 1414.9911254478059 757.3932649998484 L 1416.059288798663 756.9991987349823 L 1417.155077441189 756.6901543754957 L 1418.2717354740162 756.4680372826325 L 1419.4023783290459 756.3342168821316 L 1420.5400352170996 756.289518221262 L 1421.6776921051533 756.3342168821317 L 1422.808334960183 756.4680372826325 L 1423.9249929930102 756.6901543754957 L 1425.0207816355364 756.9991987349823 L 1426.0889449863935 757.3932649998484 L 1427.1228974633232 757.8699236205307 L 1428.116264405481 758.4262358381277 L 1429.0629213753405 759.0587718028254 L 1429.9570319178872 759.7636317200617 L 1430.7930835443046 760.5364698940572 L 1431.5659217183002 761.3725215204745 L 1432.2707816355364 762.2666320630212 L 1432.903317600234 763.2132890328809 L 1433.459629817831 764.2066559750388 L 1433.9362884385132 765.2406084519683 L 1434.3303547033793 766.3087718028254 L 1434.639399062866 767.4045604453515 L 1434.861516155729 768.5212184781789 L 1434.9953365562299 769.6518613332084 Z" stroke-opacity="1" stroke-miterlimit="10" stroke-width="1.5"/><text fill="rgb(0,0,0)" stroke="none" font-family="Helvetica Neue, Helvetica, sans-serif" font-size="16px" font-style="normal" font-weight="normal" text-decoration="normal" x="1420.5400352170996" y="778.789518221262" text-anchor="middle" dominant-baseline="text-after-edge" fill-opacity="1">Lignite Power Plant</text><path fill="url(#PQTdXIvKLFQN)" stroke="rgb(204,0,51)" paint-order="fill stroke markers" d=" M 104.22236863133452 853.1275793381617 L 104.18075263673174 854.1867771304876 L 104.05616122936888 855.2394446162048 L 103.84936255670316 856.2790917502164 L 103.56163160131909 857.2993087622235 L 103.19474232023688 858.2938056750904 L 102.75095670787749 859.2564510846456 L 102.23301085011477 860.181309961827 L 101.64409805539631 861.0626802441101 L 100.98784916693494 861.8951279906191 L 100.26831017735292 862.6735208841801 L 99.489917283792 863.3930598737621 L 98.6574695372829 864.0493087622235 L 97.77609925499983 864.638221556942 L 96.8512403778184 865.1561674147047 L 95.88859496826323 865.5999530270641 L 94.89409805539631 865.9668423081463 L 93.87388104338925 866.2545732635303 L 92.83423390937763 866.4613719361961 L 91.78156642366042 866.5859633435589 L 90.72236863133452 866.6275793381617 L 89.66317083900861 866.5859633435589 L 88.6105033532914 866.4613719361961 L 87.57085621927979 866.2545732635303 L 86.55063920727272 865.9668423081463 L 85.5561422944058 865.5999530270641 L 84.59349688485064 865.1561674147047 L 83.66863800766922 864.638221556942 L 82.78726772538613 864.0493087622235 L 81.95481997887704 863.3930598737621 L 81.17642708531613 862.6735208841801 L 80.4568880957341 861.8951279906191 L 79.80063920727272 861.0626802441101 L 79.21172641255427 860.181309961827 L 78.69378055479156 859.2564510846456 L 78.24999494243215 858.2938056750904 L 77.88310566134994 857.2993087622235 L 77.59537470596588 856.2790917502164 L 77.38857603330015 855.2394446162048 L 77.2639846259373 854.1867771304876 L 77.22236863133452 853.1275793381617 L 77.2639846259373 852.0683815458358 L 77.38857603330015 851.0157140601186 L 77.59537470596588 849.976066926107 L 77.88310566134994 848.9558499140999 L 78.24999494243215 847.961353001233 L 78.69378055479154 846.9987075916778 L 79.21172641255427 846.0738487144964 L 79.80063920727272 845.1924784322133 L 80.4568880957341 844.3600306857043 L 81.17642708531612 843.5816377921433 L 81.95481997887703 842.8620988025613 L 82.78726772538613 842.2058499140999 L 83.66863800766922 841.6169371193814 L 84.59349688485065 841.0989912616187 L 85.55614229440582 840.6552056492593 L 86.55063920727275 840.2883163681771 L 87.57085621927982 840.000585412793 L 88.61050335329143 839.7937867401273 L 89.66317083900866 839.6691953327645 L 90.72236863133456 839.6275793381617 L 91.78156642366048 839.6691953327645 L 92.83423390937769 839.7937867401273 L 93.8738810433893 840.000585412793 L 94.89409805539637 840.2883163681771 L 95.8885949682633 840.6552056492593 L 96.85124037781847 841.0989912616187 L 97.7760992549999 841.6169371193815 L 98.65746953728298 842.2058499141 L 99.48991728379207 842.8620988025614 L 100.26831017735299 843.5816377921434 L 100.987849166935 844.3600306857043 L 101.64409805539638 845.1924784322134 L 102.23301085011482 846.0738487144965 L 102.75095670787755 846.9987075916779 L 103.19474232023694 847.9613530012331 L 103.56163160131914 848.9558499141 L 103.84936255670318 849.9760669261071 L 104.0561612293689 851.0157140601187 L 104.18075263673175 852.0683815458359 Z" stroke-opacity="1" stroke-miterlimit="10" stroke-width="1.5"/><text fill="rgb(0,0,0)" stroke="none" font-family="Helvetica Neue, Helvetica, sans-serif" font-size="16px" font-style="normal" font-weight="normal" text-decoration="normal" x="90.72236863133452" y="861.1275793381617" text-anchor="middle" dominant-baseline="text-after-edge" fill-opacity="1">Heat Plant</text><path fill="url(#UUOlTMuTcgkH)" stroke="rgb(204,0,51)" paint-order="fill stroke markers" d=" M 859.782048963034 1135.4179457057687 L 859.7250196370968 1136.8694389767338 L 859.554283264044 1138.311983309013 L 859.270892490391 1139.736684937103 L 858.8765945144943 1141.1347601017053 L 858.3738203144927 1142.497589204523 L 857.7656696605187 1143.8167699509504 L 857.0558920035846 1145.0841691530138 L 856.2488633589705 1146.2919728731795 L 855.3495593266346 1147.4327345998772 L 854.3635244149851 1148.4994211577198 L 853.2968378571424 1149.4854560693693 L 852.1560761304447 1150.3847601017053 L 850.9482724102791 1151.1917887463194 L 849.6808732082155 1151.9015664032536 L 848.3616924617882 1152.5097170572276 L 846.9988633589705 1153.0124912572292 L 845.6007881943682 1153.4067892331257 L 844.1760865662783 1153.6901800067787 L 842.7335422339991 1153.8609163798317 L 841.282048963034 1153.9179457057687 L 839.8305556920689 1153.8609163798317 L 838.3880113597897 1153.6901800067787 L 836.9633097316997 1153.4067892331257 L 835.5652345670974 1153.0124912572292 L 834.2024054642798 1152.5097170572276 L 832.8832247178524 1151.9015664032536 L 831.6158255157889 1151.1917887463194 L 830.4080217956232 1150.3847601017053 L 829.2672600689256 1149.4854560693693 L 828.2005735110828 1148.4994211577198 L 827.2145385994334 1147.4327345998772 L 826.3152345670974 1146.2919728731795 L 825.5082059224833 1145.0841691530138 L 824.7984282655492 1143.8167699509504 L 824.1902776115752 1142.497589204523 L 823.6875034115736 1141.1347601017053 L 823.2932054356769 1139.736684937103 L 823.0098146620239 1138.311983309013 L 822.8390782889711 1136.8694389767338 L 822.782048963034 1135.4179457057687 L 822.8390782889711 1133.9664524348036 L 823.0098146620239 1132.5239081025245 L 823.2932054356769 1131.0992064744344 L 823.6875034115736 1129.7011313098321 L 824.1902776115752 1128.3383022070145 L 824.7984282655492 1127.019121460587 L 825.5082059224833 1125.7517222585236 L 826.3152345670974 1124.543918538358 L 827.2145385994334 1123.4031568116602 L 828.2005735110828 1122.3364702538177 L 829.2672600689256 1121.350435342168 L 830.4080217956232 1120.4511313098321 L 831.6158255157889 1119.644102665218 L 832.8832247178524 1118.9343250082838 L 834.2024054642798 1118.3261743543098 L 835.5652345670975 1117.8234001543083 L 836.9633097316997 1117.4291021784118 L 838.3880113597897 1117.1457114047587 L 839.8305556920689 1116.9749750317058 L 841.2820489630341 1116.9179457057687 L 842.7335422339992 1116.9749750317058 L 844.1760865662783 1117.1457114047587 L 845.6007881943683 1117.4291021784118 L 846.9988633589705 1117.8234001543085 L 848.3616924617883 1118.3261743543098 L 849.6808732082156 1118.9343250082838 L 850.9482724102791 1119.644102665218 L 852.1560761304448 1120.4511313098324 L 853.2968378571425 1121.3504353421683 L 854.3635244149851 1122.3364702538177 L 855.3495593266347 1123.4031568116604 L 856.2488633589705 1124.5439185383582 L 857.0558920035847 1125.7517222585238 L 857.7656696605188 1127.0191214605873 L 858.3738203144928 1128.3383022070147 L 858.8765945144944 1129.7011313098324 L 859.270892490391 1131.0992064744346 L 859.554283264044 1132.5239081025247 L 859.7250196370968 1133.9664524348038 Z" stroke-opacity="1" stroke-miterlimit="10" stroke-width="1.5"/><text fill="rgb(0,0,0)" stroke="none" font-family="Helvetica Neue, Helvetica, sans-serif" font-size="16px" font-style="normal" font-weight="normal" text-decoration="normal" x="841.282048963034" y="1143.4179457057687" text-anchor="middle" dominant-baseline="text-after-edge" fill-opacity="1">Power To Heat</text><path fill="url(#QgdRMEIOzuGK)" stroke="rgb(102,102,102)" paint-order="fill stroke markers" d=" M 383.63216476572785 776.1258247389867 L 383.604420769326 776.8319566005373 L 383.5213598310841 777.5337349243488 L 383.38349404930693 778.2268330136899 L 383.1916734123842 778.9069776883612 L 382.94708055832945 779.5699756302726 L 382.65122348342317 780.2117392366426 L 382.3059262449147 780.8283118214302 L 381.9133177151024 781.4158920096189 L 381.47581845612814 781.9708571739584 L 380.9961257964068 782.4897857696657 L 380.4771972006995 782.969478429387 L 379.9222320363601 783.4069776883612 L 379.3346518481714 783.7995862181735 L 378.7180792633838 784.144883456682 L 378.07631565701365 784.4407405315883 L 377.4133177151024 784.685333385643 L 376.733173040431 784.8771540225658 L 376.04007495108993 785.015019804343 L 375.33829662727845 785.0980807425849 L 374.63216476572785 785.1258247389867 L 373.92603290417725 785.0980807425849 L 373.22425458036577 785.015019804343 L 372.5311564910247 784.8771540225658 L 371.8510118163533 784.685333385643 L 371.18801387444205 784.4407405315883 L 370.54625026807196 784.144883456682 L 369.9296776832843 783.7995862181735 L 369.3420974950956 783.4069776883612 L 368.7871323307562 782.969478429387 L 368.2682037350489 782.4897857696657 L 367.78851107532756 781.9708571739584 L 367.3510118163533 781.4158920096189 L 366.958403286541 780.8283118214302 L 366.61310604803253 780.2117392366426 L 366.31724897312625 779.5699756302726 L 366.0726561190715 778.9069776883612 L 365.88083548214877 778.2268330136899 L 365.7429697003716 777.5337349243488 L 365.6599087621297 776.8319566005373 L 365.63216476572785 776.1258247389867 L 365.6599087621297 775.4196928774361 L 365.7429697003716 774.7179145536246 L 365.88083548214877 774.0248164642835 L 366.07265611907144 773.3446717896122 L 366.31724897312625 772.6816738477008 L 366.61310604803253 772.0399102413307 L 366.958403286541 771.4233376565431 L 367.3510118163533 770.8357574683545 L 367.78851107532756 770.280792304015 L 368.2682037350489 769.7618637083077 L 368.7871323307562 769.2821710485864 L 369.3420974950956 768.8446717896122 L 369.9296776832843 768.4520632597998 L 370.54625026807196 768.1067660212914 L 371.18801387444205 767.8109089463851 L 371.8510118163533 767.5663160923303 L 372.5311564910247 767.3744954554076 L 373.22425458036577 767.2366296736304 L 373.92603290417725 767.1535687353885 L 374.6321647657279 767.1258247389867 L 375.3382966272785 767.1535687353885 L 376.04007495109 767.2366296736304 L 376.73317304043104 767.3744954554077 L 377.41331771510244 767.5663160923303 L 378.0763156570137 767.8109089463851 L 378.7180792633838 768.1067660212914 L 379.33465184817146 768.4520632597998 L 379.9222320363602 768.8446717896122 L 380.47719720069955 769.2821710485864 L 380.99612579640683 769.7618637083078 L 381.4758184561282 770.2807923040151 L 381.91331771510244 770.8357574683545 L 382.3059262449147 771.4233376565433 L 382.6512234834232 772.0399102413309 L 382.94708055832945 772.681673847701 L 383.19167341238426 773.3446717896122 L 383.383494049307 774.0248164642836 L 383.5213598310841 774.7179145536247 L 383.604420769326 775.4196928774362 Z" stroke-opacity="1" stroke-miterlimit="10" stroke-width="1.5"/><text fill="rgb(0,0,0)" stroke="none" font-family="Helvetica Neue, Helvetica, sans-serif" font-size="16px" font-style="normal" font-weight="normal" text-decoration="normal" x="374.63216476572785" y="784.1258247389867" text-anchor="middle" dominant-baseline="text-after-edge" fill-opacity="1">Hard Coal CHP</text><path fill="url(#SgkwyzacAFon)" stroke="rgb(0,102,0)" paint-order="fill stroke markers" d=" M 1597.2237175511032 768.7463181288358 L 1597.1743948908331 770.0016636604813 L 1597.0267310006254 771.2492695694795 L 1596.781636277466 772.4814439505303 L 1596.4406218118256 773.690590038835 L 1596.0057900712839 774.8692530466773 L 1595.479821938117 776.0101661246686 L 1594.8659601807685 777.1062951642909 L 1594.1679894611023 778.1508821655153 L 1593.3902130007036 779.1374869021188 L 1592.537426050088 780.0600266278205 L 1591.6148863243861 780.9128135784363 L 1590.6282815877828 781.690590038835 L 1589.5836945865583 782.3885607585013 L 1588.487565546936 783.0024225158497 L 1587.3466524689445 783.5283906490164 L 1586.1679894611023 783.9632223895583 L 1584.9588433727977 784.3042368551986 L 1583.726668991747 784.549331578358 L 1582.4790630827488 784.6969954685659 L 1581.2237175511032 784.7463181288358 L 1579.9683720194575 784.6969954685659 L 1578.7207661104594 784.549331578358 L 1577.4885917294087 784.3042368551986 L 1576.279445641104 783.9632223895583 L 1575.1007826332618 783.5283906490164 L 1573.9598695552704 783.0024225158497 L 1572.863740515648 782.3885607585013 L 1571.8191535144235 781.690590038835 L 1570.8325487778202 780.9128135784363 L 1569.9100090521183 780.0600266278205 L 1569.0572221015027 779.1374869021188 L 1568.279445641104 778.1508821655153 L 1567.5814749214378 777.1062951642909 L 1566.9676131640892 776.0101661246686 L 1566.4416450309225 774.8692530466773 L 1566.0068132903807 773.690590038835 L 1565.6657988247402 772.4814439505303 L 1565.420704101581 771.2492695694795 L 1565.2730402113732 770.0016636604813 L 1565.2237175511032 768.7463181288358 L 1565.2730402113732 767.4909725971903 L 1565.420704101581 766.2433666881922 L 1565.6657988247402 765.0111923071413 L 1566.0068132903807 763.8020462188366 L 1566.4416450309225 762.6233832109943 L 1566.9676131640892 761.4824701330031 L 1567.5814749214376 760.3863410933807 L 1568.279445641104 759.3417540921563 L 1569.0572221015027 758.3551493555528 L 1569.9100090521183 757.4326096298511 L 1570.8325487778202 756.5798226792353 L 1571.8191535144235 755.8020462188366 L 1572.863740515648 755.1040754991703 L 1573.9598695552704 754.4902137418219 L 1575.1007826332618 753.9642456086552 L 1576.279445641104 753.5294138681134 L 1577.4885917294087 753.188399402473 L 1578.7207661104594 752.9433046793137 L 1579.9683720194578 752.7956407891057 L 1581.2237175511032 752.7463181288358 L 1582.4790630827488 752.7956407891057 L 1583.726668991747 752.9433046793137 L 1584.9588433727977 753.188399402473 L 1586.1679894611025 753.5294138681134 L 1587.3466524689447 753.9642456086552 L 1588.487565546936 754.490213741822 L 1589.5836945865585 755.1040754991703 L 1590.6282815877828 755.8020462188367 L 1591.6148863243861 756.5798226792353 L 1592.537426050088 757.4326096298512 L 1593.3902130007039 758.355149355553 L 1594.1679894611025 759.3417540921564 L 1594.8659601807688 760.3863410933808 L 1595.479821938117 761.4824701330032 L 1596.0057900712839 762.6233832109946 L 1596.4406218118256 763.8020462188368 L 1596.781636277466 765.0111923071415 L 1597.0267310006254 766.2433666881923 L 1597.1743948908331 767.4909725971905 Z" stroke-opacity="1" stroke-miterlimit="10" stroke-width="1.5"/><text fill="rgb(0,0,0)" stroke="none" font-family="Helvetica Neue, Helvetica, sans-serif" font-size="16px" font-style="normal" font-weight="normal" text-decoration="normal" x="1581.2237175511032" y="776.7463181288358" text-anchor="middle" dominant-baseline="text-after-edge" fill-opacity="1">Biogas CHP</text><path fill="url(#pToNTzSTAcbB)" stroke="rgb(255,227,77)" paint-order="fill stroke markers" d=" M 1058.1489174378105 1144.131536698653 L 1058.0101974558013 1147.662196006406 L 1057.5948927645918 1151.1710876254633 L 1056.9055638557059 1154.6365780721687 L 1055.9464606710924 1158.0373014455256 L 1054.7234964008185 1161.352291155082 L 1053.244211026287 1164.5611091869325 L 1051.5177248337448 1167.6439721108707 L 1049.554682184683 1170.5818730518142 L 1047.367185889812 1173.3566988735113 L 1044.968722591205 1175.9513418520476 L 1042.3740796126688 1178.3498051506544 L 1039.5992537909717 1180.5373014455256 L 1036.6613528500282 1182.5003440945873 L 1033.57848992609 1184.2268302871296 L 1030.3696718942394 1185.706115661661 L 1027.054682184683 1186.929079931935 L 1023.6539588113262 1187.8881831165484 L 1020.1884683646209 1188.5775120254343 L 1016.6795767455635 1188.9928167166438 L 1013.1489174378105 1189.131536698653 L 1009.6182581300575 1188.9928167166438 L 1006.1093665110001 1188.5775120254343 L 1002.6438760642948 1187.8881831165484 L 999.2431526909379 1186.929079931935 L 995.9281629813814 1185.706115661661 L 992.7193449495309 1184.2268302871296 L 989.6364820255928 1182.5003440945873 L 986.6985810846492 1180.5373014455256 L 983.9237552629522 1178.3498051506544 L 981.3291122844158 1175.9513418520476 L 978.9306489858091 1173.3566988735113 L 976.7431526909379 1170.5818730518142 L 974.7801100418764 1167.6439721108707 L 973.0536238493339 1164.5611091869325 L 971.5743384748026 1161.352291155082 L 970.3513742045286 1158.0373014455256 L 969.392271019915 1154.6365780721687 L 968.7029421110293 1151.1710876254633 L 968.2876374198197 1147.662196006406 L 968.1489174378105 1144.131536698653 L 968.2876374198197 1140.6008773909 L 968.7029421110293 1137.0919857718427 L 969.392271019915 1133.6264953251373 L 970.3513742045286 1130.2257719517804 L 971.5743384748026 1126.910782242224 L 973.0536238493339 1123.7019642103735 L 974.7801100418764 1120.6191012864354 L 976.7431526909379 1117.6812003454918 L 978.9306489858091 1114.9063745237947 L 981.3291122844158 1112.3117315452585 L 983.9237552629522 1109.9132682466516 L 986.6985810846492 1107.7257719517804 L 989.6364820255928 1105.7627293027188 L 992.719344949531 1104.0362431101764 L 995.9281629813815 1102.556957735645 L 999.2431526909379 1101.3339934653711 L 1002.6438760642949 1100.3748902807574 L 1006.1093665110002 1099.6855613718717 L 1009.6182581300576 1099.2702566806622 L 1013.1489174378106 1099.131536698653 L 1016.6795767455637 1099.2702566806622 L 1020.188468364621 1099.685561371872 L 1023.6539588113264 1100.3748902807577 L 1027.0546821846833 1101.3339934653711 L 1030.3696718942397 1102.5569577356453 L 1033.5784899260902 1104.0362431101767 L 1036.6613528500284 1105.762729302719 L 1039.599253790972 1107.7257719517806 L 1042.374079612669 1109.9132682466518 L 1044.9687225912053 1112.3117315452587 L 1047.3671858898122 1114.906374523795 L 1049.5546821846833 1117.681200345492 L 1051.5177248337448 1120.6191012864356 L 1053.2442110262873 1123.7019642103737 L 1054.7234964008185 1126.9107822422243 L 1055.9464606710926 1130.2257719517809 L 1056.905563855706 1133.6264953251377 L 1057.5948927645918 1137.0919857718432 L 1058.0101974558013 1140.6008773909005 Z" stroke-opacity="1" stroke-miterlimit="10" stroke-width="1.5"/><text fill="rgb(0,0,0)" stroke="none" font-family="Helvetica Neue, Helvetica, sans-serif" font-size="16px" font-style="normal" font-weight="normal" text-decoration="normal" x="1013.1489174378105" y="1152.131536698653" text-anchor="middle" dominant-baseline="text-after-edge" fill-opacity="1">El Demand</text><path fill="url(#mkkycRonEMbb)" stroke="rgb(255,0,0)" paint-order="fill stroke markers" d=" M 775.4647095448988 1309.218867197032 L 775.4277175496964 1310.1603763457663 L 775.3169696320405 1311.0960807775148 L 775.1331485896709 1312.0202115633028 L 774.8773877404407 1312.9270711295314 L 774.5512639350343 1313.8110683854131 L 774.1567878351592 1314.6667531939065 L 773.696391517148 1315.4888499736235 L 773.1729134773982 1316.2722902245418 L 772.5895811320992 1317.0122437769942 L 771.9499909191373 1317.7041485712707 L 771.258086124861 1318.3437387842325 L 770.5181325724085 1318.9270711295314 L 769.7346923214902 1319.4505491692812 L 768.9125955417734 1319.9109454872926 L 768.0569107332799 1320.3054215871675 L 767.1729134773982 1320.6315453925738 L 766.2660539111697 1320.8873062418043 L 765.3419231253816 1321.0711272841738 L 764.4062186936329 1321.1818752018296 L 763.4647095448988 1321.218867197032 L 762.5232003961647 1321.1818752018296 L 761.587495964416 1321.0711272841738 L 760.6633651786279 1320.8873062418043 L 759.7565056123995 1320.631545392574 L 758.8725083565178 1320.3054215871675 L 758.0168235480243 1319.9109454872926 L 757.1947267683074 1319.4505491692812 L 756.4112865173892 1318.9270711295314 L 755.6713329649366 1318.3437387842325 L 754.9794281706603 1317.7041485712707 L 754.3398379576985 1317.0122437769942 L 753.7565056123995 1316.2722902245418 L 753.2330275726497 1315.4888499736235 L 752.7726312546384 1314.6667531939067 L 752.3781551547634 1313.8110683854131 L 752.052031349357 1312.9270711295314 L 751.7962705001268 1312.0202115633028 L 751.6124494577572 1311.0960807775148 L 751.5017015401013 1310.1603763457663 L 751.4647095448988 1309.218867197032 L 751.5017015401013 1308.2773580482979 L 751.6124494577572 1307.3416536165494 L 751.7962705001268 1306.4175228307613 L 752.052031349357 1305.5106632645327 L 752.3781551547634 1304.626666008651 L 752.7726312546384 1303.7709812001576 L 753.2330275726497 1302.9488844204407 L 753.7565056123995 1302.1654441695223 L 754.3398379576985 1301.42549061707 L 754.9794281706603 1300.7335858227934 L 755.6713329649366 1300.0939956098316 L 756.4112865173892 1299.5106632645327 L 757.1947267683074 1298.987185224783 L 758.0168235480243 1298.5267889067716 L 758.8725083565178 1298.1323128068966 L 759.7565056123995 1297.80618900149 L 760.6633651786279 1297.5504281522599 L 761.5874959644161 1297.3666071098903 L 762.5232003961647 1297.2558591922345 L 763.4647095448988 1297.218867197032 L 764.406218693633 1297.2558591922345 L 765.3419231253816 1297.3666071098905 L 766.2660539111697 1297.5504281522599 L 767.1729134773982 1297.8061890014903 L 768.05691073328 1298.1323128068966 L 768.9125955417735 1298.5267889067718 L 769.7346923214902 1298.987185224783 L 770.5181325724086 1299.5106632645327 L 771.258086124861 1300.0939956098318 L 771.9499909191375 1300.7335858227937 L 772.5895811320993 1301.42549061707 L 773.1729134773982 1302.1654441695225 L 773.696391517148 1302.9488844204407 L 774.1567878351593 1303.7709812001576 L 774.5512639350343 1304.626666008651 L 774.8773877404407 1305.510663264533 L 775.133148589671 1306.4175228307613 L 775.3169696320405 1307.3416536165494 L 775.4277175496964 1308.277358048298 Z" stroke-opacity="1" stroke-miterlimit="10" stroke-width="1.5"/><text fill="rgb(0,0,0)" stroke="none" font-family="Helvetica Neue, Helvetica, sans-serif" font-size="16px" font-style="normal" font-weight="normal" text-decoration="normal" x="763.4647095448988" y="1317.218867197032" text-anchor="middle" dominant-baseline="text-after-edge" fill-opacity="1">Heat Demand</text><path fill="url(#NlSzimcWMonO)" stroke="rgb(255,227,77)" paint-order="fill stroke markers" d=" M 1372.0011204609764 1125.5171644015059 L 1371.6589445053537 1134.2261240272967 L 1370.6345262670366 1142.8813900209714 L 1368.9341816251185 1151.4295997895113 L 1366.5683937697383 1159.818050777125 L 1363.5517485697292 1167.9950253940308 L 1359.9028446458851 1175.9101098725955 L 1355.6441787042806 1183.5145050849762 L 1350.8020068365956 1190.7613274059704 L 1345.4061826425798 1197.6058977661562 L 1339.4899731726832 1204.0060171132127 L 1333.0898538256267 1209.9222265831092 L 1326.245283465441 1215.318050777125 L 1318.9984611444468 1220.1602226448101 L 1311.394065932066 1224.4188885864146 L 1303.4789814535013 1228.0677925102586 L 1295.3020068365956 1231.0844377102678 L 1286.9135558489818 1233.450225565648 L 1278.3653460804421 1235.150570207566 L 1269.7100800867672 1236.1749884458832 L 1261.0011204609764 1236.5171644015059 L 1252.2921608351855 1236.1749884458832 L 1243.6368948415109 1235.150570207566 L 1235.088685072971 1233.450225565648 L 1226.7002340853571 1231.0844377102678 L 1218.5232594684514 1228.0677925102586 L 1210.6081749898867 1224.4188885864146 L 1203.003779777506 1220.1602226448101 L 1195.7569574565118 1215.318050777125 L 1188.912387096326 1209.9222265831092 L 1182.5122677492695 1204.0060171132127 L 1176.596058279373 1197.6058977661562 L 1171.2002340853571 1190.7613274059704 L 1166.358062217672 1183.5145050849762 L 1162.0993962760676 1175.9101098725955 L 1158.4504923522236 1167.9950253940308 L 1155.4338471522144 1159.818050777125 L 1153.0680592968342 1151.4295997895113 L 1151.3677146549162 1142.8813900209716 L 1150.343296416599 1134.2261240272967 L 1150.0011204609764 1125.5171644015059 L 1150.343296416599 1116.808204775715 L 1151.3677146549162 1108.1529387820403 L 1153.0680592968342 1099.6047290135004 L 1155.4338471522144 1091.2162780258866 L 1158.4504923522236 1083.039303408981 L 1162.0993962760676 1075.1242189304162 L 1166.358062217672 1067.5198237180355 L 1171.2002340853571 1060.2730013970413 L 1176.596058279373 1053.4284310368555 L 1182.5122677492695 1047.028311689799 L 1188.912387096326 1041.1121022199025 L 1195.7569574565118 1035.7162780258866 L 1203.003779777506 1030.8741061582016 L 1210.6081749898867 1026.6154402165969 L 1218.5232594684514 1022.966536292753 L 1226.7002340853574 1019.9498910927438 L 1235.0886850729712 1017.5841032373637 L 1243.636894841511 1015.8837585954456 L 1252.292160835186 1014.8593403571286 L 1261.0011204609768 1014.5171644015059 L 1269.7100800867677 1014.8593403571286 L 1278.3653460804426 1015.8837585954457 L 1286.9135558489825 1017.5841032373638 L 1295.302006836596 1019.949891092744 L 1303.478981453502 1022.9665362927533 L 1311.3940659320667 1026.6154402165973 L 1318.9984611444472 1030.874106158202 L 1326.2452834654416 1035.716278025887 L 1333.0898538256274 1041.112102219903 L 1339.4899731726837 1047.0283116897997 L 1345.4061826425805 1053.4284310368562 L 1350.802006836596 1060.2730013970422 L 1355.644178704281 1067.5198237180364 L 1359.9028446458856 1075.124218930417 L 1363.5517485697296 1083.0393034089818 L 1366.5683937697388 1091.2162780258877 L 1368.9341816251188 1099.6047290135016 L 1370.6345262670368 1108.1529387820415 L 1371.6589445053537 1116.8082047757164 Z" stroke-opacity="1" stroke-miterlimit="10" stroke-width="1.5"/><text fill="rgb(0,0,0)" stroke="none" font-family="Helvetica Neue, Helvetica, sans-serif" font-size="16px" font-style="normal" font-weight="normal" text-decoration="normal" x="1261.0011204609764" y="1133.5171644015059" text-anchor="middle" dominant-baseline="text-after-edge" fill-opacity="1">Battery</text><path fill="url(#gtuzdamzUbAu)" stroke="rgb(204,0,51)" paint-order="fill stroke markers" d=" M 613.3019995704731 1194.5873532574012 L 612.2939677012059 1220.2434775604065 L 609.2760869450832 1245.7414233255568 L 604.2669635405134 1270.9239872382823 L 597.2974803989883 1295.635910418009 L 588.4106067016639 1319.7248356407856 L 577.6611329800694 1343.042246672233 L 565.1153333142613 1365.4443839195164 L 550.8505567310809 1386.79313075704 L 534.9547503216833 1406.9568650613712 L 517.5259170184742 1425.8112707054022 L 498.6715113744432 1443.2401040086113 L 478.50777707011184 1459.135910418009 L 457.1590302325884 1473.4006870011895 L 434.75689298530494 1485.9464866669975 L 411.4394819538575 1496.695960388592 L 387.3505567310809 1505.5828340859164 L 362.63863355135425 1512.5523172274416 L 337.45606963862866 1517.5614406320112 L 311.9581238734784 1520.579321388134 L 286.30199957047313 1521.5873532574012 L 260.64587526746783 1520.579321388134 L 235.14792950231765 1517.5614406320112 L 209.96536558959207 1512.5523172274416 L 185.25344240986533 1505.5828340859166 L 161.1645171870888 1496.695960388592 L 137.84710615564137 1485.9464866669975 L 115.44496890835788 1473.4006870011895 L 94.09622207083444 1459.135910418009 L 73.9324877665031 1443.2401040086113 L 55.0780821224721 1425.8112707054022 L 37.64924881926302 1406.9568650613712 L 21.75344240986533 1386.79313075704 L 7.488665826685008 1365.4443839195164 L -5.057133839123139 1343.042246672233 L -15.806607560717623 1319.7248356407856 L -24.693481258042084 1295.635910418009 L -31.6629643995671 1270.9239872382823 L -36.67208780413688 1245.7414233255568 L -39.68996856025973 1220.2434775604065 L -40.69800042952687 1194.5873532574012 L -39.68996856025973 1168.931228954396 L -36.672087804136936 1143.4332831892457 L -31.66296439956716 1118.2507192765202 L -24.69348125804214 1093.5387960967935 L -15.80660756071768 1069.4498708740168 L -5.057133839123196 1046.1324598425695 L 7.488665826684951 1023.730322595286 L 21.753442409865272 1002.3815757577626 L 37.649248819262965 982.2178414534312 L 55.07808212247204 963.3634358094002 L 73.93248776650293 945.9346025061913 L 94.09622207083439 930.0387960967935 L 115.44496890835794 915.774019513613 L 137.84710615564154 903.2282198478048 L 161.16451718708913 892.4787461262104 L 185.25344240986584 883.5918724288858 L 209.9653655895927 876.6223892873609 L 235.14792950231845 871.613265882791 L 260.6458752674688 868.5953851266684 L 286.3019995704742 867.5873532574012 L 311.9581238734797 868.5953851266685 L 337.45606963862997 871.6132658827914 L 362.6386335513557 876.6223892873613 L 387.3505567310825 883.5918724288865 L 411.4394819538592 892.4787461262111 L 434.75689298530665 903.2282198478058 L 457.1590302325902 915.7740195136141 L 478.50777707011366 930.0387960967947 L 498.671511374445 945.9346025061927 L 517.525917018476 963.363435809402 L 534.954750321685 982.2178414534333 L 550.8505567310826 1002.3815757577647 L 565.1153333142629 1023.7303225952885 L 577.6611329800709 1046.1324598425722 L 588.4106067016652 1069.4498708740198 L 597.2974803989894 1093.5387960967967 L 604.2669635405142 1118.2507192765236 L 609.2760869450838 1143.4332831892493 L 612.2939677012063 1168.9312289543998 Z" stroke-opacity="1" stroke-miterlimit="10" stroke-width="1.5"/><text fill="rgb(0,0,0)" stroke="none" font-family="Helvetica Neue, Helvetica, sans-serif" font-size="16px" font-style="normal" font-weight="normal" text-decoration="normal" x="286.30199957047313" y="1202.5873532574012" text-anchor="middle" dominant-baseline="text-after-edge" fill-opacity="1">Heat Storage</text><g transform="scale(1.7822556671312217,1.7822556671312217) translate(-172.9941982472225,156.75338123464886)"/></g></svg>