<svg version="1.1" xmlns="http://www.w3.org/2000/svg" xmlns:xlink="http://www.w3.org/1999/xlink" width="1804" height="918"><defs><radialGradient id="dWasPIxcbbSN" cx="254.7256017909432px" cy="247.46688950151233px" r="40px" fx="254.7256017909432px" fy="247.46688950151233px" gradientUnits="userSpaceOnUse"><stop offset="0" stop-color="rgb(51,102,102)" stop-opacity="1"/><stop offset="0.2" stop-color="rgb(112,149,149)" stop-opacity="1"/><stop offset="0.4" stop-color="rgb(173,195,195)" stop-opacity="1"/><stop offset="0.6" stop-color="rgb(235,242,242)" stop-opacity="1"/><stop offset="0.8" stop-color="rgb(255,255,255)" stop-opacity="1"/><stop offset="1" stop-color="rgb(255,255,255)" stop-opacity="1"/></radialGradient><radialGradient id="THQryXCrnaXt" cx="129.37861630388204px" cy="173.97580546415435px" r="40px" fx="129.37861630388204px" fy="173.97580546415435px" gradientUnits="userSpaceOnUse"><stop offset="0" stop-color="rgb(255,204,0)" stop-opacity="1"/><stop offset="0.2" stop-color="rgb(251,216,79)" stop-opacity="1"/><stop offset="0.4" stop-color="rgb(247,228,158)" stop-opacity="1"/><stop offset="0.6" stop-color="rgb(243,240,236)" stop-opacity="1"/><stop offset="0.8" stop-color="rgb(255,255,255)" stop-opacity="1"/><stop offset="1" stop-color="rgb(255,255,255)" stop-opacity="1"/></radialGradient><radialGradient id="OqUAhThfbdHp" cx="316.2137278089677px" cy="284.28439478537706px" r="7px" fx="316.2137278089677px" fy="284.28439478537706px" gradientUnits="userSpaceOnUse"><stop offset="0" stop-color="rgb(51,102,102)" stop-opacity="1"/><stop offset="0.5714285714285714" stop-color="rgb(255,255,255)" stop-opacity="1"/></radialGradient><radialGradient id="HLhbeqdGUrAS" cx="68.94659441362273px" cy="208.2812899786442px" r="7px" fx="68.94659441362273px" fy="208.2812899786442px" gradientUnits="userSpaceOnUse"><stop offset="0" stop-color="rgb(255,217,0)" stop-opacity="1"/><stop offset="0.38095238095238093" stop-color="rgb(255,255,255)" stop-opacity="1"/></radialGradient><radialGradient id="UkGXixiLFntO" cx="45.25px" cy="45.25px" r="90px" fx="45.25px" fy="45.25px" gradientUnits="userSpaceOnUse"><stop offset="0" stop-color="rgb(255,119,0)" stop-opacity="1"/><stop offset="0.1037037037037037" stop-color="rgb(255,255,255)" stop-opacity="1"/></radialGradient><radialGradient id="KrcJlSpROtpF" cx="134.72185246842753px" cy="243.15494939607106px" r="10px" fx="134.72185246842753px" fy="243.15494939607106px" gradientUnits="userSpaceOnUse"><stop offset="0" stop-color="rgb(255,227,77)" stop-opacity="1"/><stop offset="0.5333333333333333" stop-color="rgb(255,255,255)" stop-opacity="1"/></radialGradient><radialGradient id="CcQOtwRurGXQ" cx="251.32965789024672px" cy="96.82909260574357px" r="82px" fx="251.32965789024672px" fy="96.82909260574357px" gradientUnits="userSpaceOnUse"><stop offset="0" stop-color="rgb(255,227,77)" stop-opacity="1"/><stop offset="0.0975609756097561" stop-color="rgb(255,255,255)" stop-opacity="1"/></radialGradient><radialGradient id="AcxJtmwfdJlG" cx="194.49532560397893px" cy="209.3854558873939px" r="3px" fx="194.49532560397893px" fy="209.3854558873939px" gradientUnits="userSpaceOnUse"><stop offset="0" stop-color="rgb(51,102,102)" stop-opacity="1"/><stop offset="0.44444444444444436" stop-color="rgb(255,255,255)" stop-opacity="1"/></radialGradient></defs><g transform="translate(380.5343975103892,32.91554705313462) scale(2.9155470531345817,2.9155470531345817)"><path fill="none" stroke="rgb(142,142,142)" paint-order="fill stroke markers" d=" M 237.8210539634457 236.77875295916547 L 199.23705126959197 212.3834781875222" stroke-opacity="1" stroke-linejoin="round" stroke-miterlimit="10" stroke-width="1.93" stroke-dasharray="6,8"/><path fill="rgb(142,142,142)" stroke="none" paint-order="stroke fill markers" d=" M 205.6526215418068 211.2932680782894 L 195.97447353888495 210.32066783484925 L 201.00328214588592 218.64674638325081 Z" fill-opacity="1"/><path fill="none" stroke="rgb(216,216,216)" paint-order="fill stroke markers" d=" M 130.91878256176565 193.91641447937945 L 133.8739909434626 232.17764413318963" stroke-opacity="1" stroke-linejoin="round" stroke-miterlimit="10" stroke-width="2.88" stroke-dasharray="6,8"/><path fill="rgb(216,216,216)" stroke="none" paint-order="stroke fill markers" d=" M 129.31050404274222 229.58136076904123 L 134.31755882573307 237.92053952957446 L 137.98466896436517 228.91138844686185 Z" fill-opacity="1"/><path fill="none" stroke="rgb(216,216,216)" paint-order="fill stroke markers" d=" M 146.2805679140818 163.2835638017869 L 209.18464155021366 123.4901971908568" stroke-opacity="1" stroke-linejoin="round" stroke-miterlimit="10" stroke-width="4.31" stroke-dasharray="6,8"/><path fill="rgb(216,216,216)" stroke="none" paint-order="stroke fill markers" d=" M 209.80990387069312 129.91383464664594 L 216.46938269420974 118.88184103437644 L 203.64810051028417 120.17345414292484 Z" fill-opacity="1"/><path fill="none" stroke="rgb(216,216,216)" paint-order="fill stroke markers" d=" M 312.99639077006657 282.3579362786567 L 275.1964449237912 259.7243028269382" stroke-opacity="1" stroke-linejoin="round" stroke-miterlimit="10" stroke-width="1.93" stroke-dasharray="6,8"/><path fill="rgb(216,216,216)" stroke="none" paint-order="stroke fill markers" d=" M 281.5836464631285 258.4786076411533 L 271.88473266508237 257.7413348706874 L 277.1142627275373 265.9428295714038 Z" fill-opacity="1"/><path fill="none" stroke="rgb(0,0,0)" paint-order="fill stroke markers" d=" M 72.20777228879209 206.43001504862815 L 109.53326187418486 185.2414305049454" stroke-opacity="1" stroke-linejoin="round" stroke-miterlimit="10" stroke-width="1.41"/><path fill="rgb(0,0,0)" stroke="none" paint-order="stroke fill markers" d=" M 106.56721388473798 191.92719593040704 L 111.98566763631221 183.84927175757332 L 102.27225604710071 184.36126326001414 Z" fill-opacity="1"/><path fill="none" stroke="rgb(216,216,216)" paint-order="fill stroke markers" d=" M 70.00514732683868 83.12803031872845 L 112.96636393249729 148.86329917549463" stroke-opacity="1" stroke-linejoin="round" stroke-miterlimit="10" stroke-width="5" stroke-dasharray="6,8"/><path fill="rgb(216,216,216)" stroke="none" paint-order="stroke fill markers" d=" M 105.716228713109 149.81006731885753 L 118.43711472295887 157.23413460504787 L 116.74383694600122 142.60298542545377 Z" fill-opacity="1"/><path fill="none" stroke="rgb(216,216,216)" paint-order="fill stroke markers" d=" M 192.95793220058562 208.54944062245988 L 148.33687324401228 184.28506798831214" stroke-opacity="1" stroke-linejoin="round" stroke-miterlimit="10" stroke-width="0.79" stroke-dasharray="6,8"/><path fill="rgb(216,216,216)" stroke="none" paint-order="stroke fill markers" d=" M 156.66996320665424 183.86493506349458 L 146.94882662837716 183.53026563482885 L 152.51377303241082 191.50797655464996 Z" fill-opacity="1"/><path fill="url(#dWasPIxcbbSN)" stroke="none" paint-order="stroke fill markers" d=" M 274.7256017909432 247.46688950151233 L 274.66394846560576 249.03607141606923 L 274.47936860284597 250.59557880231694 L 274.1730001988967 252.13579677863044 L 273.74673211684626 253.64722938901127 L 273.20319244116894 255.12055814881413 L 272.54573227471053 256.5466994963033 L 271.778405078025 257.9168607958313 L 270.90594167844216 259.2225945473618 L 269.9337211029438 260.455850468116 L 268.86773741467414 261.60902512524325 L 267.71456275754684 262.67500881351293 L 266.48130683679267 263.6472293890113 L 265.17557308526216 264.51969278859417 L 263.8054117857341 265.2870199852797 L 262.379270438245 265.94448015173805 L 260.90594167844216 266.48801982741537 L 259.3945090680613 266.9142879094659 L 257.8542910917478 267.2206563134151 L 256.2947837055001 267.40523617617487 L 254.7256017909432 267.46688950151236 L 253.15641987638628 267.40523617617487 L 251.59691249013858 267.2206563134151 L 250.05669451382508 266.9142879094659 L 248.54526190344424 266.4880198274154 L 247.0719331436414 265.94448015173805 L 245.64579179615225 265.2870199852797 L 244.27563049662422 264.51969278859417 L 242.96989674509373 263.6472293890113 L 241.73664082433953 262.67500881351293 L 240.58346616721224 261.6090251252433 L 239.51748247894255 260.455850468116 L 238.54526190344424 259.2225945473618 L 237.67279850386134 257.9168607958313 L 236.90547130717584 256.5466994963033 L 236.24801114071744 255.12055814881413 L 235.70447146504011 253.64722938901127 L 235.27820338298966 252.13579677863044 L 234.97183497904044 250.59557880231694 L 234.78725511628062 249.03607141606923 L 234.7256017909432 247.46688950151233 L 234.78725511628062 245.89770758695542 L 234.97183497904044 244.33820020070772 L 235.27820338298966 242.79798222439422 L 235.70447146504011 241.28654961401338 L 236.24801114071744 239.81322085421053 L 236.90547130717584 238.3870795067214 L 237.67279850386134 237.01691820719336 L 238.54526190344424 235.71118445566287 L 239.51748247894255 234.47792853490864 L 240.58346616721224 233.32475387778138 L 241.7366408243395 232.25877018951172 L 242.96989674509373 231.28654961401338 L 244.27563049662422 230.41408621443048 L 245.64579179615225 229.64675901774496 L 247.07193314364142 228.98929885128658 L 248.54526190344427 228.44575917560925 L 250.0566945138251 228.01949109355877 L 251.5969124901386 227.71312268960958 L 253.15641987638634 227.52854282684976 L 254.72560179094324 227.46688950151233 L 256.29478370550015 227.5285428268498 L 257.8542910917479 227.71312268960958 L 259.3945090680614 228.01949109355883 L 260.9059416784422 228.44575917560928 L 262.3792704382451 228.98929885128663 L 263.80541178573424 229.646759017745 L 265.1755730852623 230.41408621443054 L 266.4813068367928 231.28654961401347 L 267.71456275754696 232.2587701895118 L 268.86773741467425 233.3247538777815 L 269.93372110294393 234.47792853490878 L 270.9059416784422 235.71118445566302 L 271.7784050780251 237.0169182071935 L 272.54573227471064 238.38707950672156 L 273.203192441169 239.81322085421073 L 273.7467321168463 241.28654961401358 L 274.1730001988968 242.79798222439442 L 274.47936860284597 244.33820020070794 L 274.66394846560576 245.89770758695568 Z"/><text fill="rgb(0,0,0)" stroke="none" font-family="Helvetica Neue, Helvetica, sans-serif" font-size="16px" font-style="normal" font-weight="normal" text-decoration="normal" x="254.7256017909432" y="255.46688950151233" text-anchor="middle" dominant-baseline="text-after-edge" fill-opacity="1">Gas Pipeline</text><path fill="url(#THQryXCrnaXt)" stroke="none" paint-order="stroke fill markers" d=" M 149.37861630388204 173.97580546415435 L 149.3169629785446 175.54498737871126 L 149.1323831157848 177.10449476495896 L 148.82601471183557 178.64471274127246 L 148.3997466297851 180.1561453516533 L 147.8562069541078 181.62947411145615 L 147.19874678764938 183.05561545894528 L 146.43141959096388 184.42577675847332 L 145.558956191381 185.7315105100038 L 144.58673561588267 186.96476643075803 L 143.520751927613 188.1179410878853 L 142.36757727048573 189.18392477615498 L 141.1343213497315 190.1561453516533 L 139.828587598201 191.0286087512362 L 138.45842629867298 191.7959359479217 L 137.03228495118384 192.4533961143801 L 135.558956191381 192.99693579005742 L 134.04752358100015 193.42320387210788 L 132.50730560468665 193.7295722760571 L 130.94779821843895 193.91415213881692 L 129.37861630388204 193.97580546415435 L 127.80943438932515 193.91415213881692 L 126.24992700307743 193.7295722760571 L 124.70970902676393 193.42320387210788 L 123.1982764163831 192.99693579005742 L 121.72494765658024 192.4533961143801 L 120.2988063090911 191.7959359479217 L 118.92864500956307 191.0286087512362 L 117.62291125803259 190.1561453516533 L 116.38965533727837 189.18392477615498 L 115.23648068015109 188.1179410878853 L 114.17049699188142 186.96476643075803 L 113.1982764163831 185.7315105100038 L 112.3258130168002 184.42577675847332 L 111.55848582011468 183.05561545894528 L 110.9010256536563 181.62947411145615 L 110.35748597797897 180.1561453516533 L 109.93121789592851 178.64471274127246 L 109.62484949197929 177.10449476495896 L 109.44026962921949 175.54498737871126 L 109.37861630388204 173.97580546415435 L 109.44026962921949 172.40662354959744 L 109.62484949197929 170.84711616334974 L 109.93121789592851 169.30689818703624 L 110.35748597797897 167.7954655766554 L 110.9010256536563 166.32213681685255 L 111.55848582011468 164.8959954693634 L 112.3258130168002 163.52583416983538 L 113.1982764163831 162.2201004183049 L 114.17049699188142 160.9868444975507 L 115.23648068015109 159.8336698404234 L 116.38965533727836 158.76768615215374 L 117.62291125803257 157.7954655766554 L 118.92864500956307 156.9230021770725 L 120.29880630909112 156.15567498038698 L 121.72494765658027 155.4982148139286 L 123.19827641638312 154.95467513825128 L 124.70970902676397 154.52840705620082 L 126.24992700307747 154.2220386522516 L 127.8094343893252 154.03745878949178 L 129.3786163038821 153.97580546415435 L 130.947798218439 154.03745878949178 L 132.50730560468674 154.2220386522516 L 134.04752358100023 154.52840705620085 L 135.5589561913811 154.9546751382513 L 137.03228495118395 155.49821481392866 L 138.4584262986731 156.15567498038706 L 139.82858759820112 156.92300217707256 L 141.1343213497316 157.7954655766555 L 142.3675772704858 158.76768615215383 L 143.5207519276131 159.8336698404235 L 144.58673561588276 160.9868444975508 L 145.5589561913811 162.22010041830504 L 146.43141959096397 163.52583416983552 L 147.1987467876495 164.89599546936358 L 147.85620695410785 166.32213681685275 L 148.39974662978517 167.7954655766556 L 148.82601471183563 169.30689818703644 L 149.13238311578482 170.84711616334997 L 149.3169629785446 172.4066235495977 Z"/><text fill="rgb(0,0,0)" stroke="none" font-family="Helvetica Neue, Helvetica, sans-serif" font-size="16px" font-style="normal" font-weight="normal" text-decoration="normal" x="129.37861630388204" y="181.97580546415435" text-anchor="middle" dominant-baseline="text-after-edge" fill-opacity="1">Powerline</text><path fill="url(#OqUAhThfbdHp)" stroke="rgb(51,102,102)" paint-order="fill stroke markers" d=" M 319.7137278089677 284.28439478537706 L 319.7029384770336 284.5590016204245 L 319.6706370010507 284.8319154130179 L 319.6170225303596 285.1014535588727 L 319.54242561600074 285.36595426568937 L 319.4473061727572 285.62378679865486 L 319.332250643627 285.87336153446546 L 319.197968384207 286.1131397618829 L 319.04528728928 286.3416431684007 L 318.8751486885678 286.5574629545327 L 318.6886015431206 286.75926851953 L 318.4867959781233 286.94581566497715 L 318.27097619199134 287.11595426568937 L 318.04247278547354 287.2686353606164 L 317.8026945580561 287.40291762003636 L 317.5531198222455 287.51797314916655 L 317.29528728928 287.6130925924101 L 317.03078658246335 287.68768950676895 L 316.7612484366085 287.74130397746006 L 316.48833464401514 287.773605453443 L 316.2137278089677 287.78439478537706 L 315.93912097392024 287.773605453443 L 315.66620718132685 287.74130397746006 L 315.39666903547203 287.68768950676895 L 315.1321683286554 287.6130925924101 L 314.8743357956899 287.51797314916655 L 314.6247610598793 287.40291762003636 L 314.38498283246184 287.2686353606164 L 314.15647942594404 287.11595426568937 L 313.94065963981205 286.94581566497715 L 313.73885407481475 286.75926851953 L 313.5523069293676 286.5574629545327 L 313.3821683286554 286.3416431684007 L 313.2294872337284 286.1131397618829 L 313.0952049743084 285.87336153446546 L 312.9801494451782 285.62378679865486 L 312.88503000193464 285.36595426568937 L 312.8104330875758 285.1014535588727 L 312.7568186168847 284.8319154130179 L 312.72451714090175 284.5590016204245 L 312.7137278089677 284.28439478537706 L 312.72451714090175 284.0097879503296 L 312.7568186168847 283.7368741577362 L 312.8104330875758 283.4673360118814 L 312.88503000193464 283.20283530506475 L 312.9801494451782 282.94500277209926 L 313.0952049743084 282.69542803628866 L 313.2294872337284 282.4556498088712 L 313.3821683286554 282.2271464023534 L 313.5523069293676 282.0113266162214 L 313.73885407481475 281.8095210512241 L 313.94065963981205 281.622973905777 L 314.15647942594404 281.45283530506475 L 314.38498283246184 281.30015421013775 L 314.6247610598793 281.16587195071776 L 314.8743357956899 281.05081642158757 L 315.1321683286554 280.955696978344 L 315.39666903547203 280.8811000639852 L 315.6662071813269 280.82748559329406 L 315.93912097392024 280.7951841173111 L 316.2137278089677 280.78439478537706 L 316.48833464401514 280.7951841173111 L 316.7612484366085 280.82748559329406 L 317.03078658246335 280.8811000639852 L 317.29528728928 280.955696978344 L 317.55311982224555 281.05081642158757 L 317.80269455805615 281.16587195071776 L 318.04247278547354 281.30015421013775 L 318.27097619199134 281.45283530506475 L 318.4867959781233 281.622973905777 L 318.6886015431206 281.8095210512242 L 318.87514868856783 282.0113266162214 L 319.04528728928 282.2271464023534 L 319.197968384207 282.45564980887127 L 319.332250643627 282.69542803628866 L 319.4473061727572 282.94500277209926 L 319.54242561600074 283.20283530506475 L 319.6170225303596 283.4673360118814 L 319.6706370010507 283.7368741577363 L 319.7029384770336 284.00978795032967 Z" stroke-opacity="1" stroke-miterlimit="10" stroke-width="0.5"/><text fill="rgb(0,0,0)" stroke="none" font-family="Helvetica Neue, Helvetica, sans-serif" font-size="16px" font-style="normal" font-weight="normal" text-decoration="normal" x="316.2137278089677" y="292.28439478537706" text-anchor="middle" dominant-baseline="text-after-edge" fill-opacity="1">Gas Supply</text><path fill="url(#HLhbeqdGUrAS)" stroke="rgb(255,217,0)" paint-order="fill stroke markers" d=" M 72.44659441362273 208.2812899786442 L 72.43580508168868 208.55589681369165 L 72.40350360570571 208.828810606285 L 72.3498891350146 209.09834875213986 L 72.27529222065577 209.3628494589565 L 72.18017277741224 209.620681991922 L 72.06511724828202 209.87025672773262 L 71.93083498886206 210.11003495515 L 71.77815389393506 210.33853836166784 L 71.60801529322285 210.55435814779983 L 71.42146814777566 210.7561637127971 L 71.21966258277837 210.9427108582443 L 71.0038427966464 211.1128494589565 L 70.77533939012855 211.2655305538835 L 70.53556116271115 211.39981281330347 L 70.28598642690055 211.5148683424337 L 70.02815389393506 211.60998778567722 L 69.76365318711841 211.68458470003605 L 69.49411504126354 211.73819917072717 L 69.2212012486702 211.77050064671013 L 68.94659441362273 211.7812899786442 L 68.67198757857528 211.77050064671013 L 68.39907378598193 211.73819917072717 L 68.12953564012706 211.68458470003605 L 67.86503493331041 211.60998778567722 L 67.60720240034492 211.5148683424337 L 67.35762766453432 211.39981281330347 L 67.11784943711692 211.2655305538835 L 66.88934603059907 211.1128494589565 L 66.6735262444671 210.9427108582443 L 66.47172067946981 210.7561637127971 L 66.28517353402262 210.55435814779983 L 66.11503493331041 210.33853836166784 L 65.96235383838341 210.11003495515 L 65.82807157896345 209.87025672773262 L 65.71301604983323 209.620681991922 L 65.6178966065897 209.3628494589565 L 65.54329969223086 209.09834875213986 L 65.48968522153976 208.828810606285 L 65.45738374555678 208.55589681369165 L 65.44659441362273 208.2812899786442 L 65.45738374555678 208.00668314359675 L 65.48968522153976 207.7337693510034 L 65.54329969223086 207.46423120514854 L 65.6178966065897 207.1997304983319 L 65.71301604983323 206.9418979653664 L 65.82807157896345 206.6923232295558 L 65.96235383838341 206.45254500213838 L 66.11503493331041 206.22404159562055 L 66.28517353402262 206.00822180948856 L 66.47172067946981 205.8064162444913 L 66.67352624446708 205.61986909904408 L 66.88934603059907 205.4497304983319 L 67.11784943711692 205.29704940340488 L 67.35762766453432 205.1627671439849 L 67.60720240034492 205.04771161485468 L 67.86503493331043 204.95259217161114 L 68.12953564012707 204.87799525725234 L 68.39907378598194 204.82438078656122 L 68.67198757857528 204.79207931057826 L 68.94659441362275 204.7812899786442 L 69.2212012486702 204.79207931057826 L 69.49411504126356 204.82438078656122 L 69.76365318711842 204.87799525725234 L 70.02815389393507 204.95259217161117 L 70.28598642690056 205.0477116148547 L 70.53556116271116 205.16276714398492 L 70.77533939012858 205.29704940340488 L 71.00384279664641 205.4497304983319 L 71.2196625827784 205.6198690990441 L 71.42146814777567 205.8064162444913 L 71.60801529322286 206.0082218094886 L 71.77815389393507 206.22404159562058 L 71.93083498886207 206.4525450021384 L 72.06511724828204 206.69232322955583 L 72.18017277741225 206.94189796536642 L 72.27529222065579 207.19973049833192 L 72.3498891350146 207.46423120514856 L 72.40350360570572 207.73376935100342 L 72.43580508168868 208.00668314359677 Z" stroke-opacity="1" stroke-miterlimit="10" stroke-width="0.5"/><text fill="rgb(0,0,0)" stroke="none" font-family="Helvetica Neue, Helvetica, sans-serif" font-size="16px" font-style="normal" font-weight="normal" text-decoration="normal" x="68.94659441362273" y="216.2812899786442" text-anchor="middle" dominant-baseline="text-after-edge" fill-opacity="1">Import</text><path fill="url(#UkGXixiLFntO)" stroke="rgb(255,119,0)" paint-order="fill stroke markers" d=" M 90.25 45.25 L 90.11128001799077 48.78065930775302 L 89.6959753267812 52.28955092681039 L 89.00664641789544 55.755041373515745 L 88.04754323328191 59.155764746872634 L 86.8245789630079 62.47075445642904 L 85.34529358847655 65.6795724882796 L 83.61880739593414 68.7624354122177 L 81.65576474687263 71.70033635316129 L 79.46826845200138 74.47516217485827 L 77.06980515339464 77.06980515339464 L 74.47516217485827 79.46826845200138 L 71.70033635316129 81.65576474687263 L 68.7624354122177 83.61880739593414 L 65.6795724882796 85.34529358847655 L 62.47075445642904 86.8245789630079 L 59.155764746872634 88.04754323328191 L 55.755041373515745 89.00664641789544 L 52.28955092681039 89.6959753267812 L 48.78065930775303 90.11128001799077 L 45.25 90.25 L 41.71934069224698 90.11128001799077 L 38.210449073189615 89.6959753267812 L 34.74495862648426 89.00664641789545 L 31.34423525312737 88.04754323328191 L 28.029245543570962 86.8245789630079 L 24.8204275117204 85.34529358847655 L 21.737564587782305 83.61880739593416 L 18.799663646838713 81.65576474687263 L 16.02483782514174 79.4682684520014 L 13.430194846605364 77.06980515339464 L 11.03173154799861 74.47516217485827 L 8.844235253127373 71.7003363531613 L 6.881192604065852 68.7624354122177 L 5.154706411523449 65.6795724882796 L 3.6754210369920983 62.47075445642905 L 2.452456766718093 59.155764746872634 L 1.4933535821045538 55.75504137351575 L 0.8040246732188052 52.28955092681039 L 0.38871998200924196 48.78065930775303 L 0.25 45.25000000000001 L 0.38871998200924196 41.71934069224698 L 0.8040246732187981 38.210449073189615 L 1.4933535821045467 34.74495862648426 L 2.452456766718086 31.344235253127373 L 3.675421036992091 28.029245543570966 L 5.154706411523442 24.8204275117204 L 6.881192604065845 21.73756458778231 L 8.844235253127358 18.799663646838713 L 11.031731547998604 16.02483782514174 L 13.430194846605353 13.430194846605364 L 16.024837825141717 11.031731547998625 L 18.799663646838702 8.844235253127373 L 21.737564587782312 6.881192604065845 L 24.820427511720425 5.154706411523428 L 28.029245543571008 3.675421036992077 L 31.344235253127437 2.452456766718065 L 34.74495862648435 1.4933535821045325 L 38.21044907318972 0.8040246732187839 L 41.71934069224711 0.38871998200923485 L 45.25000000000015 0.25 L 48.7806593077532 0.38871998200925617 L 52.28955092681058 0.8040246732188336 L 55.75504137351595 1.4933535821045965 L 59.155764746872855 2.4524567667181643 L 62.470754456429276 3.6754210369921907 L 65.67957248827985 5.15470641152357 L 68.76243541221794 6.881192604066001 L 71.70033635316153 8.84423525312755 L 74.47516217485851 11.031731547998824 L 77.06980515339488 13.430194846605609 L 79.46826845200164 16.024837825142015 L 81.65576474687286 18.799663646839022 L 83.61880739593437 21.73756458778265 L 85.34529358847675 24.820427511720776 L 86.82457896300808 28.029245543571374 L 88.04754323328206 31.344235253127813 L 89.00664641789555 34.74495862648473 L 89.69597532678128 38.21044907319011 L 90.1112800179908 41.719340692247506 Z" stroke-opacity="1" stroke-miterlimit="10" stroke-width="0.5"/><text fill="rgb(0,0,0)" stroke="none" font-family="Helvetica Neue, Helvetica, sans-serif" font-size="16px" font-style="normal" font-weight="normal" text-decoration="normal" x="45.25" y="53.25" text-anchor="middle" dominant-baseline="text-after-edge" fill-opacity="1">Solar</text><path fill="url(#KrcJlSpROtpF)" stroke="rgb(255,227,77)" paint-order="fill stroke markers" d=" M 139.72185246842753 243.15494939607106 L 139.70643913709316 243.5472448747103 L 139.66029417140322 243.9371217212722 L 139.5837020704159 244.3221762153506 L 139.4771350499033 244.7000343679458 L 139.34125013098395 245.0683665578965 L 139.17688508936936 245.4249018947688 L 138.98505329019798 245.7674422196508 L 138.76693744030226 246.09387565753343 L 138.52388229642767 246.402189637722 L 138.25738637436027 246.6904833020038 L 137.96909271007846 246.9569792240712 L 137.6607787298899 247.2000343679458 L 137.33434529200727 247.41815021784151 L 136.99180496712526 247.6099820170129 L 136.63526963025296 247.77434705862748 L 136.26693744030226 247.91023197754683 L 135.88907928770706 248.01679899805944 L 135.50402479362867 248.09339109904676 L 135.11414794706675 248.1395360647367 L 134.72185246842753 248.15494939607106 L 134.3295569897883 248.1395360647367 L 133.93968014322638 248.09339109904676 L 133.554625649148 248.01679899805944 L 133.1767674965528 247.91023197754683 L 132.8084353066021 247.77434705862748 L 132.4518999697298 247.6099820170129 L 132.10935964484779 247.41815021784151 L 131.78292620696516 247.2000343679458 L 131.4746122267766 246.9569792240712 L 131.1863185624948 246.6904833020038 L 130.91982264042738 246.402189637722 L 130.6767674965528 246.09387565753343 L 130.45865164665707 245.7674422196508 L 130.2668198474857 245.4249018947688 L 130.1024548058711 245.0683665578965 L 129.96656988695176 244.7000343679458 L 129.86000286643915 244.3221762153506 L 129.78341076545183 243.9371217212722 L 129.7372657997619 243.5472448747103 L 129.72185246842753 243.15494939607106 L 129.7372657997619 242.76265391743183 L 129.78341076545183 242.37277707086992 L 129.86000286643915 241.98772257679153 L 129.96656988695176 241.60986442419633 L 130.1024548058711 241.24153223424562 L 130.2668198474857 240.88499689737333 L 130.45865164665707 240.54245657249132 L 130.6767674965528 240.2160231346087 L 130.91982264042738 239.90770915442013 L 131.1863185624948 239.61941549013832 L 131.4746122267766 239.35291956807092 L 131.78292620696516 239.10986442419633 L 132.10935964484779 238.8917485743006 L 132.4518999697298 238.69991677512922 L 132.8084353066021 238.53555173351464 L 133.1767674965528 238.3996668145953 L 133.55462564914802 238.29309979408268 L 133.93968014322638 238.21650769309537 L 134.32955698978833 238.17036272740543 L 134.72185246842756 238.15494939607106 L 135.11414794706678 238.17036272740543 L 135.5040247936287 238.21650769309537 L 135.8890792877071 238.29309979408268 L 136.26693744030229 238.3996668145953 L 136.635269630253 238.53555173351464 L 136.9918049671253 238.69991677512922 L 137.3343452920073 238.8917485743006 L 137.66077872988993 239.10986442419633 L 137.96909271007848 239.35291956807092 L 138.2573863743603 239.61941549013835 L 138.5238822964277 239.90770915442016 L 138.76693744030229 240.21602313460872 L 138.985053290198 240.54245657249135 L 139.1768850893694 240.88499689737336 L 139.34125013098398 241.24153223424565 L 139.47713504990332 241.60986442419636 L 139.5837020704159 241.98772257679158 L 139.66029417140322 242.37277707086997 L 139.70643913709318 242.7626539174319 Z" stroke-opacity="1" stroke-miterlimit="10" stroke-width="0.5"/><text fill="rgb(0,0,0)" stroke="none" font-family="Helvetica Neue, Helvetica, sans-serif" font-size="16px" font-style="normal" font-weight="normal" text-decoration="normal" x="134.72185246842753" y="251.15494939607106" text-anchor="middle" dominant-baseline="text-after-edge" fill-opacity="1">Demand</text><path fill="url(#CcQOtwRurGXQ)" stroke="rgb(255,227,77)" paint-order="fill stroke markers" d=" M 292.3296578902467 96.82909260574357 L 292.20326857330497 100.0459155305852 L 291.82487985464735 103.24290567239304 L 291.19682462655146 106.40035252383569 L 290.322975058348 109.49878937511642 L 289.2087187232095 112.51911333271225 L 287.8609253819698 115.44270309506499 L 286.2879046287645 118.25153375909747 L 284.4993546596196 120.92828794973497 L 282.506302479848 123.4564625872811 L 280.3210359188952 125.82047063439201 L 277.95702787178425 128.00573719534484 L 275.4288532342381 129.99878937511642 L 272.75209904360065 131.78733934426134 L 269.94326837956817 133.36036009746664 L 267.0196786172154 134.70815343870632 L 263.99935465961954 135.82240977384487 L 260.9009178083388 136.6962593420483 L 257.7434709568962 137.32431457014422 L 254.54648081508836 137.7027032888018 L 251.32965789024672 137.82909260574357 L 248.11283496540509 137.7027032888018 L 244.91584482359727 137.32431457014422 L 241.7583979721546 136.6962593420483 L 238.65996112087387 135.82240977384487 L 235.63963716327805 134.70815343870632 L 232.7160474009253 133.36036009746664 L 229.90721673689282 131.78733934426134 L 227.23046254625532 129.99878937511642 L 224.7022879087092 128.00573719534484 L 222.33827986159827 125.82047063439202 L 220.15301330064545 123.4564625872811 L 218.15996112087387 120.92828794973497 L 216.37141115172895 118.25153375909747 L 214.79839039852365 115.44270309506499 L 213.45059705728397 112.51911333271225 L 212.33634072214542 109.49878937511642 L 211.46249115394198 106.40035252383569 L 210.8344359258461 103.24290567239304 L 210.45604720718848 100.04591553058522 L 210.32965789024672 96.82909260574357 L 210.45604720718848 93.61226968090193 L 210.83443592584607 90.41527953909412 L 211.46249115394198 87.25783268765146 L 212.33634072214542 84.15939583637073 L 213.45059705728397 81.1390718787749 L 214.79839039852362 78.21548211642215 L 216.37141115172892 75.40665145238967 L 218.15996112087387 72.72989726175217 L 220.15301330064545 70.20172262420604 L 222.33827986159827 67.83771457709513 L 224.70228790870917 65.65244801614232 L 227.23046254625532 63.65939583637073 L 229.90721673689282 61.87084586722578 L 232.71604740092533 60.29782511402047 L 235.63963716327808 58.9500317727808 L 238.65996112087393 57.83577543764225 L 241.75839797215468 56.96192586943881 L 244.91584482359735 56.333870641342905 L 248.1128349654052 55.955481922685316 L 251.32965789024686 55.82909260574357 L 254.54648081508853 55.95548192268534 L 257.7434709568964 56.33387064134295 L 260.90091780833905 56.96192586943887 L 263.99935465961977 57.83577543764234 L 267.0196786172156 58.950031772780896 L 269.94326837956834 60.2978251140206 L 272.7520990436009 61.870845867225924 L 275.4288532342383 63.65939583637089 L 277.9570278717845 65.6524480161425 L 280.3210359188954 67.83771457709534 L 282.5063024798482 70.2017226242063 L 284.49935465961977 72.72989726175246 L 286.2879046287647 75.40665145238998 L 287.86092538197 78.21548211642249 L 289.20871872320964 81.13907187877527 L 290.32297505834816 84.15939583637113 L 291.1968246265516 87.25783268765188 L 291.82487985464746 90.41527953909456 L 292.203268573305 93.6122696809024 Z" stroke-opacity="1" stroke-miterlimit="10" stroke-width="0.5"/><text fill="rgb(0,0,0)" stroke="none" font-family="Helvetica Neue, Helvetica, sans-serif" font-size="16px" font-style="normal" font-weight="normal" text-decoration="normal" x="251.32965789024672" y="104.82909260574357" text-anchor="middle" dominant-baseline="text-after-edge" fill-opacity="1">Excess</text><path fill="url(#AcxJtmwfdJlG)" stroke="rgb(51,102,102)" paint-order="fill stroke markers" d=" M 195.99532560397893 209.3854558873939 L 195.99070160457862 209.50314453098568 L 195.97685811487165 209.62010758495424 L 195.95388048457545 209.73562393317775 L 195.92191037842164 209.84898137895632 L 195.88114490274586 209.95948103594154 L 195.8318353902615 210.0664416370032 L 195.77428585051007 210.16920373446783 L 195.70885109554135 210.26713376583263 L 195.63593455237898 210.35962795988917 L 195.55598577575876 210.44611605917373 L 195.4694976764742 210.52606483579396 L 195.37700348241765 210.59898137895632 L 195.27907345105285 210.66441613392504 L 195.17631135358826 210.72196567367646 L 195.06935075252656 210.77127518616084 L 194.95885109554135 210.81204066183662 L 194.84549364976277 210.84401076799043 L 194.72997730153926 210.86698839828662 L 194.6130142475707 210.8808318879936 L 194.49532560397893 210.8854558873939 L 194.37763696038715 210.8808318879936 L 194.2606739064186 210.86698839828662 L 194.14515755819508 210.84401076799043 L 194.0318001124165 210.81204066183665 L 193.9213004554313 210.77127518616084 L 193.81433985436962 210.72196567367646 L 193.711577756905 210.66441613392504 L 193.6136477255402 210.59898137895632 L 193.52115353148366 210.52606483579396 L 193.4346654321991 210.44611605917373 L 193.35471665557887 210.35962795988917 L 193.2818001124165 210.26713376583263 L 193.21636535744778 210.16920373446783 L 193.15881581769636 210.06644163700324 L 193.109506305212 209.95948103594154 L 193.0687408295362 209.84898137895632 L 193.0367707233824 209.73562393317775 L 193.0137930930862 209.62010758495424 L 192.99994960337924 209.50314453098568 L 192.99532560397893 209.3854558873939 L 192.99994960337924 209.26776724380213 L 193.0137930930862 209.15080418983356 L 193.0367707233824 209.03528784161006 L 193.06874082953618 208.92193039583148 L 193.109506305212 208.81143073884627 L 193.15881581769636 208.7044701377846 L 193.21636535744778 208.60170804031998 L 193.2818001124165 208.50377800895518 L 193.35471665557887 208.41128381489864 L 193.4346654321991 208.32479571561407 L 193.52115353148366 208.24484693899385 L 193.6136477255402 208.17193039583148 L 193.711577756905 208.10649564086276 L 193.81433985436962 208.04894610111134 L 193.9213004554313 207.99963658862697 L 194.0318001124165 207.95887111295116 L 194.14515755819508 207.92690100679738 L 194.2606739064186 207.90392337650118 L 194.37763696038715 207.8900798867942 L 194.49532560397893 207.8854558873939 L 194.6130142475707 207.8900798867942 L 194.7299773015393 207.9039233765012 L 194.8454936497628 207.92690100679738 L 194.95885109554135 207.9588711129512 L 195.06935075252656 207.99963658862697 L 195.17631135358826 208.04894610111137 L 195.27907345105285 208.10649564086276 L 195.37700348241765 208.17193039583148 L 195.46949767647422 208.24484693899387 L 195.55598577575876 208.3247957156141 L 195.63593455237898 208.41128381489864 L 195.70885109554135 208.5037780089552 L 195.77428585051007 208.60170804031998 L 195.8318353902615 208.7044701377846 L 195.88114490274586 208.81143073884627 L 195.92191037842167 208.9219303958315 L 195.95388048457545 209.03528784161006 L 195.97685811487165 209.15080418983356 L 195.99070160457862 209.26776724380215 Z" stroke-opacity="1" stroke-miterlimit="10" stroke-width="0.5"/><text fill="rgb(0,0,0)" stroke="none" font-family="Helvetica Neue, Helvetica, sans-serif" font-size="16px" font-style="normal" font-weight="normal" text-decoration="normal" x="194.49532560397893" y="217.3854558873939" text-anchor="middle" dominant-baseline="text-after-edge" fill-opacity="1">Gas Powerplant</text><g transform="scale(0.3429888051111621,0.3429888051111621) translate(-380.5343975103892,-32.91554705313462)"/></g></svg>