<svg version="1.1" xmlns="http://www.w3.org/2000/svg" xmlns:xlink="http://www.w3.org/1999/xlink" width="1804" height="918"><defs><radialGradient id="ryLLZNMUFaEV" cx="155.10301015042268px" cy="144.21996052396491px" r="40px" fx="155.10301015042268px" fy="144.21996052396491px" gradientUnits="userSpaceOnUse"><stop offset="0" stop-color="rgb(255,204,0)" stop-opacity="1"/><stop offset="0.2" stop-color="rgb(251,216,79)" stop-opacity="1"/><stop offset="0.4" stop-color="rgb(247,228,158)" stop-opacity="1"/><stop offset="0.6" stop-color="rgb(243,240,236)" stop-opacity="1"/><stop offset="0.8" stop-color="rgb(255,255,255)" stop-opacity="1"/><stop offset="1" stop-color="rgb(255,255,255)" stop-opacity="1"/></radialGradient><radialGradient id="ptEqAEvStVLE" cx="73.0956237098697px" cy="248.3954138906232px" r="64px" fx="73.0956237098697px" fy="248.3954138906232px" gradientUnits="userSpaceOnUse"><stop offset="0" stop-color="rgb(255,217,0)" stop-opacity="1"/><stop offset="0.40625" stop-color="rgb(255,255,255)" stop-opacity="1"/></radialGradient><radialGradient id="OlfOquRSwLdV" cx="39.25px" cy="39.25px" r="78px" fx="39.25px" fy="39.25px" gradientUnits="userSpaceOnUse"><stop offset="0" stop-color="rgb(255,119,0)" stop-opacity="1"/><stop offset="0.10256410256410257" stop-color="rgb(255,255,255)" stop-opacity="1"/></radialGradient><radialGradient id="zvTCTkyURhJo" cx="224.26794697914886px" cy="97.90777900701289px" r="26px" fx="224.26794697914886px" fy="97.90777900701289px" gradientUnits="userSpaceOnUse"><stop offset="0" stop-color="rgb(51,102,102)" stop-opacity="1"/><stop offset="0.6153846153846154" stop-color="rgb(255,255,255)" stop-opacity="1"/></radialGradient><radialGradient id="ZhWoPOaxTRKD" cx="268.40088276105234px" cy="268.2030383084709px" r="90px" fx="268.40088276105234px" fy="268.2030383084709px" gradientUnits="userSpaceOnUse"><stop offset="0" stop-color="rgb(255,227,77)" stop-opacity="1"/><stop offset="0.5555555555555557" stop-color="rgb(255,255,255)" stop-opacity="1"/></radialGradient><radialGradient id="LSlEpQIdmsTF" cx="211.72441661216826px" cy="176.3343479682048px" r="1px" fx="211.72441661216826px" fy="176.3343479682048px" gradientUnits="userSpaceOnUse"><stop offset="0" stop-color="rgb(255,227,77)" stop-opacity="1"/><stop offset="0" stop-color="rgb(255,255,255)" stop-opacity="1"/></radialGradient></defs><g transform="translate(475.4508393832192,32.71989772107054) scale(2.719897721070579,2.719897721070579)"><path fill="none" stroke="rgb(216,216,216)" paint-order="fill stroke markers" d=" M 168.59462625586144 158.9839808051575 L 231.13029326977778 227.4174322816765" stroke-opacity="1" stroke-linejoin="round" stroke-miterlimit="10" stroke-width="5" stroke-dasharray="6,8"/><path fill="rgb(216,216,216)" stroke="none" paint-order="stroke fill markers" d=" M 224.1268062504415 229.51790846261474 L 237.87610132249716 234.79944242227276 L 233.85175144699016 220.6310859888334 Z" fill-opacity="1"/><path fill="none" stroke="rgb(216,216,216)" paint-order="fill stroke markers" d=" M 172.49964078655836 154.08693789851407 L 210.20221143150636 175.47098744793178" stroke-opacity="1" stroke-linejoin="round" stroke-miterlimit="10" stroke-width="0.5" stroke-dasharray="6,8"/><path fill="rgb(216,216,216)" stroke="none" paint-order="stroke fill markers" d=" M 201.35844105762968 175.45596832208986 L 211.07204296331315 175.96433631665923 L 205.65057621555857 167.88843399537083 Z" fill-opacity="1"/><path fill="none" stroke="rgb(0,0,0)" paint-order="fill stroke markers" d=" M 93.04370893870848 223.05500356042165 L 139.49092732326326 164.05226925991178" stroke-opacity="1" stroke-linejoin="round" stroke-miterlimit="10" stroke-width="2.62"/><path fill="rgb(0,0,0)" stroke="none" paint-order="stroke fill markers" d=" M 140.76876949518868 169.46163330604966 L 142.73210458215055 159.9349436744775 L 133.9327518247157 164.0802893838513 Z" fill-opacity="1"/><path fill="none" stroke="rgb(216,216,216)" paint-order="fill stroke markers" d=" M 68.33646481289247 65.60412803885508 L 139.09619129797738 129.71679706818733" stroke-opacity="1" stroke-linejoin="round" stroke-miterlimit="10" stroke-width="0.8" stroke-dasharray="6,8"/><path fill="rgb(216,216,216)" stroke="none" paint-order="stroke fill markers" d=" M 130.91391468293136 128.1731489881927 L 140.2818815833437 130.791105472319 L 136.75546663039734 121.72595806151335 Z" fill-opacity="1"/><path fill="none" stroke="rgb(216,216,216)" paint-order="fill stroke markers" d=" M 213.25816015844345 105.27982717306696 L 174.34728658570853 131.33417671069608" stroke-opacity="1" stroke-linejoin="round" stroke-miterlimit="10" stroke-width="1.58" stroke-dasharray="6,8"/><path fill="rgb(216,216,216)" stroke="none" paint-order="stroke fill markers" d=" M 176.53036654528384 124.63729221937471 L 171.7215562948837 133.09234065067577 L 181.37088119016462 131.86635979221526 Z" fill-opacity="1"/><path fill="url(#ryLLZNMUFaEV)" stroke="none" paint-order="stroke fill markers" d=" M 175.10301015042268 144.21996052396491 L 175.04135682508524 145.78914243852182 L 174.85677696232543 147.34864982476952 L 174.5504085583762 148.88886780108302 L 174.12414047632575 150.40030041146386 L 173.58060080064843 151.8736291712667 L 172.92314063419002 153.29977051875585 L 172.15581343750452 154.66993181828389 L 171.28335003792162 155.97566556981437 L 170.3111294624233 157.2089214905686 L 169.24514577415363 158.36209614769587 L 168.09197111702636 159.42807983596555 L 166.85871519627213 160.40030041146386 L 165.55298144474165 161.27276381104676 L 164.1828201452136 162.04009100773226 L 162.75667879772448 162.69755117419066 L 161.28335003792162 163.241090849868 L 159.77191742754079 163.66735893191844 L 158.23169945122729 163.97372733586766 L 156.67219206497958 164.15830719862748 L 155.10301015042268 164.21996052396491 L 153.53382823586577 164.15830719862748 L 151.97432084961807 163.97372733586766 L 150.43410287330457 163.66735893191844 L 148.92267026292373 163.241090849868 L 147.44934150312088 162.69755117419066 L 146.02320015563174 162.04009100773226 L 144.6530388561037 161.27276381104676 L 143.34730510457322 160.40030041146386 L 142.11404918381902 159.42807983596555 L 140.96087452669173 158.36209614769587 L 139.89489083842204 157.2089214905686 L 138.92267026292373 155.97566556981437 L 138.05020686334083 154.66993181828389 L 137.28287966665533 153.29977051875585 L 136.62541950019693 151.8736291712667 L 136.0818798245196 150.40030041146386 L 135.65561174246915 148.88886780108302 L 135.34924333851993 147.34864982476952 L 135.1646634757601 145.78914243852182 L 135.10301015042268 144.21996052396491 L 135.1646634757601 142.650778609408 L 135.34924333851993 141.0912712231603 L 135.65561174246915 139.5510532468468 L 136.0818798245196 138.03962063646597 L 136.62541950019693 136.56629187666312 L 137.28287966665533 135.14015052917398 L 138.05020686334083 133.76998922964594 L 138.92267026292373 132.46425547811546 L 139.89489083842204 131.23099955736126 L 140.96087452669173 130.07782490023396 L 142.114049183819 129.0118412119643 L 143.34730510457322 128.03962063646597 L 144.6530388561037 127.16715723688307 L 146.02320015563174 126.39983004019754 L 147.4493415031209 125.74236987373916 L 148.92267026292376 125.19883019806184 L 150.4341028733046 124.77256211601137 L 151.9743208496181 124.46619371206215 L 153.53382823586583 124.28161384930235 L 155.10301015042273 124.21996052396491 L 156.67219206497964 124.28161384930236 L 158.23169945122737 124.46619371206216 L 159.77191742754087 124.7725621160114 L 161.28335003792174 125.19883019806187 L 162.7566787977246 125.74236987373922 L 164.18282014521373 126.39983004019761 L 165.55298144474176 127.16715723688314 L 166.85871519627224 128.03962063646605 L 168.09197111702645 129.0118412119644 L 169.24514577415374 130.07782490023408 L 170.3111294624234 131.23099955736137 L 171.28335003792174 132.4642554781156 L 172.1558134375046 133.7699892296461 L 172.92314063419013 135.14015052917415 L 173.58060080064848 136.5662918766633 L 174.1241404763258 138.03962063646617 L 174.55040855837626 139.551053246847 L 174.85677696232545 141.09127122316053 L 175.04135682508524 142.65077860940826 Z"/><text fill="rgb(0,0,0)" stroke="none" font-family="Helvetica Neue, Helvetica, sans-serif" font-size="16px" font-style="normal" font-weight="normal" text-decoration="normal" x="155.10301015042268" y="152.21996052396491" text-anchor="middle" dominant-baseline="text-after-edge" fill-opacity="1">Powerline</text><path fill="url(#ptEqAEvStVLE)" stroke="rgb(255,217,0)" paint-order="fill stroke markers" d=" M 105.0956237098697 248.3954138906232 L 104.9969783893298 250.90610495391422 L 104.70165060891411 253.4013167719106 L 104.21146116259536 255.86566553401215 L 103.52943223131462 258.2839577106215 L 102.65976875023088 260.6412837263061 L 101.60783248389747 262.9231098822887 L 100.38010896920065 265.11536796153354 L 98.98416752986802 267.2045419639823 L 97.42861460907069 269.17775143718904 L 95.72304070783922 271.0228308885927 L 93.87796125643558 272.7284047898242 L 91.90475178322885 274.2839577106215 L 89.81557778078006 275.67989914995417 L 87.6233197015352 276.90762266465094 L 85.34149354555257 277.9595589309844 L 82.98416752986802 278.8292224120681 L 80.56587535325868 279.5112513433488 L 78.10152659115708 280.0014407896676 L 75.60631477316073 280.29676857008326 L 73.0956237098697 280.3954138906232 L 70.58493264657866 280.29676857008326 L 68.08972082858232 280.0014407896676 L 65.62537206648072 279.5112513433488 L 63.20707988987138 278.82922241206813 L 60.84975387418683 277.9595589309844 L 58.5679277182042 276.90762266465094 L 56.37566963895934 275.67989914995417 L 54.286495636510566 274.2839577106215 L 52.31328616330383 272.7284047898242 L 50.46820671190018 271.0228308885927 L 48.762632810668705 269.17775143718904 L 47.20707988987138 267.2045419639823 L 45.81113845053875 265.11536796153354 L 44.58341493584193 262.9231098822887 L 43.53147866950852 260.6412837263061 L 42.66181518842478 258.2839577106215 L 41.97978625714405 255.86566553401218 L 41.48959681082529 253.4013167719106 L 41.1942690304096 250.90610495391422 L 41.0956237098697 248.3954138906232 L 41.1942690304096 245.88472282733215 L 41.48959681082529 243.38951100933582 L 41.97978625714404 240.92516224723423 L 42.66181518842478 238.50687007062487 L 43.531478669508516 236.14954405494032 L 44.58341493584193 233.8677178989577 L 45.81113845053875 231.67545981971284 L 47.20707988987138 229.58628581726404 L 48.762632810668705 227.6130763440573 L 50.46820671190017 225.76799689265368 L 52.31328616330381 224.0624229914222 L 54.28649563651055 222.50687007062487 L 56.375669638959344 221.11092863129224 L 58.567927718204224 219.8832051165954 L 60.84975387418686 218.831268850262 L 63.20707988987143 217.96160536917824 L 65.6253720664808 217.27957643789753 L 68.08972082858239 216.78938699157877 L 70.58493264657875 216.4940592111631 L 73.09562370986981 216.3954138906232 L 75.60631477316086 216.49405921116312 L 78.10152659115722 216.7893869915788 L 80.56587535325882 217.27957643789756 L 82.98416752986817 217.96160536917833 L 85.34149354555274 218.8312688502621 L 87.62331970153537 219.8832051165955 L 89.81557778078025 221.11092863129235 L 91.90475178322902 222.506870070625 L 93.87796125643575 224.06242299142235 L 95.7230407078394 225.76799689265385 L 97.42861460907086 227.6130763440575 L 98.98416752986819 229.58628581726427 L 100.3801089692008 231.67545981971307 L 101.60783248389761 233.86771789895795 L 102.659768750231 236.1495440549406 L 103.52943223131471 238.50687007062518 L 104.21146116259543 240.92516224723457 L 104.70165060891416 243.38951100933616 L 104.99697838932983 245.88472282733252 Z" stroke-opacity="1" stroke-miterlimit="10" stroke-width="0.5"/><text fill="rgb(0,0,0)" stroke="none" font-family="Helvetica Neue, Helvetica, sans-serif" font-size="16px" font-style="normal" font-weight="normal" text-decoration="normal" x="73.0956237098697" y="256.3954138906232" text-anchor="middle" dominant-baseline="text-after-edge" fill-opacity="1">Import</text><path fill="url(#OlfOquRSwLdV)" stroke="rgb(255,119,0)" paint-order="fill stroke markers" d=" M 78.25 39.25 L 78.129776015592 42.309904733385956 L 77.76984528321037 45.350944136569005 L 77.17242689550939 48.35436919038031 L 76.34120413551099 51.30166278062295 L 75.28130176794019 54.1746538622385 L 73.99925444334635 56.95562948984232 L 72.5029664098096 59.627444023922 L 70.80166278062295 62.17362483940646 L 68.90583265840121 64.57847388487716 L 66.82716446627535 66.82716446627535 L 64.57847388487716 68.90583265840121 L 62.17362483940646 70.80166278062295 L 59.62744402392201 72.5029664098096 L 56.95562948984232 73.99925444334635 L 54.1746538622385 75.28130176794019 L 51.30166278062295 76.34120413551099 L 48.35436919038031 77.17242689550939 L 45.350944136569005 77.76984528321037 L 42.309904733385956 78.129776015592 L 39.25 78.25 L 36.19009526661405 78.129776015592 L 33.149055863431 77.76984528321037 L 30.145630809619693 77.17242689550939 L 27.198337219377052 76.34120413551099 L 24.3253461377615 75.28130176794019 L 21.54437051015768 73.99925444334635 L 18.872555976077997 72.5029664098096 L 16.326375160593553 70.80166278062295 L 13.921526115122841 68.90583265840121 L 11.672835533724648 66.82716446627535 L 9.594167341598794 64.57847388487717 L 7.698337219377052 62.17362483940646 L 5.997033590190405 59.62744402392201 L 4.500745556653655 56.95562948984232 L 3.2186982320598148 54.17465386223851 L 2.158795864489015 51.301662780622955 L 1.327573104490611 48.35436919038032 L 0.7301547167896345 45.350944136569005 L 0.37022398440800686 42.309904733385956 L 0.25 39.25000000000001 L 0.37022398440800686 36.19009526661405 L 0.7301547167896274 33.149055863431 L 1.327573104490611 30.145630809619696 L 2.158795864489008 27.198337219377056 L 3.2186982320598148 24.325346137761503 L 4.500745556653655 21.54437051015768 L 5.997033590190398 18.872555976078 L 7.698337219377045 16.326375160593553 L 9.59416734159879 13.921526115122841 L 11.67283553372464 11.672835533724648 L 13.92152611512282 9.594167341598805 L 16.326375160593543 7.698337219377052 L 18.872555976078004 5.997033590190398 L 21.5443705101577 4.500745556653641 L 24.325346137761542 3.2186982320598005 L 27.19833721937711 2.1587958644889937 L 30.145630809619767 1.3275731044905896 L 33.149055863431094 0.7301547167896132 L 36.19009526661416 0.37022398440799975 L 39.25000000000013 0.25 L 42.3099047333861 0.37022398440802107 L 45.35094413656917 0.7301547167896558 L 48.35436919038049 1.3275731044906536 L 51.30166278062314 2.158795864489072 L 54.1746538622387 3.2186982320599 L 56.955629489842536 4.5007455566537615 L 59.62744402392222 5.997033590190533 L 62.17362483940667 7.698337219377208 L 64.57847388487738 9.594167341598979 L 66.82716446627558 11.67283553372486 L 68.90583265840141 13.92152611512308 L 70.80166278062315 16.32637516059382 L 72.50296640980977 18.872555976078296 L 73.99925444334652 21.544370510158007 L 75.28130176794033 24.32534613776186 L 76.3412041355111 27.198337219377436 L 77.17242689550949 30.1456308096201 L 77.76984528321044 33.14905586343143 L 78.12977601559203 36.190095266614506 Z" stroke-opacity="1" stroke-miterlimit="10" stroke-width="0.5"/><text fill="rgb(0,0,0)" stroke="none" font-family="Helvetica Neue, Helvetica, sans-serif" font-size="16px" font-style="normal" font-weight="normal" text-decoration="normal" x="39.25" y="47.25" text-anchor="middle" dominant-baseline="text-after-edge" fill-opacity="1">Solar</text><path fill="url(#zvTCTkyURhJo)" stroke="rgb(51,102,102)" paint-order="fill stroke markers" d=" M 237.26794697914886 97.90777900701289 L 237.22787231767953 98.92774725147487 L 237.10789540688566 99.94142705253589 L 236.90875594431864 100.94256873713967 L 236.63168169098586 101.92499993388721 L 236.2783809017956 102.88266362775906 L 235.85103179359766 103.809655503627 L 235.35226911575205 104.70026034832023 L 234.78516790602316 105.54898728681505 L 234.15322453194926 106.35060363530528 L 233.46033513457397 107.10016716243801 L 232.71077160744125 107.7930565598133 L 231.90915525895102 108.42499993388721 L 231.0604283204562 108.99210114361608 L 230.16982347576297 109.49086382146167 L 229.24283159989503 109.91821292965962 L 228.2851679060232 110.27151371884989 L 227.30273670927562 110.54858797218269 L 226.30159502467185 110.74772743474968 L 225.28791522361084 110.86770434554356 L 224.26794697914886 110.90777900701289 L 223.24797873468688 110.86770434554356 L 222.23429893362587 110.74772743474968 L 221.2331572490221 110.54858797218269 L 220.25072605227456 110.27151371884989 L 219.2930623584027 109.91821292965962 L 218.36607048253475 109.49086382146167 L 217.47546563784152 108.9921011436161 L 216.6267386993467 108.42499993388721 L 215.82512235085647 107.7930565598133 L 215.07555882372375 107.10016716243801 L 214.38266942634846 106.35060363530528 L 213.75072605227456 105.54898728681505 L 213.18362484254567 104.70026034832023 L 212.68486216470006 103.809655503627 L 212.25751305650212 102.88266362775906 L 211.90421226731186 101.92499993388721 L 211.62713801397908 100.94256873713967 L 211.42799855141206 99.9414270525359 L 211.3080216406182 98.92774725147488 L 211.26794697914886 97.90777900701289 L 211.3080216406182 96.88781076255091 L 211.42799855141206 95.8741309614899 L 211.62713801397905 94.87298927688612 L 211.90421226731186 93.89055808013858 L 212.25751305650212 92.93289438626672 L 212.68486216470006 92.00590251039878 L 213.18362484254567 91.11529766570555 L 213.75072605227453 90.26657072721075 L 214.38266942634846 89.4649543787205 L 215.07555882372375 88.71539085158777 L 215.82512235085647 88.02250145421249 L 216.6267386993467 87.39055808013858 L 217.47546563784152 86.82345687040969 L 218.36607048253475 86.32469419256411 L 219.29306235840272 85.89734508436615 L 220.25072605227456 85.5440442951759 L 221.23315724902213 85.2669700418431 L 222.2342989336259 85.06783057927609 L 223.2479787346869 84.94785366848222 L 224.26794697914892 84.90777900701289 L 225.2879152236109 84.94785366848222 L 226.3015950246719 85.0678305792761 L 227.30273670927568 85.26697004184311 L 228.28516790602325 85.54404429517592 L 229.24283159989508 85.8973450843662 L 230.16982347576302 86.32469419256415 L 231.06042832045625 86.82345687040973 L 231.90915525895107 87.39055808013863 L 232.71077160744133 88.02250145421255 L 233.46033513457405 88.71539085158784 L 234.15322453194932 89.46495437872059 L 234.78516790602325 90.26657072721083 L 235.3522691157521 91.11529766570565 L 235.8510317935977 92.0059025103989 L 236.27838090179563 92.93289438626684 L 236.63168169098589 93.8905580801387 L 236.9087559443187 94.87298927688626 L 237.1078954068857 95.87413096149004 L 237.22787231767953 96.88781076255106 Z" stroke-opacity="1" stroke-miterlimit="10" stroke-width="0.5"/><text fill="rgb(0,0,0)" stroke="none" font-family="Helvetica Neue, Helvetica, sans-serif" font-size="16px" font-style="normal" font-weight="normal" text-decoration="normal" x="224.26794697914886" y="105.90777900701289" text-anchor="middle" dominant-baseline="text-after-edge" fill-opacity="1">Gas Powerplant</text><path fill="url(#ZhWoPOaxTRKD)" stroke="rgb(255,227,77)" paint-order="fill stroke markers" d=" M 313.40088276105234 268.2030383084709 L 313.2621627790431 271.73369761622394 L 312.84685808783354 275.2425892352813 L 312.1575291789478 278.70807968198665 L 311.19842599433423 282.10880305534357 L 309.97546172406027 285.4237927649 L 308.4961763495289 288.63261079675055 L 306.7696901569865 291.71547372068864 L 304.806647507925 294.6533746616322 L 302.6191512130537 297.4282004833292 L 300.220687914447 300.02284346186553 L 297.6260449359106 302.4213067604723 L 294.8512191142136 304.60880305534357 L 291.91331817327006 306.57184570440506 L 288.830455249332 308.2983318969475 L 285.6216372174814 309.77761727147885 L 282.306647507925 311.0005815417528 L 278.90592413456807 311.9596847263664 L 275.4404336878627 312.6490136352521 L 271.93154206880536 313.06431832646166 L 268.40088276105234 313.2030383084709 L 264.87022345329933 313.06431832646166 L 261.361331834242 312.6490136352521 L 257.8958413875366 311.9596847263664 L 254.49511801417972 311.0005815417528 L 251.1801283046233 309.77761727147885 L 247.97131027277274 308.2983318969475 L 244.88844734883466 306.57184570440506 L 241.95054640789107 304.60880305534357 L 239.17572058619407 302.4213067604723 L 236.5810776076577 300.0228434618656 L 234.18261430905096 297.4282004833292 L 231.99511801417972 294.6533746616322 L 230.0320753651182 291.71547372068864 L 228.3055891725758 288.63261079675055 L 226.82630379804445 285.4237927649 L 225.60333952777043 282.10880305534357 L 224.6442363431569 278.70807968198665 L 223.95490743427115 275.24258923528134 L 223.53960274306158 271.73369761622394 L 223.40088276105234 268.2030383084709 L 223.53960274306158 264.6723790007179 L 223.95490743427115 261.16348738166056 L 224.64423634315688 257.6979969349552 L 225.60333952777043 254.2972735615983 L 226.82630379804442 250.9822838520419 L 228.3055891725758 247.77346582019132 L 230.0320753651182 244.69060289625324 L 231.9951180141797 241.75270195530965 L 234.18261430905096 238.97787613361265 L 236.5810776076577 236.38323315507628 L 239.17572058619407 233.98476985646954 L 241.95054640789104 231.7972735615983 L 244.88844734883466 229.83423091253678 L 247.97131027277277 228.10774471999434 L 251.18012830462334 226.628459345463 L 254.49511801417978 225.40549507518898 L 257.8958413875367 224.44639189057546 L 261.36133183424204 223.7570629816897 L 264.87022345329945 223.34175829048016 L 268.4008827610525 223.20303830847092 L 271.9315420688055 223.3417582904802 L 275.44043368786294 223.75706298168976 L 278.9059241345683 224.4463918905755 L 282.3066475079252 225.4054950751891 L 285.62163721748163 226.6284593454631 L 288.8304552493322 228.10774471999449 L 291.9133181732703 229.83423091253692 L 294.8512191142139 231.79727356159847 L 297.62604493591084 233.98476985646974 L 300.22068791444724 236.38323315507654 L 302.61915121305395 238.97787613361294 L 304.8066475079252 241.75270195530993 L 306.7696901569867 244.69060289625358 L 308.4961763495291 247.7734658201917 L 309.97546172406044 250.9822838520423 L 311.1984259943344 254.29727356159873 L 312.1575291789479 257.69799693495565 L 312.84685808783365 261.163487381661 L 313.26216277904314 264.6723790007184 Z" stroke-opacity="1" stroke-miterlimit="10" stroke-width="0.5"/><text fill="rgb(0,0,0)" stroke="none" font-family="Helvetica Neue, Helvetica, sans-serif" font-size="16px" font-style="normal" font-weight="normal" text-decoration="normal" x="268.40088276105234" y="276.2030383084709" text-anchor="middle" dominant-baseline="text-after-edge" fill-opacity="1">Demand</text><path fill="url(#LSlEpQIdmsTF)" stroke="rgb(255,227,77)" paint-order="fill stroke markers" d=" M 212.22441661216826 176.3343479682048 L 212.2228752790348 176.37357751606874 L 212.21826078246582 176.4125652007249 L 212.2106015723671 176.45107065013275 L 212.19994487031582 176.48885646539227 L 212.1863563784239 176.52568968438734 L 212.16991987426243 176.56134321807457 L 212.1507366943453 176.59559725056278 L 212.12892510935572 176.62824059435104 L 212.10461959496828 176.6590719923699 L 212.07797000276153 176.6879013587981 L 212.04914063633333 176.71455095100484 L 212.0183092383145 176.73885646539227 L 211.98566589452622 176.76066805038187 L 211.95141186203804 176.779851230299 L 211.9157583283508 176.79628773446046 L 211.87892510935572 176.80987622635237 L 211.8411392940962 176.82053292840365 L 211.80263384468836 176.82819213850237 L 211.76364616003218 176.83280663507136 L 211.72441661216826 176.8343479682048 L 211.68518706430433 176.83280663507136 L 211.64619937964815 176.82819213850237 L 211.60769393024032 176.82053292840365 L 211.5699081149808 176.8098762263524 L 211.53307489598572 176.79628773446046 L 211.4974213622985 176.779851230299 L 211.4631673298103 176.76066805038187 L 211.43052398602202 176.73885646539227 L 211.39969258800318 176.71455095100484 L 211.37086322157498 176.6879013587981 L 211.34421362936823 176.6590719923699 L 211.3199081149808 176.62824059435104 L 211.2980965299912 176.59559725056278 L 211.27891335007408 176.5613432180746 L 211.2624768459126 176.52568968438734 L 211.2488883540207 176.48885646539227 L 211.23823165196941 176.45107065013275 L 211.2305724418707 176.4125652007249 L 211.2259579453017 176.37357751606874 L 211.22441661216826 176.3343479682048 L 211.2259579453017 176.29511842034088 L 211.2305724418707 176.2561307356847 L 211.23823165196941 176.21762528627687 L 211.24888835402066 176.17983947101735 L 211.2624768459126 176.14300625202227 L 211.27891335007408 176.10735271833505 L 211.2980965299912 176.07309868584684 L 211.3199081149808 176.04045534205858 L 211.34421362936823 176.00962394403973 L 211.37086322157498 175.98079457761153 L 211.39969258800318 175.95414498540478 L 211.43052398602202 175.92983947101735 L 211.4631673298103 175.90802788602775 L 211.4974213622985 175.88884470611063 L 211.53307489598572 175.87240820194916 L 211.5699081149808 175.85881971005722 L 211.60769393024032 175.84816300800597 L 211.64619937964815 175.84050379790725 L 211.68518706430433 175.83588930133826 L 211.72441661216826 175.8343479682048 L 211.76364616003218 175.83588930133826 L 211.8026338446884 175.84050379790725 L 211.84113929409622 175.84816300800597 L 211.87892510935572 175.85881971005725 L 211.9157583283508 175.87240820194916 L 211.95141186203804 175.88884470611063 L 211.98566589452622 175.90802788602775 L 212.0183092383145 175.92983947101735 L 212.04914063633336 175.9541449854048 L 212.07797000276153 175.98079457761153 L 212.10461959496828 176.00962394403973 L 212.12892510935572 176.04045534205858 L 212.1507366943453 176.07309868584684 L 212.16991987426243 176.10735271833505 L 212.1863563784239 176.14300625202227 L 212.19994487031585 176.17983947101735 L 212.2106015723671 176.21762528627687 L 212.21826078246582 176.2561307356847 L 212.2228752790348 176.29511842034088 Z" stroke-opacity="1" stroke-miterlimit="10" stroke-width="0.5"/><text fill="rgb(0,0,0)" stroke="none" font-family="Helvetica Neue, Helvetica, sans-serif" font-size="16px" font-style="normal" font-weight="normal" text-decoration="normal" x="211.72441661216826" y="184.3343479682048" text-anchor="middle" dominant-baseline="text-after-edge" fill-opacity="1">Excess</text><g transform="scale(0.36766088380940665,0.36766088380940665) translate(-475.4508393832192,-32.71989772107054)"/></g></svg>