<svg version="1.1" xmlns="http://www.w3.org/2000/svg" xmlns:xlink="http://www.w3.org/1999/xlink" width="1183" height="596"><defs><radialGradient id="AHzTDIwcbfNu" cx="136.06451219382942px" cy="158.7125358773929px" r="40px" fx="136.06451219382942px" fy="158.7125358773929px" gradientUnits="userSpaceOnUse"><stop offset="0" stop-color="rgb(255,204,0)" stop-opacity="1"/><stop offset="0.2" stop-color="rgb(251,216,79)" stop-opacity="1"/><stop offset="0.4" stop-color="rgb(247,228,158)" stop-opacity="1"/><stop offset="0.6" stop-color="rgb(243,240,236)" stop-opacity="1"/><stop offset="0.8" stop-color="rgb(255,255,255)" stop-opacity="1"/><stop offset="1" stop-color="rgb(255,255,255)" stop-opacity="1"/></radialGradient><radialGradient id="LQgRNPbqGTFD" cx="20.958125626067px" cy="239.5533892823055px" r="64px" fx="20.958125626067px" fy="239.5533892823055px" gradientUnits="userSpaceOnUse"><stop offset="0" stop-color="rgb(255,217,0)" stop-opacity="1"/><stop offset="0.40625" stop-color="rgb(255,255,255)" stop-opacity="1"/></radialGradient><radialGradient id="aEkVwErExQZh" cx="435.26967351387816px" cy="64.97038051840296px" r="78px" fx="435.26967351387816px" fy="64.97038051840296px" gradientUnits="userSpaceOnUse"><stop offset="0" stop-color="rgb(255,119,0)" stop-opacity="1"/><stop offset="0.10256410256410257" stop-color="rgb(255,255,255)" stop-opacity="1"/></radialGradient><radialGradient id="RaDQrZkIvlAq" cx="203.83915533128715px" cy="222.5869772681597px" r="26px" fx="203.83915533128715px" fy="222.5869772681597px" gradientUnits="userSpaceOnUse"><stop offset="0" stop-color="rgb(51,102,102)" stop-opacity="1"/><stop offset="0.6153846153846154" stop-color="rgb(255,255,255)" stop-opacity="1"/></radialGradient><radialGradient id="dJDgCMumTinc" cx="228.01640060880155px" cy="64.41409103111519px" r="90px" fx="228.01640060880155px" fy="64.41409103111519px" gradientUnits="userSpaceOnUse"><stop offset="0" stop-color="rgb(255,227,77)" stop-opacity="1"/><stop offset="0.5555555555555557" stop-color="rgb(255,255,255)" stop-opacity="1"/></radialGradient><radialGradient id="JFZkyGEPWkON" cx="5.6588420635032195px" cy="-1.0585384798868425px" r="1px" fx="5.6588420635032195px" fy="-1.0585384798868425px" gradientUnits="userSpaceOnUse"><stop offset="0" stop-color="rgb(255,227,77)" stop-opacity="1"/><stop offset="0" stop-color="rgb(255,255,255)" stop-opacity="1"/></radialGradient></defs><g transform="translate(345.4262260153369,133.5204398168053) scale(1.5940666185192898,1.5940666185192898)"><path fill="none" stroke="rgb(216,216,216)" paint-order="fill stroke markers" d=" M 150.02736378498338 144.3933607809214 L 186.65145277000792 106.83464725441195" stroke-opacity="1" stroke-linejoin="round" stroke-miterlimit="10" stroke-width="7" stroke-dasharray="6,8"/><path fill="rgb(216,216,216)" stroke="none" paint-order="stroke fill markers" d=" M 190.35927173987528 115.80405187518487 L 196.4254488838157 96.81122468688191 L 177.59148084680908 103.35397928471134 Z" fill-opacity="1"/><path fill="none" stroke="rgb(216,216,216)" paint-order="fill stroke markers" d=" M 123.41812869979589 143.2183761866631 L 6.765400619231144 0.29720049305203133" stroke-opacity="1" stroke-linejoin="round" stroke-miterlimit="10" stroke-width="0.5" stroke-dasharray="6,8"/><path fill="rgb(216,216,216)" stroke="none" paint-order="stroke fill markers" d=" M 15.004237997167786 3.511863564030707 L 6.133081444529466 -0.4775074914844595 L 8.264278531700324 9.013040383935296 Z" fill-opacity="1"/><path fill="none" stroke="rgb(0,0,0)" paint-order="fill stroke markers" d=" M 47.349629820063384 221.0182603003353 L 113.69106336704301 174.42572739265074" stroke-opacity="1" stroke-linejoin="round" stroke-miterlimit="10" stroke-width="3.67"/><path fill="rgb(0,0,0)" stroke="none" paint-order="stroke fill markers" d=" M 114.40211499933105 180.01995435655533 L 119.69768788747507 170.20718950962248 L 108.67013227704237 171.85839010726698 Z" fill-opacity="1"/><path fill="none" stroke="rgb(216,216,216)" paint-order="fill stroke markers" d=" M 397.81491703398547 76.70510322632964 L 157.28728376358265 152.063357965946" stroke-opacity="1" stroke-linejoin="round" stroke-miterlimit="10" stroke-width="1.12" stroke-dasharray="6,8"/><path fill="rgb(216,216,216)" stroke="none" paint-order="stroke fill markers" d=" M 162.1512756892037 145.98095033841125 L 155.14973842562188 152.73305933832197 L 164.75234798369954 154.28302374924098 Z" fill-opacity="1"/><path fill="none" stroke="rgb(216,216,216)" paint-order="fill stroke markers" d=" M 194.19665263442855 213.49936802584108 L 153.83582659815298 175.4611711753114" stroke-opacity="1" stroke-linejoin="round" stroke-miterlimit="10" stroke-width="2.21" stroke-dasharray="6,8"/><path fill="rgb(216,216,216)" stroke="none" paint-order="stroke fill markers" d=" M 159.9340161639372 175.23098859612563 L 150.61923324569148 172.42968190353417 L 153.96705764256575 181.56229225368563 Z" fill-opacity="1"/><path fill="url(#AHzTDIwcbfNu)" stroke="none" paint-order="stroke fill markers" d=" M 156.06451219382942 158.7125358773929 L 156.00285886849198 160.2817177919498 L 155.81827900573217 161.8412251781975 L 155.51191060178294 163.381443154511 L 155.0856425197325 164.89287576489184 L 154.54210284405514 166.3662045246947 L 153.8846426775968 167.79234587218383 L 153.11731548091126 169.16250717171187 L 152.24485208132836 170.46824092324235 L 151.27263150583002 171.70149684399658 L 150.20664781756037 172.85467150112385 L 149.0534731604331 173.92065518939353 L 147.82021723967887 174.89287576489184 L 146.5144834881484 175.76533916447474 L 145.14432218862035 176.53266636116024 L 143.71818084113121 177.19012652761865 L 142.24485208132836 177.73366620329597 L 140.73341947094752 178.15993428534642 L 139.19320149463402 178.46630268929565 L 137.63369410838632 178.65088255205546 L 136.06451219382942 178.7125358773929 L 134.4953302792725 178.65088255205546 L 132.9358228930248 178.46630268929565 L 131.3956049167113 178.15993428534642 L 129.88417230633047 177.73366620329597 L 128.41084354652762 177.19012652761865 L 126.98470219903848 176.53266636116024 L 125.61454089951044 175.76533916447474 L 124.30880714797996 174.89287576489184 L 123.07555122722574 173.92065518939353 L 121.92237657009846 172.85467150112385 L 120.8563928818288 171.70149684399658 L 119.88417230633047 170.46824092324235 L 119.01170890674757 169.16250717171187 L 118.24438171006206 167.79234587218383 L 117.58692154360368 166.3662045246947 L 117.04338186792634 164.89287576489184 L 116.61711378587589 163.381443154511 L 116.31074538192667 161.8412251781975 L 116.12616551916686 160.2817177919498 L 116.06451219382942 158.7125358773929 L 116.12616551916686 157.143353962836 L 116.31074538192667 155.5838465765883 L 116.61711378587589 154.0436286002748 L 117.04338186792634 152.53219598989395 L 117.58692154360368 151.0588672300911 L 118.24438171006206 149.63272588260196 L 119.01170890674757 148.26256458307392 L 119.88417230633047 146.95683083154344 L 120.8563928818288 145.72357491078924 L 121.92237657009846 144.57040025366194 L 123.07555122722573 143.5044165653923 L 124.30880714797995 142.53219598989395 L 125.61454089951044 141.65973259031105 L 126.9847021990385 140.89240539362552 L 128.41084354652764 140.23494522716715 L 129.8841723063305 139.69140555148982 L 131.39560491671133 139.26513746943937 L 132.93582289302483 138.95876906549015 L 134.49533027927257 138.77418920273033 L 136.06451219382947 138.7125358773929 L 137.63369410838638 138.77418920273033 L 139.1932014946341 138.95876906549015 L 140.7334194709476 139.2651374694394 L 142.24485208132847 139.69140555148985 L 143.7181808411313 140.2349452271672 L 145.14432218862046 140.8924053936256 L 146.5144834881485 141.6597325903111 L 147.82021723967898 142.53219598989403 L 149.0534731604332 143.50441656539238 L 150.20664781756048 144.57040025366206 L 151.27263150583013 145.72357491078935 L 152.24485208132847 146.95683083154358 L 153.11731548091134 148.26256458307407 L 153.88464267759684 149.63272588260213 L 154.54210284405522 151.0588672300913 L 155.08564251973254 152.53219598989415 L 155.511910601783 154.04362860027499 L 155.81827900573222 155.5838465765885 L 156.00285886849198 157.14335396283624 Z"/><text fill="rgb(0,0,0)" stroke="none" font-family="Helvetica Neue, Helvetica, sans-serif" font-size="16px" font-style="normal" font-weight="normal" text-decoration="normal" x="136.06451219382942" y="166.7125358773929" text-anchor="middle" dominant-baseline="text-after-edge" fill-opacity="1">Powerline</text><path fill="url(#LQgRNPbqGTFD)" stroke="rgb(255,217,0)" paint-order="fill stroke markers" d=" M 52.958125626067 239.5533892823055 L 52.8594803055271 242.06408034559652 L 52.56415252511141 244.5592921635929 L 52.07396307879265 247.02364092569445 L 51.39193414751192 249.4419331023038 L 50.52227066642818 251.79925911798836 L 49.47033440009477 254.08108527397098 L 48.24261088539795 256.27334335321586 L 46.84666944606532 258.36251735566464 L 45.291116525267995 260.3357268288714 L 43.58554262403652 262.180806280275 L 41.74046317263288 263.88638018150647 L 39.76725369942614 265.4419331023038 L 37.67807969697736 266.83787454163644 L 35.4858216177325 268.0655980563333 L 33.20399546174988 269.11753432266664 L 30.84666944606532 269.9871978037504 L 28.42837726945598 270.66922673503115 L 25.964028507354392 271.1594161813499 L 23.468816689358043 271.4547439617656 L 20.958125626067005 271.5533892823055 L 18.447434562775967 271.4547439617656 L 15.952222744779615 271.1594161813499 L 13.487873982678032 270.66922673503115 L 11.069581806068687 269.9871978037504 L 8.71225579038413 269.11753432266664 L 6.4304296344015075 268.0655980563333 L 4.23817155515664 266.83787454163644 L 2.148997552707865 265.4419331023038 L 0.17578807950112818 263.88638018150647 L -1.669291371902517 262.180806280275 L -3.374865273133988 260.3357268288714 L -4.930418193931313 258.36251735566464 L -6.326359633263948 256.27334335321586 L -7.5540831479607675 254.08108527397098 L -8.606019414294174 251.79925911798836 L -9.475682895377911 249.4419331023038 L -10.157711826658648 247.02364092569445 L -10.647901272977403 244.5592921635929 L -10.943229053393093 242.06408034559652 L -11.041874373932998 239.5533892823055 L -10.943229053393093 237.04269821901445 L -10.647901272977407 234.5474864010181 L -10.157711826658652 232.08313763891653 L -9.475682895377915 229.66484546230717 L -8.606019414294177 227.30751944662262 L -7.554083147960771 225.02569329064 L -6.326359633263952 222.83343521139514 L -4.93041819393132 220.74426120894634 L -3.3748652731339916 218.7710517357396 L -1.6692913719025242 216.92597228433596 L 0.17578807950111042 215.2203983831045 L 2.1489975527078577 213.66484546230717 L 4.238171555156647 212.26890402297454 L 6.430429634401525 211.0411805082777 L 8.712255790384164 209.9892442419443 L 11.069581806068733 209.11958076086057 L 13.487873982678092 208.43755182957983 L 15.952222744779693 207.94736238326107 L 18.447434562776056 207.6520346028454 L 20.95812562606711 207.5533892823055 L 23.46881668935816 207.6520346028454 L 25.964028507354524 207.9473623832611 L 28.42837726945612 208.43755182957986 L 30.846669446065476 209.11958076086063 L 33.20399546175004 209.9892442419444 L 35.48582161773267 211.04118050827782 L 37.67807969697754 212.26890402297465 L 39.76725369942632 213.6648454623073 L 41.740463172633056 215.22039838310465 L 43.5855426240367 216.92597228433615 L 45.291116525268166 218.7710517357398 L 46.846669446065484 220.74426120894657 L 48.24261088539811 222.83343521139537 L 49.47033440009491 225.02569329064028 L 50.5222706664283 227.3075194466229 L 51.39193414751202 229.66484546230748 L 52.07396307879273 232.08313763891687 L 52.56415252511147 234.54748640101846 L 52.85948030552713 237.04269821901482 Z" stroke-opacity="1" stroke-miterlimit="10" stroke-width="0.5"/><text fill="rgb(0,0,0)" stroke="none" font-family="Helvetica Neue, Helvetica, sans-serif" font-size="16px" font-style="normal" font-weight="normal" text-decoration="normal" x="20.958125626067" y="247.5533892823055" text-anchor="middle" dominant-baseline="text-after-edge" fill-opacity="1">Import</text><path fill="url(#aEkVwErExQZh)" stroke="rgb(255,119,0)" paint-order="fill stroke markers" d=" M 474.26967351387816 64.97038051840296 L 474.14944952947013 68.03028525178891 L 473.78951879708853 71.07132465497196 L 473.19210040938754 74.07474970878327 L 472.3608776493891 77.02204329902591 L 471.30097528181835 79.89503438064146 L 470.0189279572245 82.67601000824529 L 468.52263992368773 85.34782454232496 L 466.8213362945011 87.89400535780942 L 464.92550617227937 90.29885440328013 L 462.8468379801535 92.54754498467831 L 460.5981473987553 94.62621317680417 L 458.1932983532846 96.52204329902591 L 455.64711753780017 98.22334692821255 L 452.9753030037205 99.7196349617493 L 450.1943273761167 101.00168228634314 L 447.3213362945011 102.06158465391394 L 444.3740427042585 102.89280741391235 L 441.3706176504472 103.49022580161333 L 438.3295782472641 103.85015653399495 L 435.26967351387816 103.97038051840296 L 432.2097687804922 103.85015653399495 L 429.16872937730915 103.49022580161333 L 426.1653043234979 102.89280741391235 L 423.2180107332552 102.06158465391395 L 420.3450196516397 101.00168228634314 L 417.56404402403587 99.7196349617493 L 414.89222948995615 98.22334692821256 L 412.3460486744717 96.52204329902591 L 409.941199629001 94.62621317680417 L 407.6925090476028 92.54754498467832 L 405.61384085547695 90.29885440328013 L 403.7180107332552 87.89400535780942 L 402.0167071040686 85.34782454232497 L 400.52041907053183 82.67601000824529 L 399.23837174593797 79.89503438064146 L 398.1784693783672 77.02204329902591 L 397.3472466183688 74.07474970878327 L 396.7498282306678 71.07132465497197 L 396.3898974982862 68.03028525178892 L 396.26967351387816 64.97038051840296 L 396.3898974982862 61.91047578501701 L 396.7498282306678 58.869436381833964 L 397.3472466183688 55.86601132802266 L 398.17846937836714 52.918717737780014 L 399.23837174593797 50.04572665616446 L 400.52041907053183 47.26475102856064 L 402.0167071040686 44.592936494480966 L 403.7180107332552 42.04675567899652 L 405.61384085547695 39.64190663352581 L 407.6925090476028 37.39321605212761 L 409.941199629001 35.31454786000177 L 412.3460486744717 33.418717737780014 L 414.89222948995615 31.71741410859336 L 417.56404402403587 30.221126075056603 L 420.3450196516397 28.939078750462762 L 423.21801073325526 27.879176382891956 L 426.16530432349794 27.04795362289355 L 429.16872937730926 26.450535235192575 L 432.2097687804923 26.09060450281096 L 435.2696735138783 25.970380518402962 L 438.32957824726424 26.090604502810983 L 441.37061765044734 26.450535235192618 L 444.37404270425867 27.047953622893615 L 447.3213362945013 27.879176382892034 L 450.19432737611686 28.939078750462862 L 452.9753030037207 30.221126075056723 L 455.6471175378004 31.717414108593495 L 458.19329835328483 33.41871773778017 L 460.59814739875554 35.31454786000194 L 462.84683798015374 37.393216052127826 L 464.9255061722796 39.64190663352604 L 466.8213362945013 42.04675567899678 L 468.52263992368796 44.59293649448126 L 470.01892795722466 47.264751028560966 L 471.3009752818185 50.04572665616482 L 472.3608776493893 52.9187177377804 L 473.19210040938765 55.86601132802306 L 473.7895187970886 58.86943638183439 L 474.1494495294702 61.91047578501747 Z" stroke-opacity="1" stroke-miterlimit="10" stroke-width="0.5"/><text fill="rgb(0,0,0)" stroke="none" font-family="Helvetica Neue, Helvetica, sans-serif" font-size="16px" font-style="normal" font-weight="normal" text-decoration="normal" x="435.26967351387816" y="72.97038051840296" text-anchor="middle" dominant-baseline="text-after-edge" fill-opacity="1">Solar</text><path fill="url(#RaDQrZkIvlAq)" stroke="rgb(51,102,102)" paint-order="fill stroke markers" d=" M 216.83915533128715 222.5869772681597 L 216.7990806698178 223.60694551262168 L 216.67910375902395 224.6206253136827 L 216.47996429645693 225.62176699828646 L 216.20289004312414 226.60419819503403 L 215.84958925393389 227.56186188890587 L 215.42224014573594 228.4888537647738 L 214.92347746789034 229.37945860946704 L 214.35637625816145 230.22818554796186 L 213.72443288408755 231.02980189645208 L 213.03154348671225 231.7793654235848 L 212.28197995957953 232.4722548209601 L 211.4803636110893 233.10419819503403 L 210.63163667259448 233.6712994047629 L 209.74103182790125 234.17006208260847 L 208.8140399520333 234.59741119080644 L 207.85637625816148 234.9507119799967 L 206.8739450614139 235.22778623332948 L 205.87280337681014 235.4269256958965 L 204.85912357574912 235.54690260669037 L 203.83915533128715 235.5869772681597 L 202.81918708682517 235.54690260669037 L 201.80550728576415 235.4269256958965 L 200.80436560116038 235.22778623332948 L 199.82193440441284 234.9507119799967 L 198.86427071054098 234.59741119080644 L 197.93727883467304 234.1700620826085 L 197.0466739899798 233.6712994047629 L 196.197947051485 233.10419819503403 L 195.39633070299476 232.4722548209601 L 194.64676717586204 231.7793654235848 L 193.95387777848674 231.02980189645208 L 193.32193440441284 230.22818554796186 L 192.75483319468395 229.37945860946704 L 192.25607051683835 228.4888537647738 L 191.8287214086404 227.56186188890587 L 191.47542061945015 226.60419819503403 L 191.19834636611736 225.62176699828646 L 190.99920690355034 224.6206253136827 L 190.87922999275648 223.60694551262168 L 190.83915533128715 222.5869772681597 L 190.87922999275648 221.56700902369772 L 190.99920690355034 220.5533292226367 L 191.19834636611733 219.55218753803294 L 191.47542061945015 218.5697563412854 L 191.8287214086404 217.61209264741353 L 192.25607051683835 216.6851007715456 L 192.75483319468395 215.79449592685236 L 193.32193440441281 214.94576898835754 L 193.95387777848674 214.14415263986731 L 194.64676717586204 213.3945891127346 L 195.39633070299476 212.7016997153593 L 196.197947051485 212.06975634128537 L 197.0466739899798 211.5026551315565 L 197.93727883467304 211.0038924537109 L 198.864270710541 210.57654334551296 L 199.82193440441284 210.2232425563227 L 200.8043656011604 209.9461683029899 L 201.80550728576418 209.7470288404229 L 202.8191870868252 209.62705192962903 L 203.8391553312872 209.5869772681597 L 204.85912357574918 209.62705192962903 L 205.8728033768102 209.74702884042293 L 206.87394506141396 209.94616830298992 L 207.85637625816153 210.22324255632273 L 208.81403995203337 210.576543345513 L 209.7410318279013 211.00389245371096 L 210.63163667259454 211.50265513155654 L 211.48036361108936 212.06975634128543 L 212.28197995957962 212.70169971535935 L 213.03154348671234 213.39458911273465 L 213.7244328840876 214.1441526398674 L 214.35637625816153 214.94576898835763 L 214.9234774678904 215.79449592685248 L 215.422240145736 216.6851007715457 L 215.8495892539339 217.61209264741365 L 216.20289004312417 218.5697563412855 L 216.47996429645698 219.55218753803308 L 216.67910375902397 220.55332922263685 L 216.7990806698178 221.56700902369786 Z" stroke-opacity="1" stroke-miterlimit="10" stroke-width="0.5"/><text fill="rgb(0,0,0)" stroke="none" font-family="Helvetica Neue, Helvetica, sans-serif" font-size="16px" font-style="normal" font-weight="normal" text-decoration="normal" x="203.83915533128715" y="230.5869772681597" text-anchor="middle" dominant-baseline="text-after-edge" fill-opacity="1">Gas Powerplant</text><path fill="url(#dJDgCMumTinc)" stroke="rgb(255,227,77)" paint-order="fill stroke markers" d=" M 273.0164006088015 64.41409103111519 L 272.8776806267923 67.94475033886822 L 272.46237593558277 71.45364195792558 L 271.773047026697 74.91913240463093 L 270.81394384208346 78.31985577798783 L 269.59097957180944 81.63484548754423 L 268.1116941972781 84.8436635193948 L 266.3852080047357 87.92652644333289 L 264.42216535567417 90.86442738427648 L 262.23466906080296 93.63925320597346 L 259.8362057621962 96.23389618450983 L 257.2415627836598 98.63235948311657 L 254.46673696196285 100.81985577798783 L 251.52883602101926 102.78289842704933 L 248.44597309708115 104.50938461959174 L 245.23715506523058 105.98866999412309 L 241.92216535567417 107.2116342643971 L 238.5214419823173 108.17073744901063 L 235.05595153561194 108.86006635789639 L 231.54705991655456 109.27537104910596 L 228.01640060880155 109.41409103111519 L 224.48574130104853 109.27537104910596 L 220.97684968199115 108.86006635789639 L 217.5113592352858 108.17073744901064 L 214.11063586192893 107.2116342643971 L 210.7956461523725 105.98866999412309 L 207.58682812052194 104.50938461959174 L 204.50396519658386 102.78289842704935 L 201.56606425564027 100.81985577798783 L 198.79123843394328 98.63235948311659 L 196.1965954554069 96.23389618450983 L 193.79813215680016 93.63925320597346 L 191.61063586192893 90.8644273842765 L 189.6475932128674 87.92652644333289 L 187.921107020325 84.8436635193948 L 186.44182164579365 81.63484548754424 L 185.21885737551963 78.31985577798783 L 184.2597541909061 74.91913240463094 L 183.57042528202035 71.45364195792558 L 183.15512059081078 67.94475033886822 L 183.01640060880155 64.41409103111519 L 183.15512059081078 60.88343172336217 L 183.57042528202035 57.374540104304806 L 184.2597541909061 53.909049657599454 L 185.21885737551963 50.508326284242564 L 186.44182164579365 47.19333657468616 L 187.921107020325 43.98451854283559 L 189.64759321286738 40.9016556188975 L 191.6106358619289 37.9637546779539 L 193.79813215680014 35.188928856256936 L 196.1965954554069 32.59428587772055 L 198.79123843394325 30.195822579113816 L 201.56606425564024 28.008326284242564 L 204.50396519658386 26.045283635181036 L 207.58682812052197 24.31879744263862 L 210.79564615237257 22.83951206810727 L 214.11063586192898 21.616547797833256 L 217.51135923528588 20.657444613219724 L 220.97684968199127 19.968115704333975 L 224.48574130104865 19.552811013124426 L 228.0164006088017 19.41409103111519 L 231.54705991655473 19.552811013124447 L 235.05595153561214 19.968115704334025 L 238.5214419823175 20.657444613219788 L 241.9221653556744 21.616547797833356 L 245.2371550652308 22.839512068107382 L 248.44597309708138 24.31879744263876 L 251.5288360210195 26.045283635181192 L 254.46673696196308 28.00832628424274 L 257.2415627836601 30.195822579114015 L 259.8362057621964 32.5942858777208 L 262.2346690608032 35.188928856257206 L 264.4221653556744 37.96375467795421 L 266.3852080047359 40.90165561889784 L 268.1116941972783 43.98451854283597 L 269.5909795718096 47.19333657468657 L 270.81394384208363 50.508326284243005 L 271.7730470266971 53.90904965759992 L 272.4623759355828 57.374540104305304 L 272.87768062679237 60.8834317233627 Z" stroke-opacity="1" stroke-miterlimit="10" stroke-width="0.5"/><text fill="rgb(0,0,0)" stroke="none" font-family="Helvetica Neue, Helvetica, sans-serif" font-size="16px" font-style="normal" font-weight="normal" text-decoration="normal" x="228.01640060880155" y="72.41409103111519" text-anchor="middle" dominant-baseline="text-after-edge" fill-opacity="1">Demand</text><path fill="url(#JFZkyGEPWkON)" stroke="rgb(255,227,77)" paint-order="fill stroke markers" d=" M 6.1588420635032195 -1.0585384798868425 L 6.1573007303697835 -1.01930893202292 L 6.152686233800789 -0.980321247366727 L 6.145027023702058 -0.9418157979588898 L 6.134370321650796 -0.9040299826993687 L 6.1207818297588625 -0.8671967637042975 L 6.104345325597404 -0.8315432300170691 L 6.085162145680266 -0.7972891975288681 L 6.063350560690694 -0.7646458537406059 L 6.039045046303235 -0.7338144557217506 L 6.0123954540964935 -0.7049850892935687 L 5.983566087668311 -0.6783354970868269 L 5.952734689649456 -0.6540299826993687 L 5.920091345861194 -0.6322183977097964 L 5.885837313372993 -0.6130352177926586 L 5.850183779685764 -0.5965987136311991 L 5.813350560690694 -0.5830102217392656 L 5.775564745431172 -0.5723535196880042 L 5.737059296023335 -0.5646943095892736 L 5.698071611367142 -0.5600798130202784 L 5.6588420635032195 -0.5585384798868425 L 5.619612515639297 -0.5600798130202784 L 5.580624830983104 -0.5646943095892736 L 5.542119381575267 -0.5723535196880041 L 5.504333566315746 -0.5830102217392656 L 5.467500347320675 -0.5965987136311991 L 5.431846813633446 -0.6130352177926586 L 5.397592781145245 -0.6322183977097964 L 5.364949437356983 -0.6540299826993687 L 5.334118039338128 -0.6783354970868269 L 5.3052886729099455 -0.7049850892935687 L 5.278639080703204 -0.7338144557217505 L 5.254333566315746 -0.7646458537406058 L 5.232521981326173 -0.7972891975288681 L 5.213338801409035 -0.8315432300170691 L 5.1969022972475765 -0.8671967637042975 L 5.183313805355643 -0.9040299826993687 L 5.172657103304381 -0.9418157979588897 L 5.16499789320565 -0.980321247366727 L 5.1603833966366555 -1.0193089320229198 L 5.1588420635032195 -1.0585384798868425 L 5.1603833966366555 -1.0977680277507649 L 5.16499789320565 -1.1367557124069578 L 5.172657103304381 -1.175261161814795 L 5.183313805355643 -1.2130469770743162 L 5.1969022972475765 -1.2498801960693873 L 5.213338801409035 -1.2855337297566158 L 5.232521981326173 -1.3197877622448169 L 5.254333566315745 -1.352431106033079 L 5.278639080703204 -1.3832625040519342 L 5.3052886729099455 -1.4120918704801162 L 5.334118039338128 -1.4387414626868578 L 5.364949437356983 -1.4630469770743162 L 5.397592781145245 -1.4848585620638888 L 5.431846813633446 -1.5040417419810266 L 5.467500347320676 -1.5204782461424862 L 5.504333566315746 -1.5340667380344195 L 5.542119381575268 -1.544723440085681 L 5.580624830983106 -1.5523826501844116 L 5.619612515639298 -1.5569971467534065 L 5.658842063503221 -1.5585384798868425 L 5.698071611367144 -1.5569971467534063 L 5.737059296023337 -1.552382650184411 L 5.775564745431175 -1.5447234400856802 L 5.8133505606906954 -1.5340667380344184 L 5.850183779685767 -1.5204782461424848 L 5.8858373133729955 -1.504041741981025 L 5.920091345861197 -1.484858562063887 L 5.952734689649459 -1.4630469770743142 L 5.983566087668314 -1.4387414626868555 L 6.012395454096496 -1.4120918704801135 L 6.0390450463032375 -1.383262504051931 L 6.0633505606906954 -1.3524311060330756 L 6.085162145680268 -1.319787762244813 L 6.104345325597405 -1.2855337297566116 L 6.120781829758865 -1.2498801960693828 L 6.134370321650798 -1.2130469770743113 L 6.145027023702059 -1.17526116181479 L 6.1526862338007895 -1.1367557124069523 L 6.1573007303697835 -1.097768027750759 Z" stroke-opacity="1" stroke-miterlimit="10" stroke-width="0.5"/><text fill="rgb(0,0,0)" stroke="none" font-family="Helvetica Neue, Helvetica, sans-serif" font-size="16px" font-style="normal" font-weight="normal" text-decoration="normal" x="5.6588420635032195" y="6.941461520113157" text-anchor="middle" dominant-baseline="text-after-edge" fill-opacity="1">Excess</text><g transform="scale(0.6273263541073889,0.6273263541073889) translate(-345.4262260153369,-133.5204398168053)"/></g></svg>