<svg version="1.1" xmlns="http://www.w3.org/2000/svg" xmlns:xlink="http://www.w3.org/1999/xlink" width="1183" height="596"><defs><radialGradient id="kcutXJegMpze" cx="1315.8003096714974px" cy="1025.9988933873574px" r="40px" fx="1315.8003096714974px" fy="1025.9988933873574px" gradientUnits="userSpaceOnUse"><stop offset="0" stop-color="rgb(51,102,102)" stop-opacity="1"/><stop offset="0.2" stop-color="rgb(112,149,149)" stop-opacity="1"/><stop offset="0.4" stop-color="rgb(173,195,195)" stop-opacity="1"/><stop offset="0.6" stop-color="rgb(235,242,242)" stop-opacity="1"/><stop offset="0.8" stop-color="rgb(255,255,255)" stop-opacity="1"/><stop offset="1" stop-color="rgb(255,255,255)" stop-opacity="1"/></radialGradient><radialGradient id="dkHiWelDAhtl" cx="1120.0594018449247px" cy="881.9159877751988px" r="40px" fx="1120.0594018449247px" fy="881.9159877751988px" gradientUnits="userSpaceOnUse"><stop offset="0" stop-color="rgb(255,204,0)" stop-opacity="1"/><stop offset="0.2" stop-color="rgb(251,216,79)" stop-opacity="1"/><stop offset="0.4" stop-color="rgb(247,228,158)" stop-opacity="1"/><stop offset="0.6" stop-color="rgb(243,240,236)" stop-opacity="1"/><stop offset="0.8" stop-color="rgb(255,255,255)" stop-opacity="1"/><stop offset="1" stop-color="rgb(255,255,255)" stop-opacity="1"/></radialGradient><radialGradient id="bLSTDADCLeOZ" cx="1395.8320616514582px" cy="958.7266953780166px" r="64px" fx="1395.8320616514582px" fy="958.7266953780166px" gradientUnits="userSpaceOnUse"><stop offset="0" stop-color="rgb(51,102,102)" stop-opacity="1"/><stop offset="0.53125" stop-color="rgb(255,255,255)" stop-opacity="1"/></radialGradient><radialGradient id="wkWEaTrUQehf" cx="1030.4168880176633px" cy="1006.5413982553649px" r="64px" fx="1030.4168880176633px" fy="1006.5413982553649px" gradientUnits="userSpaceOnUse"><stop offset="0" stop-color="rgb(255,217,0)" stop-opacity="1"/><stop offset="0.38541666666666663" stop-color="rgb(255,255,255)" stop-opacity="1"/></radialGradient><radialGradient id="IvdpUBnKhXKS" cx="2003.5184294413248px" cy="701.8165642141757px" r="847px" fx="2003.5184294413248px" fy="701.8165642141757px" gradientUnits="userSpaceOnUse"><stop offset="0" stop-color="rgb(255,119,0)" stop-opacity="1"/><stop offset="0.10310901219992129" stop-color="rgb(255,255,255)" stop-opacity="1"/></radialGradient><radialGradient id="zfcdbhxCKehJ" cx="1261.9757559913273px" cy="704.8057223908218px" r="90px" fx="1261.9757559913273px" fy="704.8057223908218px" gradientUnits="userSpaceOnUse"><stop offset="0" stop-color="rgb(255,227,77)" stop-opacity="1"/><stop offset="0.5555555555555557" stop-color="rgb(255,255,255)" stop-opacity="1"/></radialGradient><radialGradient id="RCQiLRCwgzgr" cx="384.7499999999999px" cy="384.75px" r="769px" fx="384.7499999999999px" fy="384.75px" gradientUnits="userSpaceOnUse"><stop offset="0" stop-color="rgb(255,227,77)" stop-opacity="1"/><stop offset="0.09796272214997832" stop-color="rgb(255,255,255)" stop-opacity="1"/></radialGradient><radialGradient id="CDHispGMkuCe" cx="1194.39406471736px" cy="957.0878574433532px" r="26px" fx="1194.39406471736px" fy="957.0878574433532px" gradientUnits="userSpaceOnUse"><stop offset="0" stop-color="rgb(51,102,102)" stop-opacity="1"/><stop offset="0.5384615384615384" stop-color="rgb(255,255,255)" stop-opacity="1"/></radialGradient></defs><g transform="translate(-1.3171073603311925,7.255826155495868) scale(0.5,0.5)"><path fill="none" stroke="rgb(142,142,142)" paint-order="fill stroke markers" d=" M 1298.4068858939154 1016.1262640874475 L 1214.0573302979165 968.2488648669014" stroke-opacity="1" stroke-linejoin="round" stroke-miterlimit="10" stroke-width="4.68" stroke-dasharray="6,8"/><path fill="rgb(142,142,142)" stroke="none" paint-order="stroke fill markers" d=" M 1219.7756506250068 964.3582806647199 L 1205.9172079700081 963.6284743545435 L 1213.6484285148663 975.1531122646485 Z" fill-opacity="1"/><path fill="none" stroke="rgb(216,216,216)" paint-order="fill stroke markers" d=" M 1132.5655578747246 866.3084235399218 L 1224.926268753045 751.0431314378299" stroke-opacity="1" stroke-linejoin="round" stroke-miterlimit="10" stroke-width="7" stroke-dasharray="6,8"/><path fill="rgb(216,216,216)" stroke="none" paint-order="stroke fill markers" d=" M 1229.4876739548542 759.6100283876805 L 1233.680577973905 740.117836473136 L 1215.5710820308389 748.458828406622 Z" fill-opacity="1"/><path fill="none" stroke="rgb(216,216,216)" paint-order="fill stroke markers" d=" M 1103.491128148219 870.7136528975473 L 720.829147800827 611.983761825724" stroke-opacity="1" stroke-linejoin="round" stroke-miterlimit="10" stroke-width="10.47" stroke-dasharray="6,8"/><path fill="rgb(216,216,216)" stroke="none" paint-order="stroke fill markers" d=" M 731.8820308098582 603.9932357000536 L 703.482165240376 600.2549172088227 L 717.5314297890806 625.2178007591469 Z" fill-opacity="1"/><path fill="none" stroke="rgb(216,216,216)" paint-order="fill stroke markers" d=" M 1371.144997405917 979.4778726683902 L 1338.2751067644926 1007.1072789611444" stroke-opacity="1" stroke-linejoin="round" stroke-miterlimit="10" stroke-width="4.68" stroke-dasharray="6,8"/><path fill="rgb(216,216,216)" stroke="none" paint-order="stroke fill markers" d=" M 1336.6183903105161 1000.39228652715 L 1331.110116955554 1013.1299462305366 L 1344.6052087312405 1009.8939690924743 Z" fill-opacity="1"/><path fill="none" stroke="rgb(0,0,0)" paint-order="fill stroke markers" d=" M 1049.2485685255288 980.360674253732 L 1104.375093676203 903.7210806956286" stroke-opacity="1" stroke-linejoin="round" stroke-miterlimit="10" stroke-width="3.43"/><path fill="rgb(0,0,0)" stroke="none" paint-order="stroke fill markers" d=" M 1106.7101876897073 908.5102551460185 L 1108.380840289659 898.1520956831882 L 1099.0919211594237 903.030469280925 Z" fill-opacity="1"/><path fill="none" stroke="rgb(216,216,216)" paint-order="fill stroke markers" d=" M 1588.308206344626 786.4601294509343 L 1163.4274360024701 873.0751047135376" stroke-opacity="1" stroke-linejoin="round" stroke-miterlimit="10" stroke-width="12.13" stroke-dasharray="6,8"/><path fill="rgb(216,216,216)" stroke="none" paint-order="stroke fill markers" d=" M 1165.3948574473832 857.7486338617637 L 1139.6563445279548 877.9210112448503 L 1171.2373541860811 886.408395150541 Z" fill-opacity="1"/><path fill="none" stroke="rgb(216,216,216)" paint-order="fill stroke markers" d=" M 1185.07751139518 947.6663748532839 L 1136.808103741855 898.853324778629" stroke-opacity="1" stroke-linejoin="round" stroke-miterlimit="10" stroke-width="1.91" stroke-dasharray="6,8"/><path fill="rgb(216,216,216)" stroke="none" paint-order="stroke fill markers" d=" M 1143.3324984195183 899.2646325588597 L 1134.1221238406679 896.1370935715298 L 1137.1463173981142 905.381916627008 Z" fill-opacity="1"/><path fill="url(#kcutXJegMpze)" stroke="none" paint-order="stroke fill markers" d=" M 1335.8003096714974 1025.9988933873574 L 1335.73865634616 1027.5680753019142 L 1335.5540764834002 1029.127582688162 L 1335.247708079451 1030.6678006644754 L 1334.8214399974004 1032.1792332748564 L 1334.277900321723 1033.6525620346592 L 1333.6204401552648 1035.0787033821484 L 1332.8531129585792 1036.4488646816765 L 1331.9806495589964 1037.7545984332069 L 1331.008428983498 1038.987854353961 L 1329.9424452952285 1040.1410290110882 L 1328.789270638101 1041.207012699358 L 1327.556014717347 1042.1792332748564 L 1326.2502809658165 1043.0516966744392 L 1324.8801196662885 1043.8190238711247 L 1323.4539783187993 1044.476484037583 L 1321.9806495589964 1045.0200237132603 L 1320.4692169486154 1045.446291795311 L 1318.928998972302 1045.7526601992602 L 1317.3694915860542 1045.93724006202 L 1315.8003096714974 1045.9988933873574 L 1314.2311277569406 1045.93724006202 L 1312.6716203706928 1045.7526601992602 L 1311.1314023943794 1045.446291795311 L 1309.6199697839984 1045.0200237132603 L 1308.1466410241956 1044.476484037583 L 1306.7204996767066 1043.8190238711247 L 1305.3503383771783 1043.0516966744392 L 1304.044604625648 1042.1792332748564 L 1302.8113487048938 1041.207012699358 L 1301.6581740477666 1040.1410290110884 L 1300.5921903594967 1038.987854353961 L 1299.6199697839984 1037.7545984332069 L 1298.7475063844156 1036.4488646816765 L 1297.98017918773 1035.0787033821484 L 1297.3227190212717 1033.6525620346592 L 1296.7791793455945 1032.1792332748564 L 1296.3529112635438 1030.6678006644754 L 1296.0465428595946 1029.127582688162 L 1295.8619629968348 1027.5680753019142 L 1295.8003096714974 1025.9988933873574 L 1295.8619629968348 1024.4297114728006 L 1296.0465428595946 1022.8702040865528 L 1296.3529112635438 1021.3299861102392 L 1296.7791793455945 1019.8185534998585 L 1297.3227190212717 1018.3452247400556 L 1297.98017918773 1016.9190833925664 L 1298.7475063844156 1015.5489220930384 L 1299.6199697839984 1014.2431883415079 L 1300.5921903594967 1013.0099324207537 L 1301.6581740477664 1011.8567577636264 L 1302.8113487048938 1010.7907740753568 L 1304.044604625648 1009.8185534998585 L 1305.3503383771786 1008.9460901002756 L 1306.7204996767066 1008.17876290359 L 1308.1466410241956 1007.5213027371317 L 1309.6199697839984 1006.9777630614543 L 1311.1314023943794 1006.5514949794039 L 1312.6716203706928 1006.2451265754546 L 1314.2311277569406 1006.0605467126949 L 1315.8003096714974 1005.9988933873574 L 1317.3694915860544 1006.0605467126949 L 1318.9289989723022 1006.2451265754546 L 1320.4692169486157 1006.5514949794039 L 1321.9806495589964 1006.9777630614543 L 1323.4539783187993 1007.5213027371317 L 1324.8801196662885 1008.17876290359 L 1326.2502809658165 1008.9460901002756 L 1327.556014717347 1009.8185534998585 L 1328.7892706381012 1010.7907740753568 L 1329.9424452952285 1011.8567577636265 L 1331.008428983498 1013.0099324207538 L 1331.9806495589964 1014.243188341508 L 1332.8531129585795 1015.5489220930385 L 1333.6204401552648 1016.9190833925666 L 1334.2779003217233 1018.3452247400558 L 1334.8214399974006 1019.8185534998586 L 1335.247708079451 1021.3299861102395 L 1335.5540764834002 1022.870204086553 L 1335.73865634616 1024.4297114728008 Z"/><text fill="rgb(0,0,0)" stroke="none" font-family="Helvetica Neue, Helvetica, sans-serif" font-size="16px" font-style="normal" font-weight="normal" text-decoration="normal" x="1315.8003096714974" y="1033.9988933873574" text-anchor="middle" dominant-baseline="text-after-edge" fill-opacity="1">Gas Pipeline</text><path fill="url(#dkHiWelDAhtl)" stroke="none" paint-order="stroke fill markers" d=" M 1140.0594018449247 881.9159877751988 L 1139.9977485195873 883.4851696897557 L 1139.8131686568274 885.0446770760034 L 1139.5068002528783 886.5848950523169 L 1139.0805321708276 888.0963276626977 L 1138.5369924951503 889.5696564225005 L 1137.879532328692 890.9957977699897 L 1137.1122051320065 892.3659590695178 L 1136.2397417324237 893.6716928210483 L 1135.2675211569253 894.9049487418025 L 1134.2015374686557 896.0581233989298 L 1133.0483628115282 897.1241070871994 L 1131.8151068907741 898.0963276626977 L 1130.5093731392437 898.9687910622806 L 1129.1392118397157 899.7361182589661 L 1127.7130704922265 900.3935784254245 L 1126.2397417324237 900.9371181011019 L 1124.7283091220427 901.3633861831523 L 1123.1880911457292 901.6697545871016 L 1121.6285837594814 901.8543344498613 L 1120.0594018449247 901.9159877751988 L 1118.4902199303679 901.8543344498613 L 1116.93071254412 901.6697545871016 L 1115.3904945678066 901.3633861831523 L 1113.8790619574256 900.9371181011019 L 1112.4057331976228 900.3935784254245 L 1110.9795918501338 899.7361182589661 L 1109.6094305506056 898.9687910622806 L 1108.3036967990752 898.0963276626977 L 1107.070440878321 897.1241070871994 L 1105.9172662211938 896.0581233989298 L 1104.851282532924 894.9049487418025 L 1103.8790619574256 893.6716928210483 L 1103.0065985578428 892.3659590695178 L 1102.2392713611573 890.9957977699897 L 1101.581811194699 889.5696564225005 L 1101.0382715190217 888.0963276626977 L 1100.612003436971 886.5848950523169 L 1100.3056350330219 885.0446770760034 L 1100.121055170262 883.4851696897557 L 1100.0594018449247 881.9159877751988 L 1100.121055170262 880.3468058606419 L 1100.3056350330219 878.7872984743942 L 1100.612003436971 877.2470804980807 L 1101.0382715190217 875.7356478876999 L 1101.581811194699 874.2623191278971 L 1102.2392713611573 872.8361777804079 L 1103.0065985578428 871.4660164808798 L 1103.8790619574256 870.1602827293493 L 1104.851282532924 868.9270268085951 L 1105.9172662211936 867.7738521514678 L 1107.070440878321 866.7078684631982 L 1108.3036967990752 865.7356478876999 L 1109.6094305506058 864.863184488117 L 1110.9795918501338 864.0958572914315 L 1112.4057331976228 863.4383971249731 L 1113.8790619574256 862.8948574492957 L 1115.3904945678066 862.4685893672453 L 1116.93071254412 862.162220963296 L 1118.4902199303679 861.9776411005363 L 1120.0594018449247 861.9159877751988 L 1121.6285837594817 861.9776411005363 L 1123.1880911457295 862.162220963296 L 1124.728309122043 862.4685893672453 L 1126.2397417324237 862.8948574492957 L 1127.7130704922265 863.4383971249731 L 1129.1392118397157 864.0958572914315 L 1130.5093731392437 864.863184488117 L 1131.8151068907741 865.7356478876999 L 1133.0483628115285 866.7078684631982 L 1134.2015374686557 867.773852151468 L 1135.2675211569253 868.9270268085952 L 1136.2397417324237 870.1602827293494 L 1137.1122051320067 871.46601648088 L 1137.879532328692 872.836177780408 L 1138.5369924951506 874.2623191278972 L 1139.0805321708278 875.7356478877 L 1139.5068002528783 877.2470804980809 L 1139.8131686568274 878.7872984743944 L 1139.9977485195873 880.3468058606421 Z"/><text fill="rgb(0,0,0)" stroke="none" font-family="Helvetica Neue, Helvetica, sans-serif" font-size="16px" font-style="normal" font-weight="normal" text-decoration="normal" x="1120.0594018449247" y="889.9159877751988" text-anchor="middle" dominant-baseline="text-after-edge" fill-opacity="1">Powerline</text><path fill="url(#bLSTDADCLeOZ)" stroke="rgb(51,102,102)" paint-order="fill stroke markers" d=" M 1427.8320616514582 958.7266953780166 L 1427.7334163309183 961.2373864413076 L 1427.4380885505025 963.732598259304 L 1426.9478991041838 966.1969470214057 L 1426.265870172903 968.6152391980149 L 1425.3962066918193 970.9725652136996 L 1424.344270425486 973.2543913696821 L 1423.116546910789 975.446649448927 L 1421.7206054714566 977.5358234513758 L 1420.165052550659 979.5090329245825 L 1418.4594786494276 981.3541123759861 L 1416.614399198024 983.0596862772177 L 1414.6411897248172 984.6152391980149 L 1412.5520157223684 986.0111806373476 L 1410.3597576431237 987.2389041520444 L 1408.077931487141 988.2908404183778 L 1405.7206054714566 989.1605038994616 L 1403.3023132948472 989.8425328307422 L 1400.8379645327454 990.3327222770611 L 1398.3427527147492 990.6280500574767 L 1395.8320616514582 990.7266953780166 L 1393.3213705881672 990.6280500574767 L 1390.8261587701709 990.3327222770611 L 1388.3618100080691 989.8425328307422 L 1385.9435178314598 989.1605038994616 L 1383.5861918157752 988.2908404183778 L 1381.3043656597927 987.2389041520444 L 1379.112107580548 986.0111806373476 L 1377.0229335780991 984.6152391980149 L 1375.0497241048922 983.0596862772177 L 1373.2046446534887 981.3541123759861 L 1371.4990707522572 979.5090329245825 L 1369.9435178314598 977.5358234513758 L 1368.5475763921272 975.446649448927 L 1367.3198528774303 973.2543913696821 L 1366.267916611097 970.9725652136996 L 1365.3982531300132 968.6152391980149 L 1364.7162241987326 966.1969470214057 L 1364.2260347524139 963.732598259304 L 1363.930706971998 961.2373864413076 L 1363.8320616514582 958.7266953780166 L 1363.930706971998 956.2160043147256 L 1364.2260347524139 953.7207924967292 L 1364.7162241987326 951.2564437346276 L 1365.3982531300132 948.8381515580184 L 1366.267916611097 946.4808255423337 L 1367.3198528774303 944.1989993863511 L 1368.5475763921272 942.0067413071063 L 1369.9435178314598 939.9175673046575 L 1371.4990707522572 937.9443578314508 L 1373.2046446534887 936.0992783800472 L 1375.0497241048922 934.3937044788156 L 1377.0229335780991 932.8381515580184 L 1379.112107580548 931.4422101186857 L 1381.3043656597927 930.2144866039889 L 1383.5861918157752 929.1625503376555 L 1385.94351783146 928.2928868565717 L 1388.3618100080691 927.6108579252909 L 1390.8261587701709 927.1206684789722 L 1393.3213705881672 926.8253406985565 L 1395.8320616514582 926.7266953780166 L 1398.3427527147494 926.8253406985566 L 1400.8379645327457 927.1206684789722 L 1403.3023132948472 927.610857925291 L 1405.7206054714566 928.2928868565717 L 1408.077931487141 929.1625503376555 L 1410.3597576431239 930.2144866039889 L 1412.5520157223687 931.4422101186858 L 1414.6411897248174 932.8381515580185 L 1416.6143991980243 934.3937044788158 L 1418.4594786494279 936.0992783800473 L 1420.1650525506593 937.9443578314509 L 1421.7206054714566 939.9175673046577 L 1423.1165469107893 942.0067413071065 L 1424.344270425486 944.1989993863514 L 1425.3962066918195 946.4808255423341 L 1426.265870172903 948.8381515580187 L 1426.947899104184 951.256443734628 L 1427.4380885505027 953.7207924967296 L 1427.7334163309183 956.216004314726 Z" stroke-opacity="1" stroke-miterlimit="10" stroke-width="0.5"/><text fill="rgb(0,0,0)" stroke="none" font-family="Helvetica Neue, Helvetica, sans-serif" font-size="16px" font-style="normal" font-weight="normal" text-decoration="normal" x="1395.8320616514582" y="966.7266953780166" text-anchor="middle" dominant-baseline="text-after-edge" fill-opacity="1">Gas Supply</text><path fill="url(#wkWEaTrUQehf)" stroke="rgb(255,217,0)" paint-order="fill stroke markers" d=" M 1062.4168880176633 1006.5413982553649 L 1062.3182426971234 1009.0520893186559 L 1062.0229149167076 1011.5473011366523 L 1061.5327254703889 1014.011649898754 L 1060.8506965391082 1016.4299420753632 L 1059.9810330580244 1018.7872680910478 L 1058.929096791691 1021.0690942470304 L 1057.7013732769942 1023.2613523262753 L 1056.3054318376617 1025.350526328724 L 1054.7498789168642 1027.3237358019308 L 1053.0443050156327 1029.1688152533345 L 1051.1992255642292 1030.874389154566 L 1049.2260160910223 1032.4299420753632 L 1047.1368420885735 1033.8258835146958 L 1044.9445840093288 1035.0536070293927 L 1042.6627578533462 1036.1055432957262 L 1040.3054318376617 1036.9752067768097 L 1037.8871396610523 1037.6572357080906 L 1035.4227908989506 1038.1474251544093 L 1032.9275790809543 1038.442752934825 L 1030.4168880176633 1038.541398255365 L 1027.9061969543723 1038.442752934825 L 1025.410985136376 1038.1474251544093 L 1022.9466363742742 1037.6572357080906 L 1020.528344197665 1036.97520677681 L 1018.1710181819803 1036.1055432957262 L 1015.8891920259978 1035.0536070293927 L 1013.6969339467529 1033.825883514696 L 1011.6077599443041 1032.4299420753632 L 1009.6345504710974 1030.874389154566 L 1007.7894710196938 1029.1688152533345 L 1006.0838971184622 1027.3237358019308 L 1004.528344197665 1025.350526328724 L 1003.1324027583323 1023.2613523262753 L 1001.9046792436355 1021.0690942470304 L 1000.8527429773021 1018.7872680910478 L 999.9830794962184 1016.4299420753632 L 999.3010505649377 1014.011649898754 L 998.8108611186188 1011.5473011366523 L 998.5155333382032 1009.0520893186559 L 998.4168880176633 1006.5413982553649 L 998.5155333382032 1004.0307071920739 L 998.8108611186188 1001.5354953740775 L 999.3010505649377 999.0711466119759 L 999.9830794962184 996.6528544353666 L 1000.8527429773021 994.295528419682 L 1001.9046792436355 992.0137022636994 L 1003.1324027583323 989.8214441844545 L 1004.528344197665 987.7322701820058 L 1006.0838971184622 985.7590607087991 L 1007.7894710196938 983.9139812573954 L 1009.6345504710973 982.2084073561639 L 1011.6077599443041 980.6528544353666 L 1013.6969339467529 979.256912996034 L 1015.8891920259978 978.0291894813372 L 1018.1710181819805 976.9772532150038 L 1020.528344197665 976.10758973392 L 1022.9466363742744 975.4255608026392 L 1025.410985136376 974.9353713563205 L 1027.9061969543723 974.6400435759048 L 1030.4168880176633 974.5413982553649 L 1032.9275790809545 974.6400435759049 L 1035.4227908989508 974.9353713563205 L 1037.8871396610523 975.4255608026393 L 1040.3054318376617 976.10758973392 L 1042.6627578533462 976.9772532150038 L 1044.944584009329 978.0291894813372 L 1047.1368420885738 979.2569129960341 L 1049.2260160910225 980.6528544353667 L 1051.1992255642294 982.2084073561641 L 1053.044305015633 983.9139812573956 L 1054.7498789168644 985.7590607087992 L 1056.3054318376617 987.732270182006 L 1057.7013732769944 989.8214441844548 L 1058.929096791691 992.0137022636997 L 1059.9810330580247 994.2955284196823 L 1060.8506965391082 996.652854435367 L 1061.532725470389 999.0711466119762 L 1062.0229149167078 1001.5354953740779 L 1062.3182426971234 1004.0307071920743 Z" stroke-opacity="1" stroke-miterlimit="10" stroke-width="0.5"/><text fill="rgb(0,0,0)" stroke="none" font-family="Helvetica Neue, Helvetica, sans-serif" font-size="16px" font-style="normal" font-weight="normal" text-decoration="normal" x="1030.4168880176633" y="1014.5413982553649" text-anchor="middle" dominant-baseline="text-after-edge" fill-opacity="1">Import</text><path fill="url(#IvdpUBnKhXKS)" stroke="rgb(255,119,0)" paint-order="fill stroke markers" d=" M 2427.0184294413248 701.8165642141757 L 2425.7129202773044 735.0439912549181 L 2421.8044416833654 768.0665601587135 L 2415.317090729741 800.6806758071517 L 2406.2908640923224 832.685261331966 L 2394.7814114598546 863.8829978207913 L 2380.8596924350986 894.0815408538738 L 2364.611539045283 923.0947063713801 L 2346.137126559115 950.7436185600382 L 2325.550355872938 976.8578126820084 L 2302.9781512738277 1001.2762860466786 L 2278.5596779091575 1023.8484906457888 L 2252.445483787187 1044.435261331966 L 2224.796571598529 1062.9096738181338 L 2195.783406081023 1079.1578272079496 L 2165.5848630479404 1093.0795462327058 L 2134.387126559115 1104.5889988651734 L 2102.3825410343006 1113.6152255025918 L 2069.7684253858624 1120.1025764562166 L 2036.7458564820672 1124.0110550501554 L 2003.5184294413248 1125.3165642141757 L 1970.2910024005826 1124.0110550501554 L 1937.268433496787 1120.1025764562166 L 1904.654317848349 1113.6152255025918 L 1872.6497323235346 1104.5889988651734 L 1841.4519958347094 1093.0795462327058 L 1811.2534528016267 1079.1578272079496 L 1782.2402872841205 1062.9096738181338 L 1754.5913750954624 1044.435261331966 L 1728.477180973492 1023.8484906457888 L 1704.0587076088218 1001.2762860466787 L 1681.4865030097117 976.8578126820086 L 1660.8997323235346 950.7436185600382 L 1642.4253198373667 923.0947063713801 L 1626.177166447551 894.0815408538738 L 1612.2554474227948 863.8829978207913 L 1600.7459947903271 832.685261331966 L 1591.7197681529087 800.6806758071517 L 1585.232417199284 768.0665601587135 L 1581.3239386053451 735.0439912549182 L 1580.0184294413248 701.8165642141757 L 1581.3239386053451 668.5891371734334 L 1585.2324171992839 635.5665682696381 L 1591.7197681529087 602.9524526211999 L 1600.7459947903271 570.9478670963856 L 1612.2554474227948 539.7501306075603 L 1626.177166447551 509.5515875744777 L 1642.4253198373667 480.5384220569715 L 1660.8997323235344 452.88950986831344 L 1681.4865030097117 426.775315746343 L 1704.0587076088218 402.3568423816729 L 1728.4771809734918 379.7846377825628 L 1754.5913750954624 359.19786709638555 L 1782.2402872841205 340.72345461021763 L 1811.253452801627 324.4753012204018 L 1841.4519958347098 310.5535821956456 L 1872.649732323535 299.044129563178 L 1904.6543178483496 290.0179029257595 L 1937.268433496788 283.53055197213473 L 1970.2910024005837 279.622073378196 L 2003.5184294413261 278.31656421417574 L 2036.7458564820688 279.6220733781962 L 2069.7684253858642 283.5305519721352 L 2102.3825410343024 290.01790292576015 L 2134.387126559117 299.0441295631789 L 2165.5848630479427 310.5535821956467 L 2195.783406081025 324.47530122040314 L 2224.7965715985315 340.7234546102191 L 2252.4454837871895 359.19786709638726 L 2278.5596779091597 379.7846377825647 L 2302.97815127383 402.3568423816752 L 2325.55035587294 426.7753157463456 L 2346.137126559117 452.88950986831634 L 2364.6115390452846 480.5384220569747 L 2380.8596924351004 509.55158757448123 L 2394.7814114598564 539.7501306075642 L 2406.290864092324 570.9478670963897 L 2415.3170907297417 602.9524526212043 L 2421.8044416833663 635.5665682696426 L 2425.712920277305 668.5891371734384 Z" stroke-opacity="1" stroke-miterlimit="10" stroke-width="0.5"/><text fill="rgb(0,0,0)" stroke="none" font-family="Helvetica Neue, Helvetica, sans-serif" font-size="16px" font-style="normal" font-weight="normal" text-decoration="normal" x="2003.5184294413248" y="709.8165642141757" text-anchor="middle" dominant-baseline="text-after-edge" fill-opacity="1">Solar</text><path fill="url(#zfcdbhxCKehJ)" stroke="rgb(255,227,77)" paint-order="fill stroke markers" d=" M 1306.9757559913273 704.8057223908218 L 1306.8370360093181 708.3363816985748 L 1306.4217313181086 711.8452733176322 L 1305.7324024092227 715.3107637643375 L 1304.7732992246092 718.7114871376943 L 1303.5503349543353 722.0264768472508 L 1302.071049579804 725.2352948791014 L 1300.3445633872616 728.3181578030394 L 1298.3815207382 731.2560587439831 L 1296.1940244433288 734.03088456568 L 1293.795561144722 736.6255275442164 L 1291.2009181661856 739.0239908428232 L 1288.4260923444886 741.2114871376943 L 1285.488191403545 743.1745297867559 L 1282.4053284796069 744.9010159792983 L 1279.1965104477563 746.3803013538296 L 1275.8815207382 747.6032656241036 L 1272.480797364843 748.5623688087172 L 1269.0153069181376 749.251697717603 L 1265.5064152990803 749.6670024088126 L 1261.9757559913273 749.8057223908218 L 1258.4450966835743 749.6670024088126 L 1254.936205064517 749.251697717603 L 1251.4707146178116 748.5623688087172 L 1248.0699912444547 747.6032656241036 L 1244.7550015348984 746.3803013538296 L 1241.5461835030478 744.9010159792983 L 1238.4633205791097 743.1745297867559 L 1235.525419638166 741.2114871376943 L 1232.750593816469 739.0239908428232 L 1230.1559508379328 736.6255275442164 L 1227.757487539326 734.03088456568 L 1225.5699912444547 731.2560587439831 L 1223.606948595393 728.3181578030394 L 1221.8804624028508 725.2352948791014 L 1220.4011770283194 722.0264768472508 L 1219.1782127580454 718.7114871376943 L 1218.219109573432 715.3107637643375 L 1217.5297806645463 711.8452733176322 L 1217.1144759733365 708.3363816985748 L 1216.9757559913273 704.8057223908218 L 1217.1144759733365 701.2750630830687 L 1217.529780664546 697.7661714640113 L 1218.219109573432 694.300681017306 L 1219.1782127580454 690.8999576439492 L 1220.4011770283194 687.5849679343927 L 1221.8804624028508 684.3761499025421 L 1223.606948595393 681.2932869786041 L 1225.5699912444547 678.3553860376604 L 1227.757487539326 675.5805602159635 L 1230.1559508379328 672.9859172374271 L 1232.750593816469 670.5874539388204 L 1235.525419638166 668.3999576439492 L 1238.4633205791097 666.4369149948876 L 1241.5461835030478 664.7104288023452 L 1244.7550015348984 663.2311434278138 L 1248.0699912444547 662.0081791575399 L 1251.4707146178116 661.0490759729263 L 1254.936205064517 660.3597470640406 L 1258.4450966835745 659.944442372831 L 1261.9757559913276 659.8057223908218 L 1265.5064152990806 659.944442372831 L 1269.0153069181379 660.3597470640406 L 1272.4807973648433 661.0490759729264 L 1275.8815207382002 662.0081791575399 L 1279.1965104477565 663.231143427814 L 1282.405328479607 664.7104288023453 L 1285.4881914035452 666.4369149948877 L 1288.4260923444888 668.3999576439493 L 1291.2009181661858 670.5874539388205 L 1293.7955611447221 672.9859172374273 L 1296.194024443329 675.5805602159637 L 1298.3815207382002 678.3553860376608 L 1300.3445633872616 681.2932869786044 L 1302.0710495798041 684.3761499025426 L 1303.5503349543353 687.5849679343931 L 1304.7732992246094 690.8999576439496 L 1305.732402409223 694.3006810173065 L 1306.4217313181086 697.7661714640119 L 1306.8370360093181 701.2750630830693 Z" stroke-opacity="1" stroke-miterlimit="10" stroke-width="0.5"/><text fill="rgb(0,0,0)" stroke="none" font-family="Helvetica Neue, Helvetica, sans-serif" font-size="16px" font-style="normal" font-weight="normal" text-decoration="normal" x="1261.9757559913273" y="712.8057223908218" text-anchor="middle" dominant-baseline="text-after-edge" fill-opacity="1">Demand</text><path fill="url(#RCQiLRCwgzgr)" stroke="rgb(255,227,77)" paint-order="fill stroke markers" d=" M 769.2499999999999 384.75 L 768.0647148203875 414.91752230735636 L 764.5161669588304 444.89905180796876 L 758.6262343929066 474.50974240259563 L 750.4312305154864 503.5670343371673 L 739.9816802505896 531.891779744377 L 727.3420085504274 559.3093471498557 L 712.5901431941484 585.6506981332823 L 695.8170343371671 610.7534295064559 L 677.1260937732118 634.4627745829556 L 656.6325573662275 656.6325573662275 L 634.4627745829555 677.1260937732119 L 610.7534295064559 695.8170343371673 L 585.6506981332823 712.5901431941484 L 559.3093471498556 727.3420085504274 L 531.8917797443769 739.9816802505898 L 503.5670343371672 750.4312305154865 L 474.5097424025955 758.6262343929066 L 444.8990518079687 764.5161669588305 L 414.9175223073563 768.0647148203877 L 384.7499999999999 769.25 L 354.5824776926435 768.0647148203877 L 324.6009481920311 764.5161669588305 L 294.99025759740425 758.6262343929067 L 265.93296566283266 750.4312305154865 L 237.60822025562288 739.9816802505898 L 210.19065285014418 727.3420085504274 L 183.84930186671758 712.5901431941485 L 158.746570493544 695.8170343371673 L 135.0372254170443 677.126093773212 L 112.86744263377238 656.6325573662275 L 92.373906226788 634.4627745829557 L 73.68296566283266 610.753429506456 L 56.90985680585146 585.6506981332824 L 42.15799144957248 559.3093471498557 L 29.518319749410125 531.8917797443771 L 19.068769484513382 503.56703433716734 L 10.873765607093276 474.5097424025957 L 4.983833041169476 444.8990518079688 L 1.4352851796122081 414.9175223073564 L 0.2499999999998863 384.75000000000006 L 1.4352851796122081 354.5824776926437 L 4.983833041169419 324.6009481920313 L 10.873765607093219 294.9902575974044 L 19.068769484513325 265.93296566283277 L 29.518319749410068 237.60822025562302 L 42.15799144957242 210.1906528501443 L 56.909856805851405 183.84930186671772 L 73.68296566283254 158.7465704935441 L 92.37390622678794 135.03722541704443 L 112.86744263377233 112.8674426337725 L 135.0372254170441 92.37390622678822 L 158.7465704935439 73.68296566283277 L 183.84930186671767 56.90985680585146 L 210.1906528501444 42.15799144957242 L 237.60822025562328 29.518319749410068 L 265.93296566283317 19.06876948451327 L 294.99025759740505 10.873765607093162 L 324.60094819203204 4.983833041169419 L 354.5824776926446 1.4352851796122081 L 384.7500000000012 0.25 L 414.91752230735773 1.4352851796124355 L 444.8990518079703 4.98383304116976 L 474.5097424025973 10.87376560709373 L 503.56703433716905 19.068769484514064 L 531.8917797443789 29.518319749411035 L 559.3093471498577 42.157991449573615 L 585.6506981332843 56.909856805852826 L 610.7534295064579 73.6829656628343 L 634.4627745829576 92.37390622678993 L 656.6325573662295 112.8674426337746 L 677.1260937732138 135.03722541704678 L 695.8170343371692 158.74657049354676 L 712.5901431941502 183.84930186672062 L 727.342008550429 210.19065285014753 L 739.9816802505911 237.60822025562652 L 750.4312305154876 265.9329656628365 L 758.6262343929075 294.99025759740846 L 764.516166958831 324.6009481920355 L 768.064714820388 354.5824776926481 Z" stroke-opacity="1" stroke-miterlimit="10" stroke-width="0.5"/><text fill="rgb(0,0,0)" stroke="none" font-family="Helvetica Neue, Helvetica, sans-serif" font-size="16px" font-style="normal" font-weight="normal" text-decoration="normal" x="384.7499999999999" y="392.75" text-anchor="middle" dominant-baseline="text-after-edge" fill-opacity="1">Excess</text><path fill="url(#CDHispGMkuCe)" stroke="rgb(51,102,102)" paint-order="fill stroke markers" d=" M 1207.39406471736 957.0878574433532 L 1207.3539900558906 958.1078256878152 L 1207.2340131450967 959.1215054888762 L 1207.0348736825297 960.12264717348 L 1206.757799429197 961.1050783702275 L 1206.4044986400068 962.0627420640993 L 1205.9771495318087 962.9897339399673 L 1205.4783868539632 963.8803387846605 L 1204.9112856442343 964.7290657231554 L 1204.2793422701602 965.5306820716456 L 1203.586452872785 966.2802455987783 L 1202.8368893456523 966.9731349961536 L 1202.035272997162 967.6050783702275 L 1201.1865460586673 968.1721795799564 L 1200.295941213974 968.6709422578019 L 1199.3689493381062 969.0982913659999 L 1198.4112856442343 969.4515921551902 L 1197.4288544474866 969.7286664085229 L 1196.427712762883 969.92780587109 L 1195.414032961822 970.0477827818838 L 1194.39406471736 970.0878574433532 L 1193.374096472898 970.0477827818838 L 1192.360416671837 969.92780587109 L 1191.3592749872332 969.7286664085229 L 1190.3768437904855 969.4515921551902 L 1189.4191800966137 969.0982913659999 L 1188.492188220746 968.6709422578019 L 1187.6015833760525 968.1721795799564 L 1186.7528564375577 967.6050783702275 L 1185.9512400890676 966.9731349961536 L 1185.2016765619348 966.2802455987783 L 1184.5087871645596 965.5306820716456 L 1183.8768437904855 964.7290657231554 L 1183.3097425807566 963.8803387846605 L 1182.8109799029112 962.9897339399673 L 1182.383630794713 962.0627420640993 L 1182.030330005523 961.1050783702275 L 1181.7532557521902 960.12264717348 L 1181.5541162896232 959.1215054888762 L 1181.4341393788293 958.1078256878152 L 1181.39406471736 957.0878574433532 L 1181.4341393788293 956.0678891988912 L 1181.5541162896232 955.0542093978302 L 1181.7532557521902 954.0530677132264 L 1182.030330005523 953.0706365164789 L 1182.383630794713 952.112972822607 L 1182.8109799029112 951.185980946739 L 1183.3097425807566 950.2953761020459 L 1183.8768437904855 949.446649163551 L 1184.5087871645596 948.6450328150607 L 1185.2016765619348 947.8954692879281 L 1185.9512400890676 947.2025798905528 L 1186.7528564375577 946.5706365164789 L 1187.6015833760525 946.00353530675 L 1188.492188220746 945.5047726289044 L 1189.4191800966137 945.0774235207065 L 1190.3768437904857 944.7241227315162 L 1191.3592749872332 944.4470484781834 L 1192.360416671837 944.2479090156164 L 1193.374096472898 944.1279321048225 L 1194.39406471736 944.0878574433532 L 1195.414032961822 944.1279321048225 L 1196.427712762883 944.2479090156164 L 1197.4288544474869 944.4470484781834 L 1198.4112856442343 944.7241227315162 L 1199.3689493381062 945.0774235207065 L 1200.2959412139742 945.5047726289044 L 1201.1865460586673 946.00353530675 L 1202.035272997162 946.5706365164789 L 1202.8368893456525 947.2025798905529 L 1203.586452872785 947.8954692879281 L 1204.2793422701604 948.6450328150609 L 1204.9112856442343 949.4466491635511 L 1205.4783868539632 950.2953761020459 L 1205.9771495318087 951.1859809467392 L 1206.4044986400068 952.1129728226072 L 1206.757799429197 953.070636516479 L 1207.0348736825297 954.0530677132266 L 1207.2340131450967 955.0542093978303 L 1207.3539900558906 956.0678891988914 Z" stroke-opacity="1" stroke-miterlimit="10" stroke-width="0.5"/><text fill="rgb(0,0,0)" stroke="none" font-family="Helvetica Neue, Helvetica, sans-serif" font-size="16px" font-style="normal" font-weight="normal" text-decoration="normal" x="1194.39406471736" y="965.0878574433532" text-anchor="middle" dominant-baseline="text-after-edge" fill-opacity="1">Gas Powerplant</text><g transform="scale(2,2) translate(1.3171073603311925,-7.255826155495868)"/></g></svg>