<svg version="1.1" xmlns="http://www.w3.org/2000/svg" xmlns:xlink="http://www.w3.org/1999/xlink" width="1765.3333333333333" height="1021.3333333333333"><defs><radialGradient id="fCKAsVbDtyOq" cx="144.08550863103937px" cy="173.98855662464322px" r="40px" fx="144.08550863103937px" fy="173.98855662464322px" gradientUnits="userSpaceOnUse"><stop offset="0" stop-color="rgb(255,204,0)" stop-opacity="1"/><stop offset="0.2" stop-color="rgb(251,216,79)" stop-opacity="1"/><stop offset="0.4" stop-color="rgb(247,228,158)" stop-opacity="1"/><stop offset="0.6" stop-color="rgb(243,240,236)" stop-opacity="1"/><stop offset="0.8" stop-color="rgb(255,255,255)" stop-opacity="1"/><stop offset="1" stop-color="rgb(255,255,255)" stop-opacity="1"/></radialGradient><radialGradient id="OukATfrAFuJE" cx="-148.02139494090548px" cy="87.58845219181494px" r="40px" fx="-148.02139494090548px" fy="87.58845219181494px" gradientUnits="userSpaceOnUse"><stop offset="0" stop-color="rgb(102,102,102)" stop-opacity="1"/><stop offset="0.2" stop-color="rgb(148,148,148)" stop-opacity="1"/><stop offset="0.4" stop-color="rgb(194,194,194)" stop-opacity="1"/><stop offset="0.6" stop-color="rgb(241,241,241)" stop-opacity="1"/><stop offset="0.8" stop-color="rgb(255,255,255)" stop-opacity="1"/><stop offset="1" stop-color="rgb(255,255,255)" stop-opacity="1"/></radialGradient><radialGradient id="tvZBzvTLLQeo" cx="456.11250584031916px" cy="90.9127749107545px" r="40px" fx="456.11250584031916px" fy="90.9127749107545px" gradientUnits="userSpaceOnUse"><stop offset="0" stop-color="rgb(0,102,0)" stop-opacity="1"/><stop offset="0.2" stop-color="rgb(78,149,78)" stop-opacity="1"/><stop offset="0.4" stop-color="rgb(156,196,156)" stop-opacity="1"/><stop offset="0.6" stop-color="rgb(235,243,235)" stop-opacity="1"/><stop offset="0.8" stop-color="rgb(255,255,255)" stop-opacity="1"/><stop offset="1" stop-color="rgb(255,255,255)" stop-opacity="1"/></radialGradient><radialGradient id="yJrKnwBMKtzW" cx="0.116181027772841px" cy="295.35741876570603px" r="40px" fx="0.116181027772841px" fy="295.35741876570603px" gradientUnits="userSpaceOnUse"><stop offset="0" stop-color="rgb(255,0,0)" stop-opacity="1"/><stop offset="0.2" stop-color="rgb(251,80,80)" stop-opacity="1"/><stop offset="0.4" stop-color="rgb(247,160,160)" stop-opacity="1"/><stop offset="0.6" stop-color="rgb(243,240,240)" stop-opacity="1"/><stop offset="0.8" stop-color="rgb(255,255,255)" stop-opacity="1"/><stop offset="1" stop-color="rgb(255,255,255)" stop-opacity="1"/></radialGradient><radialGradient id="mCbPsRUNLXPw" cx="59.15636820811086px" cy="66.40279383478344px" r="26px" fx="59.15636820811086px" fy="66.40279383478344px" gradientUnits="userSpaceOnUse"><stop offset="0" stop-color="rgb(255,119,0)" stop-opacity="1"/><stop offset="0" stop-color="rgb(255,255,255)" stop-opacity="1"/></radialGradient><radialGradient id="aTWBPMUTOTvR" cx="267.59803435795044px" cy="74.5184807613398px" r="90px" fx="267.59803435795044px" fy="74.5184807613398px" gradientUnits="userSpaceOnUse"><stop offset="0" stop-color="rgb(153,204,255)" stop-opacity="1"/><stop offset="0.05925925925925926" stop-color="rgb(255,255,255)" stop-opacity="1"/></radialGradient><radialGradient id="yMANrGvSDobs" cx="173.51030788654552px" cy="13.897175963997348px" r="14px" fx="173.51030788654552px" fy="13.897175963997348px" gradientUnits="userSpaceOnUse"><stop offset="0" stop-color="rgb(0,204,255)" stop-opacity="1"/><stop offset="0.047619047619047616" stop-color="rgb(255,255,255)" stop-opacity="1"/></radialGradient><radialGradient id="hcErqHOoisnx" cx="-146.62242902182504px" cy="15.27734122872883px" r="1px" fx="-146.62242902182504px" fy="15.27734122872883px" gradientUnits="userSpaceOnUse"><stop offset="0" stop-color="rgb(102,102,102)" stop-opacity="1"/><stop offset="0" stop-color="rgb(255,255,255)" stop-opacity="1"/></radialGradient><radialGradient id="zewkBCautenG" cx="455.8964647172641px" cy="12.261297186718716px" r="8px" fx="455.8964647172641px" fy="12.261297186718716px" gradientUnits="userSpaceOnUse"><stop offset="0" stop-color="rgb(0,102,0)" stop-opacity="1"/><stop offset="0" stop-color="rgb(255,255,255)" stop-opacity="1"/></radialGradient><radialGradient id="ZAobWSxyRHZP" cx="-9.499779983160268px" cy="172.18247530429235px" r="4px" fx="-9.499779983160268px" fy="172.18247530429235px" gradientUnits="userSpaceOnUse"><stop offset="0" stop-color="rgb(51,102,102)" stop-opacity="1"/><stop offset="0" stop-color="rgb(255,255,255)" stop-opacity="1"/></radialGradient><radialGradient id="byCzmAIhrAPG" cx="-10.820527757458057px" cy="118.01742974673354px" r="4px" fx="-10.820527757458057px" fy="118.01742974673354px" gradientUnits="userSpaceOnUse"><stop offset="0" stop-color="rgb(102,102,102)" stop-opacity="1"/><stop offset="0" stop-color="rgb(255,255,255)" stop-opacity="1"/></radialGradient><radialGradient id="GZlhadTuyxRy" cx="274.26648330616916px" cy="135.2949719649488px" r="4px" fx="274.26648330616916px" fy="135.2949719649488px" gradientUnits="userSpaceOnUse"><stop offset="0" stop-color="rgb(153,51,0)" stop-opacity="1"/><stop offset="0" stop-color="rgb(255,255,255)" stop-opacity="1"/></radialGradient><radialGradient id="OsNlwwhsaqDf" cx="-130.10576109907785px" cy="239.80364568874776px" r="3px" fx="-130.10576109907785px" fy="239.80364568874776px" gradientUnits="userSpaceOnUse"><stop offset="0" stop-color="rgb(204,0,51)" stop-opacity="1"/><stop offset="0" stop-color="rgb(255,255,255)" stop-opacity="1"/></radialGradient><radialGradient id="CyOdbBmUWvGK" cx="87.802323111172px" cy="224.48490889117397px" r="4px" fx="87.802323111172px" fy="224.48490889117397px" gradientUnits="userSpaceOnUse"><stop offset="0" stop-color="rgb(204,0,51)" stop-opacity="1"/><stop offset="0.16666666666666669" stop-color="rgb(255,255,255)" stop-opacity="1"/></radialGradient><radialGradient id="rJVcPSWIaGEp" cx="-120.1412994029506px" cy="134.7892595864322px" r="2px" fx="-120.1412994029506px" fy="134.7892595864322px" gradientUnits="userSpaceOnUse"><stop offset="0" stop-color="rgb(102,102,102)" stop-opacity="1"/><stop offset="0" stop-color="rgb(255,255,255)" stop-opacity="1"/></radialGradient><radialGradient id="AcBZbHzdGiVs" cx="453.9270949965733px" cy="147.66873223692315px" r="4px" fx="453.9270949965733px" fy="147.66873223692315px" gradientUnits="userSpaceOnUse"><stop offset="0" stop-color="rgb(0,102,0)" stop-opacity="1"/><stop offset="0" stop-color="rgb(255,255,255)" stop-opacity="1"/></radialGradient><radialGradient id="TWCeXtxqgTAX" cx="230.54152144753013px" cy="315.2352822287162px" r="11px" fx="230.54152144753013px" fy="315.2352822287162px" gradientUnits="userSpaceOnUse"><stop offset="0" stop-color="rgb(255,227,77)" stop-opacity="1"/><stop offset="0.4848484848484849" stop-color="rgb(255,255,255)" stop-opacity="1"/></radialGradient><radialGradient id="ewTGRoXWhNPP" cx="-85.70743877918552px" cy="360.78288404486483px" r="3px" fx="-85.70743877918552px" fy="360.78288404486483px" gradientUnits="userSpaceOnUse"><stop offset="0" stop-color="rgb(255,0,0)" stop-opacity="1"/><stop offset="0.22222222222222218" stop-color="rgb(255,255,255)" stop-opacity="1"/></radialGradient><radialGradient id="wFcGdDIWykdm" cx="358.19951306479805px" cy="245.76032759164823px" r="27px" fx="358.19951306479805px" fy="245.76032759164823px" gradientUnits="userSpaceOnUse"><stop offset="0" stop-color="rgb(255,227,77)" stop-opacity="1"/><stop offset="0.07407407407407407" stop-color="rgb(255,255,255)" stop-opacity="1"/></radialGradient><radialGradient id="BqidFhUGyryN" cx="67.07940230069394px" cy="377.7648909125373px" r="79px" fx="67.07940230069394px" fy="377.7648909125373px" gradientUnits="userSpaceOnUse"><stop offset="0" stop-color="rgb(204,0,51)" stop-opacity="1"/><stop offset="0.03375527426160338" stop-color="rgb(255,255,255)" stop-opacity="1"/></radialGradient></defs><g transform="translate(606.5129212230623,79.13236973021282) scale(2.0844847775594775,2.0844847775594775)"><path fill="none" stroke="rgb(216,216,216)" paint-order="fill stroke markers" d=" M 129.19879627090322 187.3446711459615 L 90.28096071913467 222.2611158233745" stroke-opacity="1" stroke-linejoin="round" stroke-miterlimit="10" stroke-width="0.54" stroke-dasharray="6,8"/><path fill="rgb(216,216,216)" stroke="none" paint-order="stroke fill markers" d=" M 93.04784321995982 213.9345762524226 L 89.47707825168732 222.98234600752568 L 98.85775303673327 220.41029612908181 Z" fill-opacity="1"/><path fill="none" stroke="rgb(216,216,216)" paint-order="fill stroke markers" d=" M 154.52669063561393 191.04674288073 L 222.36085534694595 301.8701932970722" stroke-opacity="1" stroke-linejoin="round" stroke-miterlimit="10" stroke-width="4.96" stroke-dasharray="6,8"/><path fill="rgb(216,216,216)" stroke="none" paint-order="stroke fill markers" d=" M 215.13411332214562 302.5898851735129 L 227.53968162121492 310.33105368009126 L 226.28927544703603 295.76189793688883 Z" fill-opacity="1"/><path fill="none" stroke="rgb(216,216,216)" paint-order="fill stroke markers" d=" M 163.8526357380751 177.0316941394942 Q 260.46194408044727 191.90463996053035 345.2809151200139 238.6418778207347" stroke-opacity="1" stroke-linejoin="round" stroke-miterlimit="10" stroke-width="0.5" stroke-dasharray="6,8"/><path fill="rgb(216,216,216)" stroke="none" paint-order="stroke fill markers" d=" M 336.4325300725856 238.89644362713503 L 346.15675226881285 239.12448458486443 L 340.50465171726006 231.20828225324505 Z" fill-opacity="1"/><path fill="none" stroke="rgb(216,216,216)" paint-order="fill stroke markers" d=" M -137.84986197407352 104.80878659927203 L -121.2855968617192 132.8519719655933" stroke-opacity="1" stroke-linejoin="round" stroke-miterlimit="10" stroke-width="0.5" stroke-dasharray="6,8"/><path fill="rgb(216,216,216)" stroke="none" paint-order="stroke fill markers" d=" M -128.94705978757142 128.43445163900824 L -120.7770202133776 133.71298868596614 L -121.45621432032759 124.00983479843636 Z" fill-opacity="1"/><path fill="none" stroke="rgb(216,216,216)" paint-order="fill stroke markers" d=" M 455.3429681110743 110.89796471929193 L 454.05214487757564 144.4211388930358" stroke-opacity="1" stroke-linejoin="round" stroke-miterlimit="10" stroke-width="0.5" stroke-dasharray="6,8"/><path fill="rgb(216,216,216)" stroke="none" paint-order="stroke fill markers" d=" M 450.001638119978 136.55946636063814 L 454.0136679911134 145.42039838346267 L 458.69519568669176 136.89421527285964 Z" fill-opacity="1"/><path fill="none" stroke="rgb(216,216,216)" paint-order="fill stroke markers" d=" M -15.78923294824115 307.48250871389274 L -83.4250118736275 359.0429336373" stroke-opacity="1" stroke-linejoin="round" stroke-miterlimit="10" stroke-width="0.56" stroke-dasharray="6,8"/><path fill="rgb(216,216,216)" stroke="none" paint-order="stroke fill markers" d=" M -80.03406704044882 350.9880970071542 L -84.31571505628429 359.7219386743985 L -74.75965291298759 357.9069520867203 Z" fill-opacity="1"/><path fill="none" stroke="rgb(216,216,216)" paint-order="fill stroke markers" d=" M 18.17903921242065 303.94421992803075 Q 42.605252875765075 315.55606107362894 52.16060515685174 339.8440260518714" stroke-opacity="1" stroke-linejoin="round" stroke-miterlimit="10" stroke-width="0.5" stroke-dasharray="6,8"/><path fill="rgb(216,216,216)" stroke="none" paint-order="stroke fill markers" d=" M 45.101736858854196 334.49110797118993 L 52.52671060823437 340.7745994226853 L 53.09851951980256 331.06452555228395 Z" fill-opacity="1"/><path fill="none" stroke="rgb(216,216,216)" paint-order="fill stroke markers" d=" M 67.36623887703198 76.80281900781011 L 131.07363813690023 157.50549785984623" stroke-opacity="1" stroke-linejoin="round" stroke-miterlimit="10" stroke-width="0.5" stroke-dasharray="6,8"/><path fill="rgb(216,216,216)" stroke="none" paint-order="stroke fill markers" d=" M 122.88827106872222 154.15702567701612 L 131.69325101757352 158.29040542007465 L 129.71696684270955 148.7663936151585 Z" fill-opacity="1"/><path fill="none" stroke="rgb(216,216,216)" paint-order="fill stroke markers" d=" M 232.35577849707175 102.90062130493455 L 167.4505401410142 155.17166786645888" stroke-opacity="1" stroke-linejoin="round" stroke-miterlimit="10" stroke-width="5" stroke-dasharray="6,8"/><path fill="rgb(216,216,216)" stroke="none" paint-order="stroke fill markers" d=" M 165.79092648279692 148.05081727666555 L 159.66219630435592 161.443964119187 L 174.05395188543767 158.31106015642695 Z" fill-opacity="1"/><path fill="none" stroke="rgb(216,216,216)" paint-order="fill stroke markers" d=" M 172.19971143428535 21.027732529884958 L 147.88171904448262 153.3345307096584" stroke-opacity="1" stroke-linejoin="round" stroke-miterlimit="10" stroke-width="0.5" stroke-dasharray="6,8"/><path fill="rgb(216,216,216)" stroke="none" paint-order="stroke fill markers" d=" M 144.99532892321255 144.97503000280784 L 147.70094712003294 154.3180557532291 L 153.5519968022777 146.54774574552005 Z" fill-opacity="1"/><path fill="none" stroke="rgb(168,168,168)" paint-order="fill stroke markers" d=" M -146.6369361719041 16.02720091066712 L -147.61519473869214 66.592381097543" stroke-opacity="1" stroke-linejoin="round" stroke-miterlimit="10" stroke-width="0.5" stroke-dasharray="6,8"/><path fill="rgb(168,168,168)" stroke="none" paint-order="stroke fill markers" d=" M -151.8154408197893 58.80968022585148 L -147.6345376054642 67.59219400679405 L -143.1170685093052 58.97796316676843 Z" fill-opacity="1"/><path fill="none" stroke="rgb(216,216,216)" paint-order="fill stroke markers" d=" M 455.90813864044725 16.511281153690547 L 456.05482292576716 69.91285413277609" stroke-opacity="1" stroke-linejoin="round" stroke-miterlimit="10" stroke-width="0.5" stroke-dasharray="6,8"/><path fill="rgb(216,216,216)" stroke="none" paint-order="stroke fill markers" d=" M 451.6836889340407 62.22483178457931 L 456.05756973122203 70.91285036029888 L 460.3836561134889 62.200934577122055 Z" fill-opacity="1"/><path fill="none" stroke="rgb(165,165,165)" paint-order="fill stroke markers" d=" M -7.24993553775667 172.20893227854557 L 123.08696047393923 173.74162486494654" stroke-opacity="1" stroke-linejoin="round" stroke-miterlimit="10" stroke-width="0.5" stroke-dasharray="6,8"/><path fill="rgb(165,165,165)" stroke="none" paint-order="stroke fill markers" d=" M 115.33634266611297 178.000782480838 L 124.08689133856305 173.7533835201702 L 115.43864296655873 169.3013839586108 Z" fill-opacity="1"/><path fill="none" stroke="rgb(50,50,50)" paint-order="fill stroke markers" d=" M -8.704424813822527 118.78202658947953 L 124.3352144904413 166.8523194256806" stroke-opacity="1" stroke-linejoin="round" stroke-miterlimit="10" stroke-width="0.5" stroke-dasharray="6,8"/><path fill="rgb(50,50,50)" stroke="none" paint-order="stroke fill markers" d=" M 115.61521940957975 168.32683147708963 L 125.27570468761263 167.19214024467882 L 118.57166053486426 160.144566761699 Z" fill-opacity="1"/><path fill="none" stroke="rgb(0,0,0)" paint-order="fill stroke markers" d=" M 272.10973638055583 135.9360200901761 L 164.21514660343047 168.00544078918838" stroke-opacity="1" stroke-linejoin="round" stroke-miterlimit="10" stroke-width="0.5" stroke-dasharray="6,8"/><path fill="rgb(0,0,0)" stroke="none" paint-order="stroke fill markers" d=" M 170.3566541512011 161.64192092666917 L 163.256592414269 168.29035106706718 L 172.83537356874666 169.98134237237406 Z" fill-opacity="1"/><path fill="none" stroke="rgb(196,196,196)" paint-order="fill stroke markers" d=" M -128.49611544745923 240.49033402869915 L -19.199566791650795 287.1171586862892" stroke-opacity="1" stroke-linejoin="round" stroke-miterlimit="10" stroke-width="0.5" stroke-dasharray="6,8"/><path fill="rgb(196,196,196)" stroke="none" paint-order="stroke fill markers" d=" M -27.98891867522343 288.09684918166937 L -18.27976927644015 287.5095520234043 L -24.575096642322187 280.09461079933675 Z" fill-opacity="1"/><path fill="none" stroke="rgb(216,216,216)" paint-order="fill stroke markers" d=" M 86.05243439472775 225.89926014883986 L 16.51069398005933 282.10651898277393" stroke-opacity="1" stroke-linejoin="round" stroke-miterlimit="10" stroke-width="0.54" stroke-dasharray="6,8"/><path fill="rgb(216,216,216)" stroke="none" paint-order="stroke fill markers" d=" M 19.702571334929743 273.93346453835323 L 15.670747396166092 282.7854075864536 L 25.171396197904574 280.69970090860426 Z" fill-opacity="1"/><path fill="none" stroke="rgb(216,216,216)" paint-order="fill stroke markers" d=" M -118.9048321294809 134.9726953562218 L 123.31285843674779 170.90683569217774" stroke-opacity="1" stroke-linejoin="round" stroke-miterlimit="10" stroke-width="0.5" stroke-dasharray="6,8"/><path fill="rgb(216,216,216)" stroke="none" paint-order="stroke fill markers" d=" M 115.05786355330633 174.0797774619484 L 124.30203225552357 171.05358430800942 L 116.33457651104203 165.47396523859902 Z" fill-opacity="1"/><path fill="none" stroke="rgb(216,216,216)" paint-order="fill stroke markers" d=" M -119.39197208037426 135.78976374116647 L -12.472517991509633 278.54894896617" stroke-opacity="1" stroke-linejoin="round" stroke-miterlimit="10" stroke-width="0.5" stroke-dasharray="6,8"/><path fill="rgb(216,216,216)" stroke="none" paint-order="stroke fill markers" d=" M -20.570128757055198 274.99350245557235 L -11.873056133448557 279.3493522899574 L -13.606619840104534 269.77818429044106 Z" fill-opacity="1"/><path fill="none" stroke="rgb(216,216,216)" paint-order="fill stroke markers" d=" M 451.78754587965113 148.36502928292978 L 20.085306119046322 288.8586463363107" stroke-opacity="1" stroke-linejoin="round" stroke-miterlimit="10" stroke-width="0.5" stroke-dasharray="6,8"/><path fill="rgb(216,216,216)" stroke="none" paint-order="stroke fill markers" d=" M 26.061144363567152 282.3393014861495 L 19.13439540041429 289.1681116900914 L 28.753492941459513 290.6122247382485 Z" fill-opacity="1"/><path fill="none" stroke="rgb(216,216,216)" paint-order="fill stroke markers" d=" M 451.6851691402214 147.85917502261125 L 165.01014995699074 172.21109062488765" stroke-opacity="1" stroke-linejoin="round" stroke-miterlimit="10" stroke-width="0.5" stroke-dasharray="6,3"/><path fill="rgb(216,216,216)" stroke="none" paint-order="stroke fill markers" d=" M 172.31432905750927 167.22496310269685 L 164.01373846527878 172.29573186297125 L 173.05070782883658 175.893743080591 Z" fill-opacity="1"/><path fill="none" stroke="rgb(216,216,216)" paint-order="fill stroke markers" d=" M 344.590325303716 243.79754678788714 Q 247.74901503089382 229.83063941975382 162.57366892248118 183.94787030772176" stroke-opacity="1" stroke-linejoin="round" stroke-miterlimit="10" stroke-width="0.5"/><path fill="rgb(216,216,216)" stroke="none" paint-order="stroke fill markers" d=" M 171.41923598382817 183.60884581997698 L 161.69328033717443 183.47361727519421 L 167.42067088934047 191.33551891938686 Z" fill-opacity="1"/><path fill="none" stroke="rgb(216,216,216)" paint-order="fill stroke markers" d=" M 33.849176066838055 355.951716809561 Q 11.848668094127392 341.5100182371414 5.290048115397625 315.71008687972966" stroke-opacity="1" stroke-linejoin="round" stroke-miterlimit="10" stroke-width="0.5" stroke-dasharray="6,8"/><path fill="rgb(216,216,216)" stroke="none" paint-order="stroke fill markers" d=" M 11.609518090416067 321.9174144693051 L 5.043673492177398 314.7409122076333 L 3.2419784417831785 324.2994892432273 Z" fill-opacity="1"/><path fill="url(#fCKAsVbDtyOq)" stroke="none" paint-order="stroke fill markers" d=" M 164.08550863103937 173.98855662464322 L 164.02385530570194 175.55773853920013 L 163.83927544294212 177.11724592544783 L 163.5329070389929 178.65746390176133 L 163.10663895694245 180.16889651214217 L 162.56309928126512 181.64222527194502 L 161.90563911480672 183.06836661943416 L 161.13831191812122 184.4385279189622 L 160.26584851853832 185.74426167049268 L 159.29362794304 186.9775175912469 L 158.22764425477033 188.13069224837417 L 157.07446959764306 189.19667593664383 L 155.84121367688883 190.16889651214217 L 154.53547992535835 191.04135991172507 L 153.1653186258303 191.8086871084106 L 151.73917727834117 192.46614727486894 L 150.26584851853832 193.0096869505463 L 148.75441590815748 193.43595503259675 L 147.21419793184398 193.74232343654597 L 145.65469054559628 193.9269032993058 L 144.08550863103937 193.98855662464322 L 142.51632671648247 193.9269032993058 L 140.95681933023477 193.74232343654597 L 139.41660135392127 193.43595503259675 L 137.90516874354043 193.0096869505463 L 136.43183998373758 192.46614727486894 L 135.00569863624844 191.8086871084106 L 133.6355373367204 191.04135991172507 L 132.32980358518992 190.16889651214217 L 131.09654766443572 189.19667593664383 L 129.94337300730842 188.13069224837417 L 128.87738931903874 186.9775175912469 L 127.90516874354043 185.74426167049268 L 127.03270534395753 184.4385279189622 L 126.26537814727202 183.06836661943416 L 125.60791798081364 181.64222527194502 L 125.0643783051363 180.16889651214217 L 124.63811022308585 178.65746390176133 L 124.33174181913662 177.11724592544783 L 124.14716195637682 175.55773853920013 L 124.08550863103937 173.98855662464322 L 124.14716195637682 172.41937471008632 L 124.33174181913662 170.8598673238386 L 124.63811022308585 169.31964934752511 L 125.0643783051363 167.80821673714428 L 125.60791798081364 166.33488797734142 L 126.26537814727202 164.9087466298523 L 127.03270534395753 163.53858533032425 L 127.90516874354043 162.23285157879377 L 128.87738931903874 160.99959565803954 L 129.94337300730842 159.84642100091227 L 131.0965476644357 158.78043731264262 L 132.32980358518992 157.80821673714428 L 133.6355373367204 156.93575333756138 L 135.00569863624844 156.16842614087585 L 136.4318399837376 155.51096597441747 L 137.90516874354046 154.96742629874015 L 139.4166013539213 154.54115821668967 L 140.9568193302348 154.23478981274047 L 142.51632671648252 154.05020994998065 L 144.08550863103943 153.98855662464322 L 145.65469054559634 154.05020994998068 L 147.21419793184407 154.23478981274047 L 148.75441590815757 154.54115821668972 L 150.26584851853843 154.96742629874018 L 151.7391772783413 155.51096597441753 L 153.16531862583042 156.1684261408759 L 154.53547992535846 156.93575333756144 L 155.84121367688894 157.80821673714436 L 157.07446959764314 158.7804373126427 L 158.22764425477044 159.8464210009124 L 159.2936279430401 160.99959565803968 L 160.26584851853843 162.2328515787939 L 161.1383119181213 163.5385853303244 L 161.90563911480683 164.90874662985246 L 162.56309928126518 166.33488797734162 L 163.1066389569425 167.80821673714448 L 163.53290703899296 169.3196493475253 L 163.83927544294215 170.85986732383884 L 164.02385530570194 172.41937471008657 Z"/><text fill="rgb(0,0,0)" stroke="none" font-family="Helvetica Neue, Helvetica, sans-serif" font-size="16px" font-style="normal" font-weight="normal" text-decoration="normal" x="144.08550863103937" y="181.98855662464322" text-anchor="middle" dominant-baseline="text-after-edge" fill-opacity="1">Powerline</text><path fill="url(#OukATfrAFuJE)" stroke="none" paint-order="stroke fill markers" d=" M -128.02139494090548 87.58845219181494 L -128.0830482662429 89.15763410637183 L -128.26762812900273 90.71714149261956 L -128.57399653295195 92.25735946893305 L -129.0002646150024 93.76879207931388 L -129.54380429067976 95.24212083911674 L -130.2012644571381 96.66826218660587 L -130.96859165382364 98.03842348613391 L -131.84105505340654 99.3441572376644 L -132.81327562890488 100.57741315841861 L -133.87925931717453 101.73058781554589 L -135.0324339743018 102.79657150381556 L -136.26568989505603 103.76879207931388 L -137.5714236465865 104.64125547889678 L -138.94158494611455 105.4085826755823 L -140.36772629360368 106.06604284204067 L -141.84105505340654 106.60958251771801 L -143.35248766378737 107.03585059976847 L -144.89270564010087 107.3422190037177 L -146.45221302634857 107.52679886647749 L -148.02139494090548 107.58845219181494 L -149.5905768554624 107.52679886647749 L -151.1500842417101 107.3422190037177 L -152.6903022180236 107.03585059976847 L -154.20173482840443 106.60958251771801 L -155.67506358820728 106.06604284204067 L -157.10120493569642 105.4085826755823 L -158.47136623522445 104.64125547889678 L -159.77709998675493 103.76879207931388 L -161.01035590750917 102.79657150381556 L -162.16353056463643 101.73058781554589 L -163.22951425290609 100.57741315841861 L -164.20173482840443 99.3441572376644 L -165.07419822798732 98.03842348613392 L -165.84152542467285 96.66826218660587 L -166.4989855911312 95.24212083911674 L -167.04252526680855 93.76879207931388 L -167.468793348859 92.25735946893305 L -167.77516175280823 90.71714149261956 L -167.95974161556805 89.15763410637184 L -168.02139494090548 87.58845219181494 L -167.95974161556805 86.01927027725804 L -167.77516175280823 84.45976289101033 L -167.468793348859 82.91954491469683 L -167.04252526680855 81.40811230431599 L -166.4989855911312 79.93478354451314 L -165.84152542467285 78.508642197024 L -165.07419822798732 77.13848089749597 L -164.20173482840443 75.83274714596547 L -163.2295142529061 74.59949122521127 L -162.16353056463643 73.44631656808399 L -161.01035590750917 72.38033287981432 L -159.77709998675493 71.40811230431599 L -158.47136623522445 70.5356489047331 L -157.10120493569642 69.76832170804758 L -155.67506358820725 69.1108615415892 L -154.2017348284044 68.56732186591185 L -152.69030221802356 68.1410537838614 L -151.15008424171006 67.83468537991217 L -149.59057685546233 67.65010551715237 L -148.02139494090542 67.58845219181494 L -146.45221302634852 67.65010551715238 L -144.8927056401008 67.8346853799122 L -143.3524876637873 68.14105378386142 L -141.84105505340642 68.5673218659119 L -140.3677262936036 69.11086154158924 L -138.94158494611443 69.76832170804764 L -137.5714236465864 70.53564890473316 L -136.2656898950559 71.40811230431606 L -135.03243397430168 72.38033287981442 L -133.87925931717442 73.4463165680841 L -132.81327562890476 74.59949122521138 L -131.84105505340642 75.83274714596561 L -130.96859165382355 77.13848089749611 L -130.20126445713805 78.50864219702417 L -129.54380429067967 79.93478354451332 L -129.00026461500235 81.40811230431619 L -128.5739965329519 82.91954491469704 L -128.26762812900267 84.45976289101054 L -128.0830482662429 86.01927027725827 Z"/><text fill="rgb(0,0,0)" stroke="none" font-family="Helvetica Neue, Helvetica, sans-serif" font-size="16px" font-style="normal" font-weight="normal" text-decoration="normal" x="-148.02139494090548" y="95.58845219181494" text-anchor="middle" dominant-baseline="text-after-edge" fill-opacity="1">Hard Coal Supply Line</text><path fill="url(#tvZBzvTLLQeo)" stroke="none" paint-order="stroke fill markers" d=" M 476.11250584031916 90.9127749107545 L 476.0508525149817 92.48195682531139 L 475.86627265222194 94.04146421155912 L 475.5599042482727 95.5816821878726 L 475.13363616622223 97.09311479825344 L 474.5900964905449 98.56644355805629 L 473.9326363240865 99.99258490554543 L 473.16530912740103 101.36274620507346 L 472.29284572781813 102.66847995660396 L 471.3206251523198 103.90173587735816 L 470.2546414640501 105.05491053448544 L 469.1014668069228 106.12089422275511 L 467.86821088616864 107.09311479825344 L 466.56247713463813 107.96557819783634 L 465.1923158351101 108.73290539452185 L 463.76617448762096 109.39036556098023 L 462.29284572781813 109.93390523665757 L 460.7814131174373 110.36017331870802 L 459.2411951411238 110.66654172265726 L 457.68168775487607 110.85112158541705 L 456.11250584031916 110.9127749107545 L 454.54332392576225 110.85112158541705 L 452.9838165395145 110.66654172265726 L 451.4435985632011 110.36017331870802 L 449.9321659528202 109.93390523665757 L 448.45883719301736 109.39036556098023 L 447.0326958455282 108.73290539452185 L 445.6625345460002 107.96557819783634 L 444.3568007944697 107.09311479825344 L 443.1235448737155 106.12089422275511 L 441.9703702165882 105.05491053448544 L 440.9043865283185 103.90173587735816 L 439.93216595282024 102.66847995660396 L 439.05970255323734 101.36274620507348 L 438.2923753565518 99.99258490554543 L 437.6349151900934 98.56644355805629 L 437.0913755144161 97.09311479825344 L 436.66510743236563 95.5816821878726 L 436.3587390284164 94.04146421155912 L 436.1741591656566 92.4819568253114 L 436.11250584031916 90.9127749107545 L 436.1741591656566 89.3435929961976 L 436.3587390284164 87.78408560994988 L 436.66510743236563 86.24386763363638 L 437.0913755144161 84.73243502325555 L 437.6349151900934 83.2591062634527 L 438.2923753565518 81.83296491596356 L 439.0597025532373 80.46280361643552 L 439.9321659528202 79.15706986490503 L 440.9043865283185 77.92381394415082 L 441.9703702165882 76.77063928702354 L 443.1235448737155 75.70465559875387 L 444.3568007944697 74.73243502325555 L 445.6625345460002 73.85997162367265 L 447.0326958455282 73.09264442698714 L 448.45883719301736 72.43518426052876 L 449.93216595282024 71.8916445848514 L 451.4435985632011 71.46537650280095 L 452.9838165395146 71.15900809885173 L 454.5433239257623 70.97442823609192 L 456.1125058403192 70.9127749107545 L 457.6816877548761 70.97442823609194 L 459.24119514112385 71.15900809885176 L 460.78141311743735 71.46537650280098 L 462.2928457278182 71.89164458485145 L 463.7661744876211 72.4351842605288 L 465.1923158351102 73.09264442698719 L 466.56247713463824 73.85997162367272 L 467.86821088616875 74.73243502325562 L 469.10146680692293 75.70465559875397 L 470.2546414640502 76.77063928702366 L 471.3206251523199 77.92381394415094 L 472.2928457278182 79.15706986490517 L 473.1653091274011 80.46280361643566 L 473.9326363240866 81.83296491596373 L 474.59009649054497 83.25910626345288 L 475.1336361662223 84.73243502325575 L 475.55990424827274 86.2438676336366 L 475.86627265222194 87.7840856099501 L 476.0508525149817 89.34359299619783 Z"/><text fill="rgb(0,0,0)" stroke="none" font-family="Helvetica Neue, Helvetica, sans-serif" font-size="16px" font-style="normal" font-weight="normal" text-decoration="normal" x="456.11250584031916" y="98.9127749107545" text-anchor="middle" dominant-baseline="text-after-edge" fill-opacity="1">Biogas Line</text><path fill="url(#yJrKnwBMKtzW)" stroke="none" paint-order="stroke fill markers" d=" M 20.11618102777284 295.35741876570603 L 20.0545277024354 296.92660068026294 L 19.869947839675596 298.48610806651067 L 19.563579435726375 300.0263260428241 L 19.137311353675912 301.537758653205 L 18.593771677998575 303.01108741300783 L 17.936311511540197 304.43722876049696 L 17.16898431485469 305.807390060025 L 16.296520915271792 307.1131238115555 L 15.32430033977346 308.3463797323097 L 14.258316651503792 309.499554389437 L 13.105141994376515 310.56553807770666 L 11.871886073622305 311.537758653205 L 10.566152322091819 312.41022205278784 L 9.195991022563778 313.1775492494734 L 7.769849675074638 313.8350094159318 L 6.29652091527179 314.3785490916091 L 4.785088304890951 314.80481717365956 L 3.2448703285774596 315.1111855776088 L 1.685362942329741 315.2957654403686 L 0.11618102777284223 315.35741876570603 L -1.4530008867840565 315.2957654403686 L -3.0125082730317754 315.1111855776088 L -4.552726249345266 314.80481717365956 L -6.064158859726106 314.3785490916091 L -7.537487619528953 313.8350094159318 L -8.963628967018094 313.1775492494734 L -10.333790266546135 312.4102220527879 L -11.639524018076619 311.537758653205 L -12.87277993883083 310.56553807770666 L -14.025954595958108 309.499554389437 L -15.091938284227778 308.3463797323097 L -16.064158859726106 307.1131238115555 L -16.936622259309004 305.807390060025 L -17.70394945599452 304.43722876049696 L -18.361409622452896 303.01108741300783 L -18.904949298130227 301.537758653205 L -19.33121738018069 300.02632604282417 L -19.63758578412991 298.48610806651067 L -19.822165646889715 296.92660068026294 L -19.88381897222716 295.35741876570603 L -19.822165646889715 293.7882368511491 L -19.637585784129918 292.2287294649014 L -19.33121738018069 290.68851148858795 L -18.904949298130234 289.1770788782071 L -18.361409622452896 287.70375011840423 L -17.70394945599452 286.2776087709151 L -16.936622259309004 284.90744747138706 L -16.064158859726106 283.60171371985655 L -15.09193828422778 282.3684577991024 L -14.025954595958114 281.2152831419751 L -12.87277993883084 280.1492994537054 L -11.639524018076624 279.1770788782071 L -10.33379026654613 278.30461547862416 L -8.963628967018082 277.5372882819387 L -7.537487619528933 276.8798281154803 L -6.064158859726077 276.33628843980296 L -4.552726249345227 275.9100203577525 L -3.012508273031727 275.60365195380325 L -1.4530008867839996 275.41907209104346 L 0.11618102777290838 275.35741876570603 L 1.685362942329816 275.41907209104346 L 3.244870328577542 275.6036519538033 L 4.78508830489104 275.9100203577525 L 6.296520915271887 276.336288439803 L 7.76984967507474 276.87982811548034 L 9.195991022563884 277.53728828193874 L 10.566152322091929 278.30461547862427 L 11.871886073622415 279.17707887820717 L 13.105141994376625 280.1492994537055 L 14.258316651503902 281.2152831419752 L 15.324300339773567 282.3684577991025 L 16.29652091527189 283.6017137198567 L 17.168984314854782 284.90744747138723 L 17.936311511540282 286.27760877091526 L 18.593771677998653 287.7037501184044 L 19.137311353675976 289.1770788782073 L 19.563579435726425 290.6885114885881 L 19.869947839675632 292.2287294649016 L 20.054527702435415 293.78823685114935 Z"/><text fill="rgb(0,0,0)" stroke="none" font-family="Helvetica Neue, Helvetica, sans-serif" font-size="16px" font-style="normal" font-weight="normal" text-decoration="normal" x="0.116181027772841" y="303.35741876570603" text-anchor="middle" dominant-baseline="text-after-edge" fill-opacity="1">Heatline</text><path fill="url(#mCbPsRUNLXPw)" stroke="rgb(255,119,0)" paint-order="fill stroke markers" d=" M 72.15636820811086 66.40279383478344 L 72.11629354664153 67.42276207924542 L 71.99631663584765 68.43644188030643 L 71.79717717328066 69.43758356491021 L 71.52010291994786 70.42001476165775 L 71.16680213075759 71.3776784555296 L 70.73945302255964 72.30467033139755 L 70.24069034471407 73.19527517609077 L 69.67358913498518 74.0440021145856 L 69.04164576091127 74.84561846307582 L 68.34875636353598 75.59518199020856 L 67.59919283640325 76.28807138758384 L 66.79757648791302 76.92001476165775 L 65.9488495494182 77.48711597138663 L 65.05824470472497 77.98587864923222 L 64.13125282885703 78.41322775743016 L 63.17358913498518 78.76652854662044 L 62.19115793823763 79.04360279995323 L 61.190016253633864 79.24274226252022 L 60.17633645257285 79.3627191733141 L 59.15636820811086 79.40279383478344 L 58.13639996364888 79.3627191733141 L 57.12272016258786 79.24274226252022 L 56.121578477984094 79.04360279995323 L 55.139147281236546 78.76652854662044 L 54.181483587364696 78.41322775743016 L 53.254491711496755 77.98587864923222 L 52.363886866803526 77.48711597138664 L 51.51515992830871 76.92001476165775 L 50.71354357981848 76.28807138758384 L 49.96398005268574 75.59518199020856 L 49.27109065531046 74.84561846307582 L 48.639147281236546 74.0440021145856 L 48.072046071507664 73.19527517609077 L 47.57328339366208 72.30467033139755 L 47.145934285464136 71.3776784555296 L 46.792633496273865 70.42001476165775 L 46.515559242941066 69.43758356491021 L 46.316419780374076 68.43644188030645 L 46.196442869580196 67.42276207924543 L 46.15636820811086 66.40279383478344 L 46.196442869580196 65.38282559032146 L 46.31641978037407 64.36914578926044 L 46.515559242941066 63.36800410465667 L 46.792633496273865 62.38557290790912 L 47.145934285464136 61.42790921403727 L 47.57328339366208 60.50091733816933 L 48.072046071507664 59.6103124934761 L 48.639147281236546 58.76158555498129 L 49.27109065531046 57.95996920649105 L 49.96398005268574 57.21040567935832 L 50.71354357981847 56.51751628198304 L 51.51515992830871 55.88557290790912 L 52.36388686680353 55.31847169818023 L 53.25449171149676 54.81970902033465 L 54.18148358736471 54.392359912136705 L 55.13914728123657 54.03905912294643 L 56.121578477984116 53.761984869613634 L 57.122720162587896 53.562845407046645 L 58.13639996364891 53.44286849625277 L 59.156368208110905 53.40279383478344 L 60.1763364525729 53.44286849625278 L 61.19001625363392 53.56284540704665 L 62.191157938237694 53.761984869613656 L 63.17358913498524 54.03905912294646 L 64.1312528288571 54.39235991213674 L 65.05824470472504 54.81970902033469 L 65.94884954941827 55.31847169818028 L 66.79757648791309 55.88557290790918 L 67.59919283640332 56.5175162819831 L 68.34875636353605 57.21040567935839 L 69.04164576091134 57.95996920649113 L 69.67358913498525 58.76158555498138 L 70.24069034471412 59.6103124934762 L 70.7394530225597 60.500917338169444 L 71.16680213075765 61.42790921403739 L 71.5201029199479 62.38557290790925 L 71.79717717328069 63.368004104656805 L 71.99631663584768 64.36914578926059 L 72.11629354664154 65.3828255903216 Z" stroke-opacity="1" stroke-miterlimit="10" stroke-width="0.5"/><text fill="rgb(0,0,0)" stroke="none" font-family="Helvetica Neue, Helvetica, sans-serif" font-size="16px" font-style="normal" font-weight="normal" text-decoration="normal" x="59.15636820811086" y="74.40279383478344" text-anchor="middle" dominant-baseline="text-after-edge" fill-opacity="1">Solar Panel</text><path fill="url(#aTWBPMUTOTvR)" stroke="rgb(153,204,255)" paint-order="fill stroke markers" d=" M 312.59803435795044 74.5184807613398 L 312.4593143759412 78.04914006909283 L 312.04400968473163 81.5580316881502 L 311.3546807758459 85.02352213485554 L 310.3955775912323 88.42424550821244 L 309.17261332095836 91.73923521776885 L 307.693327946427 94.9480532496194 L 305.9668417538846 98.0309161735575 L 304.0037991048231 100.96881711450109 L 301.8163028099518 103.74364293619807 L 299.41783951134505 106.33828591473444 L 296.8231965328087 108.7367492133412 L 294.0483707111117 110.92424550821244 L 291.11046977016815 112.88728815727396 L 288.02760684623007 114.61377434981635 L 284.8187888143795 116.09305972434771 L 281.5037991048231 117.3160239946217 L 278.10307573146616 118.27512717923526 L 274.6375852847608 118.96445608812101 L 271.12869366570345 119.37976077933055 L 267.59803435795044 119.5184807613398 L 264.0673750501974 119.37976077933055 L 260.5584834311401 118.96445608812101 L 257.0929929844347 118.27512717923526 L 253.69226961107782 117.31602399462172 L 250.3772799015214 116.09305972434771 L 247.16846186967084 114.61377434981637 L 244.08559894573276 112.88728815727396 L 241.14769800478916 110.92424550821244 L 238.37287218309217 108.7367492133412 L 235.7782292045558 106.33828591473444 L 233.37976590594906 103.74364293619807 L 231.19226961107782 100.96881711450109 L 229.2292269620163 98.0309161735575 L 227.5027407694739 94.9480532496194 L 226.02345539494254 91.73923521776885 L 224.80049112466853 88.42424550821244 L 223.841387940055 85.02352213485555 L 223.15205903116924 81.5580316881502 L 222.73675433995967 78.04914006909283 L 222.59803435795044 74.5184807613398 L 222.73675433995967 70.98782145358679 L 223.15205903116924 67.47892983452942 L 223.84138794005497 64.01343938782406 L 224.80049112466853 60.612716014467175 L 226.02345539494252 57.29772630491077 L 227.5027407694739 54.0889082730602 L 229.2292269620163 51.00604534912211 L 231.1922696110778 48.06814440817851 L 233.37976590594906 45.29331858648155 L 235.7782292045558 42.69867560794516 L 238.37287218309217 40.30021230933843 L 241.14769800478913 38.112716014467175 L 244.08559894573276 36.14967336540565 L 247.16846186967086 34.42318717286323 L 250.37727990152143 32.94390179833188 L 253.69226961107788 31.720937528057867 L 257.0929929844348 30.761834343444335 L 260.5584834311402 30.072505434558586 L 264.06737505019754 29.657200743349037 L 267.5980343579506 29.518480761339802 L 271.1286936657036 29.65720074334906 L 274.63758528476103 30.072505434558636 L 278.1030757314664 30.7618343434444 L 281.5037991048233 31.720937528057966 L 284.81878881437973 32.94390179833199 L 288.0276068462303 34.42318717286337 L 291.1104697701684 36.1496733654058 L 294.048370711112 38.11271601446735 L 296.82319653280894 40.300212309338626 L 299.41783951134533 42.69867560794541 L 301.81630280995205 45.29331858648182 L 304.0037991048233 48.068144408178824 L 305.9668417538848 51.00604534912245 L 307.6933279464272 54.08890827306058 L 309.17261332095853 57.29772630491118 L 310.3955775912325 60.612716014467615 L 311.354680775846 64.01343938782453 L 312.0440096847317 67.47892983452992 L 312.45931437594123 70.9878214535873 Z" stroke-opacity="1" stroke-miterlimit="10" stroke-width="0.5"/><text fill="rgb(0,0,0)" stroke="none" font-family="Helvetica Neue, Helvetica, sans-serif" font-size="16px" font-style="normal" font-weight="normal" text-decoration="normal" x="267.59803435795044" y="82.5184807613398" text-anchor="middle" dominant-baseline="text-after-edge" fill-opacity="1">Onshore Wind Turbine</text><path fill="url(#yMANrGvSDobs)" stroke="rgb(0,204,255)" paint-order="fill stroke markers" d=" M 180.51030788654552 13.897175963997348 L 180.48872922267742 14.446389634092263 L 180.4241262707115 14.992217219278965 L 180.31689732932927 15.531293510988686 L 180.1677035006116 16.06029492462198 L 179.97746461412453 16.575959990552978 L 179.7473535558641 17.075109462174176 L 179.47878903702417 17.55466591700899 L 179.17342684717016 18.01167273004466 L 178.83314964574575 18.443312302308634 L 178.46005535485136 18.846923432303182 L 178.05644422485682 19.220017723197564 L 177.62480465259284 19.56029492462198 L 177.16779783955715 19.865657114475994 L 176.68824138472235 20.134221633315924 L 176.18909191310115 20.364332691576355 L 175.67342684717016 20.554571578063424 L 175.14442543353687 20.703765406781084 L 174.60534914182713 20.810994348163312 L 174.05952155664045 20.875597300129243 L 173.51030788654552 20.89717596399735 L 172.96109421645062 20.875597300129243 L 172.4152666312639 20.810994348163312 L 171.87619033955417 20.703765406781084 L 171.34718892592088 20.554571578063424 L 170.8315238599899 20.364332691576355 L 170.3323743883687 20.134221633315924 L 169.85281793353388 19.865657114475994 L 169.3958111204982 19.56029492462198 L 168.96417154823425 19.220017723197564 L 168.56056041823967 18.846923432303182 L 168.1874661273453 18.443312302308634 L 167.84718892592088 18.011672730044662 L 167.54182673606687 17.55466591700899 L 167.27326221722694 17.075109462174176 L 167.0431511589665 16.575959990552978 L 166.85291227247944 16.06029492462198 L 166.70371844376177 15.531293510988688 L 166.59648950237954 14.992217219278965 L 166.53188655041362 14.446389634092263 L 166.51030788654552 13.897175963997348 L 166.53188655041362 13.347962293902434 L 166.59648950237954 12.802134708715734 L 166.70371844376177 12.263058417006011 L 166.85291227247944 11.734057003372717 L 167.0431511589665 11.218391937441721 L 167.27326221722694 10.719242465820521 L 167.54182673606687 10.239686010985707 L 167.84718892592088 9.782679197950038 L 168.1874661273453 9.351039625686063 L 168.56056041823967 8.947428495691517 L 168.96417154823422 8.574334204797134 L 169.3958111204982 8.234057003372717 L 169.85281793353388 7.928694813518701 L 170.3323743883687 7.660130294678771 L 170.8315238599899 7.430019236418338 L 171.3471889259209 7.239780349931269 L 171.8761903395542 7.090586521213608 L 172.41526663126393 6.983357579831382 L 172.96109421645062 6.918754627865451 L 173.51030788654555 6.8971759639973484 L 174.05952155664045 6.9187546278654555 L 174.60534914182716 6.983357579831389 L 175.1444254335369 7.09058652121362 L 175.6734268471702 7.2397803499312845 L 176.18909191310118 7.430019236418356 L 176.68824138472237 7.660130294678792 L 177.1677978395572 7.928694813518726 L 177.62480465259287 8.234057003372744 L 178.05644422485685 8.574334204797164 L 178.4600553548514 8.947428495691554 L 178.83314964574578 9.351039625686106 L 179.1734268471702 9.782679197950085 L 179.4787890370242 10.23968601098576 L 179.74735355586412 10.71924246582058 L 179.97746461412456 11.218391937441785 L 180.16770350061162 11.734057003372786 L 180.31689732932927 12.263058417006084 L 180.4241262707115 12.80213470871581 L 180.48872922267742 13.347962293902516 Z" stroke-opacity="1" stroke-miterlimit="10" stroke-width="0.5"/><text fill="rgb(0,0,0)" stroke="none" font-family="Helvetica Neue, Helvetica, sans-serif" font-size="16px" font-style="normal" font-weight="normal" text-decoration="normal" x="173.51030788654552" y="21.89717596399735" text-anchor="middle" dominant-baseline="text-after-edge" fill-opacity="1">Offshore Wind Turbine</text><path fill="url(#hcErqHOoisnx)" stroke="rgb(102,102,102)" paint-order="fill stroke markers" d=" M -146.12242902182504 15.27734122872883 L -146.1239703549585 15.316570776592751 L -146.12858485152748 15.355558461248945 L -146.1362440616262 15.394063910656783 L -146.14690076367748 15.431849725916303 L -146.1604892555694 15.468682944911375 L -146.17692575973086 15.504336478598603 L -146.19610893964798 15.538590511086804 L -146.21792052463758 15.571233854875066 L -146.242226039025 15.60206525289392 L -146.26887563123177 15.630894619322103 L -146.29770499765996 15.657544211528846 L -146.3285363956788 15.681849725916303 L -146.36117973946708 15.703661310905876 L -146.39543377195525 15.722844490823013 L -146.4310873056425 15.739280994984473 L -146.46792052463758 15.752869486876406 L -146.5057063398971 15.763526188927667 L -146.54421178930494 15.771185399026399 L -146.58319947396112 15.775799895595393 L -146.62242902182504 15.77734122872883 L -146.66165856968897 15.775799895595393 L -146.70064625434514 15.771185399026399 L -146.73915170375298 15.763526188927667 L -146.7769375190125 15.752869486876406 L -146.81377073800758 15.739280994984473 L -146.84942427169483 15.722844490823013 L -146.883678304183 15.703661310905876 L -146.91632164797127 15.681849725916303 L -146.94715304599012 15.657544211528846 L -146.97598241241832 15.630894619322103 L -147.00263200462507 15.60206525289392 L -147.0269375190125 15.571233854875066 L -147.0487491040021 15.538590511086804 L -147.06793228391922 15.504336478598603 L -147.0843687880807 15.468682944911375 L -147.0979572799726 15.431849725916303 L -147.10861398202388 15.394063910656783 L -147.1162731921226 15.355558461248945 L -147.1208876886916 15.316570776592751 L -147.12242902182504 15.27734122872883 L -147.1208876886916 15.238111680864908 L -147.1162731921226 15.199123996208714 L -147.10861398202388 15.160618546800876 L -147.0979572799726 15.122832731541356 L -147.0843687880807 15.085999512546284 L -147.06793228391922 15.050345978859056 L -147.0487491040021 15.016091946370855 L -147.0269375190125 14.983448602582593 L -147.00263200462507 14.952617204563738 L -146.97598241241832 14.923787838135556 L -146.94715304599012 14.897138245928815 L -146.91632164797127 14.872832731541356 L -146.883678304183 14.851021146551783 L -146.8494242716948 14.831837966634644 L -146.81377073800758 14.815401462473186 L -146.7769375190125 14.801812970581253 L -146.73915170375298 14.79115626852999 L -146.70064625434514 14.78349705843126 L -146.66165856968897 14.778882561862265 L -146.62242902182504 14.77734122872883 L -146.58319947396112 14.778882561862266 L -146.5442117893049 14.78349705843126 L -146.50570633989707 14.791156268529992 L -146.46792052463758 14.801812970581253 L -146.4310873056425 14.815401462473186 L -146.39543377195525 14.831837966634646 L -146.36117973946708 14.851021146551785 L -146.3285363956788 14.872832731541358 L -146.29770499765993 14.897138245928817 L -146.26887563123177 14.923787838135558 L -146.242226039025 14.95261720456374 L -146.21792052463758 14.983448602582596 L -146.19610893964798 15.016091946370858 L -146.17692575973086 15.05034597885906 L -146.1604892555694 15.08599951254629 L -146.14690076367745 15.122832731541362 L -146.1362440616262 15.160618546800881 L -146.12858485152748 15.19912399620872 L -146.1239703549585 15.238111680864913 Z" stroke-opacity="1" stroke-miterlimit="10" stroke-width="0.5"/><text fill="rgb(0,0,0)" stroke="none" font-family="Helvetica Neue, Helvetica, sans-serif" font-size="16px" font-style="normal" font-weight="normal" text-decoration="normal" x="-146.62242902182504" y="23.27734122872883" text-anchor="middle" dominant-baseline="text-after-edge" fill-opacity="1">Hard Coal Supply</text><path fill="url(#zewkBCautenG)" stroke="rgb(0,102,0)" paint-order="fill stroke markers" d=" M 459.8964647172641 12.261297186718716 L 459.8841340521966 12.575133569630095 L 459.8472180796447 12.887035046879639 L 459.78594439885484 13.195078642142338 L 459.7006907824447 13.497365164218506 L 459.5919828473093 13.792030916179074 L 459.4604908140176 14.077259185676903 L 459.3070253746805 14.351291445582511 L 459.1325326947639 14.612438195888608 L 458.9380885796642 14.85908938003945 L 458.7248918420103 15.089724311464906 L 458.49425691058485 15.30292104911884 L 458.247605726434 15.497365164218506 L 457.9864589761279 15.671857844135085 L 457.7124267162223 15.825323283472187 L 457.42719844672445 15.956815316763862 L 457.1325326947639 16.06552325189933 L 456.83024617268774 16.15077686830942 L 456.52220257742505 16.212050549099267 L 456.2103011001755 16.248966521651226 L 455.8964647172641 16.261297186718714 L 455.5826283343527 16.248966521651226 L 455.27072685710317 16.212050549099267 L 454.9626832618405 16.15077686830942 L 454.66039673976434 16.06552325189933 L 454.3657309878038 15.956815316763862 L 454.0805027183059 15.825323283472187 L 453.8064704584003 15.671857844135085 L 453.5453237080942 15.497365164218506 L 453.29867252394337 15.30292104911884 L 453.0680375925179 15.089724311464906 L 452.854840854864 14.859089380039451 L 452.66039673976434 14.61243819588861 L 452.4859040598477 14.351291445582511 L 452.33243862051063 14.077259185676903 L 452.20094658721894 13.792030916179076 L 452.0922386520835 13.497365164218506 L 452.0069850356734 13.195078642142338 L 451.94571135488354 12.88703504687964 L 451.9087953823316 12.575133569630097 L 451.8964647172641 12.261297186718716 L 451.9087953823316 11.947460803807337 L 451.94571135488354 11.635559326557793 L 452.0069850356734 11.327515731295096 L 452.0922386520835 11.025229209218926 L 452.20094658721894 10.730563457258357 L 452.33243862051063 10.445335187760529 L 452.4859040598477 10.17130292785492 L 452.66039673976434 9.910156177548824 L 452.854840854864 9.663504993397982 L 453.0680375925179 9.432870061972526 L 453.29867252394337 9.219673324318594 L 453.5453237080942 9.025229209218926 L 453.8064704584003 8.850736529302345 L 454.0805027183059 8.697271089965243 L 454.3657309878038 8.565779056673566 L 454.66039673976434 8.4570711215381 L 454.9626832618405 8.371817505128007 L 455.27072685710317 8.310543824338163 L 455.58262833435276 8.273627851786204 L 455.8964647172641 8.261297186718716 L 456.2103011001755 8.273627851786205 L 456.52220257742505 8.310543824338168 L 456.83024617268774 8.371817505128014 L 457.13253269476394 8.457071121538108 L 457.4271984467245 8.565779056673577 L 457.7124267162223 8.697271089965255 L 457.98645897612795 8.85073652930236 L 458.247605726434 9.025229209218942 L 458.49425691058485 9.219673324318611 L 458.7248918420103 9.432870061972547 L 458.9380885796643 9.663504993398007 L 459.13253269476394 9.910156177548851 L 459.3070253746805 10.171302927854951 L 459.4604908140176 10.445335187760563 L 459.5919828473093 10.730563457258393 L 459.7006907824447 11.025229209218965 L 459.78594439885484 11.327515731295136 L 459.8472180796447 11.635559326557837 L 459.8841340521966 11.947460803807383 Z" stroke-opacity="1" stroke-miterlimit="10" stroke-width="0.5"/><text fill="rgb(0,0,0)" stroke="none" font-family="Helvetica Neue, Helvetica, sans-serif" font-size="16px" font-style="normal" font-weight="normal" text-decoration="normal" x="455.8964647172641" y="20.261297186718714" text-anchor="middle" dominant-baseline="text-after-edge" fill-opacity="1">Biogas Supply</text><path fill="url(#ZAobWSxyRHZP)" stroke="rgb(51,102,102)" paint-order="fill stroke markers" d=" M -7.499779983160268 172.18247530429235 L -7.505945315694012 172.33939349574806 L -7.5244033019699925 172.49534423437282 L -7.5550401423649145 172.64936603200417 L -7.597666950569961 172.80050929304224 L -7.652020918137694 172.94784216902252 L -7.7177669347835325 173.09045630377145 L -7.794499654452084 173.22747243372424 L -7.881745994410373 173.3580458088773 L -7.978968051960206 173.48137140095272 L -8.085566420787172 173.59668886666546 L -8.2008838864999 173.7032872354924 L -8.324209478575321 173.80050929304224 L -8.45478285372837 173.88775563300055 L -8.591798983681175 173.9644883526691 L -8.734413118430089 174.03023436931494 L -8.881745994410373 174.08458833688266 L -9.032889255448458 174.12721514508772 L -9.186911053079806 174.15785198548264 L -9.342861791704578 174.1763099717586 L -9.499779983160268 174.18247530429235 L -9.656698174615958 174.1763099717586 L -9.81264891324073 174.15785198548264 L -9.966670710872078 174.12721514508772 L -10.117813971910163 174.08458833688266 L -10.265146847890447 174.03023436931494 L -10.407760982639362 173.9644883526691 L -10.544777112592165 173.88775563300055 L -10.675350487745215 173.80050929304224 L -10.798676079820636 173.7032872354924 L -10.913993545533362 173.59668886666546 L -11.02059191436033 173.48137140095272 L -11.117813971910163 173.3580458088773 L -11.205060311868452 173.22747243372424 L -11.281793031537003 173.09045630377145 L -11.347539048182842 172.94784216902252 L -11.401893015750575 172.80050929304224 L -11.444519823955622 172.64936603200417 L -11.475156664350543 172.49534423437282 L -11.493614650626524 172.33939349574806 L -11.499779983160268 172.18247530429235 L -11.493614650626524 172.02555711283665 L -11.475156664350543 171.86960637421188 L -11.444519823955622 171.71558457658054 L -11.401893015750575 171.56444131554247 L -11.347539048182842 171.41710843956218 L -11.281793031537005 171.27449430481326 L -11.205060311868452 171.13747817486046 L -11.117813971910163 171.0069047997074 L -11.020591914360331 170.88357920763198 L -10.913993545533364 170.76826174191925 L -10.798676079820636 170.6616633730923 L -10.675350487745215 170.56444131554247 L -10.544777112592165 170.47719497558415 L -10.40776098263936 170.4004622559156 L -10.265146847890446 170.33471623926977 L -10.11781397191016 170.28036227170205 L -9.966670710872075 170.237735463497 L -9.812648913240725 170.20709862310207 L -9.656698174615952 170.1886406368261 L -9.499779983160261 170.18247530429235 L -9.342861791704571 170.1886406368261 L -9.186911053079799 170.20709862310207 L -9.032889255448449 170.237735463497 L -8.881745994410364 170.28036227170205 L -8.734413118430078 170.3347162392698 L -8.591798983681164 170.4004622559156 L -8.454782853728359 170.47719497558418 L -8.32420947857531 170.56444131554247 L -8.20088388649989 170.6616633730923 L -8.085566420787162 170.76826174191928 L -7.978968051960195 170.883579207632 L -7.8817459944103625 171.00690479970743 L -7.794499654452074 171.13747817486046 L -7.717766934783524 171.2744943048133 L -7.652020918137687 171.41710843956218 L -7.597666950569955 171.56444131554247 L -7.55504014236491 171.71558457658057 L -7.524403301969989 171.8696063742119 L -7.50594531569401 172.02555711283668 Z" stroke-opacity="1" stroke-miterlimit="10" stroke-width="0.5"/><text fill="rgb(0,0,0)" stroke="none" font-family="Helvetica Neue, Helvetica, sans-serif" font-size="16px" font-style="normal" font-weight="normal" text-decoration="normal" x="-9.499779983160268" y="180.18247530429235" text-anchor="middle" dominant-baseline="text-after-edge" fill-opacity="1">Combined Cycle PP</text><path fill="url(#byCzmAIhrAPG)" stroke="rgb(102,102,102)" paint-order="fill stroke markers" d=" M -8.820527757458057 118.01742974673354 L -8.826693089991801 118.17434793818923 L -8.845151076267783 118.330298676814 L -8.875787916662704 118.48432047444535 L -8.91841472486775 118.63546373548344 L -8.972768692435483 118.78279661146372 L -9.038514709081321 118.92541074621263 L -9.115247428749873 119.06242687616543 L -9.202493768708162 119.19300025131848 L -9.299715826257996 119.31632584339391 L -9.406314195084962 119.43164330910663 L -9.52163166079769 119.5382416779336 L -9.64495725287311 119.63546373548344 L -9.775530628026159 119.72271007544173 L -9.912546757978964 119.79944279511028 L -10.055160892727878 119.86518881175611 L -10.202493768708162 119.91954277932385 L -10.353637029746247 119.96216958752889 L -10.507658827377595 119.99280642792381 L -10.663609566002368 120.0112644141998 L -10.820527757458057 120.01742974673354 L -10.977445948913747 120.0112644141998 L -11.13339668753852 119.99280642792381 L -11.287418485169868 119.96216958752889 L -11.438561746207952 119.91954277932385 L -11.585894622188237 119.86518881175611 L -11.728508756937151 119.79944279511028 L -11.865524886889954 119.72271007544173 L -11.996098262043004 119.63546373548344 L -12.119423854118425 119.5382416779336 L -12.234741319831151 119.43164330910663 L -12.341339688658119 119.31632584339391 L -12.438561746207952 119.19300025131848 L -12.525808086166242 119.06242687616543 L -12.602540805834792 118.92541074621263 L -12.668286822480631 118.78279661146372 L -12.722640790048365 118.63546373548344 L -12.765267598253411 118.48432047444535 L -12.795904438648332 118.330298676814 L -12.814362424924314 118.17434793818923 L -12.820527757458057 118.01742974673354 L -12.814362424924314 117.86051155527785 L -12.795904438648332 117.70456081665309 L -12.765267598253411 117.55053901902173 L -12.722640790048365 117.39939575798364 L -12.668286822480631 117.25206288200336 L -12.602540805834794 117.10944874725445 L -12.525808086166242 116.97243261730165 L -12.438561746207952 116.8418592421486 L -12.34133968865812 116.71853365007317 L -12.234741319831153 116.60321618436045 L -12.119423854118425 116.49661781553348 L -11.996098262043004 116.39939575798364 L -11.865524886889954 116.31214941802536 L -11.72850875693715 116.2354166983568 L -11.585894622188235 116.16967068171097 L -11.438561746207949 116.11531671414323 L -11.287418485169864 116.07268990593819 L -11.133396687538514 116.04205306554327 L -10.977445948913742 116.02359507926728 L -10.82052775745805 116.01742974673354 L -10.66360956600236 116.02359507926728 L -10.507658827377588 116.04205306554327 L -10.353637029746238 116.07268990593819 L -10.202493768708154 116.11531671414323 L -10.055160892727868 116.16967068171097 L -9.912546757978953 116.23541669835681 L -9.775530628026148 116.31214941802536 L -9.6449572528731 116.39939575798365 L -9.521631660797679 116.49661781553348 L -9.406314195084951 116.60321618436046 L -9.299715826257986 116.71853365007318 L -9.202493768708152 116.84185924214862 L -9.115247428749864 116.97243261730166 L -9.038514709081312 117.10944874725446 L -8.972768692435476 117.25206288200339 L -8.918414724867745 117.39939575798367 L -8.875787916662699 117.55053901902176 L -8.84515107626778 117.7045608166531 L -8.8266930899918 117.86051155527788 Z" stroke-opacity="1" stroke-miterlimit="10" stroke-width="0.5"/><text fill="rgb(0,0,0)" stroke="none" font-family="Helvetica Neue, Helvetica, sans-serif" font-size="16px" font-style="normal" font-weight="normal" text-decoration="normal" x="-10.820527757458057" y="126.01742974673354" text-anchor="middle" dominant-baseline="text-after-edge" fill-opacity="1">Hard Coal PP</text><path fill="url(#GZlhadTuyxRy)" stroke="rgb(153,51,0)" paint-order="fill stroke markers" d=" M 276.26648330616916 135.2949719649488 L 276.26031797363544 135.4518901564045 L 276.2418599873594 135.60784089502926 L 276.2112231469645 135.7618626926606 L 276.16859633875947 135.91300595369867 L 276.1142423711917 136.06033882967895 L 276.0484963545459 136.20295296442788 L 275.97176363487733 136.33996909438068 L 275.8845172949191 136.47054246953374 L 275.7872952373692 136.59386806160916 L 275.68069686854227 136.7091855273219 L 275.56537940282954 136.81578389614884 L 275.4420538107541 136.91300595369867 L 275.3114804356011 137.00025229365696 L 275.17446430564826 137.07698501332553 L 275.03185017089936 137.14273102997137 L 274.8845172949191 137.1970849975391 L 274.733374033881 137.23971180574415 L 274.57935223624963 137.27034864613907 L 274.42340149762487 137.28880663241503 L 274.26648330616916 137.2949719649488 L 274.10956511471346 137.28880663241503 L 273.9536143760887 137.27034864613907 L 273.79959257845735 137.23971180574415 L 273.64844931741925 137.1970849975391 L 273.50111644143897 137.14273102997137 L 273.35850230669007 137.07698501332553 L 273.22148617673724 137.00025229365698 L 273.09091280158424 136.91300595369867 L 272.9675872095088 136.81578389614884 L 272.85226974379606 136.7091855273219 L 272.7456713749691 136.59386806160916 L 272.64844931741925 136.47054246953374 L 272.561202977461 136.33996909438068 L 272.48447025779245 136.20295296442788 L 272.4187242411466 136.06033882967895 L 272.36437027357886 135.91300595369867 L 272.3217434653738 135.7618626926606 L 272.2911066249789 135.60784089502926 L 272.2726486387029 135.4518901564045 L 272.26648330616916 135.2949719649488 L 272.2726486387029 135.13805377349308 L 272.2911066249789 134.98210303486832 L 272.3217434653738 134.82808123723697 L 272.36437027357886 134.6769379761989 L 272.4187242411466 134.52960510021862 L 272.48447025779245 134.3869909654697 L 272.561202977461 134.2499748355169 L 272.64844931741925 134.11940146036383 L 272.7456713749691 133.99607586828841 L 272.85226974379606 133.88075840257568 L 272.9675872095088 133.77416003374873 L 273.09091280158424 133.6769379761989 L 273.22148617673724 133.5896916362406 L 273.35850230669007 133.51295891657205 L 273.50111644143897 133.4472128999262 L 273.64844931741925 133.39285893235848 L 273.79959257845735 133.35023212415342 L 273.9536143760887 133.3195952837585 L 274.10956511471346 133.30113729748254 L 274.26648330616916 133.2949719649488 L 274.42340149762487 133.30113729748254 L 274.57935223624963 133.3195952837585 L 274.733374033881 133.35023212415342 L 274.8845172949191 133.39285893235848 L 275.03185017089936 133.44721289992623 L 275.17446430564826 133.51295891657205 L 275.3114804356011 133.58969163624062 L 275.44205381075415 133.6769379761989 L 275.56537940282954 133.77416003374873 L 275.68069686854227 133.8807584025757 L 275.7872952373692 133.99607586828844 L 275.8845172949191 134.11940146036386 L 275.97176363487733 134.2499748355169 L 276.04849635454593 134.38699096546972 L 276.1142423711917 134.52960510021862 L 276.16859633875947 134.6769379761989 L 276.2112231469645 134.828081237237 L 276.2418599873594 134.98210303486835 L 276.26031797363544 135.1380537734931 Z" stroke-opacity="1" stroke-miterlimit="10" stroke-width="0.5"/><text fill="rgb(0,0,0)" stroke="none" font-family="Helvetica Neue, Helvetica, sans-serif" font-size="16px" font-style="normal" font-weight="normal" text-decoration="normal" x="274.26648330616916" y="143.2949719649488" text-anchor="middle" dominant-baseline="text-after-edge" fill-opacity="1">Lignite Power Plant</text><path fill="url(#OsNlwwhsaqDf)" stroke="rgb(204,0,51)" paint-order="fill stroke markers" d=" M -128.60576109907785 239.80364568874776 L -128.61038509847816 239.92133433233954 L -128.62422858818513 240.0382973863081 L -128.64720621848133 240.1538137345316 L -128.67917632463514 240.26717118031019 L -128.71994180031092 240.3776708372954 L -128.7692513127953 240.4846314383571 L -128.8268008525467 240.5873935358217 L -128.89223560751543 240.6853235671865 L -128.9651521506778 240.77781776124303 L -129.04510092729802 240.8643058605276 L -129.1315890265826 240.94425463714782 L -129.22408322063913 241.01717118031019 L -129.32201325200393 241.0826059352789 L -129.42477534946852 241.14015547503033 L -129.53173595053022 241.1894649875147 L -129.64223560751543 241.23023046319048 L -129.755593053294 241.2622005693443 L -129.87110940151751 241.28517819964048 L -129.98807245548608 241.29902168934746 L -130.10576109907785 241.30364568874776 L -130.22344974266963 241.29902168934746 L -130.3404127966382 241.28517819964048 L -130.4559291448617 241.2622005693443 L -130.56928659064027 241.23023046319048 L -130.6797862476255 241.1894649875147 L -130.7867468486872 241.14015547503033 L -130.88950894615178 241.0826059352789 L -130.98743897751658 241.01717118031019 L -131.07993317157312 240.94425463714782 L -131.16642127085768 240.8643058605276 L -131.2463700474779 240.77781776124303 L -131.31928659064027 240.6853235671865 L -131.384721345609 240.5873935358217 L -131.44227088536041 240.4846314383571 L -131.49158039784479 240.3776708372954 L -131.53234587352057 240.26717118031019 L -131.56431597967438 240.1538137345316 L -131.58729360997057 240.0382973863081 L -131.60113709967754 239.92133433233954 L -131.60576109907785 239.80364568874776 L -131.60113709967754 239.685957045156 L -131.58729360997057 239.56899399118743 L -131.56431597967438 239.45347764296392 L -131.53234587352057 239.34012019718534 L -131.49158039784479 239.22962054020013 L -131.44227088536041 239.12265993913846 L -131.384721345609 239.01989784167384 L -131.31928659064027 238.92196781030904 L -131.2463700474779 238.8294736162525 L -131.16642127085768 238.74298551696793 L -131.07993317157312 238.6630367403477 L -130.98743897751658 238.59012019718534 L -130.88950894615178 238.52468544221662 L -130.78674684868716 238.4671359024652 L -130.6797862476255 238.41782638998083 L -130.56928659064027 238.37706091430502 L -130.4559291448617 238.34509080815124 L -130.3404127966382 238.32211317785504 L -130.22344974266963 238.30826968814807 L -130.10576109907785 238.30364568874776 L -129.98807245548608 238.30826968814807 L -129.8711094015175 238.32211317785504 L -129.75559305329398 238.34509080815124 L -129.64223560751543 238.37706091430505 L -129.53173595053022 238.41782638998083 L -129.42477534946852 238.46713590246523 L -129.32201325200393 238.52468544221662 L -129.22408322063913 238.59012019718534 L -129.13158902658256 238.66303674034774 L -129.04510092729802 238.74298551696796 L -128.9651521506778 238.8294736162525 L -128.89223560751543 238.92196781030907 L -128.8268008525467 239.01989784167384 L -128.7692513127953 239.12265993913846 L -128.71994180031092 239.22962054020013 L -128.6791763246351 239.34012019718537 L -128.64720621848133 239.45347764296392 L -128.62422858818513 239.56899399118743 L -128.61038509847816 239.68595704515602 Z" stroke-opacity="1" stroke-miterlimit="10" stroke-width="0.5"/><text fill="rgb(0,0,0)" stroke="none" font-family="Helvetica Neue, Helvetica, sans-serif" font-size="16px" font-style="normal" font-weight="normal" text-decoration="normal" x="-130.10576109907785" y="247.80364568874776" text-anchor="middle" dominant-baseline="text-after-edge" fill-opacity="1">Heat Plant</text><path fill="url(#CyOdbBmUWvGK)" stroke="rgb(204,0,51)" paint-order="fill stroke markers" d=" M 89.802323111172 224.48490889117397 L 89.79615777863826 224.64182708262967 L 89.77769979236227 224.79777782125444 L 89.74706295196735 224.9517996188858 L 89.70443614376231 225.10294287992386 L 89.65008217619457 225.25027575590414 L 89.58433615954874 225.39288989065307 L 89.50760343988019 225.52990602060586 L 89.4203570999219 225.66047939575893 L 89.32313504237206 225.78380498783434 L 89.2165366735451 225.89912245354708 L 89.10121920783237 226.00572082237403 L 88.97789361575694 226.10294287992386 L 88.84732024060389 226.19018921988214 L 88.7103041106511 226.2669219395507 L 88.56768997590218 226.33266795619656 L 88.4203570999219 226.38702192376428 L 88.26921383888381 226.42964873196934 L 88.11519204125246 226.46028557236426 L 87.95924130262769 226.47874355864022 L 87.802323111172 226.48490889117397 L 87.64540491971631 226.47874355864022 L 87.48945418109155 226.46028557236426 L 87.33543238346019 226.42964873196934 L 87.1842891224221 226.38702192376428 L 87.03695624644182 226.33266795619656 L 86.89434211169291 226.2669219395507 L 86.75732598174011 226.19018921988217 L 86.62675260658706 226.10294287992386 L 86.50342701451163 226.00572082237403 L 86.38810954879891 225.89912245354708 L 86.28151117997194 225.78380498783434 L 86.1842891224221 225.66047939575893 L 86.09704278246382 225.52990602060586 L 86.02031006279526 225.39288989065307 L 85.95456404614943 225.25027575590414 L 85.9002100785817 225.10294287992386 L 85.85758327037665 224.9517996188858 L 85.82694642998173 224.79777782125444 L 85.80848844370574 224.64182708262967 L 85.802323111172 224.48490889117397 L 85.80848844370574 224.32799069971827 L 85.82694642998173 224.1720399610935 L 85.85758327037665 224.01801816346216 L 85.9002100785817 223.8668749024241 L 85.95456404614943 223.7195420264438 L 86.02031006279526 223.57692789169488 L 86.09704278246382 223.43991176174208 L 86.1842891224221 223.30933838658902 L 86.28151117997194 223.1860127945136 L 86.38810954879891 223.07069532880087 L 86.50342701451163 222.96409695997392 L 86.62675260658706 222.8668749024241 L 86.75732598174011 222.77962856246577 L 86.89434211169291 222.70289584279723 L 87.03695624644182 222.6371498261514 L 87.18428912242211 222.58279585858367 L 87.33543238346019 222.5401690503786 L 87.48945418109155 222.5095322099837 L 87.64540491971631 222.49107422370773 L 87.802323111172 222.48490889117397 L 87.9592413026277 222.49107422370773 L 88.11519204125247 222.5095322099837 L 88.26921383888381 222.5401690503786 L 88.4203570999219 222.58279585858367 L 88.5676899759022 222.63714982615141 L 88.71030411065111 222.70289584279723 L 88.8473202406039 222.7796285624658 L 88.97789361575695 222.8668749024241 L 89.10121920783237 222.96409695997392 L 89.21653667354511 223.0706953288009 L 89.32313504237207 223.18601279451363 L 89.4203570999219 223.30933838658905 L 89.5076034398802 223.43991176174208 L 89.58433615954874 223.5769278916949 L 89.65008217619459 223.7195420264438 L 89.70443614376231 223.8668749024241 L 89.74706295196737 224.0180181634622 L 89.77769979236228 224.17203996109353 L 89.79615777863826 224.3279906997183 Z" stroke-opacity="1" stroke-miterlimit="10" stroke-width="0.5"/><text fill="rgb(0,0,0)" stroke="none" font-family="Helvetica Neue, Helvetica, sans-serif" font-size="16px" font-style="normal" font-weight="normal" text-decoration="normal" x="87.802323111172" y="232.48490889117397" text-anchor="middle" dominant-baseline="text-after-edge" fill-opacity="1">Power To Heat</text><path fill="url(#rJVcPSWIaGEp)" stroke="rgb(102,102,102)" paint-order="fill stroke markers" d=" M -119.1412994029506 134.7892595864322 L -119.14438206921747 134.86771868216005 L -119.15361106235545 134.94569405147243 L -119.16892948255291 135.0227049502881 L -119.19024288665544 135.09827658080715 L -119.2174198704393 135.1719430187973 L -119.25029287876222 135.24325008617174 L -119.2886592385965 135.31175815114815 L -119.33228240857565 135.37704483872466 L -119.38089343735057 135.43870763476238 L -119.43419262176404 135.49636636761875 L -119.49185135462041 135.54966555203222 L -119.55351415065812 135.59827658080715 L -119.61880083823465 135.64189975078628 L -119.68730890321105 135.68026611062055 L -119.75861597058551 135.71313911894347 L -119.83228240857565 135.74031610272735 L -119.90785403909469 135.76162950682988 L -119.98486493791036 135.77694792702732 L -120.06284030722274 135.78617692016533 L -120.1412994029506 135.7892595864322 L -120.21975849867844 135.78617692016533 L -120.29773386799083 135.77694792702732 L -120.3747447668065 135.76162950682988 L -120.45031639732554 135.74031610272735 L -120.52398283531568 135.71313911894347 L -120.59528990269014 135.68026611062055 L -120.66379796766654 135.64189975078628 L -120.72908465524307 135.59827658080715 L -120.79074745128078 135.54966555203222 L -120.84840618413715 135.49636636761875 L -120.90170536855062 135.43870763476238 L -120.95031639732554 135.37704483872466 L -120.9939395673047 135.31175815114815 L -121.03230592713896 135.24325008617174 L -121.06517893546189 135.1719430187973 L -121.09235591924575 135.09827658080715 L -121.11366932334828 135.0227049502881 L -121.12898774354574 134.94569405147243 L -121.13821673668372 134.86771868216005 L -121.1412994029506 134.7892595864322 L -121.13821673668372 134.71080049070434 L -121.12898774354574 134.63282512139196 L -121.11366932334828 134.5558142225763 L -121.09235591924575 134.48024259205724 L -121.06517893546189 134.4065761540671 L -121.03230592713896 134.33526908669265 L -120.9939395673047 134.26676102171623 L -120.95031639732554 134.20147433413973 L -120.90170536855062 134.139811538102 L -120.84840618413715 134.08215280524564 L -120.79074745128078 134.02885362083217 L -120.72908465524307 133.98024259205724 L -120.66379796766654 133.9366194220781 L -120.59528990269014 133.89825306224384 L -120.52398283531568 133.86538005392092 L -120.45031639732554 133.83820307013704 L -120.3747447668065 133.8168896660345 L -120.29773386799083 133.80157124583707 L -120.21975849867843 133.79234225269906 L -120.1412994029506 133.7892595864322 L -120.06284030722274 133.79234225269906 L -119.98486493791036 133.80157124583707 L -119.90785403909469 133.8168896660345 L -119.83228240857564 133.83820307013704 L -119.7586159705855 133.86538005392092 L -119.68730890321105 133.89825306224384 L -119.61880083823463 133.9366194220781 L -119.55351415065812 133.98024259205724 L -119.49185135462041 134.02885362083217 L -119.43419262176404 134.08215280524564 L -119.38089343735055 134.139811538102 L -119.33228240857564 134.20147433413973 L -119.2886592385965 134.26676102171626 L -119.25029287876222 134.33526908669265 L -119.2174198704393 134.40657615406712 L -119.19024288665544 134.48024259205727 L -119.16892948255291 134.5558142225763 L -119.15361106235545 134.632825121392 L -119.14438206921747 134.71080049070437 Z" stroke-opacity="1" stroke-miterlimit="10" stroke-width="0.5"/><text fill="rgb(0,0,0)" stroke="none" font-family="Helvetica Neue, Helvetica, sans-serif" font-size="16px" font-style="normal" font-weight="normal" text-decoration="normal" x="-120.1412994029506" y="142.7892595864322" text-anchor="middle" dominant-baseline="text-after-edge" fill-opacity="1">Hard Coal CHP</text><path fill="url(#AcBZbHzdGiVs)" stroke="rgb(0,102,0)" paint-order="fill stroke markers" d=" M 455.9270949965733 147.66873223692315 L 455.9209296640396 147.82565042837885 L 455.9024716777636 147.98160116700362 L 455.8718348373687 148.13562296463496 L 455.8292080291636 148.28676622567303 L 455.7748540615959 148.43409910165332 L 455.70910804495 148.57671323640224 L 455.6323753252815 148.71372936635504 L 455.54512898532323 148.8443027415081 L 455.4479069277734 148.96762833358352 L 455.3413085589464 149.08294579929625 L 455.2259910932337 149.1895441681232 L 455.10266550115824 149.28676622567303 L 454.97209212600524 149.37401256563135 L 454.8350759960524 149.4507452852999 L 454.6924618613035 149.51649130194573 L 454.54512898532323 149.57084526951346 L 454.39398572428513 149.6134720777185 L 454.2399639266538 149.64410891811343 L 454.084013188029 149.6625669043894 L 453.9270949965733 149.66873223692315 L 453.7701768051176 149.6625669043894 L 453.61422606649285 149.64410891811343 L 453.4602042688615 149.6134720777185 L 453.3090610078234 149.57084526951346 L 453.1617281318431 149.51649130194573 L 453.0191139970942 149.4507452852999 L 452.8820978671414 149.37401256563135 L 452.7515244919884 149.28676622567303 L 452.62819889991295 149.1895441681232 L 452.5128814342002 149.08294579929625 L 452.40628306537326 148.96762833358352 L 452.3090610078234 148.8443027415081 L 452.22181466786515 148.71372936635504 L 452.1450819481966 148.57671323640224 L 452.07933593155076 148.43409910165332 L 452.024981963983 148.28676622567303 L 451.98235515577795 148.13562296463496 L 451.95171831538306 147.98160116700362 L 451.93326032910704 147.82565042837885 L 451.9270949965733 147.66873223692315 L 451.93326032910704 147.51181404546745 L 451.95171831538306 147.35586330684268 L 451.98235515577795 147.20184150921133 L 452.024981963983 147.05069824817326 L 452.07933593155076 146.90336537219298 L 452.1450819481966 146.76075123744405 L 452.22181466786515 146.62373510749126 L 452.3090610078234 146.4931617323382 L 452.40628306537326 146.36983614026278 L 452.5128814342002 146.25451867455004 L 452.62819889991295 146.1479203057231 L 452.7515244919884 146.05069824817326 L 452.8820978671414 145.96345190821495 L 453.0191139970942 145.8867191885464 L 453.1617281318431 145.82097317190056 L 453.3090610078234 145.76661920433284 L 453.4602042688615 145.72399239612778 L 453.61422606649285 145.69335555573286 L 453.7701768051176 145.6748975694569 L 453.9270949965733 145.66873223692315 L 454.084013188029 145.6748975694569 L 454.2399639266538 145.69335555573286 L 454.39398572428513 145.72399239612778 L 454.54512898532323 145.76661920433284 L 454.6924618613035 145.8209731719006 L 454.8350759960524 145.8867191885464 L 454.97209212600524 145.96345190821498 L 455.1026655011583 146.05069824817326 L 455.2259910932337 146.1479203057231 L 455.3413085589464 146.25451867455007 L 455.4479069277734 146.3698361402628 L 455.54512898532323 146.49316173233822 L 455.6323753252815 146.62373510749126 L 455.7091080449501 146.76075123744408 L 455.7748540615959 146.90336537219298 L 455.8292080291636 147.05069824817326 L 455.8718348373687 147.20184150921136 L 455.9024716777636 147.3558633068427 L 455.9209296640396 147.51181404546747 Z" stroke-opacity="1" stroke-miterlimit="10" stroke-width="0.5"/><text fill="rgb(0,0,0)" stroke="none" font-family="Helvetica Neue, Helvetica, sans-serif" font-size="16px" font-style="normal" font-weight="normal" text-decoration="normal" x="453.9270949965733" y="155.66873223692315" text-anchor="middle" dominant-baseline="text-after-edge" fill-opacity="1">Biogas CHP</text><path fill="url(#TWCeXtxqgTAX)" stroke="rgb(255,227,77)" paint-order="fill stroke markers" d=" M 236.04152144753013 315.2352822287162 L 236.02456678306234 315.66680725521934 L 235.9738073208034 316.09567178643744 L 235.88955600971735 316.51923172992366 L 235.77233228715346 316.9348756977784 L 235.6228588763422 317.3400411067242 L 235.44205733056614 317.7322299772837 L 235.23104235147764 318.1090243346539 L 234.99111491659235 318.4681011163248 L 234.7237542583303 318.8072464945322 L 234.43060874405614 319.1243695252422 L 234.11348571334614 319.41751503951633 L 233.77434033513873 319.6848756977784 L 233.41526355346784 319.92480313266367 L 233.03846919609765 320.1358181117522 L 232.64628032553813 320.31661965752824 L 232.24111491659235 320.46609306833955 L 231.8254709487376 320.5833167909034 L 231.4019110052514 320.66756810198945 L 230.97304647403328 320.7183275642484 L 230.54152144753013 320.7352822287162 L 230.10999642102698 320.7183275642484 L 229.68113188980885 320.66756810198945 L 229.25757194632266 320.5833167909034 L 228.8419279784679 320.46609306833955 L 228.43676256952213 320.31661965752824 L 228.0445736989626 320.1358181117522 L 227.66777934159242 319.92480313266367 L 227.30870255992153 319.6848756977784 L 226.96955718171412 319.41751503951633 L 226.65243415100412 319.1243695252422 L 226.35928863672996 318.8072464945322 L 226.0919279784679 318.4681011163248 L 225.85200054358262 318.1090243346539 L 225.64098556449412 317.7322299772837 L 225.46018401871805 317.3400411067242 L 225.3107106079068 316.9348756977784 L 225.1934868853429 316.51923172992366 L 225.10923557425687 316.09567178643744 L 225.05847611199792 315.66680725521934 L 225.04152144753013 315.2352822287162 L 225.05847611199792 314.80375720221303 L 225.10923557425687 314.37489267099494 L 225.1934868853429 313.9513327275087 L 225.3107106079068 313.53568875965397 L 225.46018401871805 313.1305233507082 L 225.64098556449412 312.7383344801487 L 225.85200054358262 312.3615401227785 L 226.0919279784679 312.0024633411076 L 226.35928863672996 311.6633179629002 L 226.65243415100412 311.3461949321902 L 226.96955718171412 311.05304941791604 L 227.30870255992153 310.78568875965397 L 227.66777934159242 310.5457613247687 L 228.04457369896264 310.3347463456802 L 228.43676256952213 310.1539447999041 L 228.84192797846794 310.0044713890928 L 229.25757194632266 309.88724766652894 L 229.68113188980888 309.80299635544293 L 230.109996421027 309.752236893184 L 230.54152144753016 309.7352822287162 L 230.9730464740333 309.752236893184 L 231.40191100525143 309.80299635544293 L 231.82547094873763 309.887247666529 L 232.24111491659238 310.0044713890928 L 232.64628032553816 310.15394479990414 L 233.03846919609768 310.3347463456802 L 233.41526355346787 310.5457613247687 L 233.77434033513876 310.785688759654 L 234.11348571334617 311.05304941791604 L 234.43060874405617 311.3461949321902 L 234.72375425833033 311.66331796290024 L 234.99111491659238 312.0024633411076 L 235.23104235147767 312.36154012277854 L 235.44205733056617 312.73833448014875 L 235.62285887634224 313.13052335070824 L 235.7723322871535 313.535688759654 L 235.88955600971735 313.95133272750877 L 235.9738073208034 314.374892670995 L 236.02456678306234 314.8037572022131 Z" stroke-opacity="1" stroke-miterlimit="10" stroke-width="0.5"/><text fill="rgb(0,0,0)" stroke="none" font-family="Helvetica Neue, Helvetica, sans-serif" font-size="16px" font-style="normal" font-weight="normal" text-decoration="normal" x="230.54152144753013" y="323.2352822287162" text-anchor="middle" dominant-baseline="text-after-edge" fill-opacity="1">El Demand</text><path fill="url(#ewTGRoXWhNPP)" stroke="rgb(255,0,0)" paint-order="fill stroke markers" d=" M -84.20743877918552 360.78288404486483 L -84.21206277858583 360.9005726884566 L -84.22590626829282 361.0175357424252 L -84.24888389858901 361.1330520906487 L -84.28085400474279 361.2464095364272 L -84.32161948041859 361.3569091934125 L -84.37092899290298 361.46386979447414 L -84.42847853265438 361.56663189193875 L -84.4939132876231 361.66456192330355 L -84.56682983078548 361.7570561173601 L -84.64677860740571 361.84354421664466 L -84.73326670669024 361.92349299326486 L -84.82576090074681 361.9964095364272 L -84.9236909321116 362.06184429139597 L -85.0264530295762 362.11939383114736 L -85.13341363063789 362.16870334363176 L -85.2439132876231 362.2094688193076 L -85.35727073340166 362.24143892546135 L -85.47278708162517 362.2644165557575 L -85.58975013559376 362.27826004546455 L -85.70743877918552 362.28288404486483 L -85.82512742277729 362.27826004546455 L -85.94209047674588 362.2644165557575 L -86.05760682496938 362.24143892546135 L -86.17096427074794 362.2094688193076 L -86.28146392773316 362.16870334363176 L -86.38842452879484 362.11939383114736 L -86.49118662625945 362.06184429139597 L -86.58911665762423 361.9964095364272 L -86.6816108516808 361.92349299326486 L -86.76809895096534 361.84354421664466 L -86.84804772758557 361.7570561173601 L -86.92096427074794 361.66456192330355 L -86.98639902571666 361.56663189193875 L -87.04394856546807 361.46386979447414 L -87.09325807795246 361.3569091934125 L -87.13402355362825 361.2464095364272 L -87.16599365978203 361.1330520906487 L -87.18897129007823 361.0175357424252 L -87.20281477978521 360.9005726884566 L -87.20743877918552 360.78288404486483 L -87.20281477978521 360.6651954012731 L -87.18897129007823 360.54823234730446 L -87.16599365978203 360.432715999081 L -87.13402355362825 360.31935855330244 L -87.09325807795246 360.20885889631717 L -87.04394856546807 360.1018982952555 L -86.98639902571666 359.9991361977909 L -86.92096427074794 359.9012061664261 L -86.84804772758557 359.80871197236957 L -86.76809895096534 359.722223873085 L -86.6816108516808 359.6422750964648 L -86.58911665762423 359.56935855330244 L -86.49118662625945 359.5039237983337 L -86.38842452879484 359.4463742585823 L -86.28146392773316 359.3970647460979 L -86.17096427074794 359.3562992704221 L -86.05760682496938 359.3243291642683 L -85.94209047674586 359.30135153397214 L -85.82512742277729 359.2875080442651 L -85.70743877918552 359.28288404486483 L -85.58975013559375 359.2875080442651 L -85.47278708162517 359.30135153397214 L -85.35727073340166 359.3243291642683 L -85.2439132876231 359.3562992704221 L -85.13341363063788 359.3970647460979 L -85.02645302957619 359.4463742585823 L -84.9236909321116 359.5039237983337 L -84.8257609007468 359.56935855330244 L -84.73326670669024 359.6422750964648 L -84.6467786074057 359.722223873085 L -84.56682983078547 359.80871197236957 L -84.49391328762309 359.9012061664261 L -84.42847853265438 359.9991361977909 L -84.37092899290296 360.1018982952555 L -84.32161948041859 360.2088588963172 L -84.28085400474279 360.31935855330244 L -84.248883898589 360.432715999081 L -84.22590626829282 360.5482323473045 L -84.21206277858583 360.6651954012731 Z" stroke-opacity="1" stroke-miterlimit="10" stroke-width="0.5"/><text fill="rgb(0,0,0)" stroke="none" font-family="Helvetica Neue, Helvetica, sans-serif" font-size="16px" font-style="normal" font-weight="normal" text-decoration="normal" x="-85.70743877918552" y="368.78288404486483" text-anchor="middle" dominant-baseline="text-after-edge" fill-opacity="1">Heat Demand</text><path fill="url(#wFcGdDIWykdm)" stroke="rgb(255,227,77)" paint-order="fill stroke markers" d=" M 371.69951306479805 245.76032759164823 L 371.6578970701953 246.81952538397414 L 371.5333056628324 247.87219286969136 L 371.3265069901667 248.91184000370296 L 371.03877603478264 249.93205701571003 L 370.67188675370045 250.92655392857694 L 370.228101141341 251.88919933813213 L 369.7101552835783 252.81405821531354 L 369.1212424888598 253.69542849759662 L 368.4649936003985 254.52787624410573 L 367.74545461081647 255.30626913766662 L 366.96706171725555 256.02580812724864 L 366.13461397074644 256.68205701571003 L 365.2532436884634 257.2709698104285 L 364.3283848112819 257.7889156681912 L 363.3657394017268 258.2327012805506 L 362.3712424888598 258.5995905616328 L 361.3510254768528 258.88732151701686 L 360.3113783428412 259.0941201896826 L 359.25871085712396 259.21871159704546 L 358.19951306479805 259.2603275916482 L 357.14031527247215 259.21871159704546 L 356.0876477867549 259.0941201896826 L 355.0480006527433 258.88732151701686 L 354.0277836407363 258.5995905616328 L 353.0332867278693 258.2327012805506 L 352.0706413183142 257.7889156681912 L 351.1457824411327 257.2709698104285 L 350.26441215884967 256.68205701571003 L 349.43196441234056 256.02580812724864 L 348.65357151877964 255.30626913766662 L 347.9340325291976 254.52787624410573 L 347.2777836407363 253.69542849759662 L 346.68887084601783 252.81405821531354 L 346.1709249882551 251.88919933813213 L 345.72713937589566 250.92655392857694 L 345.36025009481347 249.93205701571003 L 345.0725191394294 248.91184000370296 L 344.8657204667637 247.87219286969136 L 344.7411290594008 246.81952538397414 L 344.69951306479805 245.76032759164823 L 344.7411290594008 244.70112979932233 L 344.8657204667637 243.6484623136051 L 345.0725191394294 242.6088151795935 L 345.36025009481347 241.58859816758644 L 345.72713937589566 240.59410125471953 L 346.1709249882551 239.63145584516437 L 346.68887084601783 238.70659696798293 L 347.2777836407363 237.82522668569985 L 347.9340325291976 236.99277893919077 L 348.65357151877964 236.21438604562985 L 349.43196441234056 235.49484705604783 L 350.26441215884967 234.83859816758644 L 351.1457824411327 234.249685372868 L 352.0706413183142 233.73173951510526 L 353.0332867278694 233.28795390274587 L 354.0277836407363 232.92106462166365 L 355.0480006527434 232.63333366627958 L 356.087647786755 232.42653499361387 L 357.1403152724722 232.301943586251 L 358.1995130647981 232.26032759164823 L 359.258710857124 232.301943586251 L 360.31137834284124 232.42653499361387 L 361.35102547685284 232.6333336662796 L 362.37124248885993 232.92106462166367 L 363.36573940172684 233.2879539027459 L 364.32838481128204 233.73173951510532 L 365.25324368846344 234.24968537286804 L 366.1346139707465 234.8385981675865 L 366.9670617172556 235.4948470560479 L 367.7454546108165 236.2143860456299 L 368.46499360039854 236.99277893919083 L 369.12124248885993 237.82522668569993 L 369.7101552835784 238.70659696798302 L 370.2281011413411 239.63145584516445 L 370.6718867537005 240.59410125471965 L 371.0387760347827 241.58859816758658 L 371.3265069901667 242.60881517959365 L 371.53330566283245 243.64846231360528 L 371.6578970701953 244.70112979932247 Z" stroke-opacity="1" stroke-miterlimit="10" stroke-width="0.5"/><text fill="rgb(0,0,0)" stroke="none" font-family="Helvetica Neue, Helvetica, sans-serif" font-size="16px" font-style="normal" font-weight="normal" text-decoration="normal" x="358.19951306479805" y="253.76032759164823" text-anchor="middle" dominant-baseline="text-after-edge" fill-opacity="1">Battery</text><path fill="url(#BqidFhUGyryN)" stroke="rgb(204,0,51)" paint-order="fill stroke markers" d=" M 106.57940230069394 377.7648909125373 L 106.4576369831525 380.86402519378714 L 106.09309175420188 383.9440522816264 L 105.48801415640216 386.98598278484553 L 104.6461346943525 389.9710621903477 L 103.57264383488976 392.88088649095835 L 102.27416000613448 395.69751565224936 L 100.75868879268059 398.4035842188173 L 99.03557357850437 400.98240837809 L 97.11543794189517 403.41808882157954 L 95.01012015756257 405.6956087694059 L 92.7326002097362 407.8009265537385 L 90.29691976624663 409.7210621903477 L 87.71809560697392 411.44417740452394 L 85.01202704040604 412.9596486179778 L 82.19539787911499 414.2581324467331 L 79.28557357850437 415.33162330619587 L 76.3004941730022 416.1735027682455 L 73.25856366978306 416.7785803660452 L 70.17853658194382 417.1431255949958 L 67.07940230069394 417.2648909125373 L 63.98026801944407 417.1431255949958 L 60.90024093160483 416.7785803660452 L 57.85831042838568 416.1735027682455 L 54.87323102288352 415.33162330619587 L 51.9634067222729 414.2581324467331 L 49.146777560981846 412.9596486179778 L 46.44070899441397 411.44417740452394 L 43.861884835141254 409.7210621903477 L 41.426204391651694 407.8009265537385 L 39.14868444382532 405.6956087694059 L 37.04336665949272 403.41808882157954 L 35.12323102288352 400.98240837809 L 33.4001158087073 398.4035842188173 L 31.884644595253413 395.69751565224936 L 30.586160766498118 392.88088649095835 L 29.51266990703538 389.9710621903477 L 28.67079044498572 386.98598278484553 L 28.065712847186006 383.9440522816264 L 27.701167618235388 380.86402519378714 L 27.579402300693943 377.7648909125373 L 27.701167618235388 374.6657566312874 L 28.065712847186 371.58572954344817 L 28.670790444985712 368.54379904022903 L 29.512669907035374 365.55871963472686 L 30.58616076649811 362.6488953341162 L 31.884644595253413 359.8322661728252 L 33.4001158087073 357.12619760625734 L 35.123231022883516 354.5473734469846 L 37.04336665949272 352.111693003495 L 39.14868444382531 349.83417305566866 L 41.426204391651666 347.7288552713361 L 43.861884835141254 345.80871963472686 L 46.440708994413974 344.0856044205506 L 49.146777560981874 342.5701332070967 L 51.963406722272936 341.2716493783414 L 54.87323102288358 340.1981585188787 L 57.85831042838576 339.35627905682907 L 60.90024093160492 338.75120145902935 L 63.98026801944418 338.3866562300787 L 67.07940230069407 338.2648909125373 L 70.17853658194397 338.38665623007876 L 73.25856366978323 338.75120145902935 L 76.30049417300239 339.35627905682907 L 79.28557357850455 340.19815851887876 L 82.19539787911519 341.2716493783415 L 85.01202704040625 342.5701332070969 L 87.71809560697415 344.0856044205508 L 90.29691976624684 345.808719634727 L 92.73260020973642 347.7288552713363 L 95.0101201575628 349.8341730556689 L 97.11543794189538 352.11169300349525 L 99.03557357850457 354.54737344698486 L 100.75868879268077 357.1261976062576 L 102.27416000613465 359.83226617282554 L 103.57264383488993 362.6488953341166 L 104.64613469435264 365.55871963472725 L 105.48801415640227 368.54379904022943 L 106.09309175420196 371.5857295434486 L 106.45763698315253 374.6657566312879 Z" stroke-opacity="1" stroke-miterlimit="10" stroke-width="0.5"/><text fill="rgb(0,0,0)" stroke="none" font-family="Helvetica Neue, Helvetica, sans-serif" font-size="16px" font-style="normal" font-weight="normal" text-decoration="normal" x="67.07940230069394" y="385.7648909125373" text-anchor="middle" dominant-baseline="text-after-edge" fill-opacity="1">Heat Storage</text><g transform="scale(0.47973485379480857,0.47973485379480857) translate(-606.5129212230623,-79.13236973021282)"/></g></svg>