<svg version="1.1" xmlns="http://www.w3.org/2000/svg" xmlns:xlink="http://www.w3.org/1999/xlink" width="1804" height="918"><defs/><g transform="translate(545.1066523434913,31.291501834872122) scale(1.291501834872129,1.291501834872129)"><path fill="none" stroke="rgb(0,0,0)" paint-order="fill stroke markers" d=" M 214.0503388555409 482.3033964893787 L 213.85604358628567 532.0502028883677" stroke-opacity="1" stroke-linejoin="round" stroke-miterlimit="10" stroke-width="7"/><path fill="rgb(0,0,0)" stroke="none" paint-order="stroke fill markers" d=" M 204.9545137686296 528.1822696327607 L 213.80136443761748 546.050096109057 L 222.78751521726178 528.251919688089 Z" fill-opacity="1"/><path fill="none" stroke="rgb(0,0,0)" paint-order="fill stroke markers" d=" M 472.0198031242501 479.4110761859898 L 473.47063304425103 534.3603337510285" stroke-opacity="1" stroke-linejoin="round" stroke-miterlimit="10" stroke-width="7"/><path fill="rgb(0,0,0)" stroke="none" paint-order="stroke fill markers" d=" M 464.4559992644261 530.7638745784407 L 473.8401474586752 548.355456440649 L 482.28292403189243 530.2931887679248 Z" fill-opacity="1"/><path fill="none" stroke="rgb(0,0,0)" paint-order="fill stroke markers" d=" M 318.0533404299434 210.5354582823808 L 317.7016761926398 242.413832341962" stroke-opacity="1" stroke-linejoin="round" stroke-miterlimit="10" stroke-width="7"/><path fill="rgb(0,0,0)" stroke="none" paint-order="stroke fill markers" d=" M 308.82793238866304 238.4825715180233 L 317.54724548748845 256.4129805716689 L 326.6599848711097 238.67928466042125 Z" fill-opacity="1"/><path fill="none" stroke="rgb(0,0,0)" paint-order="fill stroke markers" d=" M 75.63795008210022 336.3103696295259 L 166.54374414675783 402.5561702561164" stroke-opacity="1" stroke-linejoin="round" stroke-miterlimit="10" stroke-width="7"/><path fill="rgb(0,0,0)" stroke="none" paint-order="stroke fill markers" d=" M 158.19455618006862 407.50482674665426 L 177.85819986901262 410.8013562278902 L 168.697237240635 393.0925235879934 Z" fill-opacity="1"/><path fill="none" stroke="rgb(0,0,0)" paint-order="fill stroke markers" d=" M 564.8264330587924 334.1427777282612 L 511.1796076270613 391.3793738829566" stroke-opacity="1" stroke-linejoin="round" stroke-miterlimit="10" stroke-width="7"/><path fill="rgb(0,0,0)" stroke="none" paint-order="stroke fill markers" d=" M 507.2952467734434 382.485000294933 L 501.6056175984436 401.59400627633863 L 520.306599888568 394.6803060274951 Z" fill-opacity="1"/><path fill="none" stroke="rgb(0,0,0)" paint-order="fill stroke markers" d=" M 317.86112928059265 65.65389542762678 L 318.1429925271418 106.53959809122279" stroke-opacity="1" stroke-linejoin="round" stroke-miterlimit="10" stroke-width="7"/><path fill="rgb(0,0,0)" stroke="none" paint-order="stroke fill markers" d=" M 309.20021091311054 102.76802046797357 L 318.2395052791932 120.53926541900924 L 327.0329246203721 102.64508295552167 Z" fill-opacity="1"/><path fill="none" stroke="rgb(0,0,0)" paint-order="fill stroke markers" d=" M 289.89821684820623 337.29525230144 L 249.82622680780025 390.25450494840294" stroke-opacity="1" stroke-linejoin="round" stroke-miterlimit="10" stroke-width="7"/><path fill="rgb(0,0,0)" stroke="none" paint-order="stroke fill markers" d=" M 245.0286415550265 381.8176028802965 L 241.37873749184158 401.4187301457359 L 259.24958174210406 392.5779770370202 Z" fill-opacity="1"/><path fill="none" stroke="rgb(0,0,0)" paint-order="fill stroke markers" d=" M 351.0853927133607 330.849173703662 L 426.2090256322561 395.82904376751986" stroke-opacity="1" stroke-linejoin="round" stroke-miterlimit="10" stroke-width="7"/><path fill="rgb(0,0,0)" stroke="none" paint-order="stroke fill markers" d=" M 417.47673030758625 400.0652164655104 L 436.7975465854566 404.98782228998857 L 429.143141478317 386.5776057730054 Z" fill-opacity="1"/><path fill="rgb(250,167,88)" stroke="none" paint-order="stroke fill markers" d=" M 259.22609326197437 437.3037397085918 L 259.08737327996516 440.83439901634483 L 258.6720685887556 444.3432906354022 L 257.98273967986984 447.80878108210754 L 257.0236364952563 451.20950445546447 L 255.8006722249823 454.5244941650209 L 254.32138685045095 457.73331219687145 L 252.59490065790854 460.81617512080953 L 250.63185800884702 463.7540760617531 L 248.44436171397578 466.5289018834501 L 246.04589841536904 469.12354486198643 L 243.45125543683267 471.5220081605932 L 240.6764296151357 473.70950445546447 L 237.7385286741921 475.67254710452596 L 234.655665750254 477.3990332970684 L 231.44684771840343 478.87831867159974 L 228.13185800884702 480.1012829418737 L 224.73113463549015 481.0603861264873 L 221.2656441887848 481.749715035373 L 217.7567525697274 482.16501972658256 L 214.2260932619744 482.3037397085918 L 210.6954339542214 482.16501972658256 L 207.186542335164 481.749715035373 L 203.72105188845865 481.0603861264873 L 200.32032851510178 480.1012829418737 L 197.00533880554536 478.87831867159974 L 193.7965207736948 477.3990332970684 L 190.71365784975671 475.67254710452596 L 187.77575690881312 473.70950445546447 L 185.00093108711613 471.5220081605932 L 182.40628810857976 469.1235448619865 L 180.00782480997302 466.5289018834501 L 177.82032851510178 463.7540760617531 L 175.85728586604026 460.81617512080953 L 174.13079967349785 457.73331219687145 L 172.6515142989665 454.5244941650209 L 171.42855002869248 451.20950445546447 L 170.46944684407896 447.80878108210754 L 169.7801179351932 444.34329063540224 L 169.36481324398363 440.83439901634483 L 169.2260932619744 437.3037397085918 L 169.36481324398363 433.7730804008388 L 169.7801179351932 430.26418878178146 L 170.46944684407896 426.7986983350761 L 171.42855002869248 423.39797496171917 L 172.6515142989665 420.08298525216276 L 174.13079967349785 416.87416722031224 L 175.85728586604023 413.7913042963741 L 177.82032851510175 410.85340335543054 L 180.007824809973 408.07857753373355 L 182.40628810857976 405.4839345551972 L 185.0009310871161 403.08547125659044 L 187.7757569088131 400.89797496171917 L 190.71365784975671 398.9349323126577 L 193.79652077369482 397.20844612011524 L 197.00533880554542 395.7291607455839 L 200.32032851510183 394.5061964753099 L 203.72105188845873 393.54709329069635 L 207.18654233516412 392.8577643818106 L 210.6954339542215 392.442459690601 L 214.22609326197454 392.3037397085918 L 217.75675256972758 392.4424596906011 L 221.265644188785 392.8577643818106 L 224.73113463549035 393.5470932906964 L 228.13185800884725 394.50619647531 L 231.44684771840366 395.729160745584 L 234.65566575025423 397.2084461201154 L 237.73852867419234 398.9349323126578 L 240.67642961513593 400.89797496171934 L 243.45125543683292 403.08547125659067 L 246.0458984153693 405.48393455519744 L 248.44436171397604 408.07857753373384 L 250.63185800884725 410.8534033554308 L 252.59490065790877 413.79130429637445 L 254.32138685045115 416.8741672203126 L 255.80067222498246 420.0829852521632 L 257.0236364952565 423.3979749617196 L 257.98273967986995 426.79869833507655 L 258.6720685887557 430.2641887817819 L 259.0873732799652 433.7730804008393 Z" fill-opacity="1"/><text fill="rgb(0,0,0)" stroke="none" font-family="Helvetica Neue, Helvetica, sans-serif" font-size="16px" font-style="normal" font-weight="normal" text-decoration="normal" x="214.2260932619744" y="445.3037397085918" text-anchor="middle" dominant-baseline="text-after-edge" fill-opacity="1">Power Bus</text><path fill="rgb(206,112,88)" stroke="none" paint-order="stroke fill markers" d=" M 515.8320782207438 434.42675325506656 L 515.6933582387346 437.95741256281957 L 515.2780535475251 441.4663041818769 L 514.5887246386393 444.9317946285823 L 513.6296214540258 448.3325180019392 L 512.4066571837518 451.6475077114956 L 510.92737180922046 454.85632574334613 L 509.200885616678 457.93918866728427 L 507.23784296761653 460.87708960822783 L 505.05034667274526 463.6519154299248 L 502.6518833741385 466.24655840846117 L 500.05724039560215 468.64502170706794 L 497.28241457390516 470.8325180019392 L 494.3445136329616 472.7955606510007 L 491.2616507090235 474.5220468435431 L 488.05283267717294 476.0013322180745 L 484.73784296761653 477.22429648834844 L 481.3371195942596 478.183399672962 L 477.87162914755424 478.87272858184775 L 474.3627375284969 479.2880332730573 L 470.8320782207439 479.42675325506656 L 467.30141891299087 479.2880332730573 L 463.7925272939335 478.87272858184775 L 460.32703684722816 478.183399672962 L 456.92631347387123 477.2242964883485 L 453.6113237643148 476.0013322180745 L 450.4025057324643 474.52204684354314 L 447.31964280852617 472.7955606510007 L 444.3817418675826 470.8325180019392 L 441.6069160458856 468.64502170706794 L 439.01227306734927 466.24655840846117 L 436.6138097687425 463.6519154299248 L 434.42631347387123 460.87708960822783 L 432.46327082480974 457.93918866728427 L 430.73678463226736 454.8563257433462 L 429.25749925773596 451.6475077114956 L 428.034534987462 448.3325180019392 L 427.0754318028484 444.9317946285823 L 426.3861028939627 441.466304181877 L 425.97079820275314 437.95741256281957 L 425.8320782207439 434.42675325506656 L 425.97079820275314 430.89609394731355 L 426.3861028939627 427.3872023282562 L 427.0754318028484 423.92171188155083 L 428.03453498746194 420.5209885081939 L 429.25749925773596 417.20599879863755 L 430.7367846322673 413.997180766787 L 432.46327082480974 410.91431784284885 L 434.42631347387123 407.9764169019053 L 436.6138097687425 405.2015910802083 L 439.0122730673492 402.60694810167195 L 441.6069160458856 400.2084848030652 L 444.3817418675826 398.0209885081939 L 447.31964280852617 396.0579458591324 L 450.4025057324643 394.33145966659 L 453.6113237643149 392.85217429205863 L 456.9263134738713 391.6292100217846 L 460.3270368472282 390.6701068371711 L 463.7925272939336 389.98077792828536 L 467.301418912991 389.5654732370758 L 470.83207822074405 389.42675325506656 L 474.36273752849706 389.5654732370758 L 477.8716291475545 389.9807779282854 L 481.33711959425983 390.67010683717115 L 484.73784296761676 391.62921002178473 L 488.05283267717317 392.85217429205875 L 491.26165070902374 394.33145966659015 L 494.3445136329618 396.0579458591326 L 497.28241457390544 398.02098850819414 L 500.0572403956024 400.2084848030654 L 502.6518833741388 402.6069481016722 L 505.0503466727455 405.2015910802086 L 507.23784296761676 407.97641690190557 L 509.20088561667825 410.9143178428492 L 510.92737180922063 413.9971807667873 L 512.4066571837519 417.20599879863795 L 513.6296214540259 420.52098850819436 L 514.5887246386394 423.9217118815513 L 515.2780535475251 427.38720232825665 L 515.6933582387347 430.89609394731406 Z" fill-opacity="1"/><text fill="rgb(0,0,0)" stroke="none" font-family="Helvetica Neue, Helvetica, sans-serif" font-size="16px" font-style="normal" font-weight="normal" text-decoration="normal" x="470.8320782207439" y="442.42675325506656" text-anchor="middle" dominant-baseline="text-after-edge" fill-opacity="1">Heat Bus</text><path fill="rgb(90,155,212)" stroke="none" paint-order="stroke fill markers" d=" M 363.5497248393584 165.5381961154657 L 363.41100485734916 169.0688554232187 L 362.9957001661396 172.5777470422761 L 362.3063712572539 176.04323748898145 L 361.3472680726403 179.44396086233832 L 360.12430380236634 182.75895057189473 L 358.645018427835 185.9677686037453 L 356.91853223529256 189.05063152768338 L 354.95548958623107 191.988532468627 L 352.7679932913598 194.76335829032396 L 350.3695299927531 197.35800126886033 L 347.7748870142167 199.75646456746708 L 345.0000611925197 201.94396086233832 L 342.06216025157613 203.90700351139984 L 338.97929732763805 205.63348970394225 L 335.7704792957875 207.1127750784736 L 332.45548958623107 208.3357393487476 L 329.05476621287414 209.29484253336113 L 325.5892757661688 209.9841714422469 L 322.08038414711143 210.39947613345646 L 318.5497248393584 210.5381961154657 L 315.0190655316054 210.39947613345646 L 311.51017391254805 209.9841714422469 L 308.0446834658427 209.29484253336113 L 304.64396009248577 208.3357393487476 L 301.32897038292936 207.1127750784736 L 298.12015235107884 205.63348970394225 L 295.0372894271407 203.90700351139986 L 292.09938848619714 201.94396086233832 L 289.32456266450015 199.7564645674671 L 286.7299196859638 197.35800126886033 L 284.33145638735704 194.76335829032396 L 282.14396009248577 191.988532468627 L 280.1809174434243 189.0506315276834 L 278.45443125088184 185.9677686037453 L 276.9751458763505 182.75895057189473 L 275.75218160607653 179.44396086233834 L 274.79307842146295 176.04323748898145 L 274.1037495125772 172.5777470422761 L 273.6884448213677 169.06885542321874 L 273.5497248393584 165.5381961154657 L 273.6884448213677 162.00753680771268 L 274.1037495125772 158.4986451886553 L 274.79307842146295 155.03315474194994 L 275.75218160607653 151.63243136859307 L 276.9751458763505 148.31744165903666 L 278.45443125088184 145.1086236271861 L 280.1809174434243 142.025760703248 L 282.14396009248577 139.08785976230442 L 284.33145638735704 136.31303394060743 L 286.72991968596375 133.71839096207106 L 289.32456266450015 131.3199276634643 L 292.09938848619714 129.13243136859307 L 295.0372894271407 127.16938871953154 L 298.12015235107884 125.44290252698912 L 301.3289703829294 123.96361715245777 L 304.6439600924858 122.74065288218375 L 308.04468346584275 121.78154969757023 L 311.5101739125481 121.09222078868447 L 315.0190655316055 120.67691609747493 L 318.5497248393586 120.5381961154657 L 322.0803841471116 120.67691609747496 L 325.589275766169 121.09222078868453 L 329.05476621287437 121.78154969757028 L 332.4554895862313 122.74065288218387 L 335.7704792957877 123.96361715245789 L 338.9792973276383 125.44290252698926 L 342.06216025157636 127.1693887195317 L 345.00006119252 129.13243136859325 L 347.7748870142169 131.3199276634645 L 350.3695299927533 133.7183909620713 L 352.76799329136 136.3130339406077 L 354.9554895862313 139.08785976230473 L 356.9185322352928 142.02576070324835 L 358.64501842783517 145.10862362718646 L 360.1243038023665 148.31744165903706 L 361.3472680726405 151.6324313685935 L 362.306371257254 155.03315474195043 L 362.9957001661397 158.49864518865581 L 363.4110048573492 162.0075368077132 Z" fill-opacity="1"/><text fill="rgb(0,0,0)" stroke="none" font-family="Helvetica Neue, Helvetica, sans-serif" font-size="16px" font-style="normal" font-weight="normal" text-decoration="normal" x="318.5497248393584" y="173.5381961154657" text-anchor="middle" dominant-baseline="text-after-edge" fill-opacity="1">Gas Pipeline</text><path fill="rgb(250,167,88)" stroke="none" paint-order="stroke fill markers" d=" M 84.27005668913844 309.8079861488243 L 84.13133670712921 313.3386454565773 L 83.71603201591964 316.84753707563465 L 83.02670310703388 320.31302752234 L 82.06759992242036 323.71375089569693 L 80.84463565214634 327.02874060525335 L 79.365350277615 330.2375586371039 L 77.63886408507258 333.320421561042 L 75.67582143601108 336.25832250198556 L 73.48832514113982 339.03314832368255 L 71.08986184253308 341.6277913022189 L 68.49521886399671 344.02625460082567 L 65.72039304229973 346.21375089569693 L 62.78249210135614 348.1767935447584 L 59.699629177418046 349.90327973730086 L 56.490811145567484 351.3825651118322 L 53.17582143601108 352.60552938210617 L 49.77509806265419 353.56463256671975 L 46.309607615948835 354.2539614756055 L 42.80071599689147 354.669266166815 L 39.27005668913844 354.8079861488243 L 35.73939738138542 354.669266166815 L 32.23050576232806 354.2539614756055 L 28.765015315622705 353.56463256671975 L 25.36429194226581 352.60552938210617 L 22.049302232709405 351.3825651118322 L 18.840484200858842 349.90327973730086 L 15.757621276920748 348.1767935447584 L 12.819720335977156 346.21375089569693 L 10.044894514280184 344.02625460082567 L 7.450251535743806 341.62779130221895 L 5.051788237137053 339.03314832368255 L 2.8642919422658153 336.25832250198556 L 0.9012492932042946 333.320421561042 L -0.8252368993381083 330.2375586371039 L -2.304522273869459 327.02874060525335 L -3.527486544143464 323.71375089569693 L -4.486589728757004 320.31302752234 L -5.175918637642752 316.8475370756347 L -5.591223328852315 313.3386454565773 L -5.729943310861557 309.8079861488243 L -5.591223328852315 306.2773268410713 L -5.175918637642759 302.7684352220139 L -4.486589728757011 299.30294477530856 L -3.5274865441434713 295.90222140195164 L -2.304522273869466 292.5872316923952 L -0.8252368993381154 289.3784136605447 L 0.9012492932042875 286.2955507366066 L 2.864291942265801 283.357649795663 L 5.051788237137046 280.582823973966 L 7.450251535743796 277.9881809954297 L 10.04489451428016 275.5897176968229 L 12.819720335977145 273.40222140195164 L 15.757621276920755 271.43917875289014 L 18.840484200858867 269.7126925603477 L 22.04930223270945 268.23340718581636 L 25.36429194226588 267.01044291554234 L 28.76501531562279 266.0513397309288 L 32.230505762328164 265.3620108220431 L 35.73939738138555 264.9467061308335 L 39.27005668913859 264.8079861488243 L 42.80071599689164 264.94670613083355 L 46.30960761594902 265.3620108220431 L 49.77509806265439 266.0513397309289 L 53.1758214360113 267.01044291554246 L 56.49081114556772 268.2334071858165 L 59.69962917741829 269.7126925603479 L 62.78249210135639 271.43917875289026 L 65.72039304229997 273.4022214019518 L 68.49521886399695 275.58971769682313 L 71.08986184253332 277.9881809954299 L 73.48832514114008 280.5828239739663 L 75.6758214360113 283.3576497956633 L 77.63886408507281 286.2955507366069 L 79.36535027761519 289.37841366054505 L 80.84463565214652 292.5872316923957 L 82.0675999224205 295.9022214019521 L 83.026703107034 299.302944775309 L 83.71603201591972 302.7684352220144 L 84.13133670712924 306.2773268410718 Z" fill-opacity="1"/><text fill="rgb(0,0,0)" stroke="none" font-family="Helvetica Neue, Helvetica, sans-serif" font-size="16px" font-style="normal" font-weight="normal" text-decoration="normal" x="39.27005668913844" y="317.8079861488243" text-anchor="middle" dominant-baseline="text-after-edge" fill-opacity="1">Expensive Power</text><path fill="rgb(206,112,88)" stroke="none" paint-order="stroke fill markers" d=" M 640.5999724364921 301.31003074953327 L 640.4612524544829 304.8406900572863 L 640.0459477632733 308.34958167634363 L 639.3566188543875 311.815072123049 L 638.397515669774 315.2157954964059 L 637.1745513994999 318.53078520596233 L 635.6952660249686 321.73960323781284 L 633.9687798324262 324.822466161751 L 632.0057371833647 327.76036710269454 L 629.8182408884935 330.53519292439154 L 627.4197775898867 333.1298359029279 L 624.8251346113503 335.52829920153465 L 622.0503087896534 337.7157954964059 L 619.1124078487097 339.6788381454674 L 616.0295449247717 341.4053243380098 L 612.8207268929211 342.8846097125412 L 609.5057371833647 344.10757398281515 L 606.1050138100078 345.06667716742874 L 602.6395233633025 345.75600607631446 L 599.1306317442451 346.171310767524 L 595.5999724364921 346.31003074953327 L 592.069313128739 346.171310767524 L 588.5604215096816 345.75600607631446 L 585.0949310629763 345.06667716742874 L 581.6942076896195 344.1075739828152 L 578.379217980063 342.8846097125412 L 575.1703999482124 341.40532433800985 L 572.0875370242744 339.6788381454674 L 569.1496360833307 337.7157954964059 L 566.3748102616338 335.52829920153465 L 563.7801672830974 333.1298359029279 L 561.3817039844906 330.53519292439154 L 559.1942076896195 327.76036710269454 L 557.2311650405579 324.822466161751 L 555.5046788480155 321.7396032378129 L 554.0253934734842 318.53078520596233 L 552.8024292032102 315.2157954964059 L 551.8433260185966 311.815072123049 L 551.1539971097109 308.3495816763437 L 550.7386924185013 304.8406900572863 L 550.5999724364921 301.31003074953327 L 550.7386924185013 297.77937144178026 L 551.1539971097109 294.2704798227229 L 551.8433260185966 290.80498937601755 L 552.8024292032102 287.4042660026606 L 554.0253934734842 284.08927629310426 L 555.5046788480155 280.8804582612537 L 557.2311650405579 277.79759533731556 L 559.1942076896195 274.859694396372 L 561.3817039844906 272.084868574675 L 563.7801672830974 269.49022559613866 L 566.3748102616338 267.0917622975319 L 569.1496360833307 264.9042660026606 L 572.0875370242744 262.9412233535991 L 575.1703999482124 261.2147371610567 L 578.3792179800631 259.73545178652535 L 581.6942076896195 258.5124875162513 L 585.0949310629765 257.5533843316378 L 588.5604215096818 256.8640554227521 L 592.0693131287392 256.44875073154253 L 595.5999724364922 256.31003074953327 L 599.1306317442453 256.44875073154253 L 602.6395233633026 256.86405542275213 L 606.105013810008 257.55338433163786 L 609.5057371833649 258.51248751625144 L 612.8207268929214 259.73545178652546 L 616.0295449247719 261.21473716105686 L 619.1124078487101 262.9412233535993 L 622.0503087896536 264.90426600266085 L 624.8251346113506 267.0917622975321 L 627.419777589887 269.4902255961389 L 629.8182408884937 272.0848685746753 L 632.0057371833649 274.8596943963723 L 633.9687798324264 277.7975953373159 L 635.6952660249688 280.88045826125403 L 637.1745513995002 284.08927629310466 L 638.3975156697741 287.4042660026611 L 639.3566188543876 290.804989376018 L 640.0459477632734 294.27047982272336 L 640.4612524544829 297.77937144178077 Z" fill-opacity="1"/><text fill="rgb(0,0,0)" stroke="none" font-family="Helvetica Neue, Helvetica, sans-serif" font-size="16px" font-style="normal" font-weight="normal" text-decoration="normal" x="595.5999724364921" y="309.31003074953327" text-anchor="middle" dominant-baseline="text-after-edge" fill-opacity="1">Expensive Heat</text><path fill="rgb(90,155,212)" stroke="none" paint-order="stroke fill markers" d=" M 362.55090972042746 20.65496473117033 L 362.4121897384182 24.185624038923354 L 361.99688504720865 27.69451565798072 L 361.3075561383229 31.160006104686076 L 360.34845295370934 34.560729478042965 L 359.1254886834354 37.87571918759937 L 357.64620330890403 41.084537219449935 L 355.9197171163616 44.16740014338802 L 353.9566744673001 47.10530108433162 L 351.76917817242884 49.88012690602859 L 349.37071487382207 52.474769884564964 L 346.7760718952857 54.87323318317172 L 344.00124607358873 57.060729478042965 L 341.06334513264517 59.02377212710448 L 337.9804822087071 60.75025831964688 L 334.7716641768565 62.22954369417823 L 331.4566744673001 63.45250796445224 L 328.0559510939432 64.41161114906578 L 324.5904606472378 65.10094005795153 L 321.08156902818047 65.51624474916109 L 317.55090972042746 65.65496473117034 L 314.02025041267444 65.51624474916109 L 310.5113587936171 65.10094005795153 L 307.04586834691173 64.41161114906578 L 303.6451449735548 63.452507964452245 L 300.3301552639984 62.22954369417823 L 297.1213372321479 60.75025831964689 L 294.03847430820974 59.023772127104486 L 291.1005733672662 57.060729478042965 L 288.3257475455692 54.87323318317173 L 285.73110456703284 52.47476988456497 L 283.3326412684261 49.8801269060286 L 281.1451449735548 47.10530108433163 L 279.1821023244933 44.167400143388036 L 277.45561613195093 41.08453721944994 L 275.97633075741953 37.87571918759937 L 274.75336648714557 34.56072947804297 L 273.794263302532 31.16000610468608 L 273.10493439364626 27.694515657980723 L 272.6896297024367 24.185624038923358 L 272.55090972042746 20.654964731170338 L 272.6896297024367 17.124305423417315 L 273.10493439364626 13.615413804359948 L 273.794263302532 10.149923357654593 L 274.7533664871455 6.749199984297704 L 275.97633075741953 3.4342102747412966 L 277.4556161319509 0.2253922428907309 L 279.1821023244933 -2.85747068104736 L 281.1451449735548 -5.795371621990956 L 283.3326412684261 -8.570197443687928 L 285.7311045670328 -11.164840422224305 L 288.3257475455692 -13.563303720831044 L 291.1005733672662 -15.750800015702296 L 294.03847430820974 -17.713842664763824 L 297.1213372321479 -19.44032885730624 L 300.33015526399845 -20.919614231837592 L 303.64514497355486 -22.142578502111604 L 307.0458683469118 -23.101681686725136 L 310.51135879361715 -23.791010595610885 L 314.02025041267456 -24.206315286820434 L 317.5509097204276 -24.34503526882967 L 321.08156902818064 -24.206315286820413 L 324.59046064723805 -23.791010595610835 L 328.0559510939434 -23.101681686725072 L 331.45667446730033 -22.142578502111505 L 334.77166417685675 -20.91961423183748 L 337.9804822087073 -19.4403288573061 L 341.0633451326454 -17.713842664763668 L 344.001246073589 -15.750800015702119 L 346.77607189528595 -13.563303720830845 L 349.37071487382235 -11.16484042222406 L 351.76917817242906 -8.570197443687654 L 353.95667446730033 -5.795371621990647 L 355.9197171163618 -2.857470681047019 L 357.6462033089042 0.22539224289110749 L 359.12548868343555 3.434210274741705 L 360.3484529537095 6.7491999842981425 L 361.30755613832304 10.149923357655062 L 361.9968850472087 13.615413804360443 L 362.41218973841825 17.124305423417837 Z" fill-opacity="1"/><text fill="rgb(0,0,0)" stroke="none" font-family="Helvetica Neue, Helvetica, sans-serif" font-size="16px" font-style="normal" font-weight="normal" text-decoration="normal" x="317.55090972042746" y="28.65496473117033" text-anchor="middle" dominant-baseline="text-after-edge" fill-opacity="1">Gas Commodity</text><path fill="rgb(250,167,88)" stroke="none" paint-order="stroke fill markers" d=" M 258.625610031184 591.049752889844 L 258.48689004917475 594.580412197597 L 258.0715853579652 598.0893038166544 L 257.3822564490794 601.5547942633597 L 256.4231532644659 604.9555176367165 L 255.20018899419188 608.270507346273 L 253.72090361966053 611.4793253781236 L 251.99441742711812 614.5621883020616 L 250.0313747780566 617.5000892430053 L 247.84387848318536 620.2749150647022 L 245.44541518457862 622.8695580432386 L 242.85077220604225 625.2680213418454 L 240.0759463843453 627.4555176367165 L 237.1380454434017 629.4185602857781 L 234.05518251946359 631.1450464783205 L 230.84636448761302 632.6243318528518 L 227.5313747780566 633.8472961231258 L 224.13065140469973 634.8063993077394 L 220.66516095799437 635.4957282166251 L 217.156269338937 635.9110329078347 L 213.62561003118398 636.049752889844 L 210.09495072343097 635.9110329078347 L 206.5860591043736 635.4957282166251 L 203.12056865766823 634.8063993077394 L 199.71984528431136 633.8472961231258 L 196.40485557475495 632.6243318528518 L 193.19603754290438 631.1450464783205 L 190.1131746189663 629.4185602857781 L 187.1752736780227 627.4555176367165 L 184.4004478563257 625.2680213418454 L 181.80580487778934 622.8695580432386 L 179.4073415791826 620.2749150647022 L 177.21984528431136 617.5000892430053 L 175.25680263524984 614.5621883020616 L 173.53031644270743 611.4793253781236 L 172.0510310681761 608.270507346273 L 170.82806679790207 604.9555176367165 L 169.86896361328854 601.5547942633597 L 169.1796347044028 598.0893038166544 L 168.76433001319322 594.580412197597 L 168.62561003118398 591.049752889844 L 168.76433001319322 587.5190935820909 L 169.1796347044028 584.0102019630335 L 169.86896361328854 580.5447115163282 L 170.82806679790207 577.1439881429714 L 172.0510310681761 573.8289984334149 L 173.53031644270743 570.6201804015643 L 175.2568026352498 567.5373174776263 L 177.21984528431133 564.5994165366826 L 179.40734157918257 561.8245907149857 L 181.80580487778934 559.2299477364493 L 184.40044785632568 556.8314844378426 L 187.17527367802268 554.6439881429714 L 190.1131746189663 552.6809454939098 L 193.1960375429044 550.9544593013674 L 196.404855574755 549.4751739268361 L 199.71984528431142 548.2522096565621 L 203.12056865766831 547.2931064719485 L 206.5860591043737 546.6037775630627 L 210.09495072343108 546.1884728718532 L 213.62561003118412 546.049752889844 L 217.15626933893716 546.1884728718532 L 220.66516095799457 546.6037775630627 L 224.13065140469993 547.2931064719486 L 227.53137477805683 548.2522096565621 L 230.84636448761324 549.4751739268361 L 234.0551825194638 550.9544593013675 L 237.13804544340192 552.6809454939099 L 240.0759463843455 554.6439881429715 L 242.8507722060425 556.8314844378427 L 245.44541518457888 559.2299477364495 L 247.84387848318562 561.824590714986 L 250.03137477805683 564.599416536683 L 251.99441742711835 567.5373174776266 L 253.72090361966073 570.6201804015648 L 255.20018899419205 573.8289984334153 L 256.423153264466 577.1439881429718 L 257.38225644907953 580.5447115163287 L 258.07158535796526 584.0102019630341 L 258.4868900491748 587.5190935820915 Z" fill-opacity="1"/><text fill="rgb(0,0,0)" stroke="none" font-family="Helvetica Neue, Helvetica, sans-serif" font-size="16px" font-style="normal" font-weight="normal" text-decoration="normal" x="213.62561003118398" y="599.049752889844" text-anchor="middle" dominant-baseline="text-after-edge" fill-opacity="1">Power Demand</text><path fill="rgb(206,112,88)" stroke="none" paint-order="stroke fill markers" d=" M 520.0278723621814 593.3397793715724 L 519.8891523801722 596.8704386793254 L 519.4738476889626 600.3793302983828 L 518.7845187800768 603.8448207450881 L 517.8254155954633 607.245544118445 L 516.6024513251892 610.5605338280014 L 515.123165950658 613.769351859852 L 513.3966797581155 616.85221478379 L 511.433637109054 619.7901157247337 L 509.24614081418275 622.5649415464306 L 506.84767751557604 625.159584524967 L 504.25303453703964 627.5580478235738 L 501.47820871534265 629.745544118445 L 498.5403077743991 631.7085867675065 L 495.457444850461 633.435072960049 L 492.24862681861043 634.9143583345802 L 488.933637109054 636.1373226048543 L 485.5329137356971 637.0964257894678 L 482.06742328899173 637.7857546983536 L 478.5585316699344 638.2010593895632 L 475.02787236218137 638.3397793715724 L 471.49721305442836 638.2010593895632 L 467.988321435371 637.7857546983536 L 464.52283098866565 637.0964257894678 L 461.1221076153087 636.1373226048543 L 457.8071179057523 634.9143583345802 L 454.5982998739018 633.435072960049 L 451.51543694996366 631.7085867675065 L 448.5775360090201 629.745544118445 L 445.8027101873231 627.5580478235738 L 443.20806720878676 625.159584524967 L 440.80960391018 622.5649415464306 L 438.6221076153087 619.7901157247337 L 436.65906496624723 616.85221478379 L 434.9325787737048 613.769351859852 L 433.45329339917345 610.5605338280014 L 432.2303291288995 607.245544118445 L 431.2712259442859 603.8448207450881 L 430.5818970354002 600.3793302983828 L 430.16659234419063 596.8704386793254 L 430.02787236218137 593.3397793715724 L 430.16659234419063 589.8091200638194 L 430.5818970354002 586.300228444762 L 431.2712259442859 582.8347379980567 L 432.2303291288995 579.4340146246998 L 433.45329339917345 576.1190249151433 L 434.9325787737048 572.9102068832927 L 436.65906496624723 569.8273439593547 L 438.6221076153087 566.889443018411 L 440.80960391018 564.1146171967141 L 443.2080672087867 561.5199742181777 L 445.8027101873231 559.121510919571 L 448.5775360090201 556.9340146246998 L 451.51543694996366 554.9709719756382 L 454.5982998739018 553.2444857830958 L 457.80711790575236 551.7652004085644 L 461.1221076153088 550.5422361382905 L 464.5228309886657 549.5831329536769 L 467.98832143537106 548.8938040447912 L 471.49721305442847 548.4784993535816 L 475.02787236218154 548.3397793715724 L 478.55853166993455 548.4784993535816 L 482.06742328899196 548.8938040447912 L 485.5329137356973 549.583132953677 L 488.93363710905425 550.5422361382905 L 492.24862681861066 551.7652004085646 L 495.45744485046123 553.2444857830959 L 498.5403077743993 554.9709719756383 L 501.47820871534293 556.9340146246999 L 504.25303453703987 559.1215109195712 L 506.84767751557627 561.5199742181779 L 509.246140814183 564.1146171967143 L 511.43363710905425 566.8894430184114 L 513.3966797581157 569.8273439593551 L 515.1231659506582 572.9102068832932 L 516.6024513251895 576.1190249151438 L 517.8254155954635 579.4340146247002 L 518.784518780077 582.8347379980571 L 519.4738476889627 586.3002284447625 L 519.8891523801722 589.8091200638199 Z" fill-opacity="1"/><text fill="rgb(0,0,0)" stroke="none" font-family="Helvetica Neue, Helvetica, sans-serif" font-size="16px" font-style="normal" font-weight="normal" text-decoration="normal" x="475.02787236218137" y="601.3397793715724" text-anchor="middle" dominant-baseline="text-after-edge" fill-opacity="1">Heat Demand</text><path fill="rgb(122,195,106)" stroke="none" paint-order="stroke fill markers" d=" M 362.0508610780734 301.41024273858403 L 361.91214109606415 304.94090204633704 L 361.4968364048546 308.4497936653944 L 360.8075074959689 311.91528411209976 L 359.8484043113553 315.3160074854567 L 358.62544004108133 318.6309971950131 L 357.14615466655 321.8398152268636 L 355.41966847400755 324.92267815080174 L 353.45662582494606 327.8605790917453 L 351.2691295300748 330.6354049134423 L 348.870666231468 333.23004789197864 L 346.2760232529317 335.6285111905854 L 343.5011974312347 337.8160074854567 L 340.5632964902911 339.7790501345182 L 337.48043356635304 341.50553632706055 L 334.2716155345025 342.98482170159195 L 330.95662582494606 344.2077859718659 L 327.55590245158913 345.1668891564795 L 324.0904120048838 345.8562180653652 L 320.5815203858264 346.27152275657477 L 317.0508610780734 346.41024273858403 L 313.5202017703204 346.27152275657477 L 310.01131015126305 345.8562180653652 L 306.5458197045577 345.1668891564795 L 303.14509633120076 344.207785971866 L 299.83010662164435 342.98482170159195 L 296.62128858979383 341.5055363270606 L 293.5384256658557 339.7790501345182 L 290.60052472491213 337.8160074854567 L 287.82569890321514 335.6285111905854 L 285.2310559246788 333.23004789197864 L 282.832592626072 330.6354049134423 L 280.64509633120076 327.8605790917453 L 278.68205368213927 324.92267815080174 L 276.9555674895969 321.83981522686366 L 275.4762821150655 318.6309971950131 L 274.2533178447915 315.3160074854567 L 273.29421466017794 311.91528411209976 L 272.6048857512922 308.44979366539445 L 272.1895810600827 304.94090204633704 L 272.0508610780734 301.41024273858403 L 272.1895810600827 297.879583430831 L 272.6048857512922 294.37069181177367 L 273.29421466017794 290.9052013650683 L 274.25331784479147 287.5044779917114 L 275.4762821150655 284.189488282155 L 276.95556748959683 280.98067025030446 L 278.68205368213927 277.8978073263663 L 280.64509633120076 274.95990638542276 L 282.832592626072 272.18508056372576 L 285.23105592467874 269.5904375851894 L 287.82569890321514 267.19197428658265 L 290.60052472491213 265.0044779917114 L 293.5384256658557 263.0414353426499 L 296.62128858979383 261.31494915010745 L 299.8301066216444 259.8356637755761 L 303.1450963312008 258.6126995053021 L 306.54581970455774 257.65359632068856 L 310.0113101512631 256.96426741180284 L 313.5202017703205 256.5489627205933 L 317.0508610780736 256.41024273858403 L 320.5815203858266 256.5489627205933 L 324.090412004884 256.9642674118029 L 327.55590245158936 257.6535963206886 L 330.9566258249463 258.6126995053022 L 334.2716155345027 259.8356637755762 L 337.48043356635327 261.3149491501076 L 340.56329649029135 263.04143534265006 L 343.50119743123497 265.0044779917116 L 346.2760232529319 267.1919742865829 L 348.8706662314683 269.59043758518965 L 351.269129530075 272.18508056372605 L 353.4566258249463 274.95990638542304 L 355.4196684740078 277.89780732636666 L 357.14615466655016 280.9806702503048 L 358.6254400410815 284.1894882821554 L 359.84840431135547 287.50447799171184 L 360.807507495969 290.90520136506876 L 361.49683640485466 294.3706918117741 L 361.9121410960642 297.87958343083153 Z" fill-opacity="1"/><text fill="rgb(0,0,0)" stroke="none" font-family="Helvetica Neue, Helvetica, sans-serif" font-size="16px" font-style="normal" font-weight="normal" text-decoration="normal" x="317.0508610780734" y="309.41024273858403" text-anchor="middle" dominant-baseline="text-after-edge" fill-opacity="1">CHP</text><g transform="scale(0.7742923571603052,0.7742923571603052) translate(-545.1066523434913,-31.291501834872122)"/></g></svg>