<svg version="1.1" xmlns="http://www.w3.org/2000/svg" xmlns:xlink="http://www.w3.org/1999/xlink" width="1804" height="918"><defs/><g transform="translate(390.1547972613003,32.174432213714454) scale(2.174432213714473,2.174432213714473)"><path fill="none" stroke="rgb(0,0,0)" paint-order="fill stroke markers" d=" M 200.84815057073547 205.33877130688126 L 146.29873415992353 296.8994190443477" stroke-opacity="1" stroke-linejoin="round" stroke-miterlimit="10" stroke-width="7"/><path fill="rgb(0,0,0)" stroke="none" paint-order="stroke fill markers" d=" M 140.60048345709077 289.04269710118865 L 139.13320503104086 308.9266877410691 L 155.92076459857518 298.1701160979807 Z" fill-opacity="1"/><path fill="none" stroke="rgb(0,0,0)" paint-order="fill stroke markers" d=" M 180.32478839962025 155.36928305173473 Q 132.34065491020547 142.90883067500397 90.80556049302413 109.18905816791329" stroke-opacity="1" stroke-linejoin="round" stroke-miterlimit="10" stroke-width="7"/><path fill="rgb(0,0,0)" stroke="none" paint-order="stroke fill markers" d=" M 99.4368345517747 104.51970448127219 L 79.93644444383196 100.36509554847788 L 88.31299136236217 118.45817299450866 Z" fill-opacity="1"/><path fill="none" stroke="rgb(0,0,0)" paint-order="fill stroke markers" d=" M 366.4693004591762 252.1548731388154 L 274.4845427045747 197.01451423926562" stroke-opacity="1" stroke-linejoin="round" stroke-miterlimit="10" stroke-width="7"/><path fill="rgb(0,0,0)" stroke="none" paint-order="stroke fill markers" d=" M 282.35667634386846 191.33757380188646 L 262.4767345846759 189.81642114764117 L 273.18777751679517 206.6330661475424 Z" fill-opacity="1"/><path fill="none" stroke="rgb(0,0,0)" paint-order="fill stroke markers" d=" M 366.9779862991729 70.16297295436499 L 272.79405111301816 133.6882399240776" stroke-opacity="1" stroke-linejoin="round" stroke-miterlimit="10" stroke-width="7"/><path fill="rgb(0,0,0)" stroke="none" paint-order="stroke fill markers" d=" M 270.98596502158193 124.1525718588393 L 261.1873765911158 141.51672039876894 L 280.9578484813392 138.93710201918404 Z" fill-opacity="1"/><path fill="none" stroke="rgb(0,0,0)" paint-order="fill stroke markers" d=" M 88.55542008538092 83.31276885883473 Q 136.5395535747957 95.77322123556549 178.07464799197703 129.49299374265615" stroke-opacity="1" stroke-linejoin="round" stroke-miterlimit="10" stroke-width="7"/><path fill="rgb(0,0,0)" stroke="none" paint-order="stroke fill markers" d=" M 169.44337393322647 134.16234742929726 L 188.9437640411692 138.31695636209156 L 180.567217122639 120.2238789160608 Z" fill-opacity="1"/><path fill="rgb(212,147,90)" stroke="none" paint-order="stroke fill markers" d=" M 268.88020848500116 166.67969335313393 L 268.7414885029919 170.21035266088694 L 268.32618381178236 173.71924427994432 L 267.63685490289663 177.18473472664968 L 266.67775171828305 180.58545810000655 L 265.4547874480091 183.90044780956296 L 263.97550207347774 187.10926584141353 L 262.2490158809353 190.1921287653516 L 260.2859732318738 193.1300297062952 L 258.09847693700254 195.9048555279922 L 255.7000136383958 198.49949850652857 L 253.10537065985943 200.8979618051353 L 250.33054483816244 203.08545810000658 L 247.39264389721887 205.04850074906807 L 244.30978097328077 206.77498694161048 L 241.1009629414302 208.25427231614182 L 237.7859732318738 209.47723658641584 L 234.38524985851691 210.43633977102937 L 230.91975941181155 211.12566867991512 L 227.41086779275417 211.5409733711247 L 223.88020848500116 211.67969335313393 L 220.34954917724815 211.5409733711247 L 216.84065755819077 211.12566867991512 L 213.3751671114854 210.4363397710294 L 209.97444373812854 209.47723658641584 L 206.65945402857213 208.25427231614182 L 203.45063599672156 206.77498694161048 L 200.36777307278348 205.04850074906807 L 197.4298721318399 203.08545810000658 L 194.6550463101429 200.8979618051353 L 192.06040333160652 198.49949850652857 L 189.66194003299978 195.9048555279922 L 187.47444373812854 193.13002970629523 L 185.51140108906702 190.19212876535164 L 183.7849148965246 187.10926584141353 L 182.30562952199327 183.90044780956296 L 181.08266525171925 180.58545810000658 L 180.12356206710572 177.18473472664968 L 179.43423315821997 173.71924427994432 L 179.0189284670104 170.21035266088697 L 178.88020848500116 166.67969335313393 L 179.0189284670104 163.14903404538092 L 179.43423315821997 159.64014242632354 L 180.1235620671057 156.1746519796182 L 181.08266525171925 152.7739286062613 L 182.30562952199324 149.4589388967049 L 183.7849148965246 146.25012086485432 L 185.51140108906702 143.16725794091624 L 187.4744437381285 140.22935699997265 L 189.66194003299978 137.45453117827566 L 192.06040333160652 134.8598881997393 L 194.6550463101429 132.46142490113255 L 197.42987213183986 130.2739286062613 L 200.36777307278348 128.3108859571998 L 203.4506359967216 126.58439976465735 L 206.65945402857216 125.105114390126 L 209.9744437381286 123.88215011985199 L 213.3751671114855 122.92304693523846 L 216.84065755819088 122.2337180263527 L 220.34954917724826 121.81841333514316 L 223.8802084850013 121.67969335313393 L 227.41086779275435 121.81841333514319 L 230.91975941181175 122.23371802635276 L 234.3852498585171 122.92304693523852 L 237.785973231874 123.8821501198521 L 241.10096294143042 125.10511439012612 L 244.30978097328102 126.58439976465749 L 247.3926438972191 128.31088595719993 L 250.3305448381627 130.27392860626148 L 253.1053706598597 132.46142490113274 L 255.70001363839606 134.85988819973954 L 258.0984769370028 137.45453117827594 L 260.28597323187404 140.22935699997294 L 262.24901588093553 143.16725794091658 L 263.9755020734779 146.2501208648547 L 265.45478744800926 149.4589388967053 L 266.6777517182832 152.77392860626173 L 267.63685490289674 156.17465197961866 L 268.32618381178247 159.64014242632405 L 268.74148850299196 163.14903404538143 Z" fill-opacity="1"/><text fill="rgb(0,0,0)" stroke="none" font-family="Helvetica Neue, Helvetica, sans-serif" font-size="16px" font-style="normal" font-weight="normal" text-decoration="normal" x="223.88020848500116" y="174.67969335313393" text-anchor="middle" dominant-baseline="text-after-edge" fill-opacity="1">Central Bus</text><path fill="rgb(90,155,212)" stroke="none" paint-order="stroke fill markers" d=" M 450.065826558851 275.2916009333226 L 449.9271065768417 278.82226024107564 L 449.51180188563217 282.331151860133 L 448.82247297674644 285.79664230683835 L 447.86336979213286 289.1973656801953 L 446.6404055218589 292.5123553897517 L 445.16112014732755 295.7211734216022 L 443.4346339547851 298.80403634554034 L 441.4715913057236 301.7419372864839 L 439.28409501085235 304.5167631081809 L 436.88563171224564 307.11140608671724 L 434.29098873370924 309.509869385324 L 431.51616291201225 311.6973656801953 L 428.5782619710687 313.66040832925677 L 425.4953990471306 315.38689452179915 L 422.28658101528003 316.86617989633055 L 418.9715913057236 318.0891441666045 L 415.5708679323667 319.0482473512181 L 412.10537748566134 319.7375762601038 L 408.596485866604 320.15288095131336 L 405.065826558851 320.2916009333226 L 401.53516725109796 320.15288095131336 L 398.0262756320406 319.7375762601038 L 394.56078518533525 319.0482473512181 L 391.1600618119783 318.08914416660457 L 387.8450721024219 316.86617989633055 L 384.6362540705714 315.3868945217992 L 381.55339114663326 313.66040832925677 L 378.6154902056897 311.6973656801953 L 375.8406643839927 309.509869385324 L 373.24602140545636 307.11140608671724 L 370.8475581068496 304.5167631081809 L 368.6600618119783 301.7419372864839 L 366.69701916291683 298.80403634554034 L 364.9705329703744 295.72117342160226 L 363.49124759584305 292.5123553897517 L 362.2682833255691 289.1973656801953 L 361.3091801409555 285.79664230683835 L 360.6198512320698 282.33115186013305 L 360.20454654086024 278.82226024107564 L 360.065826558851 275.2916009333226 L 360.20454654086024 271.7609416255696 L 360.6198512320698 268.25205000651226 L 361.3091801409555 264.7865595598069 L 362.2682833255691 261.38583618645 L 363.49124759584305 258.0708464768936 L 364.9705329703744 254.86202844504302 L 366.69701916291683 251.77916552110494 L 368.6600618119783 248.84126458016135 L 370.8475581068496 246.06643875846436 L 373.2460214054563 243.471795779928 L 375.8406643839927 241.07333248132124 L 378.6154902056897 238.88583618645 L 381.55339114663326 236.9227935373885 L 384.6362540705714 235.19630734484605 L 387.84507210242197 233.7170219703147 L 391.1600618119784 232.49405770004068 L 394.5607851853353 231.53495451542716 L 398.02627563204067 230.8456256065414 L 401.5351672510981 230.43032091533186 L 405.06582655885114 230.29160093332263 L 408.59648586660416 230.4303209153319 L 412.10537748566156 230.84562560654146 L 415.5708679323669 231.53495451542722 L 418.97159130572385 232.4940577000408 L 422.28658101528026 233.71702197031482 L 425.49539904713083 235.1963073448462 L 428.5782619710689 236.92279353738863 L 431.51616291201253 238.88583618645018 L 434.29098873370947 241.07333248132144 L 436.88563171224587 243.47179577992824 L 439.2840950108526 246.06643875846464 L 441.47159130572385 248.84126458016163 L 443.43463395478534 251.77916552110528 L 445.1611201473277 254.8620284450434 L 446.64040552185907 258.070846476894 L 447.863369792133 261.38583618645043 L 448.82247297674655 264.78655955980736 L 449.5118018856323 268.2520500065127 L 449.92710657684177 271.7609416255701 Z" fill-opacity="1"/><text fill="rgb(0,0,0)" stroke="none" font-family="Helvetica Neue, Helvetica, sans-serif" font-size="16px" font-style="normal" font-weight="normal" text-decoration="normal" x="405.065826558851" y="283.2916009333226" text-anchor="middle" dominant-baseline="text-after-edge" fill-opacity="1">Over Producing</text><path fill="rgb(122,195,106)" stroke="none" paint-order="stroke fill markers" d=" M 449.2851544052875 45 L 449.14643442327827 48.53065930775302 L 448.7311297320687 52.03955092681039 L 448.041800823183 55.505041373515745 L 447.0826976385694 58.905764746872634 L 445.85973336829545 62.22075445642904 L 444.3804479937641 65.4295724882796 L 442.65396180122167 68.5124354122177 L 440.6909191521602 71.45033635316129 L 438.5034228572889 74.22516217485827 L 436.10495955868214 76.81980515339464 L 433.5103165801458 79.21826845200138 L 430.7354907584488 81.40576474687263 L 427.79758981750524 83.36880739593414 L 424.71472689356716 85.09529358847655 L 421.5059088617166 86.5745789630079 L 418.1909191521602 87.79754323328191 L 414.79019577880325 88.75664641789544 L 411.3247053320979 89.4459753267812 L 407.81581371304054 89.86128001799077 L 404.2851544052875 90 L 400.7544950975345 89.86128001799077 L 397.24560347847716 89.4459753267812 L 393.7801130317718 88.75664641789545 L 390.3793896584149 87.79754323328191 L 387.06439994885847 86.5745789630079 L 383.85558191700795 85.09529358847655 L 380.7727189930698 83.36880739593416 L 377.83481805212625 81.40576474687263 L 375.05999223042926 79.2182684520014 L 372.4653492518929 76.81980515339464 L 370.06688595328615 74.22516217485827 L 367.8793896584149 71.4503363531613 L 365.9163470093534 68.5124354122177 L 364.189860816811 65.4295724882796 L 362.7105754422796 62.22075445642905 L 361.48761117200564 58.905764746872634 L 360.52850798739206 55.50504137351575 L 359.83917907850633 52.03955092681039 L 359.4238743872968 48.53065930775303 L 359.2851544052875 45.00000000000001 L 359.4238743872968 41.46934069224698 L 359.83917907850633 37.960449073189615 L 360.52850798739206 34.49495862648426 L 361.4876111720056 31.094235253127373 L 362.7105754422796 27.779245543570966 L 364.18986081681095 24.5704275117204 L 365.9163470093534 21.48756458778231 L 367.8793896584149 18.549663646838713 L 370.06688595328615 15.774837825141741 L 372.46534925189286 13.180194846605364 L 375.05999223042926 10.781731547998625 L 377.83481805212625 8.594235253127373 L 380.7727189930698 6.631192604065845 L 383.85558191700795 4.904706411523428 L 387.0643999488585 3.425421036992077 L 390.37938965841494 2.202456766718065 L 393.78011303177186 1.2433535821045325 L 397.2456034784772 0.5540246732187839 L 400.75449509753463 0.13871998200923485 L 404.2851544052877 0 L 407.8158137130407 0.13871998200925617 L 411.3247053320981 0.5540246732188336 L 414.7901957788035 1.2433535821045965 L 418.1909191521604 2.2024567667181643 L 421.5059088617168 3.4254210369921907 L 424.7147268935674 4.90470641152357 L 427.79758981750547 6.631192604066001 L 430.7354907584491 8.59423525312755 L 433.510316580146 10.781731547998824 L 436.1049595586824 13.180194846605609 L 438.50342285728914 15.774837825142015 L 440.6909191521604 18.549663646839022 L 442.6539618012219 21.48756458778265 L 444.3804479937643 24.570427511720776 L 445.8597333682956 27.779245543571374 L 447.0826976385696 31.094235253127813 L 448.0418008231831 34.49495862648473 L 448.7311297320688 37.96044907319011 L 449.1464344232783 41.469340692247506 Z" fill-opacity="1"/><text fill="rgb(0,0,0)" stroke="none" font-family="Helvetica Neue, Helvetica, sans-serif" font-size="16px" font-style="normal" font-weight="normal" text-decoration="normal" x="404.2851544052875" y="53" text-anchor="middle" dominant-baseline="text-after-edge" fill-opacity="1">Unused Expensive</text><path fill="rgb(250,167,88)" stroke="none" paint-order="stroke fill markers" d=" M 161.10114711677517 347.5857656948164 L 160.96242713476593 351.11642500256943 L 160.54712244355636 354.6253166216268 L 159.8577935346706 358.09080706833214 L 158.89869035005708 361.49153044168906 L 157.67572607978306 364.8065201512455 L 156.19644070525172 368.015338183096 L 154.4699545127093 371.09820110703413 L 152.50691186364782 374.0361020479777 L 150.31941556877655 376.8109278696747 L 147.9209522701698 379.405570848211 L 145.32630929163344 381.8040341468178 L 142.55148346993644 383.99153044168906 L 139.61358252899288 385.95457309075056 L 136.53071960505477 387.68105928329294 L 133.3219015732042 389.16034465782434 L 130.00691186364782 390.3833089280983 L 126.60618849029092 391.3424121127119 L 123.14069804358556 392.0317410215976 L 119.6318064245282 392.44704571280715 L 116.10114711677517 392.5857656948164 L 112.57048780902215 392.44704571280715 L 109.06159618996477 392.0317410215976 L 105.59610574325943 391.3424121127119 L 102.19538236990253 390.38330892809836 L 98.88039266034613 389.16034465782434 L 95.67157462849556 387.681059283293 L 92.58871170455747 385.95457309075056 L 89.65081076361388 383.99153044168906 L 86.87598494191691 381.8040341468178 L 84.28134196338053 379.405570848211 L 81.88287866477378 376.8109278696747 L 79.69538236990255 374.0361020479777 L 77.73233972084103 371.09820110703413 L 76.00585352829862 368.01533818309605 L 74.52656815376727 364.8065201512455 L 73.30360388349325 361.49153044168906 L 72.34450069887973 358.09080706833214 L 71.65517178999397 354.62531662162684 L 71.2398670987844 351.11642500256943 L 71.10114711677517 347.5857656948164 L 71.2398670987844 344.0551063870634 L 71.65517178999397 340.54621476800605 L 72.34450069887971 337.0807243213007 L 73.30360388349325 333.68000094794377 L 74.52656815376726 330.3650112383874 L 76.00585352829862 327.15619320653684 L 77.73233972084101 324.0733302825987 L 79.69538236990252 321.13542934165514 L 81.88287866477377 318.36060351995815 L 84.28134196338053 315.7659605414218 L 86.87598494191688 313.36749724281503 L 89.65081076361386 311.18000094794377 L 92.58871170455748 309.2169582988823 L 95.67157462849559 307.49047210633984 L 98.88039266034617 306.0111867318085 L 102.1953823699026 304.7882224615345 L 105.59610574325951 303.82911927692095 L 109.06159618996489 303.1397903680352 L 112.57048780902228 302.7244856768257 L 116.10114711677532 302.5857656948164 L 119.63180642452836 302.7244856768257 L 123.14069804358574 303.1397903680353 L 126.60618849029112 303.829119276921 L 130.006911863648 304.7882224615346 L 133.32190157320443 306.0111867318086 L 136.53071960505503 307.49047210634 L 139.6135825289931 309.21695829888245 L 142.5514834699367 311.180000947944 L 145.3263092916337 313.36749724281526 L 147.92095227017006 315.76596054142203 L 150.3194155687768 318.36060351995843 L 152.50691186364804 321.1354293416554 L 154.46995451270953 324.07333028259904 L 156.19644070525192 327.1561932065372 L 157.67572607978326 330.3650112383878 L 158.89869035005722 333.6800009479442 L 159.85779353467072 337.08072432130115 L 160.54712244355645 340.5462147680065 L 160.96242713476596 344.0551063870639 Z" fill-opacity="1"/><text fill="rgb(0,0,0)" stroke="none" font-family="Helvetica Neue, Helvetica, sans-serif" font-size="16px" font-style="normal" font-weight="normal" text-decoration="normal" x="116.10114711677517" y="355.5857656948164" text-anchor="middle" dominant-baseline="text-after-edge" fill-opacity="1">Demand</text><path fill="rgb(206,112,88)" stroke="none" paint-order="stroke fill markers" d=" M 90 72.00235855743553 L 89.86128001799077 75.53301786518855 L 89.4459753267812 79.04190948424592 L 88.75664641789544 82.50739993095127 L 87.79754323328191 85.90812330430816 L 86.5745789630079 89.22311301386458 L 85.09529358847655 92.43193104571513 L 83.36880739593414 95.51479396965323 L 81.40576474687263 98.45269491059682 L 79.21826845200138 101.2275207322938 L 76.81980515339464 103.82216371083017 L 74.22516217485827 106.22062700943692 L 71.45033635316129 108.40812330430816 L 68.5124354122177 110.37116595336968 L 65.4295724882796 112.09765214591208 L 62.22075445642904 113.57693752044344 L 58.905764746872634 114.79990179071743 L 55.505041373515745 115.75900497533098 L 52.03955092681039 116.44833388421674 L 48.53065930775303 116.86363857542628 L 45 117.00235855743553 L 41.46934069224698 116.86363857542628 L 37.960449073189615 116.44833388421674 L 34.49495862648426 115.75900497533098 L 31.09423525312737 114.79990179071744 L 27.779245543570962 113.57693752044344 L 24.5704275117204 112.0976521459121 L 21.487564587782305 110.37116595336968 L 18.549663646838713 108.40812330430816 L 15.774837825141741 106.22062700943692 L 13.180194846605364 103.82216371083017 L 10.78173154799861 101.2275207322938 L 8.594235253127373 98.45269491059682 L 6.631192604065852 95.51479396965323 L 4.904706411523449 92.43193104571513 L 3.4254210369920983 89.22311301386458 L 2.202456766718093 85.90812330430816 L 1.2433535821045538 82.50739993095128 L 0.5540246732188052 79.04190948424592 L 0.13871998200924196 75.53301786518855 L 0 72.00235855743553 L 0.13871998200924196 68.47169924968252 L 0.5540246732187981 64.96280763062515 L 1.2433535821045467 61.49731718391979 L 2.202456766718086 58.0965938105629 L 3.425421036992091 54.781604101006494 L 4.904706411523442 51.572786069155924 L 6.631192604065845 48.48992314521784 L 8.594235253127358 45.55202220427424 L 10.781731547998604 42.77719638257727 L 13.180194846605353 40.18255340404089 L 15.774837825141717 37.78409010543415 L 18.549663646838702 35.5965938105629 L 21.487564587782312 33.63355116150137 L 24.570427511720425 31.907064968958956 L 27.779245543571008 30.427779594427605 L 31.094235253127437 29.204815324153593 L 34.49495862648435 28.24571213954006 L 37.96044907318972 27.556383230654312 L 41.46934069224711 27.141078539444763 L 45.00000000000015 27.002358557435528 L 48.5306593077532 27.141078539444784 L 52.03955092681058 27.55638323065436 L 55.50504137351595 28.245712139540124 L 58.905764746872855 29.204815324153692 L 62.220754456429276 30.42777959442772 L 65.42957248827985 31.907064968959098 L 68.51243541221794 33.63355116150153 L 71.45033635316153 35.59659381056308 L 74.22516217485851 37.78409010543435 L 76.81980515339488 40.18255340404114 L 79.21826845200164 42.77719638257754 L 81.40576474687286 45.55202220427455 L 83.36880739593437 48.48992314521818 L 85.09529358847675 51.57278606915631 L 86.57457896300808 54.781604101006906 L 87.79754323328206 58.09659381056334 L 88.75664641789555 61.49731718392026 L 89.44597532678128 64.96280763062565 L 89.8612800179908 68.47169924968303 Z" fill-opacity="1"/><text fill="rgb(0,0,0)" stroke="none" font-family="Helvetica Neue, Helvetica, sans-serif" font-size="16px" font-style="normal" font-weight="normal" text-decoration="normal" x="45" y="80.00235855743553" text-anchor="middle" dominant-baseline="text-after-edge" fill-opacity="1">Battery</text><g transform="scale(0.4598901698074783,0.4598901698074783) translate(-390.1547972613003,-32.174432213714454)"/></g></svg>