<svg version="1.1" xmlns="http://www.w3.org/2000/svg" xmlns:xlink="http://www.w3.org/1999/xlink" width="1804" height="918"><defs/><g transform="translate(471.61546340895075,31.89925667000273) scale(1.8992566700027151,1.8992566700027151)"><path fill="none" stroke="rgb(0,0,0)" paint-order="fill stroke markers" d=" M 187.2471653394726 246.18943241260473 L 89.26894411801572 300.7561394919919" stroke-opacity="1" stroke-linejoin="round" stroke-miterlimit="10" stroke-width="7"/><path fill="rgb(0,0,0)" stroke="none" paint-order="stroke fill markers" d=" M 88.27932829282642 291.1011510775511 L 77.03786958762674 307.5679539222352 L 96.95618708649381 306.6810391795845 Z" fill-opacity="1"/><path fill="none" stroke="rgb(0,0,0)" paint-order="fill stroke markers" d=" M 192.97630862957823 194.34358662538534 Q 162.45456666384456 167.12465809320616 143.15549824410678 117.22743287672347" stroke-opacity="1" stroke-linejoin="round" stroke-miterlimit="10" stroke-width="7"/><path fill="rgb(0,0,0)" stroke="none" paint-order="stroke fill markers" d=" M 152.95601044757188 117.47345433783681 L 138.10521926343208 104.1700716495323 L 136.37298782327235 124.03273420982686 Z" fill-opacity="1"/><path fill="none" stroke="rgb(0,0,0)" paint-order="fill stroke markers" d=" M 308.20936364687935 333.63901481375376 L 261.86150501802456 271.5690212515189" stroke-opacity="1" stroke-linejoin="round" stroke-miterlimit="10" stroke-width="7"/><path fill="rgb(0,0,0)" stroke="none" paint-order="stroke fill markers" d=" M 271.2994470713763 269.3055304602794 L 253.48519312595295 260.3512942497266 L 257.01035652476475 279.97523913239695 Z" fill-opacity="1"/><path fill="none" stroke="rgb(0,0,0)" paint-order="fill stroke markers" d=" M 373.8777535982996 138.24975534655357 L 277.50772678666414 194.53755052441912" stroke-opacity="1" stroke-linejoin="round" stroke-miterlimit="10" stroke-width="7"/><path fill="rgb(0,0,0)" stroke="none" paint-order="stroke fill markers" d=" M 276.32054537517513 184.9048592566235 L 265.418752102034 201.59847759346405 L 285.3147227353911 200.30374120987267 Z" fill-opacity="1"/><path fill="none" stroke="rgb(0,0,0)" paint-order="fill stroke markers" d=" M 155.45720452597942 92.15070996642669 Q 185.9789464917131 119.36963849860587 205.27801491145087 169.26686371508856" stroke-opacity="1" stroke-linejoin="round" stroke-miterlimit="10" stroke-width="7"/><path fill="rgb(0,0,0)" stroke="none" paint-order="stroke fill markers" d=" M 195.47750270798576 169.0208422539752 L 210.32829389212557 182.32422494227973 L 212.06052533228532 162.46156238198517 Z" fill-opacity="1"/><path fill="rgb(212,147,90)" stroke="none" paint-order="stroke fill markers" d=" M 271.56133347286567 224.2943146011085 L 271.4226134908564 227.82497390886152 L 271.00730879964686 231.3338655279189 L 270.31797989076114 234.79935597462426 L 269.35887670614756 238.20007934798113 L 268.1359124358736 241.51506905753754 L 266.65662706134225 244.7238870893881 L 264.9301408687998 247.8067500133262 L 262.9670982197383 250.7446509542698 L 260.77960192486705 253.51947677596678 L 258.3811386262603 256.1141197545031 L 255.78649564772394 258.5125830531099 L 253.01166982602695 260.70007934798116 L 250.07376888508338 262.66312199704265 L 246.99090596114527 264.38960818958503 L 243.7820879292947 265.86889356411643 L 240.46709821973832 267.0918578343904 L 237.06637484638142 268.050961019004 L 233.60088439967606 268.7402899278897 L 230.09199278061868 269.15559461909925 L 226.56133347286567 269.2943146011085 L 223.03067416511266 269.15559461909925 L 219.52178254605528 268.7402899278897 L 216.05629209934992 268.050961019004 L 212.65556872599305 267.09185783439045 L 209.34057901643664 265.86889356411643 L 206.13176098458607 264.3896081895851 L 203.04889806064799 262.66312199704265 L 200.1109971197044 260.70007934798116 L 197.3361712980074 258.5125830531099 L 194.74152831947103 256.1141197545031 L 192.3430650208643 253.51947677596678 L 190.15556872599305 250.74465095426982 L 188.19252607693153 247.80675001332622 L 186.46603988438912 244.7238870893881 L 184.98675450985778 241.51506905753754 L 183.76379023958376 238.20007934798116 L 182.80468705497023 234.79935597462426 L 182.11535814608447 231.3338655279189 L 181.7000534548749 227.82497390886155 L 181.56133347286567 224.2943146011085 L 181.7000534548749 220.7636552933555 L 182.11535814608447 217.25476367429812 L 182.8046870549702 213.7892732275928 L 183.76379023958376 210.3885498542359 L 184.98675450985775 207.07356014467948 L 186.46603988438912 203.8647421128289 L 188.19252607693153 200.78187918889083 L 190.15556872599302 197.84397824794723 L 192.3430650208643 195.06915242625024 L 194.74152831947103 192.47450944771387 L 197.3361712980074 190.07604614910713 L 200.11099711970436 187.8885498542359 L 203.04889806064799 185.92550720517437 L 206.1317609845861 184.19902101263193 L 209.34057901643666 182.7197356381006 L 212.6555687259931 181.49677136782657 L 216.05629209935 180.53766818321304 L 219.5217825460554 179.8483392743273 L 223.03067416511277 179.43303458311775 L 226.5613334728658 179.2943146011085 L 230.09199278061885 179.43303458311777 L 233.60088439967626 179.84833927432734 L 237.06637484638162 180.5376681832131 L 240.46709821973852 181.49677136782668 L 243.78208792929493 182.7197356381007 L 246.99090596114553 184.19902101263207 L 250.0737688850836 185.9255072051745 L 253.0116698260272 187.88854985423606 L 255.7864956477242 190.07604614910733 L 258.38113862626057 192.47450944771413 L 260.7796019248673 195.06915242625053 L 262.96709821973855 197.84397824794752 L 264.93014086880004 200.78187918889117 L 266.6566270613424 203.86474211282928 L 268.13591243587376 207.07356014467987 L 269.3588767061477 210.38854985423632 L 270.31797989076125 213.78927322759324 L 271.0073087996469 217.25476367429863 L 271.42261349085646 220.763655293356 Z" fill-opacity="1"/><text fill="rgb(0,0,0)" stroke="none" font-family="Helvetica Neue, Helvetica, sans-serif" font-size="16px" font-style="normal" font-weight="normal" text-decoration="normal" x="226.56133347286567" y="232.2943146011085" text-anchor="middle" dominant-baseline="text-after-edge" fill-opacity="1">Central Bus</text><path fill="rgb(90,155,212)" stroke="none" paint-order="stroke fill markers" d=" M 380.13322329996663 369.69599446237186 L 379.99450331795737 373.22665377012487 L 379.5791986267478 376.7355453891822 L 378.8898697178621 380.2010358358876 L 377.9307665332485 383.6017592092445 L 376.70780226297455 386.9167489188009 L 375.2285168884432 390.12556695065143 L 373.50203069590077 393.20842987458957 L 371.5389880468393 396.14633081553313 L 369.351491751968 398.9211566372301 L 366.9530284533613 401.51579961576647 L 364.3583854748249 403.91426291437324 L 361.5835596531279 406.1017592092445 L 358.64565871218434 408.064801858306 L 355.56279578824626 409.7912880508484 L 352.3539777563957 411.2705734253798 L 349.0389880468393 412.49353769565374 L 345.63826467348235 413.4526408802673 L 342.172774226777 414.14196978915305 L 338.66388260771964 414.5572744803626 L 335.13322329996663 414.69599446237186 L 331.6025639922136 414.5572744803626 L 328.09367237315627 414.14196978915305 L 324.6281819264509 413.4526408802673 L 321.227458553094 412.4935376956538 L 317.91246884353757 411.2705734253798 L 314.70365081168706 409.79128805084844 L 311.6207878877489 408.064801858306 L 308.68288694680535 406.1017592092445 L 305.90806112510836 403.91426291437324 L 303.313418146572 401.51579961576647 L 300.91495484796525 398.9211566372301 L 298.727458553094 396.14633081553313 L 296.7644159040325 393.20842987458957 L 295.03792971149005 390.1255669506515 L 293.5586443369587 386.9167489188009 L 292.33568006668474 383.6017592092445 L 291.37657688207116 380.2010358358876 L 290.68724797318544 376.7355453891823 L 290.2719432819759 373.22665377012487 L 290.13322329996663 369.69599446237186 L 290.2719432819759 366.16533515461884 L 290.68724797318544 362.6564435355615 L 291.37657688207116 359.19095308885613 L 292.33568006668474 355.7902297154992 L 293.5586443369587 352.47524000594285 L 295.03792971149005 349.2664219740923 L 296.7644159040325 346.18355905015414 L 298.727458553094 343.2456581092106 L 300.91495484796525 340.4708322875136 L 303.31341814657196 337.87618930897725 L 305.90806112510836 335.4777260103705 L 308.68288694680535 333.2902297154992 L 311.6207878877489 331.3271870664377 L 314.70365081168706 329.6007008738953 L 317.9124688435376 328.12141549936393 L 321.22745855309404 326.8984512290899 L 324.62818192645096 325.9393480444764 L 328.0936723731563 325.25001913559066 L 331.60256399221373 324.8347144443811 L 335.1332232999668 324.69599446237186 L 338.6638826077198 324.8347144443811 L 342.1727742267772 325.2500191355907 L 345.6382646734826 325.93934804447645 L 349.0389880468395 326.89845122909 L 352.3539777563959 328.12141549936405 L 355.5627957882465 329.60070087389545 L 358.64565871218457 331.3271870664379 L 361.5835596531282 333.29022971549944 L 364.3583854748251 335.4777260103707 L 366.9530284533615 337.8761893089775 L 369.35149175196824 340.4708322875139 L 371.5389880468395 343.24565810921086 L 373.502030695901 346.1835590501545 L 375.2285168884434 349.2664219740926 L 376.7078022629747 352.47524000594325 L 377.9307665332487 355.79022971549966 L 378.8898697178622 359.1909530888566 L 379.57919862674794 362.65644353556195 L 379.9945033179574 366.16533515461936 Z" fill-opacity="1"/><text fill="rgb(0,0,0)" stroke="none" font-family="Helvetica Neue, Helvetica, sans-serif" font-size="16px" font-style="normal" font-weight="normal" text-decoration="normal" x="335.13322329996663" y="377.69599446237186" text-anchor="middle" dominant-baseline="text-after-edge" fill-opacity="1">Initial Charge</text><path fill="rgb(122,195,106)" stroke="none" paint-order="stroke fill markers" d=" M 457.7351722274679 115.55391833890911 L 457.59645224545864 119.08457764666214 L 457.1811475542491 122.5934692657195 L 456.49181864536337 126.05895971242485 L 455.5327154607498 129.45968308578173 L 454.3097511904758 132.77467279533815 L 452.8304658159445 135.98349082718872 L 451.10397962340204 139.0663537511268 L 449.14093697434055 142.0042546920704 L 446.9534406794693 144.77908051376738 L 444.5549773808625 147.37372349230375 L 441.96033440232617 149.7721867909105 L 439.1855085806292 151.95968308578176 L 436.2476076396856 153.92272573484325 L 433.16474471574753 155.64921192738566 L 429.95592668389696 157.128497301917 L 426.64093697434055 158.35146157219103 L 423.2402136009836 159.31056475680455 L 419.77472315427826 159.9998936656903 L 416.2658315352209 160.41519835689988 L 412.7351722274679 160.5539183389091 L 409.2045129197149 160.41519835689988 L 405.69562130065754 159.9998936656903 L 402.2301308539522 159.31056475680458 L 398.82940748059525 158.35146157219103 L 395.51441777103884 157.128497301917 L 392.3055997391883 155.64921192738566 L 389.2227368152502 153.92272573484325 L 386.2848358743066 151.95968308578176 L 383.51001005260963 149.7721867909105 L 380.9153670740733 147.37372349230375 L 378.5169037754665 144.77908051376738 L 376.32940748059525 142.00425469207042 L 374.36636483153376 139.06635375112683 L 372.6398786389914 135.98349082718872 L 371.16059326446 132.77467279533815 L 369.937628994186 129.45968308578176 L 368.97852580957243 126.05895971242487 L 368.2891969006867 122.5934692657195 L 367.87389220947716 119.08457764666214 L 367.7351722274679 115.55391833890911 L 367.87389220947716 112.0232590311561 L 368.2891969006867 108.51436741209874 L 368.97852580957243 105.04887696539338 L 369.93762899418596 101.6481535920365 L 371.16059326446 98.33316388248008 L 372.6398786389913 95.12434585062951 L 374.36636483153376 92.04148292669143 L 376.32940748059525 89.10358198574782 L 378.5169037754665 86.32875616405086 L 380.91536707407323 83.73411318551447 L 383.51001005260963 81.33564988690773 L 386.2848358743066 79.1481535920365 L 389.2227368152502 77.18511094297496 L 392.3055997391883 75.45862475043253 L 395.5144177710389 73.97933937590119 L 398.8294074805953 72.75637510562717 L 402.23013085395223 71.79727192101365 L 405.6956213006576 71.10794301212789 L 409.204512919715 70.69263832091835 L 412.73517222746807 70.55391833890911 L 416.2658315352211 70.69263832091838 L 419.7747231542785 71.10794301212795 L 423.24021360098385 71.7972719210137 L 426.6409369743408 72.75637510562728 L 429.9559266838972 73.9793393759013 L 433.16474471574776 75.45862475043268 L 436.24760763968584 77.18511094297511 L 439.18550858062946 79.14815359203666 L 441.9603344023264 81.33564988690793 L 444.5549773808628 83.73411318551473 L 446.9534406794695 86.32875616405113 L 449.1409369743408 89.10358198574814 L 451.10397962340227 92.04148292669177 L 452.83046581594465 95.1243458506299 L 454.309751190476 98.33316388248049 L 455.53271546074996 101.64815359203692 L 456.4918186453635 105.04887696539384 L 457.18114755424915 108.51436741209923 L 457.5964522454587 112.02325903115661 Z" fill-opacity="1"/><text fill="rgb(0,0,0)" stroke="none" font-family="Helvetica Neue, Helvetica, sans-serif" font-size="16px" font-style="normal" font-weight="normal" text-decoration="normal" x="412.7351722274679" y="123.55391833890911" text-anchor="middle" dominant-baseline="text-after-edge" fill-opacity="1">Expensive</text><path fill="rgb(250,167,88)" stroke="none" paint-order="stroke fill markers" d=" M 82.72370145423366 329.4630717337314 L 82.58498147222441 332.9937310414844 L 82.16967678101486 336.50262266054176 L 81.4803478721291 339.9681131072471 L 80.52124468751556 343.36883648060405 L 79.29828041724156 346.68382619016046 L 77.81899504271021 349.892644222011 L 76.0925088501678 352.9755071459491 L 74.12946620110628 355.9134080868927 L 71.94196990623504 358.68823390858967 L 69.5435066076283 361.282876887126 L 66.94886362909192 363.6813401857328 L 64.17403780739494 365.86883648060405 L 61.23613686645136 367.83187912966554 L 58.153273942513266 369.5583653222079 L 54.9444559106627 371.0376506967393 L 51.62946620110629 372.2606149670133 L 48.2287428277494 373.21971815162686 L 44.76325238104405 373.9090470605126 L 41.25436076198668 374.32435175172213 L 37.723701454233655 374.4630717337314 L 34.193042146480636 374.32435175172213 L 30.68415052742327 373.9090470605126 L 27.218660080717918 373.21971815162686 L 23.817936707361024 372.26061496701334 L 20.502946997804617 371.0376506967393 L 17.294128965954055 369.558365322208 L 14.21126604201596 367.83187912966554 L 11.273365101072368 365.86883648060405 L 8.498539279375397 363.6813401857328 L 5.903896300839019 361.282876887126 L 3.505433002232266 358.68823390858967 L 1.317936707361028 355.9134080868927 L -0.6451059417004927 352.9755071459491 L -2.3715921342428956 349.89264422201103 L -3.8508775087742464 346.68382619016046 L -5.0738417790482515 343.36883648060405 L -6.032944963661791 339.9681131072471 L -6.7222738725475395 336.5026226605418 L -7.137578563757103 332.9937310414844 L -7.276298545766345 329.4630717337314 L -7.137578563757103 325.9324124259784 L -6.722273872547547 322.42352080692103 L -6.032944963661798 318.9580303602157 L -5.073841779048259 315.55730698685875 L -3.8508775087742535 312.2423172773024 L -2.3715921342429027 309.0334992454518 L -0.6451059417004998 305.9506363215137 L 1.3179367073610138 303.0127353805701 L 3.505433002232259 300.2379095588731 L 5.903896300839008 297.6432665803368 L 8.498539279375372 295.24480328173 L 11.273365101072358 293.05730698685875 L 14.211266042015968 291.09426433779726 L 17.29412896595408 289.3677781452548 L 20.502946997804663 287.8884927707235 L 23.817936707361092 286.66552850044945 L 27.218660080718003 285.70642531583593 L 30.684150527423377 285.0170964069502 L 34.193042146480764 284.60179171574066 L 37.723701454233804 284.4630717337314 L 41.254360761986845 284.60179171574066 L 44.76325238104423 285.01709640695026 L 48.228742827749606 285.706425315836 L 51.62946620110651 286.66552850044957 L 54.944455910662924 287.8884927707236 L 58.1532739425135 289.367778145255 L 61.2361368664516 291.0942643377974 L 64.1740378073952 293.057306986859 L 66.94886362909217 295.24480328173024 L 69.54350660762854 297.643266580337 L 71.94196990623529 300.2379095588734 L 74.12946620110651 303.0127353805704 L 76.09250885016802 305.950636321514 L 77.81899504271041 309.03349924545216 L 79.29828041724173 312.2423172773028 L 80.52124468751572 315.5573069868592 L 81.48034787212922 318.9580303602161 L 82.16967678101494 322.4235208069215 L 82.58498147222446 325.9324124259789 Z" fill-opacity="1"/><text fill="rgb(0,0,0)" stroke="none" font-family="Helvetica Neue, Helvetica, sans-serif" font-size="16px" font-style="normal" font-weight="normal" text-decoration="normal" x="37.723701454233655" y="337.4630717337314" text-anchor="middle" dominant-baseline="text-after-edge" fill-opacity="1">Demand</text><path fill="rgb(206,112,88)" stroke="none" paint-order="stroke fill markers" d=" M 166.87217968269198 62.19998199070352 L 166.73345970068274 65.73064129845655 L 166.31815500947317 69.23953291751391 L 165.62882610058742 72.70502336421926 L 164.6697229159739 76.10574673757615 L 163.44675864569987 79.42073644713255 L 161.96747327116853 82.62955447898312 L 160.24098707862612 85.71241740292122 L 158.27794442956463 88.65031834386481 L 156.09044813469336 91.42514416556179 L 153.69198483608662 94.01978714409816 L 151.09734185755025 96.4182504427049 L 148.32251603585325 98.60574673757615 L 145.3846150949097 100.56878938663766 L 142.30175217097158 102.29527557918007 L 139.092934139121 103.77456095371141 L 135.77794442956463 104.99752522398543 L 132.37722105620773 105.95662840859896 L 128.91173060950237 106.64595731748472 L 125.402838990445 107.06126200869429 L 121.87217968269198 107.19998199070352 L 118.34152037493897 107.06126200869429 L 114.83262875588159 106.64595731748472 L 111.36713830917624 105.95662840859897 L 107.96641493581934 104.99752522398543 L 104.65142522626294 103.77456095371141 L 101.44260719441237 102.29527557918007 L 98.35974427047428 100.56878938663768 L 95.42184332953069 98.60574673757615 L 92.64701750783372 96.41825044270492 L 90.05237452929734 94.01978714409816 L 87.6539112306906 91.42514416556179 L 85.46641493581936 88.65031834386483 L 83.50337228675784 85.71241740292122 L 81.77688609421543 82.62955447898312 L 80.29760071968408 79.42073644713257 L 79.07463644941006 76.10574673757615 L 78.11553326479654 72.70502336421927 L 77.42620435591078 69.23953291751391 L 77.01089966470121 65.73064129845655 L 76.87217968269198 62.19998199070353 L 77.01089966470121 58.6693226829505 L 77.42620435591078 55.160431063893135 L 78.11553326479653 51.69494061718778 L 79.07463644941006 48.29421724383089 L 80.29760071968407 44.979227534274486 L 81.77688609421543 41.77040950242392 L 83.50337228675782 38.68754657848583 L 85.46641493581933 35.74964563754223 L 87.65391123069058 32.974819815845265 L 90.05237452929734 30.380176837308884 L 92.6470175078337 27.981713538702145 L 95.42184332953067 25.794217243830893 L 98.3597442704743 23.831174594769365 L 101.4426071944124 22.104688402226948 L 104.65142522626299 20.625403027695597 L 107.96641493581942 19.402438757421585 L 111.36713830917633 18.443335572808053 L 114.8326287558817 17.754006663922304 L 118.3415203749391 17.338701972712755 L 121.87217968269213 17.19998199070352 L 125.40283899044518 17.338701972712776 L 128.91173060950257 17.754006663922354 L 132.37722105620793 18.443335572808117 L 135.77794442956483 19.402438757421685 L 139.09293413912124 20.62540302769571 L 142.30175217097184 22.10468840222709 L 145.38461509490992 23.83117459476952 L 148.3225160358535 25.79421724383107 L 151.0973418575505 27.981713538702344 L 153.69198483608687 30.38017683730913 L 156.09044813469362 32.974819815845535 L 158.27794442956485 35.74964563754254 L 160.24098707862635 38.68754657848617 L 161.96747327116873 41.7704095024243 L 163.44675864570007 44.9792275342749 L 164.66972291597403 48.29421724383133 L 165.62882610058753 51.69494061718825 L 166.31815500947326 55.16043106389363 L 166.73345970068277 58.66932268295103 Z" fill-opacity="1"/><text fill="rgb(0,0,0)" stroke="none" font-family="Helvetica Neue, Helvetica, sans-serif" font-size="16px" font-style="normal" font-weight="normal" text-decoration="normal" x="121.87217968269198" y="70.19998199070352" text-anchor="middle" dominant-baseline="text-after-edge" fill-opacity="1">Battery</text><g transform="scale(0.5265217786485754,0.5265217786485754) translate(-471.61546340895075,-31.89925667000273)"/></g></svg>